<?xml version="1.0" encoding="utf-8"?>
<!-- Generator: Adobe Illustrator 16.0.0, SVG Export Plug-In . SVG Version: 6.00 Build 0)  -->
<!DOCTYPE svg PUBLIC "-//W3C//DTD SVG 1.1//EN" "http://www.w3.org/Graphics/SVG/1.1/DTD/svg11.dtd">
<svg version="1.1" id="Layer_1" xmlns="http://www.w3.org/2000/svg" xmlns:xlink="http://www.w3.org/1999/xlink" x="0px" y="0px"
	 width="33px" height="34px" viewBox="0 0 33 34" enable-background="new 0 0 33 34" xml:space="preserve">
<g>
	<g>
		<path fill="#FFAB00" d="M29.5,17.8c0,6.9-5.6,12.4-12.4,12.4c-6.9,0-12.4-5.6-12.4-12.4c0-6.9,5.6-12.4,12.4-12.4
			C24,5.3,29.5,10.9,29.5,17.8z"/>
		<path fill="#37474F" d="M17.1,30.7c-7.1,0-12.9-5.8-12.9-12.9c0-7.1,5.8-12.9,12.9-12.9S30,10.6,30,17.8
			C30,24.9,24.2,30.7,17.1,30.7z M17.1,5.8c-6.6,0-11.9,5.4-11.9,11.9c0,6.6,5.4,11.9,11.9,11.9S29,24.4,29,17.8
			C29,11.2,23.7,5.8,17.1,5.8z"/>
	</g>
	<g>
		<path fill="#FFFFFF" d="M21,30.6c0,1.3-0.7,2.4-2,2.4h-3.8c-1.3,0-2.2-1.2-2.2-2.4v-3.8c0-1.3,0.9-2.8,2.2-2.8H19
			c1.3,0,2,1.5,2,2.8V30.6z"/>
		<path fill="#37474F" d="M19,33.5h-3.8c-1.5,0-2.7-1.3-2.7-2.9v-3.8c0-1.5,1.1-3.3,2.7-3.3H19c1.6,0,2.5,1.7,2.5,3.3v3.8
			C21.5,32.3,20.4,33.5,19,33.5z M15.2,24.5c-1,0-1.7,1.2-1.7,2.3v3.8c0,0.9,0.6,1.9,1.7,1.9H19c1,0,1.5-1,1.5-1.9v-3.8
			c0-1.1-0.6-2.3-1.5-2.3H15.2z"/>
	</g>
	<g>
		<g>
			<path fill="#37474F" d="M17.5,26v2h2v1h-2v2h-1v-2h-2v-1h2v-2H17.5z"/>
			<path fill="#37474F" d="M17.5,31.5h-1c-0.3,0-0.5-0.2-0.5-0.5v-1.5h-1.5c-0.3,0-0.5-0.2-0.5-0.5v-1c0-0.3,0.2-0.5,0.5-0.5H16V26
				c0-0.3,0.2-0.5,0.5-0.5h1c0.3,0,0.5,0.2,0.5,0.5v1.5h1.5c0.3,0,0.5,0.2,0.5,0.5v1c0,0.3-0.2,0.5-0.5,0.5H18V31
				C18,31.3,17.8,31.5,17.5,31.5z M15,28.5h1.5c0.3,0,0.5,0.2,0.5,0.5c0-0.3,0.2-0.5,0.5-0.5c-0.3,0-0.5-0.2-0.5-0.5
				c0,0.3-0.2,0.5-0.5,0.5H15z"/>
		</g>
	</g>
	<g>
		<path fill="#FFFFFF" d="M19.8,20c0,0.7-0.6,1-1.3,1h-2.7c-0.7,0-1.3-0.2-1.3-1L13.1,2.2c0-0.7,0.6-1.2,1.3-1.2h5.4
			c0.7,0,1.3,0.5,1.3,1.2L19.8,20z"/>
		<path fill="#37474F" d="M18.5,21.5h-2.7c-1.1,0-1.8-0.5-1.8-1.5L12.6,2.3c0-1,0.8-1.8,1.8-1.8h5.4c1,0,1.8,0.7,1.8,1.7l-1.3,17.8
			C20.3,21,19.6,21.5,18.5,21.5z M14.4,1.5c-0.4,0-0.8,0.3-0.8,0.7L14.9,20c0,0.2,0,0.5,0.8,0.5h2.7c0.8,0,0.8-0.3,0.8-0.5l1.3-17.8
			c0-0.4-0.4-0.7-0.8-0.7H14.4z"/>
	</g>
	<g>
		<g>
			<path fill="#37474F" d="M17.1,8c-0.3,0-0.6-0.3-0.6-0.6c0-0.3,0.3-0.6,0.6-0.6s0.6,0.3,0.6,0.6C17.7,7.7,17.4,8,17.1,8z"/>
			<path fill="#37474F" d="M17.1,8.5C16.5,8.5,16,8,16,7.4c0-0.6,0.5-1.1,1.1-1.1c0.6,0,1.1,0.5,1.1,1.1C18.2,8,17.7,8.5,17.1,8.5z"
				/>
		</g>
		<g>
			<path fill="#37474F" d="M17.1,12c-0.3,0-0.6-0.3-0.6-0.6c0-0.3,0.3-0.6,0.6-0.6s0.6,0.3,0.6,0.6C17.7,11.8,17.4,12,17.1,12z"/>
			<ellipse fill="#37474F" cx="17.1" cy="11.4" rx="1.1" ry="1.1"/>
		</g>
		<g>
			<path fill="#37474F" d="M17.1,16c-0.3,0-0.6-0.3-0.6-0.6c0-0.3,0.3-0.6,0.6-0.6s0.6,0.3,0.6,0.6C17.7,15.8,17.4,16,17.1,16z"/>
			<path fill="#37474F" d="M17.1,16.5c-0.6,0-1.1-0.5-1.1-1.1c0-0.6,0.5-1.1,1.1-1.1c0.6,0,1.1,0.5,1.1,1.1
				C18.2,16.1,17.7,16.5,17.1,16.5z"/>
		</g>
	</g>
</g>
</svg>
