<?xml version="1.0" encoding="utf-8"?>
<!-- Generator: Adobe Illustrator 20.0.0, SVG Export Plug-In . SVG Version: 6.00 Build 0)  -->
<svg version="1.1" id="Layer_1" xmlns="http://www.w3.org/2000/svg" xmlns:xlink="http://www.w3.org/1999/xlink" x="0px" y="0px"
	 viewBox="0 0 64 64" style="enable-background:new 0 0 64 64;" xml:space="preserve">
<style type="text/css">
	.st0{fill:#FFFFFF;}
	.st1{fill:#37474F;}
	.st2{fill:#FFECB3;}
</style>
<g>
	<g>
		<path class="st0" d="M61,43.7c0,2.9-2.4,5.3-5.3,5.3H8.3C5.4,49,3,46.6,3,43.7v-3.4C3,37.4,5.4,35,8.3,35h47.4
			c2.9,0,5.3,2.4,5.3,5.3V43.7z"/>
		<path class="st1" d="M55.7,50H8.3C4.8,50,2,47.2,2,43.7v-3.4C2,36.8,4.8,34,8.3,34h47.4c3.5,0,6.3,2.8,6.3,6.3v3.4
			C62,47.2,59.2,50,55.7,50z M8.3,36C5.9,36,4,37.9,4,40.3v3.4C4,46.1,5.9,48,8.3,48h47.4c2.4,0,4.3-1.9,4.3-4.3v-3.4
			c0-2.4-1.9-4.3-4.3-4.3H8.3z"/>
	</g>
	<g>
		<polyline class="st2" points="9.2,38.9 12.3,42.1 9.2,45.3 		"/>
		<path class="st1" d="M9.2,46.3c-0.3,0-0.5-0.1-0.7-0.3c-0.4-0.4-0.4-1,0-1.4l2.5-2.5l-2.5-2.5c-0.4-0.4-0.4-1,0-1.4s1-0.4,1.4,0
			l3.2,3.2c0.2,0.2,0.3,0.4,0.3,0.7s-0.1,0.5-0.3,0.7L9.9,46C9.7,46.2,9.4,46.3,9.2,46.3z"/>
	</g>
	<g>
		<polygon class="st2" points="30.3,13.7 33.9,18.2 39.7,17.7 36.6,22.6 38.8,27.9 33.2,26.5 28.8,30.2 28.5,24.5 23.5,21.4 
			29,19.3 		"/>
		<path class="st1" d="M28.9,30.8c-0.1,0-0.2,0-0.4,0c-0.2-0.1-0.4-0.3-0.4-0.5l-0.3-5.5L23.2,22c-0.2-0.1-0.3-0.4-0.3-0.5
			c0-0.2,0.2-0.4,0.4-0.5l5.1-2l1.3-5.3c0.1-0.5,0.8-0.6,1.1-0.2l3.5,4.2l5.5-0.5c0.2,0,0.5,0.1,0.6,0.3c0.1,0.2,0.1,0.5,0,0.6
			l-3,4.6l2.1,5.1c0.1,0.2,0,0.5-0.1,0.6c-0.1,0.2-0.4,0.3-0.6,0.2l-5.3-1.4l-4.2,3.6C29.1,30.8,29.1,30.8,28.9,30.8z M33.1,25.9
			c0.1,0,0.2,0,0.3,0l4.4,1.2L36,22.8c-0.1-0.2,0-0.4,0.1-0.6l2.5-3.9L34,18.7c-0.2,0-0.4-0.1-0.5-0.2L30.6,15l-1,4.5
			c0,0.2-0.2,0.3-0.4,0.4l-4.3,1.7l3.9,2.4c0.1,0.1,0.3,0.3,0.3,0.5l0.3,4.6l3.5-3C32.9,25.9,33,25.9,33.1,25.9z"/>
	</g>
</g>
</svg>
