<?xml version="1.0" encoding="utf-8"?>
<!-- Generator: Adobe Illustrator 16.0.0, SVG Export Plug-In . SVG Version: 6.00 Build 0)  -->
<!DOCTYPE svg PUBLIC "-//W3C//DTD SVG 1.1//EN" "http://www.w3.org/Graphics/SVG/1.1/DTD/svg11.dtd">
<svg version="1.1" id="Layer_1" xmlns="http://www.w3.org/2000/svg" xmlns:xlink="http://www.w3.org/1999/xlink" x="0px" y="0px"
	 width="33px" height="33px" viewBox="0 0 33 33" enable-background="new 0 0 33 33" xml:space="preserve">
<g>
	<g>
		<path fill="#78909C" d="M26.3,27.3c-5.5,5.5-14.5,5.5-20,0c-5.5-5.5-5.5-14.5,0-20c5.5-5.5,14.5-5.5,20,0
			C31.8,12.8,31.8,21.8,26.3,27.3z"/>
		<path fill="#37474F" d="M16.3,31.9c-3.9,0-7.6-1.5-10.3-4.3c-5.7-5.7-5.7-15,0-20.7c2.8-2.8,6.4-4.3,10.3-4.3s7.6,1.5,10.3,4.3
			c5.7,5.7,5.7,15,0,20.7C23.9,30.4,20.2,31.9,16.3,31.9z M16.3,3.7c-3.6,0-7.1,1.4-9.6,4c-5.3,5.3-5.3,14,0,19.3c2.6,2.6,6,4,9.6,4
			s7.1-1.4,9.6-4c5.3-5.3,5.3-14,0-19.3C23.3,5.1,19.9,3.7,16.3,3.7z"/>
	</g>
	<g>
		<path fill="#FFFFFF" d="M30.2,19.4c-0.8,5.1-7.6,8.3-15.3,7.1C7.2,25.3,1.5,20.3,2.3,15.2C3,10.1,9.9,7,17.6,8.1
			C25.4,9.2,31,14.3,30.2,19.4z"/>
		<path fill="#37474F" d="M18,27.2c-1,0-2.1-0.1-3.2-0.2c-8-1.2-13.8-6.5-13-11.8c0.7-4.6,5.9-7.8,12.7-7.8c1.1,0,2.1,0.1,3.2,0.2
			c3.8,0.6,7.3,2.1,9.7,4.3c2.5,2.2,3.7,4.9,3.3,7.6C30.1,24,24.8,27.2,18,27.2z M14.5,8.4c-6.2,0-11.1,2.9-11.7,6.9
			C2.1,20.1,7.6,24.9,15,26c1,0.1,2,0.2,3,0.2c6.2,0,11.1-2.9,11.7-6.9c0.3-2.3-0.7-4.6-3-6.7c-2.3-2.1-5.6-3.5-9.2-4
			C16.5,8.4,15.5,8.4,14.5,8.4z"/>
	</g>
	<g>
		<g>
			<g>
				<path fill="#FFAB00" d="M23.6,24.7c-5.5,5.5-13.3,6.7-17.4,2.6C2.2,23.2,3.4,15.4,8.9,9.9c5.5-5.5,13.3-6.7,17.4-2.6
					C30.3,11.4,29.2,19.1,23.6,24.7z"/>
				<path fill="#37474F" d="M12.6,30.2c-2.7,0-5-0.9-6.7-2.6C1.7,23.4,2.8,15.3,8.6,9.6C11.9,6.3,16,4.4,20,4.4c2.7,0,5,0.9,6.7,2.6
					c4.3,4.3,3.1,12.4-2.6,18.1C20.7,28.3,16.5,30.2,12.6,30.2z M20,5.4c-3.6,0-7.6,1.8-10.7,4.9c-5.3,5.3-6.5,12.8-2.6,16.7
					c1.5,1.5,3.6,2.3,6,2.3c3.6,0,7.6-1.8,10.7-4.9c5.3-5.3,6.5-12.8,2.6-16.7C24.4,6.2,22.4,5.4,20,5.4z"/>
			</g>
			<g>
				<path fill="#FFECB3" d="M18.2,19.2c-5.5,5.5-10.8,9.1-11.9,8.1c-1-1,2.6-6.4,8.1-11.9c5.5-5.5,10.8-9.1,11.9-8.1
					C27.3,8.3,23.7,13.7,18.2,19.2z"/>
				<path fill="#37474F" d="M6.8,28c-0.4,0-0.7-0.1-0.9-0.3c-0.7-0.7-0.2-2.3,1.5-4.9c1.5-2.3,3.9-5,6.6-7.7c5-5,9.8-8.4,11.7-8.4
					c0.4,0,0.7,0.1,0.9,0.3c1.8,1.8-4.5,9-8.1,12.6C13.6,24.5,8.8,28,6.8,28z M25.7,7.6c-1.4,0-5.7,2.8-11,8.1
					c-2.6,2.6-4.9,5.3-6.5,7.5c-1.8,2.6-1.7,3.5-1.6,3.6c0,0,0.1,0,0.2,0c1.4,0,5.7-2.9,11-8.1c6.2-6.2,8.6-10.7,8.1-11.2
					C25.9,7.6,25.9,7.6,25.7,7.6z"/>
			</g>
			<g>
				<path fill="#37474F" d="M21,29.8c-3.8,0-8.2-2.1-11.7-5.5C3.6,18.5,2.1,10.8,5.9,6.9c1.4-1.4,3.3-2.1,5.6-2.1
					c3.8,0,8.2,2.1,11.7,5.5c5.7,5.7,7.2,13.5,3.4,17.3C25.2,29,23.3,29.8,21,29.8z M11.5,5.8c-2,0-3.7,0.6-4.9,1.8
					c-3.4,3.4-1.9,10.5,3.4,15.9c3.3,3.3,7.4,5.2,11,5.2c2,0,3.7-0.6,4.9-1.8c3.4-3.4,1.9-10.5-3.4-15.9C19.2,7.8,15.1,5.8,11.5,5.8
					z"/>
			</g>
			<g>
				
					<rect x="2.2" y="16.8" transform="matrix(0.7071 0.7071 -0.7071 0.7071 16.9938 -6.4424)" fill="#37474F" width="28.2" height="1"/>
			</g>
		</g>
		<g>
			<g>
				<path fill="#37474F" d="M21.1,12.5c-0.1-0.1-0.1-0.4,0-0.5c0.1-0.1,0.4-0.1,0.5,0c0.1,0.2,0.1,0.4,0,0.5
					C21.5,12.6,21.2,12.6,21.1,12.5z"/>
				<path fill="#37474F" d="M21.3,13.1c-0.2,0-0.5-0.1-0.6-0.3c-0.3-0.3-0.3-0.9,0-1.2c0.3-0.3,0.9-0.3,1.2,0c0.3,0.3,0.3,0.9,0,1.2
					C21.8,13,21.6,13.1,21.3,13.1z"/>
			</g>
			<g>
				<path fill="#37474F" d="M19.2,14.4c-0.1-0.1-0.1-0.4,0-0.5c0.1-0.1,0.4-0.1,0.5,0c0.1,0.1,0.1,0.4,0,0.5
					C19.6,14.5,19.4,14.5,19.2,14.4z"/>
				<path fill="#37474F" d="M19.5,15c-0.2,0-0.5-0.1-0.6-0.3c-0.2-0.2-0.3-0.4-0.3-0.6s0.1-0.5,0.3-0.6c0.3-0.3,0.9-0.3,1.2,0
					c0.3,0.3,0.3,0.9,0,1.3C19.9,14.9,19.7,15,19.5,15z"/>
			</g>
			<g>
				<path fill="#37474F" d="M17.3,16.2c-0.1-0.2-0.1-0.4,0-0.5c0.2-0.2,0.4-0.2,0.5,0c0.2,0.2,0.2,0.4,0,0.5
					C17.7,16.4,17.5,16.4,17.3,16.2z"/>
				<path fill="#37474F" d="M17.6,16.9c-0.2,0-0.5-0.1-0.6-0.3c-0.2-0.2-0.3-0.4-0.3-0.6c0-0.2,0.1-0.5,0.3-0.6
					c0.3-0.3,0.9-0.3,1.2,0c0.3,0.3,0.3,0.9,0,1.2C18,16.8,17.8,16.9,17.6,16.9z"/>
			</g>
		</g>
	</g>
</g>
</svg>
