<?xml version="1.0" encoding="utf-8"?>
<!-- Generator: Adobe Illustrator 16.0.0, SVG Export Plug-In . SVG Version: 6.00 Build 0)  -->
<!DOCTYPE svg PUBLIC "-//W3C//DTD SVG 1.1//EN" "http://www.w3.org/Graphics/SVG/1.1/DTD/svg11.dtd">
<svg version="1.1" id="Layer_1" xmlns="http://www.w3.org/2000/svg" xmlns:xlink="http://www.w3.org/1999/xlink" x="0px" y="0px"
	 width="33px" height="33px" viewBox="0 0 33 33" enable-background="new 0 0 33 33" xml:space="preserve">
<g>
	<g>
		<rect x="5.5" y="6.5" fill="#78909C" width="22" height="25"/>
		<path fill="#37474F" d="M28,32H5V6h23V32z M6,31h21V7H6V31z"/>
	</g>
	<g>
		<rect x="3.5" y="4.5" fill="#FFFFFF" width="22" height="25"/>
		<path fill="#37474F" d="M25.5,30h-22C3.2,30,3,29.8,3,29.5v-25C3,4.2,3.2,4,3.5,4h22C25.8,4,26,4.2,26,4.5v25
			C26,29.8,25.8,30,25.5,30z M4,29h21V5H4V29z"/>
	</g>
	<g>
		<circle fill="#FFAB00" cx="14.5" cy="25.7" r="1.8"/>
		<path fill="#37474F" d="M14.5,28c-1.3,0-2.3-1-2.3-2.3s1-2.3,2.3-2.3c1.3,0,2.3,1,2.3,2.3S15.8,28,14.5,28z M14.5,24.3
			c-0.7,0-1.3,0.6-1.3,1.3s0.6,1.3,1.3,1.3c0.7,0,1.3-0.6,1.3-1.3S15.2,24.3,14.5,24.3z"/>
	</g>
	<g>
		<g>
			<circle fill="#78909C" cx="7.6" cy="13.1" r="0.8"/>
			<path fill="#37474F" d="M7.6,14.4c-0.7,0-1.3-0.6-1.3-1.3c0-0.7,0.6-1.3,1.3-1.3c0.7,0,1.3,0.6,1.3,1.3
				C8.9,13.8,8.4,14.4,7.6,14.4z M7.6,12.8c-0.2,0-0.3,0.1-0.3,0.3c0,0.2,0.1,0.3,0.3,0.3c0.2,0,0.3-0.1,0.3-0.3
				C7.9,13,7.8,12.8,7.6,12.8z"/>
		</g>
		<g>
			<circle fill="#78909C" cx="10.3" cy="13.1" r="0.8"/>
			<path fill="#37474F" d="M10.3,14.4c-0.7,0-1.3-0.6-1.3-1.3c0-0.7,0.6-1.3,1.3-1.3c0.7,0,1.3,0.6,1.3,1.3
				C11.6,13.8,11,14.4,10.3,14.4z M10.3,12.8c-0.2,0-0.3,0.1-0.3,0.3c0,0.2,0.1,0.3,0.3,0.3c0.2,0,0.3-0.1,0.3-0.3
				C10.6,13,10.4,12.8,10.3,12.8z"/>
		</g>
		<g>
			<circle fill="#78909C" cx="12.9" cy="13.1" r="0.8"/>
			<path fill="#37474F" d="M12.9,14.4c-0.7,0-1.3-0.6-1.3-1.3c0-0.7,0.6-1.3,1.3-1.3s1.3,0.6,1.3,1.3C14.2,13.8,13.6,14.4,12.9,14.4
				z M12.9,12.8c-0.2,0-0.3,0.1-0.3,0.3c0,0.2,0.1,0.3,0.3,0.3s0.3-0.1,0.3-0.3C13.2,13,13.1,12.8,12.9,12.8z"/>
		</g>
	</g>
	<g>
		<polyline fill="#FFAB00" points="12.5,23.7 9.9,21 19.1,11.8 17.3,10 		"/>
		<path fill="#37474F" d="M12.5,24.2c-0.1,0-0.3,0-0.4-0.1l-3-3l9.2-9.2l-1.5-1.5c-0.2-0.2-0.2-0.5,0-0.7c0.2-0.2,0.5-0.2,0.7,0
			l2.2,2.2L10.6,21l2.3,2.3c0.2,0.2,0.2,0.5,0,0.7C12.8,24.2,12.7,24.2,12.5,24.2z"/>
	</g>
	<g>
		<polygon fill="#FFAB00" points="15.3,7.9 16.7,8.5 18.1,9.1 17.3,9.9 16.5,10.7 15.9,9.3 		"/>
		<path fill="#37474F" d="M16.3,11.6l-2-4.6l4.6,2L16.3,11.6z M16.2,8.9l0.4,0.9l0.5-0.5L16.2,8.9z"/>
	</g>
	<g>
		<g>
			<path fill="#37474F" d="M12.5,2.9c0,0.2-0.2,0.3-0.3,0.3c-0.2,0-0.3-0.2-0.3-0.3c0-0.2,0.2-0.3,0.3-0.3
				C12.3,2.5,12.5,2.7,12.5,2.9z"/>
			<path fill="#37474F" d="M12.1,3.7c-0.5,0-0.8-0.4-0.8-0.8c0-0.5,0.4-0.8,0.8-0.8C12.6,2,13,2.4,13,2.9C13,3.3,12.6,3.7,12.1,3.7z
				 M12.1,2.7C12,2.7,12,2.8,12,2.9c0,0.2,0.3,0.2,0.3,0C12.3,2.8,12.2,2.7,12.1,2.7z"/>
		</g>
		<g>
			<path fill="#37474F" d="M14.8,2.9c0,0.2-0.2,0.3-0.3,0.3c-0.2,0-0.3-0.2-0.3-0.3c0-0.2,0.2-0.3,0.3-0.3
				C14.7,2.5,14.8,2.7,14.8,2.9z"/>
			<path fill="#37474F" d="M14.5,3.7c-0.5,0-0.8-0.4-0.8-0.8C13.7,2.4,14,2,14.5,2c0.5,0,0.8,0.4,0.8,0.8C15.3,3.3,15,3.7,14.5,3.7z
				 M14.5,2.7c-0.1,0-0.2,0.1-0.2,0.2c0,0.2,0.3,0.2,0.3,0C14.7,2.8,14.6,2.7,14.5,2.7z"/>
		</g>
		<g>
			<path fill="#37474F" d="M17.2,2.9c0,0.2-0.2,0.3-0.3,0.3c-0.2,0-0.3-0.2-0.3-0.3c0-0.2,0.2-0.3,0.3-0.3
				C17.1,2.5,17.2,2.7,17.2,2.9z"/>
			<path fill="#37474F" d="M16.9,3.7c-0.5,0-0.8-0.4-0.8-0.8c0-0.5,0.4-0.8,0.8-0.8c0.5,0,0.8,0.4,0.8,0.8
				C17.7,3.3,17.4,3.7,16.9,3.7z M16.9,2.7c-0.1,0-0.2,0.1-0.2,0.2c0,0.2,0.3,0.2,0.3,0C17.1,2.8,17,2.7,16.9,2.7z"/>
		</g>
	</g>
	<g>
		<g>
			<path fill="#37474F" d="M23,24h-4c-0.3,0-0.5-0.2-0.5-0.5S18.7,23,19,23h4c0.3,0,0.5,0.2,0.5,0.5S23.3,24,23,24z"/>
		</g>
		<g>
			<path fill="#37474F" d="M23,27h-4c-0.3,0-0.5-0.2-0.5-0.5S18.7,26,19,26h4c0.3,0,0.5,0.2,0.5,0.5S23.3,27,23,27z"/>
		</g>
	</g>
</g>
</svg>
