<?xml version="1.0" encoding="utf-8"?>
<!-- Generator: Adobe Illustrator 19.0.0, SVG Export Plug-In . SVG Version: 6.00 Build 0)  -->
<svg version="1.1" xmlns="http://www.w3.org/2000/svg" xmlns:xlink="http://www.w3.org/1999/xlink" x="0px" y="0px"
	 viewBox="-35 37 128 128" style="enable-background:new -35 37 128 128;" xml:space="preserve">
<style type="text/css">
	.st0{fill:#FFAB00;}
	.st1{fill:#37474F;}
	.st2{fill:#FFECB3;}
	.st3{fill:#FFFFFF;}
</style>
<g id="Layer_1">
	<g id="Layer_2">
		<g>
			<g>
				<path class="st0" d="M78.2,100.7c0,26.9-21.8,48.8-48.8,48.8s-48.8-21.8-48.8-48.8S2.5,51.9,29.4,51.9S78.2,73.8,78.2,100.7z"/>
				<path class="st1" d="M29.4,150.7c-27.5,0-50-22.4-50-50c0-27.5,22.4-50,50-50c27.5,0,50,22.4,50,50
					C79.4,128.2,56.9,150.7,29.4,150.7z M29.4,53.2c-26.2,0-47.5,21.3-47.5,47.5s21.3,47.5,47.5,47.5s47.5-21.3,47.5-47.5
					S55.6,53.2,29.4,53.2z"/>
			</g>
			<g>
				<path class="st2" d="M68.3,100.7c0,21.5-17.4,38.9-38.9,38.9s-38.9-17.4-38.9-38.9c0-21.5,17.4-38.9,38.9-38.9
					S68.3,79.2,68.3,100.7z"/>
				<path class="st1" d="M29.4,140.8c-22.2,0-40.1-18.1-40.1-40.1c0-22.2,18.1-40.1,40.1-40.1s40.1,18.1,40.1,40.1
					C69.5,122.9,51.6,140.8,29.4,140.8z M29.4,63C8.6,63-8.3,79.9-8.3,100.7s16.9,37.7,37.7,37.7s37.7-16.9,37.7-37.7
					S50.2,63,29.4,63z"/>
			</g>
			<g>
				<g>
					<polygon class="st1" points="17.8,121.5 51.8,100.7 17.8,79.9 					"/>
					<path class="st1" d="M17.8,122.7c-0.2,0-0.4,0-0.5-0.2c-0.4-0.2-0.7-0.7-0.7-1.1V79.9c0-0.4,0.2-0.9,0.7-1.1
						c0.4-0.2,0.9-0.2,1.2,0l34,20.8c0.4,0.2,0.5,0.7,0.5,1.1s-0.2,0.9-0.5,1.1l-34,20.8C18.1,122.7,18,122.7,17.8,122.7z M19,82
						v37.1l30.3-18.7L19,82z"/>
				</g>
			</g>
		</g>
	</g>
</g>
<g id="Layer_2_1_">
	<g id="Layer_2_2_">
		<g>
			<path class="st0" d="M64.2,45.4c-9,0-16.4,7.4-16.4,16.4s7.4,16.4,16.4,16.4s16.4-7.4,16.4-16.4S73.3,45.4,64.2,45.4z M72.4,63.2
				h-6.8V70h-2.8v-6.8H56v-2.8h6.8v-6.8h2.8v6.8h6.8V63.2z"/>
			<path class="st1" d="M64.2,43.8c-9.9,0-18,8.1-18,18s8.1,18,18,18s18-8.1,18-18S74.2,43.8,64.2,43.8z M64.2,78.2
				c-9,0-16.4-7.4-16.4-16.4s7.4-16.4,16.4-16.4s16.4,7.4,16.4,16.4S73.3,78.2,64.2,78.2z"/>
			<path class="st3" d="M64.2,40c-12,0-21.8,9.8-21.8,21.8s9.8,21.8,21.8,21.8S86,73.8,86,61.8S76.2,40,64.2,40z M64.2,79.9
				c-9.9,0-18-8.1-18-18s8.1-18,18-18s18,8.1,18,18S74.2,79.9,64.2,79.9z"/>
			<polygon class="st3" points="65.6,53.7 62.8,53.7 62.8,60.4 56.1,60.4 56.1,63.2 62.8,63.2 62.8,70 65.6,70 65.6,63.2 72.4,63.2 
				72.4,60.4 65.6,60.4 			"/>
		</g>
	</g>
</g>
</svg>
