<?xml version="1.0" encoding="utf-8"?>
<!-- Generator: Adobe Illustrator 16.0.0, SVG Export Plug-In . SVG Version: 6.00 Build 0)  -->
<!DOCTYPE svg PUBLIC "-//W3C//DTD SVG 1.1//EN" "http://www.w3.org/Graphics/SVG/1.1/DTD/svg11.dtd">
<svg version="1.1" id="Layer_1" xmlns="http://www.w3.org/2000/svg" xmlns:xlink="http://www.w3.org/1999/xlink" x="0px" y="0px"
	 width="32.5px" height="32px" viewBox="0 0 32.5 32" enable-background="new 0 0 32.5 32" xml:space="preserve">
<g>
	<g>
		<rect x="1" y="23.5" fill="#B0BEC5" width="30" height="2"/>
		<path fill="#37474F" d="M31,26H1c-0.3,0-0.5-0.2-0.5-0.5v-2C0.5,23.2,0.7,23,1,23h30c0.3,0,0.5,0.2,0.5,0.5v2
			C31.5,25.8,31.3,26,31,26z M1.5,25h29v-1h-29V25z"/>
	</g>
	<g>
		<polygon fill="#FFFFFF" points="5.9,8.5 1,18 1,23.5 31,23.5 31,8.5 		"/>
		<path fill="#37474F" d="M31,24H1c-0.3,0-0.5-0.2-0.5-0.5V18c0-0.1,0-0.2,0.1-0.2l4.9-9.5C5.6,8.1,5.7,8,5.9,8H31
			c0.3,0,0.5,0.2,0.5,0.5v15C31.5,23.8,31.3,24,31,24z M1.5,23h29V9H6.2l-4.7,9.2V23z"/>
	</g>
	<g>
		<g>
			<path fill="#37474F" d="M11.7,24.9c0,2-1.6,3.7-3.7,3.7S4.3,27,4.3,24.9c0-2,1.6-3.7,3.7-3.7S11.7,22.9,11.7,24.9z"/>
			<path fill="#37474F" d="M8,29.1c-2.3,0-4.2-1.9-4.2-4.2c0-2.3,1.9-4.2,4.2-4.2c2.3,0,4.2,1.9,4.2,4.2C12.2,27.2,10.3,29.1,8,29.1
				z M8,21.8c-1.7,0-3.2,1.4-3.2,3.2c0,1.7,1.4,3.2,3.2,3.2c1.7,0,3.2-1.4,3.2-3.2C11.2,23.2,9.7,21.8,8,21.8z"/>
		</g>
		<g>
			<g>
				<path fill="#B0BEC5" d="M5.8,25c-0.3,0-0.5-0.2-0.5-0.5c0-1.3,1-2.3,2.3-2.3c0.3,0,0.5,0.2,0.5,0.5s-0.2,0.5-0.5,0.5
					c-0.7,0-1.3,0.6-1.3,1.3C6.3,24.8,6.1,25,5.8,25z"/>
			</g>
		</g>
		<g>
			<g>
				<path fill="#B0BEC5" d="M8.4,27.5c-0.3,0-0.5-0.2-0.5-0.5s0.2-0.5,0.5-0.5c0.7,0,1.3-0.6,1.3-1.3c0-0.3,0.2-0.5,0.5-0.5
					s0.5,0.2,0.5,0.5C10.7,26.5,9.6,27.5,8.4,27.5z"/>
			</g>
		</g>
	</g>
	<g>
		<g>
			<path fill="#37474F" d="M28.3,23.6c0.7,1.9-0.2,4-2.1,4.7s-4-0.2-4.7-2.1c-0.7-1.9,0.2-4,2.1-4.7C25.4,20.8,27.6,21.7,28.3,23.6z
				"/>
			<path fill="#37474F" d="M24.8,29.1c-1.7,0-3.3-1.1-3.9-2.7c-0.8-2.1,0.3-4.6,2.4-5.4c0.5-0.2,1-0.3,1.5-0.3
				c1.7,0,3.3,1.1,3.9,2.7c0.8,2.1-0.3,4.6-2.4,5.4C25.9,29,25.4,29.1,24.8,29.1z M24.8,21.8c-0.4,0-0.8,0.1-1.1,0.2
				c-1.6,0.6-2.5,2.5-1.8,4.1c0.5,1.2,1.7,2,3,2c0.4,0,0.8-0.1,1.1-0.2c1.6-0.6,2.5-2.5,1.8-4.1C27.3,22.6,26.2,21.8,24.8,21.8z"/>
		</g>
		<g>
			<g>
				<path fill="#B0BEC5" d="M22.7,25.8c-0.2,0-0.4-0.1-0.5-0.3c-0.5-1.2,0.1-2.5,1.3-3c0.3-0.1,0.5,0,0.6,0.3c0.1,0.3,0,0.5-0.3,0.6
					c-0.7,0.3-1,1-0.8,1.7c0.1,0.3,0,0.5-0.3,0.6C22.8,25.8,22.7,25.8,22.7,25.8z"/>
			</g>
		</g>
		<g>
			<g>
				<path fill="#B0BEC5" d="M25.9,27.3c-0.2,0-0.4-0.1-0.5-0.3c-0.1-0.3,0-0.5,0.3-0.6c0.3-0.1,0.6-0.4,0.7-0.7c0.1-0.3,0.1-0.7,0-1
					c-0.1-0.3,0-0.5,0.3-0.6c0.3-0.1,0.5,0,0.6,0.3c0.2,0.6,0.2,1.2,0,1.8c-0.2,0.6-0.7,1-1.3,1.2C26.1,27.2,26,27.3,25.9,27.3z"/>
			</g>
		</g>
	</g>
	<g>
		<rect x="1" y="18.5" fill="#FFAB00" width="3" height="2"/>
		<path fill="#37474F" d="M4,21H1c-0.3,0-0.5-0.2-0.5-0.5v-2C0.5,18.2,0.7,18,1,18h3c0.3,0,0.5,0.2,0.5,0.5v2C4.5,20.8,4.3,21,4,21z
			 M1.5,20h2v-1h-2V20z"/>
	</g>
	<g>
		<rect x="29.1" y="18.7" fill="#FFAB00" width="2" height="2"/>
		<path fill="#37474F" d="M31.1,21.2h-2c-0.3,0-0.5-0.2-0.5-0.5v-2c0-0.3,0.2-0.5,0.5-0.5h2c0.3,0,0.5,0.2,0.5,0.5v2
			C31.6,21,31.3,21.2,31.1,21.2z M29.6,20.2h1v-1h-1V20.2z"/>
	</g>
	<g>
		<polyline fill="#B0BEC5" points="2.5,15.5 8,15.5 8,10.5 6.5,10.5 		"/>
		<path fill="#37474F" d="M8,16H2.5C2.2,16,2,15.8,2,15.5S2.2,15,2.5,15h5v-4h-1C6.2,11,6,10.8,6,10.5S6.2,10,6.5,10H8
			c0.3,0,0.5,0.2,0.5,0.5v5C8.5,15.8,8.3,16,8,16z"/>
	</g>
	<g>
		<line fill="#B0BEC5" x1="10.5" y1="11.5" x2="12.5" y2="11.5"/>
		<path fill="#37474F" d="M12.5,12h-2c-0.3,0-0.5-0.2-0.5-0.5s0.2-0.5,0.5-0.5h2c0.3,0,0.5,0.2,0.5,0.5S12.8,12,12.5,12z"/>
	</g>
	<g>
		<line fill="#B0BEC5" x1="10.5" y1="13.5" x2="12.5" y2="13.5"/>
		<path fill="#37474F" d="M12.5,14h-2c-0.3,0-0.5-0.2-0.5-0.5s0.2-0.5,0.5-0.5h2c0.3,0,0.5,0.2,0.5,0.5S12.8,14,12.5,14z"/>
	</g>
	<g>
		<line fill="#B0BEC5" x1="10.5" y1="15.5" x2="12.5" y2="15.5"/>
		<path fill="#37474F" d="M12.5,16h-2c-0.3,0-0.5-0.2-0.5-0.5s0.2-0.5,0.5-0.5h2c0.3,0,0.5,0.2,0.5,0.5S12.8,16,12.5,16z"/>
	</g>
	<g>
		<g>
			<path fill="#37474F" d="M20,12.5v3h3v2h-3v3h-2v-3h-3v-2h3v-3H20z"/>
			<path fill="#37474F" d="M20,21h-2c-0.3,0-0.5-0.2-0.5-0.5V18H15c-0.3,0-0.5-0.2-0.5-0.5v-2c0-0.3,0.2-0.5,0.5-0.5h2.5v-2.5
				c0-0.3,0.2-0.5,0.5-0.5h2c0.3,0,0.5,0.2,0.5,0.5V15H23c0.3,0,0.5,0.2,0.5,0.5v2c0,0.3-0.2,0.5-0.5,0.5h-2.5v2.5
				C20.5,20.8,20.3,21,20,21z M18.5,20h1v-2.5c0-0.3,0.2-0.5,0.5-0.5h2.5v-1H20c-0.3,0-0.5-0.2-0.5-0.5V13h-1v2.5
				c0,0.3-0.2,0.5-0.5,0.5h-2.5v1H18c0.3,0,0.5,0.2,0.5,0.5V20z"/>
		</g>
	</g>
	<g>
		<g>
			<path fill="#FFFFFF" d="M22.9,7c0,0.9-0.7,1.5-1.6,1.5h-6.5c-0.9,0-1.6-0.6-1.6-1.5l0,0c0-0.9,0.7-1.5,1.6-1.5h6.5
				C22.1,5.5,22.9,6.1,22.9,7L22.9,7z"/>
			<path fill="#37474F" d="M21.2,9h-6.5c-1.2,0-2.1-0.9-2.1-2c0-1.1,0.9-2,2.1-2h6.5c1.2,0,2.1,0.9,2.1,2C23.4,8.1,22.4,9,21.2,9z
				 M14.7,6c-0.6,0-1.1,0.3-1.1,1c0,0.7,0.6,1,1.1,1h6.5c0.5,0,1.1-0.3,1.1-1c0-0.7-0.6-1-1.1-1H14.7z"/>
		</g>
		<g>
			<path fill="#FFAB00" d="M21.2,5.5H18v3h3.2c0.9,0,1.6-0.6,1.6-1.5C22.9,6.1,22.1,5.5,21.2,5.5z"/>
			<path fill="#37474F" d="M21.2,9H18c-0.3,0-0.5-0.2-0.5-0.5v-3C17.5,5.2,17.7,5,18,5h3.2c1.2,0,2.1,0.9,2.1,2
				C23.4,8.1,22.4,9,21.2,9z M18.5,8h2.7c0.5,0,1.1-0.3,1.1-1c0-0.7-0.6-1-1.1-1h-2.7V8z"/>
		</g>
	</g>
	<g>
		<line fill="#FFAB00" x1="3.5" y1="28.9" x2="30.5" y2="28.9"/>
		<path fill="#37474F" d="M30.5,29.4h-27c-0.3,0-0.5-0.2-0.5-0.5s0.2-0.5,0.5-0.5h27c0.3,0,0.5,0.2,0.5,0.5S30.8,29.4,30.5,29.4z"/>
	</g>
</g>
</svg>
