<?xml version="1.0" encoding="utf-8"?>
<!-- Generator: Adobe Illustrator 20.0.0, SVG Export Plug-In . SVG Version: 6.00 Build 0)  -->
<svg version="1.1" id="Layer_1" xmlns="http://www.w3.org/2000/svg" xmlns:xlink="http://www.w3.org/1999/xlink" x="0px" y="0px"
	 viewBox="0 0 128 128" style="enable-background:new 0 0 128 128;" xml:space="preserve">
<style type="text/css">
	.st0{fill:#FFFFFF;}
	.st1{fill:#37474F;}
	.st2{fill:#FFAB00;}
	.st3{fill:#37474F;stroke:#37474F;stroke-miterlimit:10;}
</style>
<g id="Layer_2">
	<g>
		<g>
			<g>
				<g>
					<rect x="54" y="38.6" class="st0" width="69.5" height="46.6"/>
					<path class="st1" d="M52.7,85.2V38.6c0-0.7,0.5-1.2,1.2-1.2h69.5c0.7,0,1.2,0.5,1.2,1.2v46.6c0,0.7-0.5,1.2-1.2,1.2H54
						C53.4,86.4,52.7,85.8,52.7,85.2z M55.2,39.8v44.1h67V39.8C122.2,39.8,55.2,39.8,55.2,39.8z"/>
				</g>
				<g>
					<rect x="61.4" y="45.8" class="st2" width="54.7" height="31.1"/>
					<path class="st1" d="M60.1,76.9V45.8c0-0.7,0.5-1.2,1.2-1.2H116c0.7,0,1.2,0.5,1.2,1.2v31.1c0,0.7-0.5,1.2-1.2,1.2H61.4
						C60.7,78.2,60.1,77.6,60.1,76.9z M62.6,47.2v28.6H115V47.2H62.6z"/>
				</g>
			</g>
		</g>
		<g>
			<g>
				<g>
					<rect x="5.6" y="38.6" class="st0" width="69.5" height="46.6"/>
					<path class="st1" d="M4.4,85.2V38.6c0-0.7,0.5-1.2,1.2-1.2h69.5c0.7,0,1.2,0.5,1.2,1.2v46.6c0,0.7-0.5,1.2-1.2,1.2H5.6
						C4.9,86.4,4.4,85.8,4.4,85.2z M6.9,39.8v44.1h67V39.8H6.9z"/>
				</g>
				<g>
					<rect x="13" y="45.8" class="st2" width="54.7" height="31.1"/>
					<path class="st1" d="M11.8,76.9V45.8c0-0.7,0.5-1.2,1.2-1.2h54.7c0.7,0,1.2,0.5,1.2,1.2v31.1c0,0.7-0.5,1.2-1.2,1.2H13
						C12.3,78.2,11.8,77.6,11.8,76.9z M14.3,47.2v28.6h52.4V47.2H14.3z"/>
				</g>
			</g>
		</g>
		<g>
			<g>
				<g>
					<rect x="22.6" y="32.7" class="st0" width="83.8" height="56.2"/>
					<path class="st1" d="M21.1,89V32.8c0-0.8,0.7-1.4,1.4-1.4h83.8c0.8,0,1.4,0.7,1.4,1.4V89c0,0.8-0.7,1.4-1.4,1.4H22.6
						C21.8,90.5,21.1,89.8,21.1,89z M24,34.3v53.3h80.9V34.3C104.9,34.3,24,34.3,24,34.3z"/>
				</g>
				<g>
					<rect x="31.4" y="41.6" class="st2" width="66.1" height="37.5"/>
					<path class="st1" d="M29.9,79.1V41.6c0-0.8,0.7-1.4,1.4-1.4h66.1c0.8,0,1.4,0.7,1.4,1.4v37.5c0,0.8-0.7,1.4-1.4,1.4H31.4
						C30.6,80.6,29.9,79.9,29.9,79.1z M33,43.1v34.5h63.2V43.1H33z"/>
				</g>
			</g>
			<g>
				<path class="st3" d="M91.4,51c-0.9,0-1.6-0.7-1.6-1.6c0-0.9,0.7-1.7,1.6-1.6c0.9,0,1.6,0.7,1.6,1.6C93,50.3,92.3,51,91.4,51z"/>
				<path class="st3" d="M91.4,62.3c-0.9,0-1.6-0.7-1.6-1.6c0-0.9,0.7-1.6,1.6-1.6s1.6,0.7,1.6,1.7C93,61.5,92.3,62.3,91.4,62.3z"/>
				<path class="st3" d="M91.4,73.5c-0.9,0-1.6-0.7-1.6-1.6s0.7-1.6,1.6-1.6S93,71,93,72C93,72.8,92.3,73.5,91.4,73.5z"/>
			</g>
		</g>
	</g>
</g>
</svg>
