<?xml version="1.0" encoding="utf-8"?>
<!-- Generator: Adobe Illustrator 20.0.0, SVG Export Plug-In . SVG Version: 6.00 Build 0)  -->
<svg version="1.1" id="Layer_1" xmlns="http://www.w3.org/2000/svg" xmlns:xlink="http://www.w3.org/1999/xlink" x="0px" y="0px"
	 viewBox="0 0 128 128" style="enable-background:new 0 0 128 128;" xml:space="preserve">
<style type="text/css">
	.st0{fill:#FFAB00;}
	.st1{fill:#37474F;}
	.st2{fill:#FFECB3;}
	.st3{fill:none;stroke:#37474F;stroke-width:3;stroke-linecap:round;stroke-miterlimit:10;}
	.st4{fill:#B0BEC5;}
</style>
<g id="Layer_1_1_">
	<g>
		<g>
			<g>
				<path class="st0" d="M40.7,62.4h-0.4c-15.2,0-27.6,12.3-27.6,27.6c0,15.2,12.4,27.6,27.6,27.6C55.6,117.6,68,105.2,68,90
					c0-0.3-0.1-0.8-0.1-0.8H40.7V62.4z"/>
				<path class="st1" d="M40.3,119c-16,0-29-13-29-29c-0.1-16,12.9-29,29-29h0.4c0.7,0,1.3,0.7,1.3,1.4v25.4h25.9
					c1.4,0,1.4,1.6,1.4,2.1C69.3,106,56.3,119,40.3,119z M39.3,63.7C25.2,64.2,13.9,75.8,13.9,90c0,14.5,11.8,26.3,26.3,26.3
					c14.4,0,26-11.5,26.4-25.9h-26c-0.7,0-1.3-0.6-1.3-1.3V63.7z"/>
			</g>
			<g>
				<path class="st2" d="M77.2,51.7H40.7v10.5C55,62.2,67.5,74,67.9,89.1h9.4V51.7H77.2z"/>
				<path class="st1" d="M77.2,90.5h-9.4c-0.7,0-1.3-0.5-1.3-1.3c-0.4-14.1-12-25.6-25.9-25.6c-0.7,0-1.3-0.6-1.3-1.3V51.7
					c0-0.7,0.6-1.3,1.3-1.3h36.6c0.7,0,1.3,0.6,1.3,1.3v37.5C78.6,89.8,77.9,90.5,77.2,90.5z M69.2,87.8h6.7V53H42v7.8
					C56.3,61.6,68.1,73.3,69.2,87.8z"/>
			</g>
		</g>
		<g>
			<g>
				<g>
					<g>
						<path class="st1" d="M118.7,75.3H87.5c-0.7,0-1.3-0.6-1.3-1.3c0-0.7,0.6-1.3,1.3-1.3h31.2c0.7,0,1.3,0.6,1.3,1.3
							C120,74.7,119.4,75.3,118.7,75.3z"/>
					</g>
				</g>
				<g>
					<g>
						<path class="st3" d="M118.5,79.1"/>
					</g>
					<g>
						<path class="st3" d="M87.9,79.1"/>
					</g>
				</g>
				<g>
					<g>
						<path class="st1" d="M118.7,86H87.5c-0.7,0-1.3-0.6-1.3-1.3s0.6-1.3,1.3-1.3h31.2c0.7,0,1.3,0.6,1.3,1.3S119.4,86,118.7,86z"
							/>
					</g>
				</g>
				<g>
					<g>
						<path class="st3" d="M87.9,89.7"/>
					</g>
				</g>
			</g>
			<g>
				<g>
					<g>
						<path class="st1" d="M118.7,53.9H87.5c-0.7,0-1.3-0.6-1.3-1.3c0-0.7,0.6-1.3,1.3-1.3h31.2c0.7,0,1.3,0.6,1.3,1.3
							S119.4,53.9,118.7,53.9z"/>
					</g>
				</g>
				<g>
					<g>
						<path class="st3" d="M118.5,57.6"/>
					</g>
					<g>
						<path class="st3" d="M87.9,57.6"/>
					</g>
				</g>
				<g>
					<g>
						<path class="st1" d="M118.7,63.7H87.5c-0.7,0-1.3-0.6-1.3-1.3c0-0.7,0.6-1.3,1.3-1.3h31.2c0.7,0,1.3,0.6,1.3,1.3
							S119.4,63.7,118.7,63.7z"/>
					</g>
				</g>
				<g>
					<g>
						<path class="st3" d="M118.5,68.2"/>
					</g>
					<g>
						<path class="st3" d="M87.9,68.2"/>
					</g>
				</g>
			</g>
		</g>
		<g>
			<g>
				<path class="st1" d="M103.1,100.1c0-0.9,0.7-1.6,1.6-1.6s1.6,0.7,1.6,1.6s-0.7,1.6-1.6,1.6S103.1,101,103.1,100.1z"/>
				<path class="st1" d="M104.7,102.1c-1.2,0-2.1-0.9-2.1-2.1s0.9-2.1,2.1-2.1s2.1,0.9,2.1,2.1C106.7,101.2,105.8,102.1,104.7,102.1
					z M104.7,98.9c-0.6,0-1.2,0.5-1.2,1.2s0.5,1.2,1.2,1.2c0.6,0,1.2-0.5,1.2-1.2C105.8,99.5,105.3,98.9,104.7,98.9z"/>
			</g>
			<g>
				<path class="st1" d="M91.8,100.1c0-0.9,0.7-1.6,1.6-1.6c0.9,0,1.6,0.7,1.6,1.6s-0.7,1.6-1.6,1.6C92.6,101.7,91.8,101,91.8,100.1
					z"/>
				<path class="st1" d="M93.5,102.1c-1.2,0-2.1-0.9-2.1-2.1s0.9-2.1,2.1-2.1s2.1,0.9,2.1,2.1C95.5,101.2,94.6,102.1,93.5,102.1z
					 M93.5,98.9c-0.6,0-1.2,0.5-1.2,1.2s0.5,1.2,1.2,1.2c0.7,0,1.2-0.5,1.2-1.2C94.6,99.4,94.1,98.9,93.5,98.9z"/>
			</g>
			<g>
				<path class="st1" d="M80.7,100.1c0-0.9,0.7-1.6,1.6-1.6c0.9,0,1.6,0.7,1.6,1.6s-0.7,1.6-1.6,1.6C81.4,101.7,80.7,101,80.7,100.1
					z"/>
				<path class="st1" d="M82.3,102.1c-1.2,0-2.1-0.9-2.1-2.1s0.9-2.1,2.1-2.1s2.1,0.9,2.1,2.1C84.4,101.2,83.4,102.1,82.3,102.1z
					 M82.3,98.9c-0.6,0-1.2,0.5-1.2,1.2s0.5,1.2,1.2,1.2c0.7,0,1.2-0.5,1.2-1.2S82.9,98.9,82.3,98.9z"/>
			</g>
		</g>
		<g>
			<polyline class="st4" points="9.4,62.6 41.1,31 52.7,42.6 85.1,10.3 			"/>
			<path class="st1" d="M9.4,64c-0.4,0-0.7-0.1-1-0.4c-0.5-0.5-0.5-1.3,0-1.9l31.7-31.6c0.5-0.5,1.3-0.5,1.9,0l10.7,10.7L84.1,9.4
				c0.5-0.5,1.3-0.5,1.9,0c0.5,0.5,0.5,1.3,0,1.9L53.7,43.6c-0.5,0.5-1.3,0.5-1.9,0L41.1,32.9L10.3,63.7C10.1,63.9,9.7,64,9.4,64z"
				/>
		</g>
	</g>
</g>
</svg>
