<?xml version="1.0" encoding="utf-8"?>
<!-- Generator: Adobe Illustrator 20.0.0, SVG Export Plug-In . SVG Version: 6.00 Build 0)  -->
<svg version="1.1" id="Layer_1" xmlns="http://www.w3.org/2000/svg" xmlns:xlink="http://www.w3.org/1999/xlink" x="0px" y="0px"
	 viewBox="0 0 128 128" style="enable-background:new 0 0 128 128;" xml:space="preserve">
<style type="text/css">
	.st0{fill:#FFAB00;}
	.st1{fill:#37474F;}
	.st2{fill:#FFECB3;}
	.st3{fill:none;stroke:#37474F;stroke-width:3;stroke-linecap:round;stroke-miterlimit:10;}
	.st4{fill:#B0BEC5;}
	.st5{fill:#F9F9F9;}
	.st6{fill:#FFFFFF;}
</style>
<g id="Layer_1_1_">
	<g>
		<g>
			<g>
				<path class="st0" d="M35.2,68.2h-0.4c-15.2,0-27.6,12.3-27.6,27.6c0,15.2,12.4,27.6,27.6,27.6c15.3,0,27.7-12.4,27.7-27.6
					c0-0.3-0.1-0.8-0.1-0.8H35.2V68.2z"/>
				<path class="st1" d="M34.8,125c-16,0-29-13-29-29c-0.1-16,12.9-29,29-29h0.4c0.7-0.1,1.3,0.6,1.3,1.3v25.4h25.9
					c1.4,0,1.4,1.6,1.4,2.1C63.8,112,50.8,125,34.8,125z M33.8,69.5C19.7,70,8.4,81.6,8.4,95.8c0,14.5,11.8,26.3,26.3,26.3
					c14.4,0,26-11.5,26.4-25.9h-26c-0.7,0-1.3-0.6-1.3-1.3V69.5z"/>
			</g>
			<g>
				<path class="st2" d="M71.7,57.5H35.2V68C49.5,68,62,79.8,62.4,94.9h9.4V57.5H71.7z"/>
				<path class="st1" d="M71.7,96.3h-9.4c-0.7,0-1.3-0.5-1.3-1.3c-0.4-14.1-12-25.6-25.9-25.6c-0.7,0-1.3-0.6-1.3-1.3V57.5
					c0-0.7,0.6-1.3,1.3-1.3h36.6c0.7,0,1.3,0.6,1.3,1.3V95C73.1,95.7,72.4,96.3,71.7,96.3z M63.7,93.7h6.7V58.8H36.5v7.8
					C50.8,67.4,62.6,79.2,63.7,93.7z"/>
			</g>
		</g>
		<g>
			<g>
				<g>
					<g>
						<path class="st1" d="M113.2,81.2H82c-0.7,0-1.3-0.6-1.3-1.3c0-0.7,0.6-1.3,1.3-1.3h31.2c0.7,0,1.3,0.6,1.3,1.3
							C114.5,80.5,113.9,81.2,113.2,81.2z"/>
					</g>
				</g>
				<g>
					<g>
						<path class="st3" d="M113,84.9"/>
					</g>
					<g>
						<path class="st3" d="M82.4,84.9"/>
					</g>
				</g>
				<g>
					<g>
						<path class="st1" d="M113.2,91.8H82c-0.7,0-1.3-0.6-1.3-1.3s0.6-1.3,1.3-1.3h31.2c0.7,0,1.3,0.6,1.3,1.3
							S113.9,91.8,113.2,91.8z"/>
					</g>
				</g>
				<g>
					<g>
						<path class="st3" d="M82.4,95.5"/>
					</g>
				</g>
			</g>
			<g>
				<g>
					<g>
						<path class="st1" d="M113.2,59.8H82c-0.7,0-1.3-0.6-1.3-1.3c0-0.7,0.6-1.3,1.3-1.3h31.2c0.7,0,1.3,0.6,1.3,1.3
							S113.9,59.8,113.2,59.8z"/>
					</g>
				</g>
				<g>
					<g>
						<path class="st3" d="M113,63.4"/>
					</g>
					<g>
						<path class="st3" d="M82.4,63.4"/>
					</g>
				</g>
				<g>
					<g>
						<path class="st1" d="M113.2,69.5H82c-0.7,0-1.3-0.6-1.3-1.3c0-0.7,0.6-1.3,1.3-1.3h31.2c0.7,0,1.3,0.6,1.3,1.3
							S113.9,69.5,113.2,69.5z"/>
					</g>
				</g>
				<g>
					<g>
						<path class="st3" d="M113,74"/>
					</g>
					<g>
						<path class="st3" d="M82.4,74"/>
					</g>
				</g>
			</g>
		</g>
		<g>
			<g>
				<path class="st1" d="M97.6,106c0-0.9,0.7-1.6,1.6-1.6s1.6,0.7,1.6,1.6s-0.7,1.6-1.6,1.6S97.6,107,97.6,106z"/>
				<path class="st1" d="M99.2,108c-1.2,0-2.1-0.9-2.1-2.1s0.9-2.1,2.1-2.1s2.1,0.9,2.1,2.1C101.2,107,100.3,108,99.2,108z
					 M99.2,104.7c-0.6,0-1.2,0.5-1.2,1.2s0.5,1.2,1.2,1.2c0.6,0,1.2-0.5,1.2-1.2C100.3,105.5,99.8,104.7,99.2,104.7z"/>
			</g>
			<g>
				<path class="st1" d="M86.3,106c0-0.9,0.7-1.6,1.6-1.6c0.9,0,1.6,0.7,1.6,1.6s-0.7,1.6-1.6,1.6C87.1,107.7,86.3,107,86.3,106z"/>
				<path class="st1" d="M88,108c-1.2,0-2.1-0.9-2.1-2.1s0.9-2.1,2.1-2.1s2.1,0.9,2.1,2.1C90,107,89.1,108,88,108z M88,104.7
					c-0.6,0-1.2,0.5-1.2,1.2s0.5,1.2,1.2,1.2c0.7,0,1.2-0.5,1.2-1.2C89.1,105.2,88.6,104.7,88,104.7z"/>
			</g>
			<g>
				<path class="st1" d="M75.2,106c0-0.9,0.7-1.6,1.6-1.6c0.9,0,1.6,0.7,1.6,1.6s-0.7,1.6-1.6,1.6C75.9,107.7,75.2,107,75.2,106z"/>
				<path class="st1" d="M76.8,108c-1.2,0-2.1-0.9-2.1-2.1s0.9-2.1,2.1-2.1s2.1,0.9,2.1,2.1C78.9,107,77.9,108,76.8,108z
					 M76.8,104.7c-0.6,0-1.2,0.5-1.2,1.2s0.5,1.2,1.2,1.2c0.7,0,1.2-0.5,1.2-1.2S77.4,104.7,76.8,104.7z"/>
			</g>
		</g>
		<g>
			<polyline class="st4" points="3.9,68.4 35.6,36.8 47.2,48.4 79.6,16.1 			"/>
			<path class="st1" d="M3.9,69.8c-0.4,0-0.7-0.1-1-0.4c-0.5-0.5-0.5-1.3,0-1.9l31.7-31.6c0.5-0.5,1.3-0.5,1.9,0l10.7,10.7
				l31.4-31.4c0.5-0.5,1.3-0.5,1.9,0c0.5,0.5,0.5,1.3,0,1.9L48.2,49.4c-0.5,0.5-1.3,0.5-1.9,0L35.6,38.8L4.8,69.5
				C4.6,69.8,4.2,69.8,3.9,69.8z"/>
		</g>
	</g>
</g>
<g id="Layer_2_1_">
	<g>
		<path class="st0" d="M103.7,8.1c-9,0-16.4,7.4-16.4,16.4S94.7,41,103.7,41s16.4-7.4,16.4-16.4S112.7,8.1,103.7,8.1z M111.8,26H105
			v6.8h-2.8V26h-6.8v-2.8h6.8v-6.8h2.8v6.8h6.8V26z"/>
		<path class="st1" d="M103.7,6.6c-9.9,0-18,8.1-18,18s8.1,18,18,18s18-8,18-18S113.6,6.6,103.7,6.6z M103.7,41
			c-9,0-16.4-7.4-16.4-16.4s7.4-16.5,16.4-16.5s16.4,7.5,16.4,16.5S112.7,41,103.7,41z"/>
		<path class="st5" d="M103.7,2.8c-12,0-21.8,9.7-21.8,21.7s9.8,21.8,21.8,21.8s21.8-9.7,21.8-21.8S115.7,2.8,103.7,2.8z
			 M103.7,42.7c-9.9,0-18-8.1-18-18s8.1-18,18-18s18,8.1,18,18S113.6,42.7,103.7,42.7z"/>
		<polygon class="st6" points="105.1,16.5 102.3,16.5 102.3,23.3 95.6,23.3 95.6,26 102.3,26 102.3,32.8 105.1,32.8 105.1,26 
			111.8,26 111.8,23.3 105.1,23.3 		"/>
	</g>
</g>
</svg>
