<?xml version="1.0" encoding="utf-8"?>
<!-- Generator: Adobe Illustrator 19.0.0, SVG Export Plug-In . SVG Version: 6.00 Build 0)  -->
<svg version="1.1" id="Layer_1" xmlns="http://www.w3.org/2000/svg" xmlns:xlink="http://www.w3.org/1999/xlink" x="0px" y="0px"
	 viewBox="-35 37 128 128" style="enable-background:new -35 37 128 128;" xml:space="preserve">
<style type="text/css">
	.st0{fill:#FFFFFF;}
	.st1{fill:#37474F;}
	.st2{fill:#B0BEC5;}
	.st3{fill:#78909C;}
	.st4{fill:#FFAB00;}
	.st5{fill:none;}
	.st6{fill:#FFECB3;}
</style>
<g>
	<g>
		<g>
			<g>
				<g>
					<path class="st0" d="M70.1,50.2H7.5C2.1,50.2-2,55-2,60.4v21l0,0v53.7h-19.6v6.8c0,5.4,4.1,9.8,9.5,9.8h62.5
						c5.4,0,10-4.4,10-9.8v-20.4l0,0V67.8H80v-7.4C80,55,75.5,50.2,70.1,50.2z"/>
					<path class="st1" d="M50.5,153.3h-62.6c-6.2,0-11-5-11-11.3v-6.8c0-0.8,0.7-1.5,1.5-1.5h18V60.4c0-6.5,5-11.7,11-11.7h62.5
						c6.2,0,11.5,5.4,11.5,11.7v7.4c0,0.8-0.7,1.5-1.5,1.5H62V142C62,148.2,56.8,153.3,50.5,153.3z M-20.1,136.7v5.3
						c0,4.7,3.4,8.3,8,8.3h62.5c4.7,0,8.5-3.7,8.5-8.3V67.8c0-0.8,0.7-1.5,1.5-1.5h18v-5.9c0-4.6-4-8.7-8.5-8.7H7.5
						c-4.4,0-8,3.9-8,8.7v74.8c0,0.8-0.7,1.5-1.5,1.5C-2,136.7-20.1,136.7-20.1,136.7z"/>
				</g>
				<g>
					<path class="st2" d="M81,80.5V62.1c0-5.7-4.5-10.4-10.2-10.4s-10.3,4.6-10.3,10.4v18.4H81z"/>
					<path class="st1" d="M81,82H60.5c-0.8,0-1.5-0.7-1.5-1.5V62.1c0-6.5,5.3-11.9,11.8-11.9s11.7,5.3,11.7,11.9v18.4
						C82.5,81.3,81.8,82,81,82z M62,79h17.5V62.1c0-4.9-3.9-8.9-8.7-8.9c-4.9,0-8.8,3.9-8.8,8.9V79z"/>
				</g>
			</g>
			<g>
				<path class="st3" d="M-23.5,121.5v18.8c0,5.7,5,10.4,10.7,10.4S-2,146.1-2,140.3v-18.8H-23.5z"/>
				<path class="st1" d="M-12.8,152.2c-6.6,0-12.2-5.4-12.2-11.9v-18.8c0-0.8,0.7-1.5,1.5-1.5H-2c0.8,0,1.5,0.7,1.5,1.5v18.8
					C-0.5,146.8-6.1,152.2-12.8,152.2z M-22,123v17.3c0,4.8,4.2,8.9,9.2,8.9s9.3-4.1,9.3-8.9V123H-22z"/>
			</g>
		</g>
		<g>
			<g>
				<rect x="6.8" y="80.5" class="st4" width="14.7" height="13.7"/>
				<path class="st1" d="M21.4,95.7H6.8c-0.8,0-1.5-0.7-1.5-1.5V80.5C5.3,79.7,6,79,6.8,79h14.7c0.8,0,1.5,0.7,1.5,1.5v13.7
					C22.9,95,22.2,95.7,21.4,95.7z M8.3,92.7H20V82H8.3V92.7z"/>
			</g>
			<g>
				<g>
					<line class="st5" x1="28.7" y1="81.5" x2="54.1" y2="81.5"/>
					<path class="st1" d="M54.1,83H28.7c-0.8,0-1.5-0.7-1.5-1.5s0.7-1.5,1.5-1.5h25.4c0.8,0,1.5,0.7,1.5,1.5S55,83,54.1,83z"/>
				</g>
				<g>
					<line class="st5" x1="28.7" y1="87.3" x2="54.1" y2="87.3"/>
					<path class="st1" d="M54.1,88.8H28.7c-0.8,0-1.5-0.7-1.5-1.5c0-0.8,0.7-1.5,1.5-1.5h25.4c0.8,0,1.5,0.7,1.5,1.5
						C55.6,88.1,55,88.8,54.1,88.8z"/>
				</g>
				<g>
					<line class="st5" x1="28.7" y1="94.2" x2="54.1" y2="94.2"/>
					<path class="st1" d="M54.1,95.7H28.7c-0.8,0-1.5-0.7-1.5-1.5c0-0.8,0.7-1.5,1.5-1.5h25.4c0.8,0,1.5,0.7,1.5,1.5
						C55.6,95,55,95.7,54.1,95.7z"/>
				</g>
			</g>
			<g>
				<line class="st5" x1="5.3" y1="101" x2="54.1" y2="101"/>
				<path class="st1" d="M54.1,102.5H5.3c-0.8,0-1.5-0.7-1.5-1.5s0.7-1.5,1.5-1.5h48.8c0.8,0,1.5,0.7,1.5,1.5S55,102.5,54.1,102.5z"
					/>
			</g>
			<g>
				<line class="st5" x1="5.3" y1="107.8" x2="54.1" y2="107.8"/>
				<path class="st1" d="M54.1,109.3H5.3c-0.8,0-1.5-0.7-1.5-1.5s0.7-1.5,1.5-1.5h48.8c0.8,0,1.5,0.7,1.5,1.5S55,109.3,54.1,109.3z"
					/>
			</g>
			<g>
				<line class="st5" x1="5.3" y1="114.7" x2="54.1" y2="114.7"/>
				<path class="st1" d="M54.1,116.2H5.3c-0.8,0-1.5-0.7-1.5-1.5s0.7-1.5,1.5-1.5h48.8c0.8,0,1.5,0.7,1.5,1.5S55,116.2,54.1,116.2z"
					/>
			</g>
			<g>
				<line class="st5" x1="5.3" y1="121.5" x2="54.1" y2="121.5"/>
				<path class="st1" d="M54.1,123H5.3c-0.8,0-1.5-0.7-1.5-1.5s0.7-1.5,1.5-1.5h48.8c0.8,0,1.5,0.7,1.5,1.5S55,123,54.1,123z"/>
			</g>
			<g>
				<line class="st5" x1="5.3" y1="128.3" x2="54.1" y2="128.3"/>
				<path class="st1" d="M54.1,129.8H5.3c-0.8,0-1.5-0.7-1.5-1.5s0.7-1.5,1.5-1.5h48.8c0.8,0,1.5,0.7,1.5,1.5S55,129.8,54.1,129.8z"
					/>
			</g>
			<g>
				<line class="st5" x1="5.3" y1="135.2" x2="54.1" y2="135.2"/>
				<path class="st1" d="M54.1,136.7H5.3c-0.8,0-1.5-0.7-1.5-1.5s0.7-1.5,1.5-1.5h48.8c0.8,0,1.5,0.7,1.5,1.5S55,136.7,54.1,136.7z"
					/>
			</g>
		</g>
		<g>
			<g>
				<g>
					<path class="st1" d="M21.9,63.6c0,0.7-0.5,1.3-1.2,1.3s-1.3-0.6-1.3-1.3c0-0.7,0.6-1.3,1.3-1.3C21.4,62.3,22,62.9,21.9,63.6z"
						/>
					<path class="st1" d="M20.7,65.4c-1,0-1.8-0.8-1.8-1.8c0-0.4,0.1-0.9,0.5-1.2c0.7-0.7,1.9-0.7,2.6,0c0.3,0.4,0.5,0.8,0.5,1.3
						c0,0.4-0.2,0.9-0.5,1.2C21.6,65.2,21.2,65.4,20.7,65.4z M20.7,62.8c-0.2,0-0.4,0.1-0.6,0.3c-0.1,0.1-0.2,0.3-0.2,0.5
						c0,0.5,0.4,0.8,0.8,0.8c0.2,0,0.4-0.1,0.5-0.2s0.2-0.3,0.2-0.5s-0.1-0.5-0.2-0.6C21.1,62.9,20.9,62.8,20.7,62.8z"/>
				</g>
				<g>
					<path class="st1" d="M30.9,63.6c0,0.7-0.6,1.3-1.3,1.3c-0.7,0-1.3-0.6-1.3-1.3c0-0.7,0.6-1.3,1.3-1.3
						C30.3,62.4,30.9,62.9,30.9,63.6z"/>
					<path class="st1" d="M29.6,65.4c-1,0-1.8-0.8-1.8-1.8s0.8-1.8,1.8-1.8c1,0.1,1.8,0.9,1.8,1.8C31.4,64.6,30.6,65.4,29.6,65.4z
						 M29.6,62.8c-0.4,0-0.8,0.4-0.8,0.8s0.4,0.8,0.8,0.8s0.8-0.4,0.8-0.8C30.4,63.2,30,62.8,29.6,62.8z"/>
				</g>
				<g>
					<path class="st1" d="M39.9,63.6c0,0.7-0.5,1.3-1.2,1.3s-1.3-0.5-1.3-1.3c0-0.7,0.5-1.3,1.3-1.3C39.3,62.4,39.9,62.9,39.9,63.6z
						"/>
					<path class="st1" d="M38.6,65.4c-0.5,0-1-0.2-1.3-0.5c-0.3-0.3-0.5-0.8-0.5-1.3c0-1,0.8-1.8,1.8-1.8c1,0.1,1.8,0.9,1.7,1.8
						c0,0.4-0.2,0.9-0.5,1.2C39.5,65.2,39.1,65.4,38.6,65.4z M38.6,62.8c-0.4,0-0.7,0.4-0.7,0.8c0,0.2,0.1,0.4,0.2,0.5
						c0.3,0.3,0.8,0.3,1.1,0c0.1-0.1,0.2-0.3,0.2-0.5C39.4,63.2,39,62.8,38.6,62.8z"/>
				</g>
			</g>
		</g>
	</g>
	<g>
		<g>
			<g>
				<rect x="60.5" y="62.9" class="st4" width="22.5" height="6.8"/>
				<path class="st1" d="M83,71.2H60.5c-0.8,0-1.5-0.7-1.5-1.5v-6.8c0-0.8,0.7-1.5,1.5-1.5H83c0.8,0,1.5,0.7,1.5,1.5v6.8
					C84.5,70.6,83.8,71.2,83,71.2z M62,68.2h19.5v-3.8H62V68.2z"/>
			</g>
			<g>
				<path class="st6" d="M90.4,66.3c0,3.7-3.2,6.7-7.1,6.7s-7.1-3-7.1-6.7c0-3.7,3.2-6.6,7.1-6.6C87.3,59.7,90.4,62.6,90.4,66.3z"/>
				<path class="st1" d="M83.4,74.7c-4.8,0-8.8-3.8-8.8-8.4s3.9-8.3,8.8-8.3c4.8,0,8.8,3.7,8.8,8.3C92.1,70.9,88.2,74.7,83.4,74.7z
					 M83.4,61.4c-3,0-5.4,2.2-5.4,4.9c0,2.7,2.4,5,5.4,5s5.4-2.2,5.4-5C88.7,63.6,86.3,61.4,83.4,61.4z"/>
			</g>
		</g>
		<g>
			<g>
				<rect x="-24.5" y="133.2" class="st4" width="21.5" height="5.9"/>
				<path class="st1" d="M-3,140.6h-21.5c-0.8,0-1.5-0.7-1.5-1.5v-5.9c0-0.8,0.7-1.5,1.5-1.5H-3c0.8,0,1.5,0.7,1.5,1.5v5.9
					C-1.5,139.9-2.2,140.6-3,140.6z M-23,137.6h18.5v-2.9H-23V137.6z"/>
			</g>
			<g>
				<path class="st6" d="M-32.4,136.1c0-3.7,3.2-6.6,7.1-6.6s7.1,3,7.1,6.6c0,3.7-3.2,6.6-7.1,6.6
					C-29.3,142.8-32.4,139.8-32.4,136.1z"/>
				<path class="st1" d="M-25.4,144.5c-4.8,0-8.8-3.7-8.8-8.3c0-4.6,3.9-8.3,8.8-8.3c4.8,0,8.8,3.7,8.8,8.3
					C-16.6,140.7-20.5,144.5-25.4,144.5z M-25.4,131.2c-3,0-5.4,2.2-5.4,4.9c0,2.7,2.4,4.9,5.4,4.9s5.4-2.2,5.4-4.9
					C-20,133.4-22.4,131.2-25.4,131.2z"/>
			</g>
		</g>
	</g>
</g>
</svg>
