<?xml version="1.0" encoding="utf-8"?>
<!-- Generator: Adobe Illustrator 19.0.0, SVG Export Plug-In . SVG Version: 6.00 Build 0)  -->
<svg version="1.1" xmlns="http://www.w3.org/2000/svg" xmlns:xlink="http://www.w3.org/1999/xlink" x="0px" y="0px"
	 viewBox="-35 37 128 128" style="enable-background:new -35 37 128 128;" xml:space="preserve">
<style type="text/css">
	.st0{fill:#FFFFFF;}
	.st1{fill:#37474F;}
	.st2{fill:#B0BEC5;}
	.st3{clip-path:url(#SVGID_2_);}
	.st4{fill:#FFAB00;}
	.st5{clip-path:url(#SVGID_4_);}
	.st6{fill:#FFECB3;}
	.st7{fill:#3F3F3F;}
	.st8{fill:#78909C;}
	.st9{fill:#FFAB00;stroke:#37474F;stroke-width:2;stroke-miterlimit:10;}
	.st10{font-family:'MyriadPro-Semibold';}
	.st11{font-size:18.6698px;}
</style>
<g id="Layer_1">
	<g id="Layer_1_1_">
		<g>
			<g>
				<rect x="-27.5" y="44.5" class="st0" width="113" height="113"/>
				<path class="st1" d="M87,159H-29V43H87V159z M-26,156H84V46H-26V156z"/>
			</g>
			<g>
				<rect x="-13" y="60" class="st2" width="84" height="81"/>
			</g>
			<g>
				<g>
					<g>
						<defs>
							<rect id="SVGID_1_" x="-13" y="60" width="84" height="81"/>
						</defs>
						<clipPath id="SVGID_2_">
							<use xlink:href="#SVGID_1_"  style="overflow:visible;"/>
						</clipPath>
						<g class="st3">
							<polygon class="st4" points="-12.7,141.4 18.7,110 34.2,125.4 63.2,96.4 79.3,112.5 97.9,131.1 82.8,161.8 12.3,150.1 
								-12.2,148.6 -14.1,143.2 							"/>
							<path class="st1" d="M82.8,163.3c-0.1,0-0.2,0-0.2,0l-70.4-11.7l-24.4-1.5c-0.6,0-1.1-0.4-1.3-1l-2-5.4
								c-0.2-0.5-0.1-1,0.2-1.5l1.4-1.8l0.1-0.1l31.4-31.4c0.6-0.6,1.6-0.6,2.1,0l14.4,14.4l28-28c0.6-0.6,1.6-0.6,2.1,0L98.9,130
								c0.5,0.5,0.6,1.1,0.3,1.7l-15.1,30.7C83.9,163,83.3,163.3,82.8,163.3z M-11.1,147.1l23.5,1.4c0.1,0,0.1,0,0.2,0L82,160.1
								l14-28.7L63.2,98.5l-28,28c-0.3,0.3-0.7,0.4-1.1,0.4l0,0c-0.4,0-0.8-0.2-1.1-0.4l-14.3-14.4l-30.3,30.3l-0.9,1.1L-11.1,147.1
								z"/>
						</g>
					</g>
				</g>
				<g>
					<g>
						<defs>
							<rect id="SVGID_3_" x="-13" y="60" width="84" height="81"/>
						</defs>
						<clipPath id="SVGID_4_">
							<use xlink:href="#SVGID_3_"  style="overflow:visible;"/>
						</clipPath>
						<g class="st5">
							<path class="st0" d="M102.7,90.7c0-3.1-2.2-5.5-5.1-6.1c-0.6-2.9-3-5.1-6.1-5.1c-2.6,0-4.8,1.6-5.8,3.8
								c-0.7-0.3-1.4-0.6-2.1-0.7c0-0.2,0.1-0.3,0.1-0.4c0-5.2-4.2-9.5-9.5-9.5c-2.3-6-8-10.3-14.8-10.3c-7.1,0-13,4.8-15,11.3
								c-0.1,0-0.1,0-0.2,0c-5.3,0-9.5,4.3-9.5,9.5c0,1,0.3,1.8,0.6,2.7c-2.3,0.9-4,3.2-4,5.9c0,2.5,1.5,4.4,3.6,5.5l-1.1,0.4h3.1
								c0.3,0,0.5,0.2,0.8,0.2s0.5-0.2,0.8-0.2h61.8l-3.2-0.8C100.2,96.3,102.7,93.9,102.7,90.7z M86.4,93.7c0.8-0.6,1.6-1.4,2-2.4
								c0.6,0.3,1.1,0.5,1.8,0.6c0.3,1.4,1,2.7,2.1,3.6L86.4,93.7z"/>
							<path class="st1" d="M37.6,99.2c-0.4,0-0.7-0.1-0.8-0.1l0,0H24.3l7.3-2.4c-1.2-1.4-1.9-3.1-1.9-4.9c0-2.7,1.4-5.2,3.7-6.6
								c-0.1-0.6-0.3-1.2-0.3-1.9c0-5.8,4.5-10.6,10.2-11c2.6-6.8,8.9-11.3,16-11.3c6.9,0,13,4,15.8,10.3c5.3,0.5,9.5,4.8,9.9,10.1
								c1.5-2,3.8-3.3,6.4-3.3c3.4,0,6.3,2.2,7.3,5.4c3.2,1.1,5.4,4,5.4,7.3c0,2.2-1,4.2-2.6,5.6l11.2,2.7H38.5
								C38.2,99.1,37.9,99.2,37.6,99.2z M35.9,96h0.9c0.3,0,0.6,0.1,0.8,0.1c0.2-0.1,0.5-0.1,0.8-0.1h50.4l-5.6-1.7l2.3-1.8
								c0.8-0.6,1.3-1.2,1.6-1.9l0.7-1.5l1.4,0.8c0.4,0.2,0.8,0.4,1.4,0.5l1,0.2l0.2,1c0.2,1.1,0.7,2,1.6,2.7l1.4,1.2l2.2-0.3
								c2.6-0.3,4.3-2.2,4.3-4.6c0-2.3-1.6-4.2-3.9-4.6l-1-0.2l-0.2-1c-0.5-2.3-2.4-3.9-4.6-3.9c-1.9,0-3.6,1.1-4.4,2.9l-0.7,1.5
								l-1.4-0.7c-0.5-0.3-1-0.4-1.6-0.5L82,83.9l0.2-1.5c0-0.1,0-0.3,0.1-0.4c-0.1-4.3-3.6-7.8-8-7.9h-1l-0.4-1
								c-2.1-5.7-7.4-9.3-13.4-9.3c-6.2,0-11.6,4.1-13.5,10.2l-0.3,1.1h-1.1c-0.1,0-0.3,0-0.3,0c-4.4,0.1-7.9,3.7-7.9,8
								c0,0.7,0.2,1.4,0.5,2.2l0.4,1.3L36,87.1c-1.8,0.8-3,2.5-3,4.5c0,1.8,1,3.3,2.7,4.1L35.9,96z"/>
						</g>
					</g>
				</g>
			</g>
			<g>
				<path class="st1" d="M73,143h-87V59h87V143z M-11,140h81V62h-81V140z"/>
			</g>
			<g>
				<polyline class="st6" points="-10.2,139.1 21.1,129 19.8,113.7 				"/>
				<path class="st1" d="M-10.2,140.6c-0.6,0-1.2-0.4-1.4-1c-0.3-0.8,0.2-1.6,1-1.9l30.1-9.7l-1.2-14.2c-0.1-0.8,0.5-1.6,1.4-1.6
					c0.8-0.1,1.6,0.5,1.6,1.4l1.3,15.3c0.1,0.7-0.4,1.3-1,1.6l-31.3,10.1C-9.9,140.6-10,140.6-10.2,140.6z"/>
			</g>
			<g>
				<polyline class="st6" points="34.2,125.4 62.6,111.1 62.9,99.6 				"/>
				<path class="st1" d="M34.2,126.9c-0.5,0-1.1-0.3-1.3-0.8c-0.4-0.7-0.1-1.6,0.7-2l27.6-14l0.3-10.5c0-0.8,0.7-1.5,1.5-1.5
					s1.5,0.7,1.5,1.5L64,111.1c0,0.5-0.3,1-0.8,1.3l-28.4,14.4C34.6,126.9,34.4,126.9,34.2,126.9z"/>
			</g>
			<g>
				<path class="st0" d="M21.6,101c-8.8,0-15.9-7.1-15.9-15.9c0-5.2,2.5-9.7,6.3-12.6C3.6,73.6-2.9,80.7-2.9,89.4
					c0,9.4,7.6,17.1,17.1,17.1c5.5,0,10.4-2.7,13.5-6.8C25.9,100.6,23.9,101,21.6,101z"/>
				<path class="st1" d="M14.3,108C4.1,108-4.3,99.7-4.3,89.4c0-9.2,6.9-17.1,16.2-18.3l5.6-0.7L13,73.8c-3.6,2.8-5.7,6.9-5.7,11.4
					c0,7.9,6.4,14.4,14.4,14.4c1.9,0,3.8-0.4,5.6-1.1l5.3-2.3l-3.6,4.5C25.5,105.3,20.1,108,14.3,108z M7.1,75.7
					c-5,2.6-8.4,7.8-8.4,13.7c0,8.6,7,15.6,15.6,15.6c3,0,5.9-0.9,8.4-2.5c-0.4,0-0.7,0-1.1,0c-9.6,0-17.4-7.8-17.4-17.4
					C4.3,81.7,5.3,78.5,7.1,75.7z"/>
			</g>
			<g>
				<g>
					<path class="st1" d="M40,52.2c0-1,0.8-1.8,1.8-1.8s1.8,0.8,1.8,1.8S42.8,54,41.8,54S40,53.2,40,52.2z"/>
					<path class="st7" d="M41.8,54.5c-1.3,0-2.3-1-2.3-2.3s1-2.3,2.3-2.3s2.3,1,2.3,2.3S43.1,54.5,41.8,54.5z M41.8,50.9
						c-0.7,0-1.3,0.6-1.3,1.3s0.6,1.3,1.3,1.3s1.3-0.6,1.3-1.3S42.5,50.9,41.8,50.9z"/>
				</g>
				<g>
					<path class="st1" d="M27.5,52.2c0-1,0.8-1.8,1.8-1.8s1.8,0.8,1.8,1.8S30.3,54,29.3,54S27.5,53.2,27.5,52.2z"/>
					<path class="st7" d="M29.3,54.5c-1.3,0-2.3-1-2.3-2.3s1-2.3,2.3-2.3s2.3,1,2.3,2.3C31.6,53.4,30.5,54.5,29.3,54.5z M29.3,50.9
						c-0.7,0-1.3,0.6-1.3,1.3s0.6,1.3,1.3,1.3c0.7,0,1.3-0.6,1.3-1.3C30.6,51.5,30,50.9,29.3,50.9z"/>
				</g>
				<g>
					<path class="st1" d="M14.9,52.2c0-1,0.8-1.8,1.8-1.8s1.8,0.8,1.8,1.8S17.7,54,16.7,54S14.9,53.2,14.9,52.2z"/>
					<path class="st7" d="M16.7,54.5c-1.3,0-2.3-1-2.3-2.3s1-2.3,2.3-2.3s2.3,1,2.3,2.3S18,54.5,16.7,54.5z M16.7,50.9
						c-0.7,0-1.3,0.6-1.3,1.3s0.6,1.3,1.3,1.3s1.3-0.6,1.3-1.3S17.4,50.9,16.7,50.9z"/>
				</g>
			</g>
		</g>
	</g>
	<g id="Layer_2">
		<g id="Layer_2_1_">
			<g id="Layer_3">
				<g>
					<g>
						<path class="st8" d="M45.1,147.9c-1.9,1.9-6.6,0.2-10.7-3.8l0,0c-4-4-5.6-8.7-3.8-10.7l45.7-45.7c1.9-1.9,6.6-0.2,10.7,3.7
							l0,0c4,4,5.6,8.7,3.8,10.7L45.1,147.9z"/>
						<path class="st1" d="M42.9,150.2c-2.7,0-6.3-1.8-9.6-5c-4.6-4.6-6.3-10.1-3.9-12.8l45.8-45.8c2.5-2.5,7.9-1,12.8,3.7
							c4.6,4.6,6.3,10.1,3.9,12.8L46.1,149C45.3,149.8,44.2,150.2,42.9,150.2z M78.4,88.4c-0.5,0-0.9,0.1-1.1,0.3l-45.7,45.7
							c-0.9,1,0,4.8,3.8,8.6c3.9,3.8,7.6,4.8,8.6,3.8L89.7,101c0.9-1,0-4.8-3.8-8.6C82.9,89.6,80.1,88.4,78.4,88.4z"/>
					</g>
					<g>
						<polygon class="st6" points="14.8,163.5 23,144.3 34.4,155.6 						"/>
						<path class="st1" d="M14.8,165c-0.4,0-0.8-0.2-1.1-0.5c-0.4-0.4-0.5-1.1-0.3-1.6l8.2-19.2c0.2-0.5,0.6-0.8,1.1-0.9
							c0.5-0.1,1,0.1,1.3,0.4l11.4,11.3c0.4,0.4,0.5,0.9,0.4,1.4s-0.4,0.9-0.9,1.1l-19.6,7.9C15.2,165,15,165,14.8,165z M23.5,146.9
							l-5.9,13.8l14.1-5.7L23.5,146.9z"/>
					</g>
					<g>
						<polygon class="st1" points="14.8,163.4 18.2,155.8 22.5,160.2 						"/>
						<path class="st1" d="M14.8,164.9c-0.4,0-0.8-0.2-1.1-0.5c-0.4-0.4-0.5-1.1-0.3-1.7l3.4-7.6c0.2-0.5,0.6-0.8,1.1-0.9
							c0.5-0.1,1,0.1,1.3,0.4l4.3,4.4c0.3,0.4,0.5,0.9,0.4,1.3c-0.1,0.5-0.4,0.9-0.9,1.1l-7.7,3.2C15.2,164.9,15,164.9,14.8,164.9z
							 M18.6,158.4l-1,2.1l2.2-0.9L18.6,158.4z"/>
					</g>
					<g>
						<path class="st6" d="M38.4,154.6c-1.9,1.9-6.6,0.2-10.7-3.7l0,0c-4-4-5.6-8.7-3.7-10.7l45.7-45.7c1.9-1.9,6.6-0.2,10.7,3.7
							l0,0c4,4,5.6,8.7,3.8,10.7L38.4,154.6z"/>
						<path class="st1" d="M36.2,156.9c-2.7,0-6.3-1.7-9.6-4.9c-4.7-4.7-6.3-10.1-3.8-12.8l45.7-45.7c2.5-2.5,7.9-1,12.8,3.7
							c4.6,4.6,6.3,10.1,3.9,12.8l-45.9,45.8C38.6,156.5,37.5,156.9,36.2,156.9z M71.8,95.2c-0.5,0-0.9,0.1-1.1,0.3L25,141.3
							c-1,1-0.1,4.8,3.7,8.6c3.9,3.7,7.6,4.7,8.6,3.7l0,0l45.8-45.7c0.9-1,0-4.8-3.8-8.6C76.3,96.4,73.5,95.2,71.8,95.2z"/>
					</g>
					<g>
						<path class="st4" d="M34.7,150.9c-1.9,1.9-4.9,1.9-6.8,0l0,0c-1.9-1.9-1.9-4.9,0-6.8l45.7-45.8c1.9-1.9,4.9-1.9,6.8,0l0,0
							c1.9,1.9,1.9,5,0,6.8L34.7,150.9z"/>
						<path class="st1" d="M31.3,153.8c-1.7,0-3.3-0.7-4.5-1.9s-1.9-2.8-1.9-4.5s0.7-3.3,1.9-4.5l45.7-45.8c2.5-2.5,6.4-2.5,8.9,0
							c1.2,1.2,1.9,2.9,1.9,4.6s-0.7,3.2-1.9,4.4L35.7,152C34.5,153.2,32.9,153.8,31.3,153.8z M77,98.4c-0.8,0-1.7,0.3-2.3,1
							L29,145.2c-0.6,0.6-1,1.5-1,2.3s0.4,1.7,1,2.3c1.3,1.3,3.4,1.3,4.7,0L79.3,104c0.6-0.6,1-1.4,1-2.3s-0.3-1.8-1-2.4
							C78.7,98.7,77.8,98.4,77,98.4z"/>
					</g>
				</g>
			</g>
		</g>
	</g>
</g>
<g id="Layer_2_2_">
	<path class="st9" d="M89.2,161.8H61.7c-0.6,0-1-0.5-1-1v-27.7c0-0.6,0.5-1,1-1h27.5c0.6,0,1,0.5,1,1v27.7
		C90.2,161.3,89.8,161.8,89.2,161.8z"/>
</g>
<g id="Layer_3_1_">
	<text transform="matrix(1 0 0 1 66.5 152.4001)" class="st0 st10 st11">Ps</text>
</g>
</svg>
