<?xml version="1.0" encoding="utf-8"?>
<!-- Generator: Adobe Illustrator 20.0.0, SVG Export Plug-In . SVG Version: 6.00 Build 0)  -->
<svg version="1.1" id="Layer_1" xmlns="http://www.w3.org/2000/svg" xmlns:xlink="http://www.w3.org/1999/xlink" x="0px" y="0px"
	 viewBox="0 0 32 32" style="enable-background:new 0 0 32 32;" xml:space="preserve">
<style type="text/css">
	.st0{fill:#37474F;}
	.st1{fill:#FFFFFF;}
	.st2{fill:#FFAB00;}
	.st3{fill:#FFECB3;}
</style>
<g>
	<g>
		<g>
			<path class="st0" d="M29.8,7.5c0.7-0.7,0-2.4-1.4-3.9l0,0c-1.5-1.5-3.2-2.1-3.9-1.4L7.6,19c-0.7,0.7-0.1,2.4,1.4,3.9l0,0
				c1.5,1.5,3.2,2.1,3.9,1.4L29.8,7.5z"/>
			<path class="st0" d="M8.7,23.3c-1.1-1.2-1.8-2.5-1.8-3.5c0-0.4,0.1-0.8,0.4-1.1L24.1,1.9c0.9-0.9,3-0.3,4.7,1.3
				c1.1,1.1,1.8,2.5,1.8,3.5c0,0.5-0.2,0.9-0.5,1.2L13.3,24.7c-0.3,0.3-0.7,0.4-1.2,0.4l0,0C11.1,25.1,9.8,24.4,8.7,23.3z M24.8,2.6
				L8,19.4c-0.1,0.1-0.1,0.2-0.1,0.4c0,0.7,0.4,1.7,1.5,2.8c1.4,1.4,2.8,1.8,3.2,1.4L29.5,7.1c0.1-0.1,0.1-0.2,0.1-0.4
				C29.6,6.1,29.1,5,28,4c-1-1.1-2.1-1.6-2.7-1.6C25.1,2.4,24.9,2.5,24.8,2.6z"/>
		</g>
		<g>
			<polygon class="st1" points="9,27.2 4.8,23 1.8,30.1 			"/>
			<path class="st0" d="M1.5,30.4c-0.1-0.1-0.2-0.3-0.1-0.5l3-7.1c0.1-0.2,0.2-0.3,0.4-0.3c0.1-0.1,0.3,0,0.4,0.1l4.2,4.2
				c0.1,0.2,0.1,0.3,0.1,0.5c0,0.2-0.1,0.3-0.3,0.4L2,30.6c-0.1,0-0.1,0-0.2,0C1.6,30.6,1.5,30.5,1.5,30.4z M5,23.8l-2.3,5.3L8.1,27
				L5,23.8z"/>
		</g>
		<g>
			<polygon class="st0" points="4.6,28.9 3,27.3 1.7,30.1 			"/>
			<path class="st0" d="M1.4,30.6c-0.1-0.2-0.2-0.4-0.1-0.6l1.2-2.8c0.1-0.2,0.2-0.3,0.4-0.3c0.1-0.1,0.3,0,0.4,0.1l1.6,1.6
				C5,28.7,5,28.8,5,29c0,0.2-0.1,0.3-0.3,0.4l-2.8,1.2c-0.1,0-0.1,0-0.2,0C1.6,30.6,1.5,30.5,1.4,30.6z M3.1,28.1l-0.4,1l1-0.4
				L3.1,28.1z"/>
		</g>
		<g>
			<path class="st2" d="M27.3,10c0.7-0.7,0.1-2.5-1.4-3.9l0,0C24.4,4.6,22.7,4,22,4.7L5.2,21.5c-0.7,0.7-0.1,2.4,1.4,3.9l0,0
				c1.5,1.5,3.2,2.1,3.9,1.4L27.3,10z"/>
			<path class="st0" d="M6.3,25.8c-1.1-1.2-1.8-2.5-1.8-3.5c0-0.4,0.1-0.8,0.4-1.1L21.7,4.4c0.9-0.9,3-0.2,4.6,1.4
				c0.7,0.7,1.3,1.6,1.6,2.4c0.3,0.9,0.2,1.7-0.3,2.2L10.9,27.2c-0.3,0.3-0.7,0.4-1.2,0.4l0,0C8.6,27.6,7.3,26.9,6.3,25.8z M22.3,5
				L5.5,21.8c-0.1,0.1-0.1,0.2-0.1,0.4c0,0.6,0.4,1.7,1.5,2.8c1.4,1.4,2.8,1.8,3.2,1.4L26.9,9.6c0.2-0.1,0.2-0.6,0-1.1
				c-0.2-0.7-0.7-1.4-1.3-2.1c-1.1-1-2.2-1.5-2.8-1.5C22.6,4.9,22.4,5,22.3,5z"/>
		</g>
		<g>
			<path class="st3" d="M25.9,8.6c0.7-0.7,0.7-1.8,0-2.5l0,0c-0.7-0.7-1.8-0.7-2.5,0L6.6,22.9c-0.7,0.7-0.7,1.8,0,2.5l0,0
				c0.7,0.7,1.8,0.7,2.5,0L25.9,8.6z"/>
			<path class="st0" d="M6.3,25.8c-0.9-0.9-0.9-2.3,0-3.2L23.1,5.8c0.8-0.9,2.3-0.9,3.2,0c0.9,0.9,0.9,2.3,0,3.2L9.4,25.8
				c-0.4,0.5-1,0.7-1.6,0.7S6.6,26.2,6.3,25.8z M23.7,6.4L6.9,23.3c-0.5,0.5-0.5,1.3,0,1.8s1.3,0.5,1.8,0L25.5,8.3
				C26,7.8,26,7,25.5,6.5c-0.2-0.3-0.6-0.4-0.9-0.4C24.3,6.1,24,6.2,23.7,6.4z"/>
		</g>
	</g>
</g>
</svg>
