<?xml version="1.0" encoding="utf-8"?>
<!-- Generator: Adobe Illustrator 16.0.0, SVG Export Plug-In . SVG Version: 6.00 Build 0)  -->
<!DOCTYPE svg PUBLIC "-//W3C//DTD SVG 1.1//EN" "http://www.w3.org/Graphics/SVG/1.1/DTD/svg11.dtd">
<svg version="1.1" id="Layer_1" xmlns="http://www.w3.org/2000/svg" xmlns:xlink="http://www.w3.org/1999/xlink" x="0px" y="0px"
	 width="32px" height="32.5px" viewBox="0 0 32 32.5" enable-background="new 0 0 32 32.5" xml:space="preserve">
<g>
	<g>
		<polygon fill="#37474F" points="14.3,31.5 8.7,31.5 10.2,16.5 12.9,16.5 		"/>
		<path fill="#37474F" d="M14.4,32C14.4,32,14.3,32,14.4,32H8.7c-0.1,0-0.3-0.1-0.4-0.2s-0.1-0.2-0.1-0.4l1.5-15
			c0-0.3,0.2-0.5,0.5-0.5h2.7c0.3,0,0.5,0.2,0.5,0.5l1.4,14.9c0,0.1,0,0.1,0,0.2C14.9,31.8,14.6,32,14.4,32z M9.2,31h4.5l-1.4-14
			h-1.8L9.2,31z"/>
	</g>
	<g>
		<polygon fill="#78909C" points="27.5,31.5 13.5,31.5 13.5,22.2 27.5,18.8 		"/>
		<path fill="#37474F" d="M28,32H13V21.8l15-3.6V32z M14,31h13V19.5l-13,3.1V31z"/>
	</g>
	<g>
		<g>
			<polyline fill="#B0BEC5" points="18.8,22.7 20,22.7 20,24.7 			"/>
			<path fill="#37474F" d="M20,25.2c-0.3,0-0.5-0.2-0.5-0.5v-1.4h-0.8c-0.3,0-0.5-0.2-0.5-0.5s0.2-0.5,0.5-0.5H20
				c0.3,0,0.5,0.2,0.5,0.5v1.9C20.5,24.9,20.3,25.2,20,25.2z"/>
		</g>
		<g>
			<polyline fill="#B0BEC5" points="24.4,22.7 25.7,22.7 25.7,24.7 			"/>
			<path fill="#37474F" d="M25.7,25.2c-0.3,0-0.5-0.2-0.5-0.5v-1.4h-0.8c-0.3,0-0.5-0.2-0.5-0.5s0.2-0.5,0.5-0.5h1.3
				c0.3,0,0.5,0.2,0.5,0.5v1.9C26.2,24.9,25.9,25.2,25.7,25.2z"/>
		</g>
	</g>
	<g>
		<g>
			<polyline fill="#B0BEC5" points="18.8,26.8 20,26.8 20,28.7 			"/>
			<path fill="#37474F" d="M20,29.2c-0.3,0-0.5-0.2-0.5-0.5v-1.4h-0.8c-0.3,0-0.5-0.2-0.5-0.5s0.2-0.5,0.5-0.5H20
				c0.3,0,0.5,0.2,0.5,0.5v1.9C20.5,29,20.3,29.2,20,29.2z"/>
		</g>
		<g>
			<polyline fill="#B0BEC5" points="24.4,26.8 25.7,26.8 25.7,28.7 			"/>
			<path fill="#37474F" d="M25.7,29.2c-0.3,0-0.5-0.2-0.5-0.5v-1.4h-0.8c-0.3,0-0.5-0.2-0.5-0.5s0.2-0.5,0.5-0.5h1.3
				c0.3,0,0.5,0.2,0.5,0.5v1.9C26.2,29,25.9,29.2,25.7,29.2z"/>
		</g>
	</g>
	<g>
		<polygon fill="#FFFFFF" points="20.5,31.5 6.5,31.5 6.5,22.2 20.5,18.8 		"/>
		<path fill="#37474F" d="M20.5,32h-14C6.2,32,6,31.8,6,31.5v-9.3c0-0.2,0.2-0.4,0.4-0.5l14-3.4c0.1,0,0.3,0,0.4,0.1
			c0.1,0.1,0.2,0.2,0.2,0.4v12.7C21,31.8,20.8,32,20.5,32z M7,31h13V19.5L7,22.6V31z"/>
	</g>
	<g>
		<g>
			<g>
				<g>
					<path fill="#B0BEC5" d="M7.5,12V3.8c0-1.1,0.5-1.9,1.6-1.9l0,0c1.1,0,1.4,0.7,1.4,1.8"/>
					<path fill="#37474F" d="M7.5,12.5C7.2,12.5,7,12.3,7,12V3.8c0-1.5,0.8-2.4,2.1-2.4C10,1.4,11,1.8,11,3.7c0,0.3-0.2,0.5-0.5,0.5
						S10,3.9,10,3.7c0-1.2-0.4-1.3-0.9-1.3c-1,0-1.1,1-1.1,1.4V12C8,12.3,7.8,12.5,7.5,12.5z"/>
				</g>
				<g>
					<path fill="#B0BEC5" d="M10.5,3.7l0,8c0,1.1,0.9,1.8,2,1.8l0,0c1.1,0,2-0.6,2-1.6"/>
					<path fill="#37474F" d="M12.5,14c-1.4,0-2.5-1-2.5-2.3l0-8c0-0.3,0.2-0.5,0.5-0.5c0,0,0,0,0,0c0.3,0,0.5,0.2,0.5,0.5l0,8
						c0,0.9,0.8,1.3,1.5,1.3c0.7,0,1.5-0.3,1.5-1.1c0-0.3,0.2-0.5,0.5-0.5s0.5,0.2,0.5,0.5C15,13.1,14,14,12.5,14z"/>
				</g>
			</g>
			<g>
				<g>
					<path fill="#B0BEC5" d="M14.5,12V3.8c0-1.1,1.1-2,2.2-2l0,0c1.1,0,1.8,0.6,1.8,1.7"/>
					<path fill="#37474F" d="M14.5,12.5c-0.3,0-0.5-0.2-0.5-0.5V3.8c0-1.3,1.3-2.5,2.7-2.5c1.4,0,2.3,0.9,2.3,2.2
						C19,3.8,18.8,4,18.5,4S18,3.8,18,3.5c0-1.1-0.9-1.2-1.3-1.2c-0.9,0-1.7,0.7-1.7,1.5V12C15,12.3,14.8,12.5,14.5,12.5z"/>
				</g>
				<g>
					<path fill="#B0BEC5" d="M18.5,3.5l0,8.3c0,1.1,1.1,2,2.1,2l0,0c1.1,0,1.9-1.2,1.9-2.3"/>
					<path fill="#37474F" d="M20.6,14.3c-1.4,0-2.6-1.1-2.6-2.5l0-8.3C18,3.3,18.2,3,18.5,3c0,0,0,0,0,0C18.8,3,19,3.3,19,3.5l0,8.3
						c0,0.8,0.8,1.5,1.6,1.5c0.8,0,1.4-0.9,1.4-1.8c0-0.3,0.2-0.5,0.5-0.5s0.5,0.2,0.5,0.5C23,12.8,22,14.3,20.6,14.3z"/>
				</g>
			</g>
		</g>
	</g>
	<g>
		<polygon fill="#FFAB00" points="11,31.5 3.6,31.5 5.5,11.5 9.1,11.5 		"/>
		<path fill="#37474F" d="M11,32C11,32,11,32,11,32H3.6c-0.1,0-0.3-0.1-0.4-0.2c-0.1-0.1-0.1-0.2-0.1-0.4l1.9-20
			C5,11.2,5.2,11,5.5,11h3.5c0.3,0,0.5,0.2,0.5,0.5l1.9,19.9c0,0.1,0,0.1,0,0.2C11.5,31.8,11.2,32,11,32z M4.2,31h6.2L8.6,12H6
			L4.2,31z"/>
	</g>
	<g>
		<g>
			<polyline fill="#FFFFFF" points="3.7,29.9 3.6,31.5 11,31.5 			"/>
			<path fill="#37474F" d="M11,32H3.6c-0.1,0-0.3-0.1-0.4-0.2c-0.1-0.1-0.1-0.2-0.1-0.4l0.1-1.6c0-0.3,0.3-0.5,0.5-0.5
				c0.3,0,0.5,0.3,0.5,0.5L4.1,31H11c0.3,0,0.5,0.2,0.5,0.5S11.3,32,11,32z"/>
		</g>
		<g>
			<polyline fill="#FFFFFF" points="4.2,24.7 4.1,26.5 10,26.5 			"/>
			<path fill="#37474F" d="M10,27H4.1c-0.1,0-0.3-0.1-0.4-0.2c-0.1-0.1-0.1-0.2-0.1-0.4l0.1-1.8c0-0.3,0.2-0.5,0.5-0.5
				c0.3,0,0.5,0.3,0.5,0.5L4.6,26H10c0.3,0,0.5,0.2,0.5,0.5S10.3,27,10,27z"/>
		</g>
		<g>
			<polygon fill="#FFFFFF" points="9.1,11.5 5.5,11.5 5.2,15.5 9.4,15.5 			"/>
			<path fill="#37474F" d="M9.4,16H5.2c-0.1,0-0.3-0.1-0.4-0.2s-0.1-0.2-0.1-0.4l0.3-4C5,11.2,5.2,11,5.5,11h3.5
				c0.3,0,0.5,0.2,0.5,0.5l0.3,4c0,0.1,0,0.3-0.1,0.4S9.5,16,9.4,16z M5.7,15h3.1l-0.3-3H6L5.7,15z"/>
		</g>
		<g>
			<polyline fill="#FFFFFF" points="4.8,18.8 4.6,20.5 10,20.5 			"/>
			<path fill="#37474F" d="M10,21H4.6c-0.1,0-0.3-0.1-0.4-0.2c-0.1-0.1-0.1-0.2-0.1-0.4l0.1-1.7c0-0.3,0.2-0.5,0.5-0.5
				c0.3,0,0.5,0.3,0.5,0.5L5.2,20H10c0.3,0,0.5,0.2,0.5,0.5S10.3,21,10,21z"/>
		</g>
	</g>
	<g>
		<g>
			<path fill="#B0BEC5" d="M23.1,4.5c-0.2,0-0.4-0.2-0.4-0.4c0-0.2,0.2-0.4,0.4-0.4c0.2,0,0.4,0.2,0.4,0.4
				C23.5,4.3,23.3,4.5,23.1,4.5z"/>
			<path fill="#B0BEC5" d="M23.1,5c-0.5,0-0.9-0.4-0.9-0.9c0-0.5,0.4-0.9,0.9-0.9c0.5,0,0.9,0.4,0.9,0.9c0,0.2-0.1,0.4-0.2,0.6
				C23.5,4.9,23.3,5,23.1,5z"/>
		</g>
		<g>
			<path fill="#B0BEC5" d="M23.1,7.2c-0.2,0-0.4-0.2-0.4-0.4c0-0.2,0.2-0.4,0.4-0.4c0.2,0,0.4,0.2,0.4,0.4C23.5,7,23.3,7.2,23.1,7.2
				z"/>
			<path fill="#B0BEC5" d="M23.1,7.7c-0.5,0-0.9-0.4-0.9-0.9c0-0.5,0.4-0.9,0.9-0.9h0c0.5,0,0.9,0.4,0.9,0.9
				C23.9,7.3,23.5,7.7,23.1,7.7L23.1,7.7z"/>
		</g>
		<g>
			<path fill="#B0BEC5" d="M23.1,9.9c-0.2,0-0.4-0.2-0.4-0.4c0-0.2,0.2-0.4,0.4-0.4c0.2,0,0.4,0.2,0.4,0.4
				C23.5,9.8,23.3,9.9,23.1,9.9z"/>
			<path fill="#B0BEC5" d="M23.1,10.4c-0.5,0-0.9-0.4-0.9-0.9c0-0.5,0.4-0.9,0.9-0.9c0.2,0,0.5,0.1,0.6,0.3C23.9,9.1,24,9.3,24,9.6
				c0,0.2-0.1,0.4-0.2,0.6C23.5,10.3,23.3,10.4,23.1,10.4z"/>
		</g>
	</g>
	<g>
		<g>
			<polyline fill="#B0BEC5" points="12,22.7 13.2,22.7 13.2,24.7 			"/>
			<path fill="#37474F" d="M13.2,25.2c-0.3,0-0.5-0.2-0.5-0.5v-1.4H12c-0.3,0-0.5-0.2-0.5-0.5s0.2-0.5,0.5-0.5h1.3
				c0.3,0,0.5,0.2,0.5,0.5v1.9C13.7,24.9,13.5,25.2,13.2,25.2z"/>
		</g>
		<g>
			<polyline fill="#B0BEC5" points="17.6,22.7 18.9,22.7 18.9,24.7 			"/>
			<path fill="#37474F" d="M18.9,25.2c-0.3,0-0.5-0.2-0.5-0.5v-1.4h-0.8c-0.3,0-0.5-0.2-0.5-0.5s0.2-0.5,0.5-0.5h1.3
				c0.3,0,0.5,0.2,0.5,0.5v1.9C19.4,24.9,19.2,25.2,18.9,25.2z"/>
		</g>
	</g>
	<g>
		<g>
			<polyline fill="#B0BEC5" points="12,26.8 13.2,26.8 13.2,28.7 			"/>
			<path fill="#37474F" d="M13.2,29.2c-0.3,0-0.5-0.2-0.5-0.5v-1.4H12c-0.3,0-0.5-0.2-0.5-0.5s0.2-0.5,0.5-0.5h1.3
				c0.3,0,0.5,0.2,0.5,0.5v1.9C13.7,29,13.5,29.2,13.2,29.2z"/>
		</g>
		<g>
			<polyline fill="#B0BEC5" points="17.6,26.8 18.9,26.8 18.9,28.7 			"/>
			<path fill="#37474F" d="M18.9,29.2c-0.3,0-0.5-0.2-0.5-0.5v-1.4h-0.8c-0.3,0-0.5-0.2-0.5-0.5s0.2-0.5,0.5-0.5h1.3
				c0.3,0,0.5,0.2,0.5,0.5v1.9C19.4,29,19.2,29.2,18.9,29.2z"/>
		</g>
	</g>
	<g>
		<g>
			<line fill="#B0BEC5" x1="29.5" y1="27" x2="29.5" y2="31"/>
			<path fill="#37474F" d="M29.5,31.5c-0.3,0-0.5-0.2-0.5-0.5v-4c0-0.3,0.2-0.5,0.5-0.5S30,26.7,30,27v4
				C30,31.3,29.8,31.5,29.5,31.5z"/>
		</g>
	</g>
</g>
</svg>
