<?xml version="1.0" encoding="utf-8"?>
<!-- Generator: Adobe Illustrator 20.0.0, SVG Export Plug-In . SVG Version: 6.00 Build 0)  -->
<svg version="1.1" id="Layer_1" xmlns="http://www.w3.org/2000/svg" xmlns:xlink="http://www.w3.org/1999/xlink" x="0px" y="0px"
	 viewBox="0 0 33 33" style="enable-background:new 0 0 33 33;" xml:space="preserve">
<style type="text/css">
	.st0{fill:#FFAB00;}
	.st1{fill:#37474F;}
	.st2{fill:#FFFFFF;}
</style>
<g>
	<g>
		<path class="st0" d="M17.1,30.8c4.4-3.4,20-16,13.7-24.9c-5-7.1-12.2-2.1-14.3-0.5C14.4,3.8,7.2-1.1,2.2,5.9
			c-6.3,8.8,9.2,21.5,13.7,24.9"/>
		<path class="st1" d="M15.9,31.3c-0.1,0-0.2,0-0.3-0.1C10.7,27.5-4.7,14.8,1.8,5.6c1.6-2.2,3.5-3.5,5.8-3.8c3.7-0.5,7.3,1.7,8.9,3
			c1.6-1.2,5.2-3.5,8.9-3c2.2,0.3,4.2,1.6,5.8,3.8c6.5,9.1-8.9,21.9-13.8,25.6c-0.2,0.2-0.5,0.1-0.7-0.1s-0.1-0.5,0.1-0.7
			c18.6-14,15.1-22.1,13.6-24.2c-1.4-2-3.1-3.1-5.1-3.4c-3.6-0.5-7.1,1.9-8.5,3c-0.2,0.1-0.4,0.1-0.6,0c-1.4-1.1-4.9-3.5-8.5-3
			C5.7,3.1,4,4.2,2.6,6.2c-1.5,2.1-5,10.2,13.6,24.2c0.2,0.2,0.3,0.5,0.1,0.7C16.2,31.2,16.1,31.3,15.9,31.3z"/>
	</g>
	<g>
		<polygon class="st2" points="16.5,7.5 18.6,11.7 23.2,12.4 19.9,15.7 20.6,20.3 16.5,18.1 12.4,20.3 13.1,15.7 9.8,12.4 
			14.4,11.7 		"/>
		<path class="st1" d="M20.6,20.8c-0.1,0-0.2,0-0.2-0.1l-3.9-2.1l-3.9,2.1c-0.2,0.1-0.4,0.1-0.5,0c-0.2-0.1-0.2-0.3-0.2-0.5l0.7-4.4
			l-3.2-3.1c-0.1-0.1-0.2-0.3-0.1-0.5c0.1-0.2,0.2-0.3,0.4-0.3l4.4-0.6l2-4C16.3,7,16.8,7,17,7.3l2,4l4.4,0.6c0.2,0,0.3,0.2,0.4,0.3
			s0,0.4-0.1,0.5l-3.2,3.1l0.7,4.4c0,0.2,0,0.4-0.2,0.5C20.8,20.8,20.7,20.8,20.6,20.8z M10.9,12.8l2.6,2.6c0.1,0.1,0.2,0.3,0.1,0.4
			L13,19.4l3.3-1.7c0.1-0.1,0.3-0.1,0.5,0l3.2,1.7l-0.6-3.6c0-0.2,0-0.3,0.1-0.4l2.6-2.6l-3.6-0.5c-0.2,0-0.3-0.1-0.4-0.3l-1.6-3.3
			L14.9,12c-0.1,0.1-0.2,0.2-0.4,0.3L10.9,12.8z"/>
	</g>
	<g>
		<g>
			<path class="st1" d="M13.8,23c0-0.3-0.2-0.5-0.5-0.5s-0.5,0.2-0.5,0.5s0.2,0.5,0.5,0.5S13.8,23.3,13.8,23z"/>
			<path class="st1" d="M13.3,24c-0.5,0-1-0.4-1-1c0-0.5,0.4-1,1-1c0.5,0,1,0.4,1,1S13.9,24,13.3,24z"/>
		</g>
		<g>
			<path class="st1" d="M16.9,23c0-0.3-0.2-0.5-0.4-0.5c-0.2,0-0.5,0.2-0.5,0.5s0.2,0.5,0.5,0.5S16.9,23.3,16.9,23z"/>
			<path class="st1" d="M16.5,24c-0.5,0-1-0.4-1-1c0-0.5,0.4-1,1-1c0.5,0,0.9,0.4,0.9,1S17,24,16.5,24z"/>
		</g>
		<g>
			<path class="st1" d="M20.1,23c0-0.3-0.2-0.5-0.5-0.5s-0.5,0.2-0.5,0.5s0.2,0.5,0.5,0.5S20.1,23.3,20.1,23z"/>
			<circle class="st1" cx="19.7" cy="23" r="1"/>
		</g>
	</g>
</g>
</svg>
