<?xml version="1.0" encoding="utf-8"?>
<!-- Generator: Adobe Illustrator 20.0.0, SVG Export Plug-In . SVG Version: 6.00 Build 0)  -->
<svg version="1.1" id="Layer_1" xmlns="http://www.w3.org/2000/svg" xmlns:xlink="http://www.w3.org/1999/xlink" x="0px" y="0px"
	 viewBox="0 0 128 128" style="enable-background:new 0 0 128 128;" xml:space="preserve">
<style type="text/css">
	.st0{fill:#FFAB00;}
	.st1{fill:#37474F;}
	.st2{fill:#B0BEC5;}
	.st3{fill:none;}
</style>
<g id="Layer_3">
	<g>
		<g>
			<g>
				<rect x="16.3" y="23.7" class="st0" width="34.1" height="34.1"/>
			</g>
			<g>
				<path class="st1" d="M50.4,60.1H16.3c-1.3,0-2.3-1-2.3-2.3V23.7c0-1.2,1-2.3,2.3-2.3h34.1c1.2,0,2.3,1,2.3,2.3v34.1
					C52.6,59,51.6,60.1,50.4,60.1z M18.5,55.5H48V26H18.5V55.5z"/>
			</g>
		</g>
		<g>
			<g>
				<rect x="64" y="23.7" class="st2" width="47.7" height="10.2"/>
			</g>
			<g>
				<path class="st1" d="M111.7,36.2H64c-1.2,0-2.3-1-2.3-2.3V23.7c0-1.2,1-2.3,2.3-2.3h47.7c1.2,0,2.3,1,2.3,2.3v10.2
					C114,35.2,113,36.2,111.7,36.2z M66.3,31.7h43.2V26H66.3V31.7z"/>
			</g>
		</g>
		<g>
			<g>
				<line class="st3" x1="111.7" y1="44.2" x2="64" y2="44.2"/>
			</g>
			<g>
				<path class="st1" d="M111.7,46.4H64c-1.2,0-2.3-1-2.3-2.3s1-2.3,2.3-2.3h47.7c1.2,0,2.3,1,2.3,2.3S113,46.4,111.7,46.4z"/>
			</g>
		</g>
		<g>
			<g>
				<line class="st3" x1="111.7" y1="56.7" x2="64" y2="56.7"/>
			</g>
			<g>
				<path class="st1" d="M111.7,58.9H64c-1.2,0-2.3-1-2.3-2.3s1-2.3,2.3-2.3h47.7c1.2,0,2.3,1,2.3,2.3S113,58.9,111.7,58.9z"/>
			</g>
		</g>
		<g>
			<g>
				<line class="st3" x1="17" y1="72.6" x2="111" y2="72.6"/>
			</g>
			<g>
				<path class="st1" d="M111,74.8H17c-1.7,0-3-1-3-2.3c0-1.2,1.4-2.3,3-2.3h94c1.7,0,3,1,3,2.3S112.6,74.8,111,74.8z"/>
			</g>
		</g>
		<g>
			<g>
				<line class="st3" x1="17" y1="85.1" x2="111" y2="85.1"/>
			</g>
			<g>
				<path class="st1" d="M111,87.3H17c-1.7,0-3-1-3-2.3c0-1.2,1.4-2.3,3-2.3h94c1.7,0,3,1,3,2.3S112.6,87.3,111,87.3z"/>
			</g>
		</g>
		<g>
			<g>
				<line class="st3" x1="17" y1="98.7" x2="111" y2="98.7"/>
			</g>
			<g>
				<path class="st1" d="M111,101H17c-1.7,0-3-1-3-2.3s1.4-2.3,3-2.3h94c1.7,0,3,1,3,2.3S112.6,101,111,101z"/>
			</g>
		</g>
	</g>
</g>
<g id="Layer_2">
</g>
</svg>
