<?xml version="1.0" encoding="utf-8"?>
<!-- Generator: Adobe Illustrator 16.0.0, SVG Export Plug-In . SVG Version: 6.00 Build 0)  -->
<!DOCTYPE svg PUBLIC "-//W3C//DTD SVG 1.1//EN" "http://www.w3.org/Graphics/SVG/1.1/DTD/svg11.dtd">
<svg version="1.1" id="Layer_1" xmlns="http://www.w3.org/2000/svg" xmlns:xlink="http://www.w3.org/1999/xlink" x="0px" y="0px"
	 width="32px" height="32px" viewBox="0 0 32 32" enable-background="new 0 0 32 32" xml:space="preserve">
<g>
	<g>
		<g>
			<path fill="#37474F" d="M23.9,17.2c3.3-1.3,3.2-5,4.1-8.6c1.1-4.3-2.6-6.6-7.7-7.1c-4-0.4-9.7-0.7-9.4,5h7.7c1.2,0,0.9,1,0.9,2.4
				l2.4,0c1.5,0.1,2.8,1.3,2.8,2.9c0,1.6-1.2,2.8-2.8,2.9"/>
		</g>
		<g>
			<path fill="#37474F" d="M23.9,17.7c-0.2,0-0.4-0.1-0.5-0.3c-0.1-0.3,0-0.5,0.3-0.6c2.4-0.9,2.8-3.3,3.3-6
				c0.1-0.7,0.3-1.5,0.5-2.2c0.3-1.4,0.2-2.6-0.5-3.6c-1.1-1.6-3.5-2.6-6.7-2.9c-2.3-0.2-6.1-0.6-7.8,1.1c-0.7,0.7-1,1.6-1.1,2.8
				h7.2c0.4,0,0.8,0.1,1,0.4C20,6.8,20,7.5,20,8.2c0,0.1,0,0.1,0,0.2l1.9,0c1.8,0.1,3.3,1.5,3.3,3.4c0,1.8-1.4,3.3-3.3,3.4
				c-0.3,0-0.5-0.2-0.5-0.5c0-0.3,0.2-0.5,0.5-0.5c1.3,0,2.3-1.1,2.3-2.4c0-1.3-1-2.3-2.3-2.4l-2.4,0c-0.3,0-0.5-0.2-0.5-0.5
				c0-0.3,0-0.5,0-0.7c0-0.4,0-1-0.1-1.1c0,0-0.2-0.1-0.3-0.1h-7.7c-0.3,0-0.5-0.2-0.5-0.5c-0.1-1.8,0.4-3.1,1.4-4.1
				c2.1-2,6.2-1.6,8.6-1.4c3.5,0.3,6.2,1.5,7.5,3.3c0.9,1.2,1.1,2.7,0.7,4.4c-0.2,0.7-0.3,1.5-0.5,2.2c-0.5,2.9-1.1,5.6-3.9,6.7
				C24.1,17.7,24,17.7,23.9,17.7z"/>
		</g>
	</g>
	<g>
		<g>
			<line fill="#FFFFFF" x1="17.7" y1="21.8" x2="19.4" y2="24.8"/>
		</g>
		<g>
			<path fill="#37474F" d="M19.4,25.3c-0.2,0-0.3-0.1-0.4-0.3l-1.7-3c-0.1-0.2-0.1-0.5,0.2-0.7c0.2-0.1,0.5-0.1,0.7,0.2l1.7,3
				c0.1,0.2,0.1,0.5-0.2,0.7C19.6,25.3,19.5,25.3,19.4,25.3z"/>
		</g>
	</g>
	<g>
		<g>
			<line fill="#FFFFFF" x1="14.9" y1="18" x2="12.6" y2="18.9"/>
		</g>
		<g>
			<path fill="#37474F" d="M12.6,19.4c-0.2,0-0.4-0.1-0.5-0.3c-0.1-0.3,0-0.5,0.3-0.6l2.3-0.9c0.3-0.1,0.5,0,0.6,0.3
				c0.1,0.3,0,0.5-0.3,0.6l-2.3,0.9C12.7,19.4,12.7,19.4,12.6,19.4z"/>
		</g>
	</g>
	<g>
		<g>
			<path fill="#FFAB00" d="M15.5,12.7c0,1.4-0.8,2.3-2.2,2.3h-2.2c-1.4,0-2.2-1-2.2-2.3v-4c0-1.4,0.9-2.1,2.2-2.1h2.2
				c1.4,0,2.2,0.8,2.2,2.1V12.7z"/>
		</g>
		<g>
			<path fill="#37474F" d="M13.3,15.5h-2.2c-1.6,0-2.7-1.2-2.7-2.8v-4C8.3,7,9.4,6,11.1,6h2.2C14.9,6,16,7,16,8.6v4
				C16,14.4,14.9,15.5,13.3,15.5z M11.1,7C10,7,9.3,7.6,9.3,8.6v4c0,1.1,0.7,1.8,1.7,1.8h2.2c1,0,1.7-0.7,1.7-1.8v-4
				C15,7.6,14.4,7,13.3,7H11.1z"/>
		</g>
	</g>
	<g>
		<g>
			<path fill="#FFECB3" d="M15.9,8.4h11.4c1.2,0,2.2,1.2,2.2,2.4l0,0c0,1.2-1,2.4-2.2,2.4H15.9"/>
		</g>
		<g>
			<path fill="#37474F" d="M27.3,13.6H15.9c-0.3,0-0.5-0.2-0.5-0.5s0.2-0.5,0.5-0.5h11.4c0.9,0,1.7-0.9,1.7-1.9c0-1-0.8-1.9-1.7-1.9
				H15.9c-0.3,0-0.5-0.2-0.5-0.5s0.2-0.5,0.5-0.5h11.4c1.4,0,2.7,1.3,2.7,2.9C30,12.3,28.8,13.6,27.3,13.6z"/>
		</g>
	</g>
	<g>
		<g>
			<line fill="#FFFFFF" x1="17.4" y1="9.8" x2="17.4" y2="10.8"/>
		</g>
		<g>
			<path fill="#37474F" d="M17.4,11.3c-0.3,0-0.5-0.2-0.5-0.5V9.8c0-0.3,0.2-0.5,0.5-0.5s0.5,0.2,0.5,0.5v0.9
				C17.9,11,17.6,11.3,17.4,11.3z"/>
		</g>
	</g>
	<g>
		<g>
			<line fill="#FFFFFF" x1="19.3" y1="9.8" x2="19.3" y2="10.8"/>
		</g>
		<g>
			<path fill="#37474F" d="M19.3,11.3c-0.3,0-0.5-0.2-0.5-0.5V9.8c0-0.3,0.2-0.5,0.5-0.5s0.5,0.2,0.5,0.5v0.9
				C19.8,11,19.5,11.3,19.3,11.3z"/>
		</g>
	</g>
	<g>
		<g>
			<g>
				<path fill="#FFECB3" d="M13.5,9c0,0.6-0.5,1.1-1.1,1.1c-0.6,0-1.1-0.5-1.1-1.1c0-0.6,0.5-1.1,1.1-1.1"/>
			</g>
			<g>
				<path fill="#37474F" d="M12.4,10.6c-0.9,0-1.6-0.7-1.6-1.6c0-0.9,0.7-1.6,1.6-1.6c0.3,0,0.5,0.2,0.5,0.5s-0.2,0.5-0.5,0.5
					c-0.3,0-0.6,0.3-0.6,0.6c0,0.3,0.3,0.6,0.6,0.6S13,9.3,13,9c0-0.3,0.2-0.5,0.5-0.5S14,8.7,14,9C14,9.8,13.3,10.6,12.4,10.6z"/>
			</g>
		</g>
		<g>
			<g>
				<path fill="#FFECB3" d="M13.5,12.4c0,0.6-0.5,1.1-1.1,1.1c-0.6,0-1.1-0.5-1.1-1.1c0-0.6,0.5-1.1,1.1-1.1"/>
			</g>
			<g>
				<path fill="#37474F" d="M12.4,14c-0.9,0-1.6-0.7-1.6-1.6c0-0.9,0.7-1.6,1.6-1.6c0.3,0,0.5,0.2,0.5,0.5s-0.2,0.5-0.5,0.5
					c-0.3,0-0.6,0.3-0.6,0.6s0.3,0.6,0.6,0.6s0.6-0.3,0.6-0.6c0-0.3,0.2-0.5,0.5-0.5s0.5,0.2,0.5,0.5C14,13.2,13.3,14,12.4,14z"/>
			</g>
		</g>
	</g>
	<g>
		<g>
			<line fill="#FFECB3" x1="21.6" y1="10.3" x2="26.4" y2="10.3"/>
		</g>
		<g>
			<path fill="#37474F" d="M26.4,10.8h-4.7c-0.3,0-0.5-0.2-0.5-0.5s0.2-0.5,0.5-0.5h4.7c0.3,0,0.5,0.2,0.5,0.5S26.6,10.8,26.4,10.8z
				"/>
		</g>
	</g>
	<g>
		<g>
			<polyline fill="#FFECB3" points="2.5,5 8.8,8.2 8.8,13.1 2.6,16.3 			"/>
		</g>
		<g>
			<path fill="#37474F" d="M2.6,16.8c-0.2,0-0.4-0.1-0.4-0.3c-0.1-0.2,0-0.5,0.2-0.7l6-3.1V8.5L2.3,5.5C2,5.3,1.9,5,2.1,4.8
				c0.1-0.2,0.4-0.3,0.7-0.2l6.3,3.2c0.2,0.1,0.3,0.3,0.3,0.4v4.9c0,0.2-0.1,0.4-0.3,0.4l-6.2,3.2C2.8,16.8,2.7,16.8,2.6,16.8z"/>
		</g>
	</g>
	<g>
		<g>
			<path fill="#37474F" d="M14.9,23.2c-0.6,0-1.1-0.2-1.5-0.5c-0.8-0.6-1.2-1.7-1.2-2.9v-2.3h-1.4c-0.3,0-0.5-0.2-0.5-0.5v-1.4
				c0-0.3,0.2-0.5,0.5-0.5s0.5,0.2,0.5,0.5v0.9h1.4c0.3,0,0.5,0.2,0.5,0.5v2.8c0,0.9,0.3,1.7,0.9,2.1c0.4,0.3,0.8,0.4,1.3,0.3
				l4.4-1.5c0.3-0.1,0.5,0.1,0.6,0.3s-0.1,0.5-0.3,0.6l-4.5,1.5C15.3,23.1,15.1,23.2,14.9,23.2z"/>
		</g>
	</g>
	<g>
		<g>
			<path fill="#FFECB3" d="M28.9,22.7L28.9,22.7c-0.6-1.1-2.5-1.3-4.2-0.4l-6.5,3.4c-1.7,0.9-2.6,2.6-2.1,3.7l0,0"/>
		</g>
		<g>
			<path fill="#37474F" d="M16.1,29.9c-0.2,0-0.4-0.1-0.4-0.3c-0.4-0.7-0.3-1.6,0.2-2.4c0.4-0.8,1.2-1.5,2.1-2l6.5-3.4
				c2-1.1,4.1-0.8,4.9,0.6c0.1,0.2,0,0.5-0.2,0.7c-0.2,0.1-0.5,0-0.7-0.2c-0.5-0.9-2.1-1-3.5-0.2l-6.5,3.4c-0.8,0.4-1.4,0.9-1.7,1.6
				c-0.3,0.5-0.4,1.1-0.1,1.5c0.1,0.2,0,0.5-0.2,0.7C16.2,29.9,16.2,29.9,16.1,29.9z"/>
		</g>
	</g>
	<g>
		<g>
			<line fill="#FFECB3" x1="25.3" y1="24.9" x2="14.3" y2="30.6"/>
		</g>
		<g>
			<path fill="#37474F" d="M14.3,31.1c-0.2,0-0.4-0.1-0.4-0.3c-0.1-0.2,0-0.5,0.2-0.7l11-5.8c0.2-0.1,0.5,0,0.7,0.2
				c0.1,0.2,0,0.5-0.2,0.7l-11,5.8C14.5,31.1,14.4,31.1,14.3,31.1z"/>
		</g>
	</g>
</g>
</svg>
