<?xml version="1.0" encoding="utf-8"?>
<!-- Generator: Adobe Illustrator 20.0.0, SVG Export Plug-In . SVG Version: 6.00 Build 0)  -->
<svg version="1.1" id="Layer_1" xmlns="http://www.w3.org/2000/svg" xmlns:xlink="http://www.w3.org/1999/xlink" x="0px" y="0px"
	 viewBox="0 0 32 32.6" style="enable-background:new 0 0 32 32.6;" xml:space="preserve">
<style type="text/css">
	.st0{fill:#B0BEC5;}
	.st1{fill:#37474F;}
	.st2{fill:#78909C;}
	.st3{fill:#FFAB00;}
	.st4{fill:#FFECB3;}
	.st5{fill:none;}
</style>
<g>
	<g>
		<polyline class="st0" points="5.6,13.5 3.1,13.5 3.1,19 		"/>
		<path class="st1" d="M3.1,19.5c-0.3,0-0.5-0.2-0.5-0.5v-5.5c0-0.3,0.2-0.5,0.5-0.5h2.5c0.3,0,0.5,0.2,0.5,0.5S5.9,14,5.6,14h-2v5
			C3.6,19.3,3.4,19.5,3.1,19.5z"/>
	</g>
	<g>
		<polyline class="st0" points="17.6,13.5 20.1,13.5 20.1,19 		"/>
		<path class="st1" d="M20.1,19.5c-0.3,0-0.5-0.2-0.5-0.5v-5h-2c-0.3,0-0.5-0.2-0.5-0.5s0.2-0.5,0.5-0.5h2.5c0.3,0,0.5,0.2,0.5,0.5
			V19C20.6,19.3,20.4,19.5,20.1,19.5z"/>
	</g>
	<g>
		<path class="st2" d="M18.1,22.2c0,0.5-0.5,0.3-0.9,0.3H6.1c-0.4,0-1,0.2-1-0.3v-0.9c0-0.5,0.5-0.7,1-0.7h11.2
			c0.4,0,0.9,0.2,0.9,0.7v0.9H18.1z"/>
		<path class="st1" d="M17.7,23c-0.1,0-0.2,0-0.3,0c-0.1,0-0.2,0-0.2,0H6.1c-0.1,0-0.2,0-0.2,0c-0.4,0-0.7,0-0.9-0.1
			c-0.2-0.1-0.4-0.3-0.4-0.7v-0.9c0-0.8,0.7-1.2,1.5-1.2h11.2c0.7,0,1.4,0.4,1.4,1.2v0.9C18.6,22.7,18.3,23,17.7,23z M6.1,21
			c-0.2,0-0.5,0.1-0.5,0.2V22c0.1,0,0.1,0,0.1,0c0.1,0,0.2,0,0.3,0h11.2c0.1,0,0.2,0,0.3,0c0,0,0,0,0.1,0v-0.8
			c0-0.2-0.4-0.2-0.4-0.2H6.1z"/>
	</g>
	<g>
		<path class="st3" d="M17.1,16.8c0,1.7-0.8,2.7-2.5,2.7H8.8c-1.7,0-2.7-1-2.7-2.7V4.2c0-1.7,1-2.8,2.7-2.8h5.8
			c1.7,0,2.5,1.1,2.5,2.8V16.8z"/>
		<path class="st1" d="M14.6,20H8.8c-2,0-3.2-1.2-3.2-3.2V4.2c0-2,1.3-3.3,3.2-3.3h5.8c1.9,0,3,1.2,3,3.3v12.5
			C17.6,18.8,16.5,20,14.6,20z M8.7,2C7.3,2,6.5,2.8,6.5,4.3v12.6c0,1.4,0.8,2.2,2.2,2.2h5.9c1.4,0,2-0.7,2-2.2V4.3
			c0-1-0.4-2.3-2-2.3C14.6,2,8.7,2,8.7,2z"/>
	</g>
	<g>
		<path class="st4" d="M20.1,20.1c0,0.7-0.4,1.4-1,1.4h-15c-0.6,0-1-0.7-1-1.4v-1.3c0-0.7,0.5-1.4,1-1.4h15c0.6,0,1,0.7,1,1.4V20.1z
			"/>
		<path class="st1" d="M19.1,22h-15c-0.8,0-1.5-0.9-1.5-1.9v-1.3C2.6,18,3.2,17,4.1,17h15c0.9,0,1.5,1,1.5,1.9v1.3
			C20.6,21,20,22,19.1,22z M4.1,18c-0.2,0-0.5,0.4-0.5,0.9v1.3c0,0.4,0.3,0.8,0.5,0.8h15c0.2,0,0.5-0.4,0.5-0.9v-1.3
			c0-0.5-0.3-0.9-0.5-0.9L4.1,18L4.1,18z"/>
	</g>
	<g>
		<g>
			<path class="st1" d="M9.5,5.6c0-0.2-0.2-0.4-0.3-0.4C9,5.2,8.8,5.4,8.8,5.6S9,6,9.2,6C9.4,6,9.5,5.8,9.5,5.6z"/>
			<path class="st1" d="M9.2,6.5c-0.5,0-0.9-0.4-0.9-0.9s0.4-0.9,0.9-0.9S10,5.1,10,5.6C10,6.1,9.7,6.5,9.2,6.5z M9.2,5.5
				C9.1,5.5,9,5.6,9,5.6c0,0.1,0.3,0.1,0.3,0C9.3,5.6,9.3,5.5,9.2,5.5z"/>
		</g>
		<g>
			<path class="st1" d="M12,5.6c0-0.2-0.2-0.4-0.4-0.4s-0.4,0.2-0.4,0.4S11.5,6,11.6,6S12,5.8,12,5.6z"/>
			<path class="st1" d="M11.6,6.5c-0.5,0-0.9-0.4-0.9-0.9s0.4-0.9,0.9-0.9s0.9,0.4,0.9,0.9S12.1,6.5,11.6,6.5z M11.6,5.5
				c-0.1,0-0.1,0-0.1,0.1s0.3,0.1,0.3,0C11.8,5.5,11.7,5.5,11.6,5.5z"/>
		</g>
		<g>
			<path class="st1" d="M14.4,5.6c0-0.2-0.2-0.4-0.3-0.4c-0.2,0-0.4,0.2-0.4,0.4S13.9,6,14.1,6S14.4,5.8,14.4,5.6z"/>
			<path class="st1" d="M14.1,6.5c-0.5,0-0.9-0.4-0.9-0.9s0.4-0.9,0.9-0.9s0.8,0.4,0.8,0.9S14.6,6.5,14.1,6.5z M14.1,5.5
				c-0.1,0-0.2,0.1-0.2,0.1C13.9,5.7,14.2,5.7,14.1,5.5C14.2,5.6,14.2,5.5,14.1,5.5z"/>
		</g>
	</g>
	<g>
		<g>
			<path class="st1" d="M9.5,8.7c0-0.2-0.2-0.4-0.3-0.4C9,8.3,8.8,8.5,8.8,8.7S9,9.1,9.2,9.1C9.4,9.1,9.5,8.9,9.5,8.7z"/>
			<path class="st1" d="M9.2,9.6c-0.5,0-0.9-0.4-0.9-0.9s0.4-0.9,0.9-0.9S10,8.2,10,8.7C10,9.2,9.7,9.6,9.2,9.6z M9.2,8.6
				C9.1,8.6,9,8.7,9,8.7c0,0.1,0.3,0.1,0.3,0C9.3,8.7,9.3,8.6,9.2,8.6z"/>
		</g>
		<g>
			<path class="st1" d="M12,8.7c0-0.2-0.2-0.4-0.4-0.4s-0.4,0.2-0.4,0.4s0.2,0.4,0.4,0.4C11.8,9.1,12,8.9,12,8.7z"/>
			<path class="st1" d="M11.6,9.6c-0.5,0-0.9-0.4-0.9-0.9s0.4-0.9,0.9-0.9s0.9,0.4,0.9,0.9C12.5,9.2,12.1,9.6,11.6,9.6z M11.6,8.6
				c-0.1,0-0.1,0.1-0.1,0.1c0,0.1,0.3,0.1,0.3,0C11.8,8.7,11.7,8.6,11.6,8.6z"/>
		</g>
		<g>
			<ellipse class="st1" cx="14.1" cy="8.7" rx="0.3" ry="0.4"/>
			<path class="st1" d="M14.1,9.6c-0.5,0-0.9-0.4-0.9-0.9s0.4-0.9,0.9-0.9s0.8,0.4,0.8,0.9C14.9,9.2,14.6,9.6,14.1,9.6z M14.1,8.6
				c-0.1,0-0.2,0.1-0.2,0.1c0,0.1,0.3,0.1,0.3,0C14.2,8.7,14.2,8.6,14.1,8.6z"/>
		</g>
	</g>
	<g>
		<g>
			<path class="st1" d="M9.5,11.8c0-0.2-0.2-0.4-0.3-0.4c-0.2,0-0.4,0.2-0.4,0.4s0.2,0.4,0.4,0.4C9.4,12.2,9.5,12,9.5,11.8z"/>
			<path class="st1" d="M9.2,12.7c-0.5,0-0.9-0.4-0.9-0.9s0.4-0.9,0.9-0.9s0.8,0.4,0.8,0.9C10,12.3,9.7,12.7,9.2,12.7z M9.2,11.7
				c-0.1,0-0.2,0.1-0.2,0.1c0,0.1,0.3,0.1,0.3,0C9.3,11.8,9.3,11.7,9.2,11.7z"/>
		</g>
		<g>
			<path class="st1" d="M12,11.8c0-0.2-0.2-0.4-0.4-0.4s-0.4,0.2-0.4,0.4s0.2,0.4,0.4,0.4C11.8,12.2,12,12,12,11.8z"/>
			<path class="st1" d="M11.6,12.7c-0.5,0-0.9-0.4-0.9-0.9s0.4-0.9,0.9-0.9s0.9,0.4,0.9,0.9S12.1,12.7,11.6,12.7z M11.6,11.7
				c-0.1,0-0.1,0.1-0.1,0.1c0,0.1,0.3,0.1,0.3,0C11.8,11.8,11.7,11.7,11.6,11.7z"/>
		</g>
		<g>
			<path class="st1" d="M14.4,11.8c0-0.2-0.2-0.4-0.3-0.4c-0.2,0-0.4,0.2-0.4,0.4s0.2,0.4,0.4,0.4C14.3,12.2,14.4,12,14.4,11.8z"/>
			<path class="st1" d="M14.1,12.7c-0.5,0-0.9-0.4-0.9-0.9s0.4-0.9,0.9-0.9s0.8,0.4,0.8,0.9S14.6,12.7,14.1,12.7z M14.1,11.7
				c-0.1,0-0.2,0.1-0.2,0.1c0,0.1,0.3,0.1,0.3,0C14.2,11.8,14.2,11.7,14.1,11.7z"/>
		</g>
	</g>
	<g>
		<g>
			<path class="st1" d="M9.5,15c0-0.2-0.2-0.4-0.3-0.4c-0.2,0-0.4,0.2-0.4,0.4s0.2,0.4,0.4,0.4C9.4,15.3,9.5,15.2,9.5,15z"/>
			<path class="st1" d="M9.2,15.8c-0.5,0-0.9-0.4-0.9-0.9S8.7,14,9.2,14s0.8,0.4,0.8,0.9C10,15.4,9.7,15.8,9.2,15.8z M9.2,14.8
				c-0.1,0-0.2,0.1-0.2,0.1c0,0.1,0.3,0.1,0.3,0C9.3,14.9,9.3,14.8,9.2,14.8z"/>
		</g>
		<g>
			<path class="st1" d="M12,15c0-0.2-0.2-0.4-0.4-0.4s-0.4,0.2-0.4,0.4s0.2,0.4,0.4,0.4C11.8,15.4,12,15.2,12,15z"/>
			<path class="st1" d="M11.6,15.8c-0.5,0-0.9-0.4-0.9-0.9s0.4-0.9,0.9-0.9s0.9,0.4,0.9,0.9C12.5,15.4,12.1,15.8,11.6,15.8z
				 M11.6,14.8c-0.1,0-0.1,0.1-0.1,0.1c0,0.1,0.3,0.1,0.3,0C11.8,14.9,11.7,14.8,11.6,14.8z"/>
		</g>
		<g>
			<ellipse class="st1" cx="14.1" cy="15" rx="0.3" ry="0.4"/>
			<path class="st1" d="M14.1,15.8c-0.5,0-0.9-0.4-0.9-0.9s0.4-0.9,0.9-0.9s0.8,0.4,0.8,0.9C14.9,15.4,14.6,15.8,14.1,15.8z
				 M14.1,14.8c-0.1,0-0.2,0.1-0.2,0.1c0,0.1,0.3,0.1,0.3,0C14.2,14.9,14.2,14.8,14.1,14.8z"/>
		</g>
	</g>
	<g>
		<g>
			<polyline class="st0" points="4.1,30 4.1,28.4 5.2,27 11.1,26.6 11.1,23 			"/>
			<path class="st1" d="M4.1,30.5c-0.3,0-0.5-0.2-0.5-0.5v-1.6c0-0.1,0-0.2,0.1-0.3l1.1-1.4c0.1-0.1,0.2-0.2,0.4-0.2l5.4-0.3V23
				c0-0.3,0.2-0.5,0.5-0.5s0.5,0.2,0.5,0.5v3.6c0,0.3-0.2,0.5-0.5,0.5l-5.6,0.4l-0.9,1V30C4.6,30.3,4.4,30.5,4.1,30.5z"/>
		</g>
		<g>
			<polyline class="st0" points="19.1,30 19.1,28.4 17.8,27 11.1,26.7 11.1,23 			"/>
			<path class="st1" d="M19.1,30.5c-0.3,0-0.5-0.2-0.5-0.5v-1.4l-1.1-1.1L11,27.2c-0.3,0-0.5-0.2-0.5-0.5V23c0-0.3,0.2-0.5,0.5-0.5
				s0.6,0.2,0.6,0.5v3.2l6.2,0.2c0.1,0,0.2,0.1,0.3,0.2l1.3,1.4c0.1,0.1,0.1,0.2,0.1,0.3V30C19.6,30.3,19.4,30.5,19.1,30.5z"/>
		</g>
	</g>
	<g>
		<circle class="st3" cx="4.2" cy="30.7" r="0.8"/>
		<path class="st1" d="M4.2,32c-0.7,0-1.3-0.6-1.3-1.3c0-0.7,0.6-1.3,1.3-1.3s1.3,0.6,1.3,1.3C5.5,31.4,4.9,32,4.2,32z M4.2,30.4
			c-0.2,0-0.3,0.1-0.3,0.3C3.9,30.9,4,31,4.2,31c0.2,0,0.3-0.1,0.3-0.3C4.5,30.5,4.3,30.4,4.2,30.4z"/>
	</g>
	<g>
		<circle class="st3" cx="19.2" cy="30.7" r="0.8"/>
		<path class="st1" d="M19.2,32c-0.7,0-1.3-0.6-1.3-1.3c0-0.7,0.6-1.3,1.3-1.3s1.3,0.6,1.3,1.3S20,32,19.2,32z M19.2,30.4
			c-0.2,0-0.3,0.1-0.3,0.3c0,0.2,0.1,0.3,0.3,0.3c0.2,0,0.3-0.1,0.3-0.3S19.4,30.4,19.2,30.4z"/>
	</g>
	<g>
		<circle class="st3" cx="11.6" cy="30.7" r="0.8"/>
		<path class="st1" d="M11.6,32c-0.7,0-1.3-0.6-1.3-1.3c0-0.7,0.6-1.3,1.3-1.3c0.7,0,1.3,0.6,1.3,1.3S12.4,32,11.6,32z M11.6,30.4
			c-0.2,0-0.3,0.1-0.3,0.3c0,0.2,0.1,0.3,0.3,0.3c0.2,0,0.3-0.1,0.3-0.3S11.8,30.4,11.6,30.4z"/>
	</g>
	<g>
		<line class="st5" x1="11.1" y1="30" x2="11.1" y2="26"/>
		<rect x="10.6" y="26" class="st1" width="1" height="4"/>
	</g>
</g>
<g>
	<polygon class="st4" points="23.2,2.8 15.4,15.4 21.3,16.6 14.9,28.7 29.2,13.4 24.6,12.5 30.2,4.2 	"/>
	<path class="st1" d="M14.8,29.1c-0.1,0-0.1,0-0.2,0c-0.2-0.1-0.2-0.4-0.2-0.6l6.2-11.6l-5.3-1c-0.2,0-0.3-0.1-0.3-0.3
		c-0.1-0.1,0-0.3,0-0.5l7.8-12.6c0.1-0.2,0.3-0.2,0.5-0.2l7,1.5c0.2,0,0.3,0.1,0.3,0.3c0.1,0.1,0,0.3-0.1,0.5l-5.2,7.7l4.1,0.8
		c0.2,0,0.3,0.2,0.3,0.3c0,0.2,0,0.4-0.1,0.5L15.3,29C15.1,29.1,15,29.2,14.8,29.1z M16.1,15.1l5.3,1c0.2,0,0.3,0.1,0.3,0.3
		c0.1,0.1,0,0.3,0,0.4l-4.9,9.1l11.4-12.1l-3.9-0.8c-0.2,0-0.3-0.1-0.3-0.3c-0.1-0.1,0-0.3,0.1-0.5l5.1-7.7l-6-1.3L16.1,15.1z"/>
</g>
</svg>
