<?xml version="1.0" encoding="utf-8"?>
<!-- Generator: Adobe Illustrator 16.0.0, SVG Export Plug-In . SVG Version: 6.00 Build 0)  -->
<!DOCTYPE svg PUBLIC "-//W3C//DTD SVG 1.1//EN" "http://www.w3.org/Graphics/SVG/1.1/DTD/svg11.dtd">
<svg version="1.1" id="Layer_1" xmlns="http://www.w3.org/2000/svg" xmlns:xlink="http://www.w3.org/1999/xlink" x="0px" y="0px"
	 width="32px" height="32.5px" viewBox="0 0 32 32.5" enable-background="new 0 0 32 32.5" xml:space="preserve">
<g>
	<g>
		<polyline fill="#FFECB3" points="9.5,29.9 10.5,30.1 13,31.1 19,30.5 23.8,25.8 22.3,25.4 19.2,27.2 		"/>
		<path fill="#37474F" d="M13,31.6c-0.1,0-0.1,0-0.2,0l-2.5-1l-0.9-0.2C9.1,30.3,9,30.1,9,29.8c0.1-0.3,0.3-0.4,0.6-0.4l1,0.2l2.4,1
			l5.7-0.6l4-4l-0.4-0.1l-2.9,1.7c-0.2,0.1-0.5,0.1-0.7-0.2c-0.1-0.2-0.1-0.5,0.2-0.7l3.1-1.8c0.1-0.1,0.3-0.1,0.4-0.1l1.5,0.4
			c0.2,0,0.3,0.2,0.4,0.4c0,0.2,0,0.4-0.1,0.5l-4.8,4.7c-0.1,0.1-0.2,0.1-0.3,0.1L13,31.6C13,31.6,13,31.6,13,31.6z"/>
	</g>
	<g>
		<polyline fill="#FFECB3" points="9.6,25.9 13.8,24.3 19.4,27.4 18.1,28.4 14,27.6 		"/>
		<path fill="#37474F" d="M18.1,28.9c0,0-0.1,0-0.1,0l-4-0.8c-0.3-0.1-0.4-0.3-0.4-0.6c0.1-0.3,0.3-0.4,0.6-0.4l3.8,0.8l0.6-0.4
			l-4.7-2.6l-4,1.5c-0.3,0.1-0.5,0-0.6-0.3c-0.1-0.3,0-0.5,0.3-0.6l4.2-1.6c0.1-0.1,0.3,0,0.4,0l5.6,3.1c0.1,0.1,0.2,0.2,0.3,0.4
			c0,0.2-0.1,0.3-0.2,0.4l-1.4,1C18.3,28.9,18.2,28.9,18.1,28.9z"/>
	</g>
	<g>
		<path fill="#37474F" d="M9.2,32C9.1,32,9,32,9,32c-0.1,0-0.2,0-0.3,0H7v-1h1.7c0.1,0,0.2,0,0.3,0l0-6.1C9,24.4,8.8,24,8.7,24h-2
			c-0.2,0-0.4,0.1-0.4,0.4h-1c0-0.8,0.5-1.4,1.4-1.4h2c0.9,0,1.3,1,1.3,1.9v6.2c0,0.2,0,0.5-0.3,0.7C9.6,32,9.4,32,9.2,32z"/>
	</g>
	<g>
		<g>
			<path fill="#37474F" d="M22.8,15.6c0,3.9-3.1,7-7,7c-3.9,0-7-3.1-7-7c0-3.9,3.1-7,7-7C19.7,8.5,22.8,11.7,22.8,15.6z"/>
			<path fill="#37474F" d="M15.8,23.1c-4.1,0-7.5-3.4-7.5-7.5c0-4.1,3.4-7.5,7.5-7.5c4.1,0,7.5,3.4,7.5,7.5
				C23.3,19.7,19.9,23.1,15.8,23.1z M15.8,9c-3.6,0-6.5,2.9-6.5,6.5c0,3.6,2.9,6.5,6.5,6.5c3.6,0,6.5-2.9,6.5-6.5
				C22.3,12,19.4,9,15.8,9z"/>
		</g>
		<g>
			<g>
				<path fill="#FFAB00" d="M18.5,21.4c0,0.8-1.1,1.1-1.9,1.1H15c-0.8,0-1.5-0.2-1.5-1.1v-2.2c0-0.8,0.7-1.8,1.5-1.8h1.5
					c0.8,0,1.9,0.9,1.9,1.8V21.4z"/>
				<path fill="#37474F" d="M16.6,23H15c-1.8,0-2-1-2-1.6v-2.2c0-1.1,0.9-2.3,2-2.3h1.5c1.1,0,2.4,1.1,2.4,2.3v2.2
					C19,22.4,18.1,23,16.6,23z M15,18c-0.5,0-1,0.7-1,1.3v2.2c0,0.2,0,0.6,1,0.6h1.5c0.5,0,1.4-0.1,1.4-0.6v-2.2
					c0-0.5-0.9-1.3-1.4-1.3H15z"/>
			</g>
			<g>
				<path fill="#FFECB3" d="M17.5,7.5h-3.4c-1.6,0-2.6,1.9-2.6,3.5v4.1c0,1.3,1,2.3,2,2.7v1.5c0,0.8,0.7,1.2,1.5,1.2h1.5
					c0.8,0,1.9-0.3,1.9-1.2v-1.5c1-0.4,2-1.4,2-2.7V11C20.5,9.4,19.1,7.5,17.5,7.5z"/>
				<path fill="#37474F" d="M16.6,21H15c-1.2,0-2-0.6-2-1.7v-1.2c-1-0.5-2-1.6-2-3V11c0-1.9,1.3-4,3.1-4h3.4c1.9,0,3.5,2.2,3.5,4
					v4.1c0,1.4-1,2.5-2,3v1.2C19,20.5,17.7,21,16.6,21z M14.1,8C12.9,8,12,9.6,12,11v4.1c0,1,0.9,1.9,1.7,2.2
					c0.2,0.1,0.3,0.3,0.3,0.5v1.5c0,0.2,0,0.7,1,0.7h1.5c0.6,0,1.4-0.2,1.4-0.7v-1.5c0-0.2,0.1-0.4,0.3-0.5c0.8-0.3,1.7-1.2,1.7-2.2
					V11c0-1.3-1.2-3-2.5-3H14.1z"/>
			</g>
			<g>
				<g>
					<circle fill="#37474F" cx="15.8" cy="11.5" r="0.3"/>
					<path fill="#37474F" d="M15.8,12.3c-0.4,0-0.8-0.4-0.8-0.8c0-0.4,0.4-0.8,0.8-0.8c0.4,0,0.8,0.4,0.8,0.8
						C16.6,11.9,16.2,12.3,15.8,12.3z M15.8,11.3c-0.1,0-0.2,0.1-0.2,0.2c0,0.2,0.4,0.2,0.4,0C16,11.3,15.9,11.3,15.8,11.3z"/>
				</g>
				<g>
					<circle fill="#37474F" cx="15.8" cy="13.6" r="0.3"/>
					<path fill="#37474F" d="M15.8,14.4c-0.4,0-0.8-0.4-0.8-0.8s0.4-0.8,0.8-0.8c0.4,0,0.8,0.4,0.8,0.8S16.2,14.4,15.8,14.4z
						 M15.8,13.4c-0.1,0-0.2,0.1-0.2,0.2c0,0.2,0.4,0.2,0.4,0C16,13.5,15.9,13.4,15.8,13.4z"/>
				</g>
				<g>
					<path fill="#37474F" d="M15.8,16.1c-0.2,0-0.3-0.1-0.3-0.3c0-0.2,0.1-0.3,0.3-0.3c0.2,0,0.3,0.1,0.3,0.3
						C16.1,16,16,16.1,15.8,16.1z"/>
					<path fill="#37474F" d="M15.8,16.6c-0.4,0-0.8-0.4-0.8-0.8c0-0.4,0.4-0.8,0.8-0.8c0.4,0,0.8,0.4,0.8,0.8
						C16.6,16.2,16.2,16.6,15.8,16.6z M15.8,15.6c-0.1,0-0.2,0.1-0.2,0.2c0,0.2,0.4,0.2,0.4,0C16,15.7,15.9,15.6,15.8,15.6z"/>
				</g>
			</g>
		</g>
		<g>
			<g>
				<g>
					<g>
						<g>
							<line fill="#37474F" x1="5.4" y1="6.3" x2="8" y2="8.9"/>
							<path fill="#37474F" d="M8,9.4c-0.1,0-0.3,0-0.4-0.1L5,6.7C4.8,6.5,4.8,6.2,5,6s0.5-0.2,0.7,0l2.6,2.6c0.2,0.2,0.2,0.5,0,0.7
								C8.2,9.4,8.1,9.4,8,9.4z"/>
						</g>
						<g>
							<line fill="#37474F" x1="1.3" y1="16.2" x2="5" y2="16.2"/>
							<path fill="#37474F" d="M1.3,16.7c-0.3,0-0.5-0.2-0.5-0.5c0-0.3,0.2-0.5,0.5-0.5l3.7,0c0,0,0,0,0,0c0.3,0,0.5,0.2,0.5,0.5
								c0,0.3-0.2,0.5-0.5,0.5L1.3,16.7C1.3,16.7,1.3,16.7,1.3,16.7z"/>
						</g>
					</g>
					<g>
						<g>
							<line fill="#37474F" x1="26.2" y1="6.3" x2="23.6" y2="8.9"/>
							<path fill="#37474F" d="M23.6,9.4c-0.1,0-0.3,0-0.4-0.1c-0.2-0.2-0.2-0.5,0-0.7L25.9,6c0.2-0.2,0.5-0.2,0.7,0s0.2,0.5,0,0.7
								l-2.6,2.6C23.8,9.4,23.7,9.4,23.6,9.4z"/>
						</g>
						<g>
							<line fill="#37474F" x1="30.3" y1="16.2" x2="26.6" y2="16.2"/>
							<path fill="#37474F" d="M30.3,16.7C30.3,16.7,30.3,16.7,30.3,16.7l-3.7,0c-0.3,0-0.5-0.2-0.5-0.5c0-0.3,0.2-0.5,0.5-0.5
								c0,0,0,0,0,0l3.7,0c0.3,0,0.5,0.2,0.5,0.5C30.8,16.5,30.6,16.7,30.3,16.7z"/>
						</g>
					</g>
				</g>
			</g>
			<g>
				<line fill="#37474F" x1="15.5" y1="1" x2="15.5" y2="4"/>
				<path fill="#37474F" d="M15.5,4.5C15.2,4.5,15,4.3,15,4V1c0-0.3,0.2-0.5,0.5-0.5S16,0.7,16,1v3C16,4.3,15.8,4.5,15.5,4.5z"/>
			</g>
		</g>
	</g>
</g>
</svg>
