<?xml version="1.0" encoding="utf-8"?>
<!-- Generator: Adobe Illustrator 20.0.0, SVG Export Plug-In . SVG Version: 6.00 Build 0)  -->
<svg version="1.1" id="Layer_1" xmlns="http://www.w3.org/2000/svg" xmlns:xlink="http://www.w3.org/1999/xlink" x="0px" y="0px"
	 viewBox="0 0 128 128" style="enable-background:new 0 0 128 128;" xml:space="preserve">
<style type="text/css">
	.st0{fill:#FFFFFF;}
	.st1{fill:#37474F;}
	.st2{fill:#FFAB00;}
	.st3{fill:#FFECB3;}
	.st4{fill:#78909C;}
</style>
<g id="Layer_3">
	<g>
		<g>
			<g>
				<g>
					<g>
						<path class="st0" d="M30,17.5c0,3-2.4,5.4-5.5,5.4H7.4c-3,0-5.6-2.3-5.6-5.4V6.2c0-3,2.5-5.5,5.6-5.5h17.1
							c3,0,5.5,2.4,5.5,5.5C30,6.2,30,17.5,30,17.5z"/>
					</g>
					<g>
						<path class="st1" d="M24.6,23.7H7.5c-3.5,0-6.4-2.8-6.4-6.2V6.2c0-3.5,2.9-6.3,6.4-6.3h17.1c3.5,0,6.3,2.8,6.3,6.3v11.4
							C30.9,21,28.1,23.7,24.6,23.7z M7.5,1.5c-2.6,0-4.8,2.1-4.8,4.7v11.4c0,2.5,2.2,4.5,4.8,4.5h17.1c2.6,0,4.7-2,4.7-4.5V6.2
							c0-2.5-2.1-4.7-4.7-4.7C24.6,1.5,7.5,1.5,7.5,1.5z"/>
					</g>
				</g>
				<g>
					<g>
						<path class="st1" d="M25.4,15.8c0,2.1-1.4,3.6-3.5,3.6H10.1c-2.1,0-4.2-1.5-4.2-3.6V7.9c0-2.1,2.1-3.7,4.2-3.7h11.8
							c2.1,0,3.5,1.6,3.5,3.7V15.8L25.4,15.8z"/>
					</g>
				</g>
			</g>
			<g>
				<g>
					<g>
						<path class="st0" d="M66.3,53.9c0,3-2.4,5.2-5.4,5.2H43.8c-3,0-5.6-2.3-5.6-5.2V42.5c0-3,2.7-5.5,5.6-5.5h17.1
							c3,0,5.4,2.5,5.4,5.5C66.3,42.5,66.3,53.9,66.3,53.9z"/>
					</g>
					<g>
						<path class="st1" d="M60.9,59.9H43.8c-3.6,0-6.4-2.7-6.4-6.1V42.5c0-3.5,3-6.4,6.4-6.4h17.1c3.4,0,6.2,2.9,6.2,6.3v11.4
							C67.1,57.3,64.3,59.9,60.9,59.9z M43.8,37.8c-2.6,0-4.8,2.2-4.8,4.7v11.4c0,2.4,2.2,4.4,4.8,4.4h17.1c2.6,0,4.6-1.9,4.6-4.4
							V42.5c0-2.6-2.1-4.7-4.6-4.7H43.8z"/>
					</g>
				</g>
				<g>
					<g>
						<path class="st1" d="M61.7,52.1c0,2.1-1.4,3.5-3.4,3.5H46.4c-2.1,0-4.2-1.4-4.2-3.5v-7.9c0-2.1,2.1-3.7,4.2-3.7h11.8
							c2.1,0,3.4,1.7,3.4,3.7C61.7,44.2,61.7,52.1,61.7,52.1z"/>
					</g>
				</g>
			</g>
		</g>
		<g>
			<g>
				<g>
					<g>
						<polygon class="st2" points="62.5,15.3 58.2,17.8 53.8,15.3 53.8,10.2 58.2,7.6 62.5,10.2 						"/>
					</g>
					<g>
						<path class="st1" d="M58.2,18.6c-0.2,0-0.3-0.1-0.4-0.1L53.5,16c-0.2-0.1-0.4-0.4-0.4-0.7v-5.1c0-0.3,0.2-0.5,0.4-0.7L57.8,7
							c0.3-0.2,0.6-0.2,0.8,0l4.3,2.5c0.3,0.2,0.4,0.4,0.4,0.7v5.1c0,0.3-0.2,0.5-0.4,0.7l-4.3,2.5C58.4,18.6,58.3,18.6,58.2,18.6z
							 M54.7,14.8l3.5,2.1l3.5-2.1v-4.2l-3.5-2.1l-3.5,2.1V14.8z"/>
					</g>
				</g>
				<g>
					<g>
						<polyline class="st3" points="34.1,10.4 49.5,10.4 49.5,13.4 						"/>
					</g>
					<g>
						<path class="st1" d="M49.5,14.2c-0.4,0-0.8-0.4-0.8-0.8v-2.2H34.1c-0.4,0-0.8-0.4-0.8-0.8s0.4-0.8,0.8-0.8h15.4
							c0.4,0,0.8,0.4,0.8,0.8v3C50.3,13.9,49.9,14.2,49.5,14.2z"/>
					</g>
				</g>
				<g>
					<g>
						<g>
							<g>
								<path class="st1" d="M56.5,32.1c0.5,0,0.8,0.4,0.8,0.8c0,0.5-0.4,0.9-0.8,0.9c-0.4,0-0.8-0.4-0.8-0.9
									C55.7,32.5,56.1,32.1,56.5,32.1z"/>
							</g>
							<g>
								<path class="st1" d="M56.5,34c-0.6,0-1.1-0.5-1.1-1.1s0.5-1.1,1.1-1.1c0.6,0,1.1,0.5,1.1,1.1S57.1,34,56.5,34z M56.5,32.4
									c-0.3,0-0.5,0.3-0.5,0.5c0,0.3,0.3,0.6,0.5,0.6c0.3,0,0.5-0.3,0.5-0.6C57.1,32.6,56.9,32.4,56.5,32.4z"/>
							</g>
						</g>
						<g>
							<g>
								<path class="st1" d="M56.5,26.2c0.4,0,0.8,0.4,0.8,0.9c0,0.5-0.4,0.8-0.8,0.8c-0.4,0-0.8-0.4-0.8-0.8
									C55.7,26.6,56.1,26.2,56.5,26.2z"/>
							</g>
							<g>
								<path class="st1" d="M56.5,28.2c-0.6,0-1.1-0.5-1.1-1.1s0.5-1.1,1.1-1.1c0.6,0,1.1,0.5,1.1,1.1S57.1,28.2,56.5,28.2z
									 M56.5,26.5c-0.3,0-0.5,0.3-0.5,0.6c0,0.3,0.3,0.5,0.5,0.5c0.3,0,0.5-0.3,0.5-0.5C57.1,26.8,56.8,26.5,56.5,26.5z"/>
							</g>
						</g>
						<g>
							<g>
								<path class="st1" d="M56.5,20.4c0.4,0,0.8,0.4,0.8,0.8c0,0.5-0.4,0.9-0.8,0.8c-0.5,0-0.8-0.4-0.8-0.8S56.1,20.4,56.5,20.4z"
									/>
							</g>
							<g>
								<path class="st1" d="M56.5,22.3L56.5,22.3L56.5,22.3c-0.6,0-1.1-0.5-1.1-1.1s0.5-1.1,1.1-1.1c0.6,0,1.1,0.5,1.1,1.1
									C57.6,21.9,57.1,22.3,56.5,22.3z M56.5,20.7c-0.3,0-0.5,0.3-0.5,0.5c0,0.3,0.2,0.5,0.5,0.5l0.1,0.3v-0.3
									c0.3,0,0.5-0.3,0.5-0.5C57.1,20.9,56.9,20.7,56.5,20.7z"/>
							</g>
						</g>
					</g>
					<g>
						<g>
							<g>
								<path class="st1" d="M60,32.1c0.5,0,0.8,0.4,0.8,0.8c0,0.5-0.4,0.9-0.8,0.9c-0.4,0-0.9-0.4-0.9-0.9
									C59.1,32.5,59.5,32.1,60,32.1z"/>
							</g>
							<g>
								<path class="st1" d="M60,34c-0.6,0-1.1-0.5-1.1-1.1s0.5-1.1,1.1-1.1c0.6,0,1.1,0.5,1.1,1.1S60.6,34,60,34z M60,32.4
									c-0.3,0-0.5,0.3-0.5,0.5c0,0.3,0.3,0.6,0.5,0.6c0.3,0,0.5-0.3,0.5-0.6C60.5,32.6,60.3,32.4,60,32.4z"/>
							</g>
						</g>
						<g>
							<g>
								<path class="st1" d="M60,26.2c0.4,0,0.8,0.4,0.8,0.9c0,0.5-0.4,0.8-0.8,0.8c-0.4,0-0.9-0.4-0.9-0.8
									C59.1,26.6,59.5,26.2,60,26.2z"/>
							</g>
							<g>
								<path class="st1" d="M60,28.2c-0.6,0-1.1-0.5-1.1-1.1S59.4,26,60,26c0.6,0,1.1,0.5,1.1,1.1S60.6,28.2,60,28.2z M60,26.5
									c-0.3,0-0.5,0.3-0.5,0.6c0,0.3,0.3,0.5,0.5,0.5c0.3,0,0.5-0.3,0.5-0.5C60.5,26.8,60.3,26.5,60,26.5z"/>
							</g>
						</g>
						<g>
							<g>
								<path class="st1" d="M60,20.4c0.4,0,0.8,0.4,0.8,0.8c0,0.5-0.4,0.9-0.8,0.8c-0.5,0-0.8-0.4-0.8-0.8
									C59.1,20.8,59.5,20.4,60,20.4z"/>
							</g>
							<g>
								<path class="st1" d="M60,22.3L60,22.3L60,22.3c-0.6,0-1.1-0.5-1.1-1.1s0.5-1.1,1.1-1.1c0.6,0,1.1,0.5,1.1,1.1
									C61.1,21.9,60.6,22.3,60,22.3z M60,20.7c-0.3,0-0.5,0.3-0.5,0.5c0,0.3,0.2,0.5,0.5,0.5l0.1,0.3v-0.3c0.3,0,0.5-0.3,0.5-0.5
									C60.5,20.9,60.3,20.7,60,20.7z"/>
							</g>
						</g>
					</g>
				</g>
			</g>
			<g>
				<g>
					<g>
						<polygon class="st2" points="5.7,44.7 10,42.2 14.4,44.7 14.4,49.8 10,52.4 5.7,49.8 						"/>
					</g>
					<g>
						<path class="st1" d="M10,53.2c-0.2,0-0.3-0.1-0.4-0.1l-4.3-2.5c-0.3-0.2-0.4-0.4-0.4-0.7v-5.1c0-0.3,0.2-0.5,0.4-0.7l4.3-2.5
							c0.3-0.2,0.5-0.2,0.8,0l4.3,2.5c0.3,0.2,0.4,0.4,0.4,0.7v5.1c0,0.3-0.2,0.5-0.4,0.7l-4.3,2.5C10.3,53.1,10.2,53.2,10,53.2z
							 M6.5,49.3l3.5,2.1l3.5-2.1v-4.2L10,43l-3.5,2.1V49.3z"/>
					</g>
				</g>
				<g>
					<g>
						<polyline class="st3" points="34.1,49.4 18.1,49.4 18.1,46.4 						"/>
					</g>
					<g>
						<path class="st1" d="M34.1,50.2h-16c-0.4,0-0.8-0.4-0.8-0.8v-3c0-0.4,0.4-0.8,0.8-0.8s0.8,0.4,0.8,0.8v2.2h15.2
							c0.4,0,0.8,0.4,0.8,0.8S34.5,50.2,34.1,50.2z"/>
					</g>
				</g>
				<g>
					<g>
						<g>
							<g>
								<path class="st1" d="M11.8,27.9c-0.5,0-0.8-0.4-0.8-0.8c0-0.5,0.4-0.9,0.8-0.9s0.8,0.4,0.8,0.9C12.7,27.6,12.3,28,11.8,27.9
									z"/>
							</g>
							<g>
								<path class="st1" d="M11.8,28.2L11.8,28.2L11.8,28.2c-0.3,0-0.6-0.1-0.8-0.3s-0.3-0.5-0.3-0.8c0-0.6,0.5-1.1,1.1-1.1
									s1.1,0.5,1.1,1.1C12.9,27.7,12.5,28.2,11.8,28.2z M11.8,26.6c-0.3,0-0.5,0.3-0.5,0.6c0,0.2,0.1,0.3,0.2,0.4s0.3,0.2,0.4,0.2
									l0,0c0.3,0,0.5-0.3,0.5-0.5C12.4,26.8,12.1,26.6,11.8,26.6z"/>
							</g>
						</g>
						<g>
							<g>
								<path class="st1" d="M11.8,33.8c-0.4,0-0.8-0.4-0.8-0.9c0-0.4,0.4-0.8,0.8-0.8s0.8,0.4,0.8,0.8
									C12.7,33.4,12.3,33.8,11.8,33.8z"/>
							</g>
							<g>
								<path class="st1" d="M11.8,34c-0.6,0-1.1-0.5-1.1-1.1s0.5-1.1,1.1-1.1s1.1,0.5,1.1,1.1C12.9,33.5,12.4,34,11.8,34z
									 M11.8,32.4c-0.3,0-0.5,0.3-0.5,0.5c0,0.3,0.3,0.6,0.5,0.6c0.3,0,0.5-0.3,0.5-0.6C12.4,32.6,12.1,32.4,11.8,32.4z"/>
							</g>
						</g>
						<g>
							<g>
								<path class="st1" d="M11.8,39.6c-0.4,0-0.8-0.4-0.8-0.8c0-0.5,0.4-0.9,0.8-0.9c0.5,0,0.8,0.4,0.8,0.9
									C12.7,39.2,12.3,39.6,11.8,39.6z"/>
							</g>
							<g>
								<path class="st1" d="M11.8,39.9c-0.6,0-1.1-0.5-1.1-1.1s0.5-1.1,1.1-1.1s1.1,0.5,1.1,1.1C12.9,39.4,12.4,39.9,11.8,39.9z
									 M11.8,38.2c-0.3,0-0.6,0.3-0.6,0.6c0,0.3,0.3,0.5,0.5,0.5c0.3,0,0.5-0.3,0.5-0.5C12.4,38.5,12.1,38.2,11.8,38.2z"/>
							</g>
						</g>
					</g>
					<g>
						<g>
							<g>
								<path class="st1" d="M8.4,27.9c-0.5,0-0.8-0.4-0.8-0.8c0-0.5,0.4-0.9,0.8-0.9s0.8,0.4,0.8,0.9C9.2,27.6,8.8,28,8.4,27.9z"/>
							</g>
							<g>
								<path class="st1" d="M8.4,28.2L8.4,28.2L8.4,28.2c-0.3,0-0.6-0.1-0.8-0.3s-0.3-0.5-0.3-0.8c0-0.6,0.5-1.1,1.1-1.1
									s1.1,0.5,1.1,1.1C9.5,27.7,9,28.2,8.4,28.2z M8.4,26.6c-0.3,0-0.5,0.3-0.5,0.6c0,0.2,0.1,0.3,0.2,0.4s0.3,0.2,0.4,0.2l0,0
									c0.3,0,0.5-0.3,0.5-0.5C8.9,26.8,8.7,26.6,8.4,26.6z"/>
							</g>
						</g>
						<g>
							<g>
								<path class="st1" d="M8.4,33.8c-0.4,0-0.8-0.4-0.8-0.9c0-0.4,0.4-0.8,0.8-0.8s0.8,0.4,0.8,0.8C9.2,33.4,8.8,33.8,8.4,33.8z"
									/>
							</g>
							<g>
								<path class="st1" d="M8.4,34c-0.6,0-1.1-0.5-1.1-1.1s0.5-1.1,1.1-1.1s1.1,0.5,1.1,1.1S9,34,8.4,34z M8.4,32.4
									c-0.3,0-0.5,0.3-0.5,0.5c0,0.3,0.3,0.6,0.5,0.6c0.3,0,0.5-0.3,0.5-0.6C8.9,32.6,8.7,32.4,8.4,32.4z"/>
							</g>
						</g>
						<g>
							<g>
								<path class="st1" d="M8.4,39.6c-0.4,0-0.8-0.4-0.8-0.8c0-0.5,0.4-0.9,0.8-0.9c0.5,0,0.8,0.4,0.8,0.9
									C9.2,39.2,8.8,39.6,8.4,39.6z"/>
							</g>
							<g>
								<path class="st1" d="M8.4,39.9c-0.6,0-1.1-0.5-1.1-1.1s0.5-1.1,1.1-1.1s1.1,0.5,1.1,1.1S9,39.9,8.4,39.9z M8.4,38.2
									c-0.3,0-0.6,0.3-0.6,0.6c0,0.3,0.3,0.5,0.5,0.5c0.3,0,0.5-0.3,0.5-0.5C8.9,38.5,8.7,38.2,8.4,38.2z"/>
							</g>
						</g>
					</g>
				</g>
			</g>
		</g>
	</g>
</g>
<g id="Layer_2_1_">
	<g id="Layer_1_2_">
		<g id="Layer_2_6_">
			<g>
				<g>
					<path class="st2" d="M113.9,63.9c0,26.9-21.8,48.8-48.8,48.8S16.3,90.9,16.3,63.9s21.9-48.8,48.8-48.8S113.9,37,113.9,63.9z"/>
					<path class="st1" d="M65.1,113.9c-27.5,0-50-22.4-50-50c0-27.5,22.4-50,50-50c27.5,0,50,22.4,50,50
						C115.1,91.4,92.6,113.9,65.1,113.9z M65.1,16.4c-26.2,0-47.5,21.3-47.5,47.5s21.3,47.5,47.5,47.5s47.5-21.3,47.5-47.5
						S91.3,16.4,65.1,16.4z"/>
				</g>
				<g>
					<path class="st3" d="M104,63.9c0,21.5-17.4,38.9-38.9,38.9S26.2,85.4,26.2,63.9S43.6,25,65.1,25S104,42.4,104,63.9z"/>
					<path class="st1" d="M65.1,104C42.9,104,25,85.9,25,63.9c0-22.2,18.1-40.1,40.1-40.1s40.1,18.1,40.1,40.1
						C105.2,86.1,87.3,104,65.1,104z M65.1,26.2c-20.8,0-37.7,16.9-37.7,37.7s16.9,37.7,37.7,37.7s37.7-16.9,37.7-37.7
						S85.9,26.2,65.1,26.2z"/>
				</g>
				<g>
					<g>
						<polygon class="st1" points="53.5,84.7 87.5,63.9 53.5,43.1 						"/>
						<path class="st1" d="M53.5,85.9c-0.2,0-0.4,0-0.5-0.2c-0.4-0.2-0.7-0.7-0.7-1.1V43.1c0-0.4,0.2-0.9,0.7-1.1
							c0.4-0.2,0.9-0.2,1.2,0l34,20.8c0.4,0.2,0.5,0.7,0.5,1.1s-0.2,0.9-0.5,1.1l-34,20.8C53.8,85.9,53.7,85.9,53.5,85.9z
							 M54.7,45.2v37.1L85,63.6L54.7,45.2z"/>
					</g>
				</g>
			</g>
		</g>
	</g>
</g>
<g id="Layer_4">
	<g id="Layer_3_1_">
		<g>
			<g>
				<path class="st4" d="M81.2,110.8c-1.9,1.9-6.6,0.2-10.7-3.8l0,0c-4-4-5.6-8.7-3.8-10.7l45.7-45.7c1.9-1.9,6.6-0.2,10.7,3.7l0,0
					c4,4,5.6,8.7,3.8,10.7L81.2,110.8z"/>
				<path class="st1" d="M79,113.1c-2.7,0-6.3-1.8-9.6-5c-4.6-4.6-6.3-10.1-3.9-12.8l45.8-45.8c2.5-2.5,7.9-1,12.8,3.7
					c4.6,4.6,6.3,10.1,3.9,12.8l-45.8,45.9C81.4,112.7,80.3,113.1,79,113.1z M114.5,51.3c-0.5,0-0.9,0.1-1.1,0.3L67.7,97.3
					c-0.9,1,0,4.8,3.8,8.6c3.9,3.8,7.6,4.8,8.6,3.8l45.7-45.8c0.9-1,0-4.8-3.8-8.6C119,52.5,116.2,51.3,114.5,51.3z"/>
			</g>
			<g>
				<polygon class="st3" points="50.9,126.4 59.1,107.2 70.5,118.5 				"/>
				<path class="st1" d="M50.9,127.9c-0.4,0-0.8-0.2-1.1-0.5c-0.4-0.4-0.5-1.1-0.3-1.6l8.2-19.2c0.2-0.5,0.6-0.8,1.1-0.9
					c0.5-0.1,1,0.1,1.3,0.4l11.4,11.3c0.4,0.4,0.5,0.9,0.4,1.4s-0.4,0.9-0.9,1.1l-19.6,7.9C51.3,127.9,51.1,127.9,50.9,127.9z
					 M59.6,109.8l-5.9,13.8l14.1-5.7L59.6,109.8z"/>
			</g>
			<g>
				<polygon class="st1" points="50.9,126.3 54.3,118.7 58.6,123.1 				"/>
				<path class="st1" d="M50.9,127.8c-0.4,0-0.8-0.2-1.1-0.5c-0.4-0.4-0.5-1.1-0.3-1.7l3.4-7.6c0.2-0.5,0.6-0.8,1.1-0.9
					c0.5-0.1,1,0.1,1.3,0.4l4.3,4.4c0.3,0.4,0.5,0.9,0.4,1.3c-0.1,0.5-0.4,0.9-0.9,1.1l-7.7,3.2C51.3,127.8,51.1,127.8,50.9,127.8z
					 M54.7,121.3l-1,2.1l2.2-0.9L54.7,121.3z"/>
			</g>
			<g>
				<path class="st3" d="M74.5,117.5c-1.9,1.9-6.6,0.2-10.7-3.7l0,0c-4-4-5.6-8.7-3.7-10.7l45.7-45.7c1.9-1.9,6.6-0.2,10.7,3.7l0,0
					c4,4,5.6,8.7,3.8,10.7L74.5,117.5z"/>
				<path class="st1" d="M72.3,119.8c-2.7,0-6.3-1.7-9.6-4.9c-4.7-4.7-6.3-10.1-3.8-12.8l45.7-45.7c2.5-2.5,7.9-1,12.8,3.7
					c4.6,4.6,6.3,10.1,3.9,12.8l-45.9,45.8C74.7,119.4,73.6,119.8,72.3,119.8z M107.9,58.1c-0.5,0-0.9,0.1-1.1,0.3l-45.7,45.8
					c-1,1-0.1,4.8,3.7,8.6c3.9,3.7,7.6,4.7,8.6,3.7l0,0l45.8-45.7c0.9-1,0-4.8-3.8-8.6C112.4,59.3,109.6,58.1,107.9,58.1z"/>
			</g>
			<g>
				<path class="st2" d="M70.8,113.8c-1.9,1.9-4.9,1.9-6.8,0l0,0c-1.9-1.9-1.9-4.9,0-6.8l45.7-45.8c1.9-1.9,4.9-1.9,6.8,0l0,0
					c1.9,1.9,1.9,5,0,6.8L70.8,113.8z"/>
				<path class="st1" d="M67.4,116.7c-1.7,0-3.3-0.7-4.5-1.9S61,112,61,110.3s0.7-3.3,1.9-4.5L108.6,60c2.5-2.5,6.4-2.5,8.9,0
					c1.2,1.2,1.9,2.9,1.9,4.6s-0.7,3.2-1.9,4.4l-45.7,45.9C70.6,116.1,69,116.7,67.4,116.7z M113.1,61.3c-0.8,0-1.7,0.3-2.3,1
					l-45.7,45.8c-0.6,0.6-1,1.5-1,2.3s0.4,1.7,1,2.3c1.3,1.3,3.4,1.3,4.7,0l45.6-45.8c0.6-0.6,1-1.4,1-2.3s-0.3-1.8-1-2.4
					C114.8,61.6,113.9,61.3,113.1,61.3z"/>
			</g>
		</g>
	</g>
</g>
</svg>
