<?xml version="1.0" encoding="utf-8"?>
<!-- Generator: Adobe Illustrator 20.0.0, SVG Export Plug-In . SVG Version: 6.00 Build 0)  -->
<svg version="1.1" id="Layer_1" xmlns="http://www.w3.org/2000/svg" xmlns:xlink="http://www.w3.org/1999/xlink" x="0px" y="0px"
	 viewBox="0 0 32.8 32" style="enable-background:new 0 0 32.8 32;" xml:space="preserve">
<style type="text/css">
	.st0{fill:#B0BEC5;stroke:#37474F;stroke-linecap:round;stroke-linejoin:round;stroke-miterlimit:10;}
	.st1{fill:#B0BEC5;}
	.st2{fill:#37474F;}
	.st3{fill:#FFAB00;}
	.st4{fill:#FFFFFF;}
	.st5{fill:none;}
</style>
<g>
	<g>
		<g>
			<path class="st0" d="M15.8,29.6"/>
		</g>
	</g>
	<g>
		<g>
			<path class="st1" d="M22.2,29.5c0,0-2,0-3-8h-2.5h-0.9h-2.5c-0.9,8-3,8-3,8"/>
		</g>
		<g>
			<path class="st2" d="M22.2,30c-0.4,0-2.4-0.4-3.4-8h-5c-1,7.6-3,8-3.4,8c-0.3,0-0.5-0.2-0.5-0.5s0.2-0.5,0.5-0.5
				c0,0,1.7-0.4,2.5-7.6c0-0.3,0.2-0.4,0.5-0.4h5.9c0.3,0,0.5,0.2,0.5,0.4c0.8,7.1,2.5,7.6,2.5,7.6c0.3,0,0.5,0.2,0.5,0.5
				C22.8,29.8,22.5,30,22.2,30z"/>
		</g>
	</g>
	<g>
		<g>
			<path class="st3" d="M31.5,20.2c0,1.8-1.5,3.3-3.3,3.3H4.8c-1.8,0-3.3-1.5-3.3-3.3V5.8C1.5,4,3,2.5,4.8,2.5h23.4
				c1.8,0,3.3,1.5,3.3,3.3V20.2z"/>
		</g>
		<g>
			<path class="st2" d="M28.2,24H4.8C2.7,24,1,22.3,1,20.2V5.8C1,3.7,2.7,2,4.8,2h23.4C30.3,2,32,3.7,32,5.8v14.4
				C32,22.3,30.3,24,28.2,24z M4.8,3C3.3,3,2,4.3,2,5.8v14.4C2,21.7,3.3,23,4.8,23h23.4c1.6,0,2.8-1.3,2.8-2.8V5.8
				C31,4.3,29.7,3,28.2,3H4.8z"/>
		</g>
	</g>
	<g>
		<g>
			<path class="st4" d="M1.5,19.5v1.1c0,1.8,1.4,2.9,3.2,2.9h23.2c1.8,0,3.6-1.1,3.6-2.9v-1.1H1.5z"/>
		</g>
		<g>
			<path class="st2" d="M27.9,24H4.7C2.5,24,1,22.6,1,20.6V19h31v1.6C32,22.8,29.9,24,27.9,24z M2,20v0.6C2,22.1,3.1,23,4.7,23h23.2
				c1.5,0,3.1-0.8,3.1-2.4V20H2z"/>
		</g>
	</g>
	<g>
		<g>
			<line class="st5" x1="9" y1="29.5" x2="23" y2="29.5"/>
		</g>
		<g>
			<path class="st2" d="M23,30H9c-0.3,0-0.5-0.2-0.5-0.5S8.7,29,9,29h14c0.3,0,0.5,0.2,0.5,0.5S23.3,30,23,30z"/>
		</g>
	</g>
	<g>
		<g>
			<g>
				<path class="st2" d="M13.9,21.7c0,0.2-0.2,0.4-0.4,0.4s-0.4-0.2-0.4-0.4s0.2-0.4,0.4-0.4C13.7,21.3,13.9,21.5,13.9,21.7z"/>
			</g>
			<g>
				<path class="st2" d="M13.5,22.6c-0.5,0-0.9-0.4-0.9-0.9s0.4-0.9,0.9-0.9s0.9,0.4,0.9,0.9S14,22.6,13.5,22.6z"/>
			</g>
		</g>
		<g>
			<g>
				<path class="st2" d="M16.7,21.7c0,0.2-0.2,0.4-0.4,0.4s-0.4-0.2-0.4-0.4s0.2-0.4,0.4-0.4S16.7,21.5,16.7,21.7z"/>
			</g>
			<g>
				<path class="st2" d="M16.3,22.6c-0.5,0-0.9-0.4-0.9-0.9s0.4-0.9,0.9-0.9s0.9,0.4,0.9,0.9C17.2,22.2,16.8,22.6,16.3,22.6z"/>
			</g>
		</g>
		<g>
			<g>
				<path class="st2" d="M19.5,21.7c0,0.2-0.2,0.4-0.4,0.4c-0.2,0-0.4-0.2-0.4-0.4s0.2-0.4,0.4-0.4C19.4,21.3,19.5,21.5,19.5,21.7z"
					/>
			</g>
			<g>
				<path class="st2" d="M19.1,22.6c-0.5,0-0.9-0.4-0.9-0.9s0.4-0.9,0.9-0.9s0.9,0.4,0.9,0.9S19.6,22.6,19.1,22.6z"/>
			</g>
		</g>
	</g>
</g>
</svg>
