<?xml version="1.0" encoding="utf-8"?>
<!-- Generator: Adobe Illustrator 20.0.0, SVG Export Plug-In . SVG Version: 6.00 Build 0)  -->
<svg version="1.1" id="Layer_1" xmlns="http://www.w3.org/2000/svg" xmlns:xlink="http://www.w3.org/1999/xlink" x="0px" y="0px"
	 viewBox="0 0 32 32" style="enable-background:new 0 0 32 32;" xml:space="preserve">
<style type="text/css">
	.st0{fill:#FFFFFF;}
	.st1{fill:#37474F;}
	.st2{fill:#B0BEC5;}
	.st3{fill:none;stroke:#37474F;stroke-linecap:round;stroke-miterlimit:10;}
	.st4{fill:#FFAB00;}
</style>
<g>
	<g>
		<path class="st0" d="M29.5,6.4l-1.2-0.9l-1.9-1.3l-1.8,1.3h-0.4l-1.8-1.2l-1.8,1.2h-0.4l-1.8-1.2l-1.8,1.2h-0.4l-1.8-1.2l-1.7,1.2
			h-0.4l-1.8-1.2l-2,1.2l0,0v18h-7v2.9c0,1.9,2,3.1,3.9,3.1H27c1.9,0,3.5-1.3,3.5-3.1V8.7C30.5,7.2,30.6,7.3,29.5,6.4z"/>
		<path class="st1" d="M27,30H5.4C3.3,30,1,28.5,1,26.4v-2.9C1,23.2,1.2,23,1.5,23H8V5.5c0-0.2,0.1-0.4,0.3-0.4l2.2-1.2
			c0.2-0.1,0.4-0.1,0.5,0L12.6,5h0.1l1.6-1.1c0.2-0.1,0.4-0.1,0.6,0L16.5,5h0.1l1.6-1.1c0.2-0.1,0.4-0.1,0.6,0L20.4,5h0.1l1.6-1.1
			c0.2-0.1,0.4-0.1,0.6,0L24.4,5h0.1l1.6-1.2c0.2-0.1,0.4-0.1,0.6,0l1.9,1.3L30,6.2c1,0.8,1,1,1,2.2v0.3v17.7C31,28.4,29.2,30,27,30
			z M2,24v2.4C2,27.9,3.7,29,5.4,29H27c1.5,0,3-1,3-2.6v-18c0-0.9,0-0.9-0.7-1.4l-0.2-0.2L28,5.9l-1.6-1.1l-1.5,1.1
			C24.8,6,24.7,6,24.6,6h-0.4c-0.1,0-0.2,0-0.3-0.1l-1.5-1l-1.5,1C20.9,6,20.8,6,20.7,6h-0.4c-0.1,0-0.2,0-0.3-0.1l-1.5-1l-1.5,1
			C17,6,16.9,6,16.8,6h-0.4c-0.1,0-0.2,0-0.3-0.1l-1.5-1l-1.5,1C13.1,6,13,6,12.9,6h-0.4c-0.1,0-0.2,0-0.3-0.1l-1.5-1L9,5.8v17.7
			C9,23.8,8.8,24,8.5,24H2z"/>
	</g>
	<g>
		<path class="st2" d="M1.5,10.5v15.3c0,2,1.5,3.6,3.5,3.6s3.5-1.6,3.5-3.6V10.5H1.5z"/>
		<path class="st1" d="M5,29.9c-2.2,0-4-1.8-4-4.1V10.5C1,10.2,1.2,10,1.5,10h7C8.8,10,9,10.2,9,10.5v15.3C9,28.1,7.2,29.9,5,29.9z
			 M2,11v14.8c0,1.7,1.3,3.1,3,3.1s3-1.4,3-3.1V11H2z"/>
	</g>
	<g>
		<g>
			<path class="st1" d="M13.4,10.5v2c0,0.1-0.1,0.2-0.2,0.2c-0.1,0-0.2-0.1-0.2-0.2v-0.8h-0.9v0.8c0,0.1-0.1,0.2-0.2,0.2
				c-0.1,0-0.2-0.1-0.2-0.2v-2c0-0.1,0.1-0.2,0.2-0.2c0.1,0,0.2,0.1,0.2,0.2v0.8H13v-0.8c0-0.1,0.1-0.2,0.2-0.2
				C13.3,10.3,13.4,10.4,13.4,10.5z"/>
		</g>
		<g>
			<path class="st1" d="M15.2,12.4c0,0.1-0.1,0.2-0.2,0.2h-1.1c-0.1,0-0.2-0.1-0.2-0.2v-2c0-0.1,0.1-0.2,0.2-0.2H15
				c0.1,0,0.2,0.1,0.2,0.2c0,0.1-0.1,0.2-0.2,0.2h-0.9v0.6h0.7c0.1,0,0.2,0.1,0.2,0.2c0,0.1-0.1,0.2-0.2,0.2h-0.7v0.6H15
				C15.1,12.2,15.2,12.3,15.2,12.4z"/>
		</g>
		<g>
			<path class="st1" d="M17.4,12.4L17.4,12.4c0,0.2-0.1,0.3-0.2,0.3s-0.2,0-0.2-0.1l-0.1-0.4H16l-0.1,0.4c0,0.1-0.1,0.1-0.2,0.1
				c-0.1,0-0.2-0.1-0.2-0.2v-0.1l0.8-2c0-0.1,0.1-0.1,0.2-0.1s0.2,0.1,0.2,0.1L17.4,12.4z M16.7,11.7L16.4,11l-0.3,0.8h0.6V11.7z"/>
		</g>
		<g>
			<path class="st1" d="M17.9,12.6c-0.1,0-0.2-0.1-0.2-0.2v-2c0-0.1,0.1-0.2,0.2-0.2h0.6c0,0,1,0,1,1.2s-1,1.2-1,1.2H17.9z
				 M18.1,12.2h0.4c0,0,0.2,0,0.3-0.1c0.2-0.1,0.3-0.4,0.3-0.7s-0.1-0.6-0.3-0.7c-0.2-0.1-0.3-0.1-0.3-0.1h-0.4V12.2z"/>
		</g>
		<g>
			<path class="st1" d="M19.9,12.6c-0.1,0-0.2-0.1-0.2-0.2v-2c0-0.1,0.1-0.2,0.2-0.2s0.2,0.1,0.2,0.2v1.8h0.7c0.1,0,0.2,0.1,0.2,0.2
				c0,0.1-0.1,0.2-0.2,0.2H19.9z"/>
		</g>
		<g>
			<path class="st1" d="M21.2,12.4v-2c0-0.1,0.1-0.2,0.2-0.2s0.2,0.1,0.2,0.2v2c0,0.1-0.1,0.2-0.2,0.2
				C21.3,12.6,21.2,12.5,21.2,12.4z"/>
		</g>
		<g>
			<path class="st1" d="M23.3,12.5l-1-1.5v1.4c0,0.1-0.1,0.2-0.2,0.2s-0.2-0.1-0.2-0.2v-2c0-0.1,0.1-0.2,0.2-0.2s0.1,0,0.2,0.1
				l1,1.5v-1.4c0-0.1,0.1-0.2,0.2-0.2s0.2,0.1,0.2,0.2v2c0,0.1-0.1,0.2-0.2,0.2S23.4,12.6,23.3,12.5z"/>
		</g>
		<g>
			<path class="st1" d="M25.4,12.4c0,0.1-0.1,0.2-0.2,0.2h-1.1c-0.1,0-0.2-0.1-0.2-0.2v-2c0-0.1,0.1-0.2,0.2-0.2h1.1
				c0.1,0,0.2,0.1,0.2,0.2c0,0.1-0.1,0.2-0.2,0.2h-0.9v0.6H25c0.1,0,0.2,0.1,0.2,0.2c0,0.1-0.1,0.2-0.2,0.2h-0.7v0.6h0.9
				C25.3,12.2,25.4,12.3,25.4,12.4z"/>
		</g>
	</g>
	<g>
		<g>
			<path class="st1" d="M12.4,8.8c0,0.2-0.2,0.3-0.3,0.3c-0.2,0-0.4-0.2-0.4-0.3c0-0.2,0.2-0.4,0.4-0.4C12.2,8.4,12.4,8.6,12.4,8.8z
				"/>
			<path class="st1" d="M12,9.6c-0.5,0-0.9-0.4-0.9-0.8c0-0.5,0.4-0.9,0.9-0.9s0.8,0.4,0.8,0.9C12.9,9.2,12.5,9.6,12,9.6z M12,8.6
				c-0.1,0-0.2,0.1-0.2,0.2c0,0.2,0.3,0.2,0.3,0C12.2,8.7,12.1,8.6,12,8.6z"/>
		</g>
		<g>
			<path class="st1" d="M14.8,8.8c0,0.2-0.2,0.3-0.4,0.3S14,8.9,14,8.8c0-0.2,0.2-0.4,0.4-0.4C14.7,8.4,14.8,8.6,14.8,8.8z"/>
			<path class="st1" d="M14.5,9.6c-0.5,0-0.9-0.4-0.9-0.8c0-0.5,0.4-0.9,0.9-0.9s0.9,0.4,0.9,0.9C15.3,9.2,14.9,9.6,14.5,9.6z
				 M14.5,8.6c-0.1,0-0.1,0.1-0.1,0.2c0,0.2,0.3,0.2,0.3,0C14.6,8.7,14.6,8.6,14.5,8.6z"/>
		</g>
		<g>
			<path class="st1" d="M17.3,8.8c0,0.2-0.2,0.3-0.3,0.3c-0.2,0-0.3-0.2-0.3-0.3c0-0.2,0.2-0.4,0.3-0.4C17.1,8.4,17.3,8.6,17.3,8.8z
				"/>
			<path class="st1" d="M16.9,9.6c-0.5,0-0.8-0.4-0.8-0.8c0-0.5,0.4-0.9,0.8-0.9c0.5,0,0.8,0.4,0.8,0.9C17.8,9.2,17.4,9.6,16.9,9.6z
				 M16.9,8.6c-0.1,0-0.2,0.1-0.2,0.2C16.7,9,17,9,17,8.8C17.1,8.7,17,8.6,16.9,8.6z"/>
		</g>
	</g>
	<g>
		<g>
			<g>
				<path class="st1" d="M28,22H12c-0.3,0-0.5-0.2-0.5-0.5S11.7,21,12,21h16c0.3,0,0.5,0.2,0.5,0.5S28.3,22,28,22z"/>
			</g>
		</g>
		<g>
			<g>
				<path class="st1" d="M28,25H12c-0.3,0-0.5-0.2-0.5-0.5S11.7,24,12,24h16c0.3,0,0.5,0.2,0.5,0.5S28.3,25,28,25z"/>
			</g>
		</g>
		<g>
			<g>
				<path class="st3" d="M28.1,26.9"/>
			</g>
			<g>
				<path class="st3" d="M11.9,26.9"/>
			</g>
		</g>
	</g>
	<g>
		<g>
			<g>
				<path class="st1" d="M28,15h-9c-0.3,0-0.5-0.2-0.5-0.5S18.7,14,19,14h9c0.3,0,0.5,0.2,0.5,0.5S28.3,15,28,15z"/>
			</g>
		</g>
		<g>
			<g>
				<path class="st1" d="M28,18h-9c-0.3,0-0.5-0.2-0.5-0.5S18.7,17,19,17h9c0.3,0,0.5,0.2,0.5,0.5S28.3,18,28,18z"/>
			</g>
		</g>
	</g>
	<g>
		<rect x="12.5" y="14.5" class="st4" width="5" height="5"/>
		<path class="st1" d="M17.5,20h-5c-0.3,0-0.5-0.2-0.5-0.5v-5c0-0.3,0.2-0.5,0.5-0.5h5c0.3,0,0.5,0.2,0.5,0.5v5
			C18,19.8,17.8,20,17.5,20z M13,19h4v-4h-4V19z"/>
	</g>
	<g>
		<rect x="26.1" y="10.2" class="st4" width="2" height="2"/>
	</g>
</g>
</svg>
