<?xml version="1.0" encoding="utf-8"?>
<!-- Generator: Adobe Illustrator 20.0.0, SVG Export Plug-In . SVG Version: 6.00 Build 0)  -->
<svg version="1.1" id="Layer_1" xmlns="http://www.w3.org/2000/svg" xmlns:xlink="http://www.w3.org/1999/xlink" x="0px" y="0px"
	 viewBox="0 0 32 32" style="enable-background:new 0 0 32 32;" xml:space="preserve">
<style type="text/css">
	.st0{fill:#FFFFFF;}
	.st1{fill:#37474F;}
	.st2{fill:#B0BEC5;}
	.st3{clip-path:url(#SVGID_2_);}
	.st4{fill:#FFAB00;}
	.st5{clip-path:url(#SVGID_4_);}
</style>
<g>
	<g>
		<rect x="1.5" y="1.5" class="st0" width="28" height="28"/>
		<path class="st1" d="M30,30H1V1h29V30z M2,29h27V2H2V29z"/>
	</g>
	<g>
		<rect x="5" y="6" class="st2" width="21" height="20"/>
	</g>
	<g>
		<g>
			<defs>
				<rect id="SVGID_1_" x="5" y="6" width="21" height="20"/>
			</defs>
			<clipPath id="SVGID_2_">
				<use xlink:href="#SVGID_1_"  style="overflow:visible;"/>
			</clipPath>
			<g class="st3">
				<polygon class="st4" points="5.3,26.1 13.1,18.2 17,22.1 24.2,14.8 28.2,18.8 32.9,23.5 29.1,31.2 11.5,28.2 5.4,27.9 4.9,26.5 
									"/>
				<path class="st1" d="M29.1,31.7L29.1,31.7l-17.7-2.9l-6.1-0.4c-0.2,0-0.4-0.1-0.4-0.3l-0.5-1.3c-0.1-0.2,0-0.3,0.1-0.5l0.4-0.4
					l7.9-7.9c0.2-0.2,0.5-0.2,0.7,0l3.5,3.5l6.9-6.9c0.2-0.2,0.5-0.2,0.7,0l8.7,8.7c0.2,0.2,0.2,0.4,0.1,0.6l-3.8,7.7
					C29.5,31.6,29.3,31.7,29.1,31.7z M5.7,27.4l5.8,0.3l17.3,2.9l3.4-7l-8.1-8.1l-6.9,6.9c-0.2,0.2-0.5,0.2-0.7,0L13,18.9l-7.6,7.7
					L5.7,27.4z"/>
			</g>
		</g>
		<g>
			<defs>
				<rect id="SVGID_3_" x="5" y="6" width="21" height="20"/>
			</defs>
			<clipPath id="SVGID_4_">
				<use xlink:href="#SVGID_3_"  style="overflow:visible;"/>
			</clipPath>
			<g class="st5">
				<path class="st0" d="M34.1,13.4c0-0.8-0.6-1.4-1.3-1.5c-0.1-0.7-0.8-1.3-1.5-1.3s-1.2,0.4-1.4,0.9c-0.2-0.1-0.3-0.1-0.5-0.2
					v-0.1c0-1.3-1.1-2.4-2.4-2.4c-0.6-1.5-2-2.6-3.7-2.6c-1.8,0-3.2,1.2-3.7,2.8l0,0c-1.3,0-2.4,1.1-2.4,2.4c0,0.2,0.1,0.5,0.1,0.7
					c-0.6,0.2-1,0.7-1,1.4c0,0.6,0.1,1,0.6,1l0,0h0.8c0.1,0-0.1,0,0,0s0.3,0,0.4,0h15.5l-0.8,0.1C33.5,14.5,34.1,14.2,34.1,13.4z
					 M30,14.1c0.2-0.2,0.4-0.4,0.5-0.6c0.1,0.1,0.3,0.1,0.4,0.2c0.1,0.4,0.2,0.7,0.5,0.9L30,14.1z"/>
				<path class="st1" d="M33.6,15.7L31.2,15H16.9c-1.1,0-1.1-1.1-1.1-1.5c0-0.7,0.3-1.3,0.9-1.6c0-0.1,0-0.3,0-0.4
					c0-1.5,1.1-2.7,2.6-2.9c0.7-1.7,2.3-2.8,4.1-2.8c1.8,0,3.3,1,4,2.6c1.2,0.2,2.2,1.1,2.5,2.3c0.4-0.4,0.9-0.6,1.5-0.6
					c0.9,0,1.6,0.6,1.9,1.4c0.8,0.3,1.4,1.1,1.4,1.9c0,0.6-0.3,1.1-0.8,1.4l0.8,0.2h-1.1L33,15.1L33.6,15.7z M19.4,9.6
					c-1,0-1.8,0.9-1.8,1.9c0,0.2,0.1,0.3,0.1,0.5l0.1,0.4l-0.4,0.2c-0.3,0.1-0.7,0.4-0.7,0.9c0,0.4,0,0.5,0.1,0.5H18h11.4l0.3-0.3
					c0.2-0.1,0.3-0.3,0.4-0.4l0.2-0.5l0.5,0.3c0.1,0,0.2,0.1,0.3,0.1l0.3,0.1l0.1,0.3c0,0.2,0.1,0.3,0.2,0.4h1.5
					c0.4-0.1,0.5-0.3,0.5-0.6c0-0.5-0.4-0.9-0.9-1l-0.3-0.1L32.4,12c-0.1-0.5-0.5-0.9-1-0.9c-0.4,0-0.8,0.3-1,0.7l-0.2,0.5L29.6,12
					c-0.1-0.1-0.2-0.1-0.4-0.1l-0.5-0.1l0.1-0.6c0-0.9-0.8-1.8-1.9-1.8h-0.3L26.5,9c-0.5-1.4-1.8-2.2-3.2-2.2c-1.5,0-2.8,1-3.3,2.5
					l-0.1,0.4L19.4,9.6z"/>
			</g>
		</g>
	</g>
	<g>
		<path class="st1" d="M26,26H4V5h22V26z M5,25h20V6H5V25z"/>
	</g>
	<g>
		<path class="st0" d="M13.8,16c-2.2,0-4-1.8-4-4c0-1.3,0.6-2.4,1.6-3.1c-2.1,0.3-3.7,2-3.7,4.2c0,2.4,1.9,4.3,4.3,4.3
			c1.4,0,2.6-0.7,3.4-1.7C14.9,15.9,14.4,16,13.8,16z"/>
		<path class="st1" d="M12,17.8c-2.6,0-4.8-2.1-4.8-4.8c0-2.4,1.8-4.4,4.1-4.7c0.2,0,0.4,0.1,0.5,0.3s0,0.5-0.2,0.6
			c-0.9,0.7-1.4,1.7-1.4,2.8c0,1.9,1.6,3.5,3.5,3.5c0.5,0,0.9-0.1,1.4-0.3c0.2-0.1,0.5,0,0.6,0.2s0.1,0.4,0,0.6
			C14.9,17.1,13.5,17.8,12,17.8z M9.9,10c-1,0.7-1.6,1.8-1.6,3.1c0,2.1,1.7,3.8,3.8,3.8c0.6,0,1.1-0.1,1.6-0.4
			c-2.4-0.1-4.3-2.1-4.3-4.5C9.4,11.3,9.5,10.6,9.9,10z"/>
	</g>
	<g>
		<g>
			<path class="st1" d="M18.4,3.8c0-0.2,0.2-0.4,0.4-0.4c0.3,0,0.5,0.2,0.5,0.4c0,0.3-0.2,0.4-0.5,0.4C18.6,4.2,18.4,4,18.4,3.8z"/>
			<path class="st1" d="M18.9,4.7c-0.5,0-0.9-0.4-0.9-0.9s0.4-0.9,0.9-0.9s1,0.4,1,0.9C19.8,4.3,19.4,4.7,18.9,4.7z"/>
		</g>
		<g>
			<path class="st1" d="M15.3,3.8c0-0.2,0.2-0.4,0.5-0.4s0.5,0.2,0.5,0.4c0,0.3-0.2,0.4-0.5,0.4S15.3,4,15.3,3.8z"/>
			<circle class="st1" cx="15.7" cy="3.8" r="0.9"/>
		</g>
		<g>
			<path class="st1" d="M12.2,3.8c0-0.2,0.2-0.4,0.4-0.4c0.3,0,0.5,0.2,0.5,0.4c0,0.3-0.2,0.4-0.5,0.4C12.4,4.2,12.2,4,12.2,3.8z"/>
			<path class="st1" d="M12.6,4.7c-0.5,0-0.9-0.4-0.9-0.9s0.4-0.9,0.9-0.9s1,0.4,1,0.9S13.1,4.7,12.6,4.7z"/>
		</g>
	</g>
</g>
</svg>
