<?xml version="1.0" encoding="utf-8"?>
<!-- Generator: Adobe Illustrator 16.0.0, SVG Export Plug-In . SVG Version: 6.00 Build 0)  -->
<!DOCTYPE svg PUBLIC "-//W3C//DTD SVG 1.1//EN" "http://www.w3.org/Graphics/SVG/1.1/DTD/svg11.dtd">
<svg version="1.1" id="Layer_1" xmlns="http://www.w3.org/2000/svg" xmlns:xlink="http://www.w3.org/1999/xlink" x="0px" y="0px"
	 width="128px" height="128px" viewBox="0 0 128 128" enable-background="new 0 0 128 128" xml:space="preserve">
<g>
	<g>
		<g>
			<g>
				<line fill="#FFAB00" x1="13" y1="59.5" x2="84" y2="59.5"/>
				<path fill="#FFAB00" d="M84,61H13c-0.8,0-1.5-0.7-1.5-1.5S12.2,58,13,58h71c0.8,0,1.5,0.7,1.5,1.5S84.8,61,84,61z"/>
			</g>
			<g>
				<line fill="#FFAB00" x1="13" y1="42.5" x2="84" y2="42.5"/>
				<path fill="#FFAB00" d="M84,44H13c-0.8,0-1.5-0.7-1.5-1.5S12.2,41,13,41h71c0.8,0,1.5,0.7,1.5,1.5S84.8,44,84,44z"/>
			</g>
			<g>
				<line fill="#FFAB00" x1="13" y1="25.5" x2="84" y2="25.5"/>
				<path fill="#FFAB00" d="M84,27H13c-0.8,0-1.5-0.7-1.5-1.5S12.2,24,13,24h71c0.8,0,1.5,0.7,1.5,1.5S84.8,27,84,27z"/>
			</g>
		</g>
		<g>
			<g>
				<line fill="#FFAB00" x1="13" y1="108.5" x2="84" y2="108.5"/>
				<path fill="#37474F" d="M84,110H13c-0.8,0-1.5-0.7-1.5-1.5s0.7-1.5,1.5-1.5h71c0.8,0,1.5,0.7,1.5,1.5S84.8,110,84,110z"/>
			</g>
			<g>
				<line fill="#FFAB00" x1="13" y1="92.5" x2="84" y2="92.5"/>
				<path fill="#37474F" d="M84,94H13c-0.8,0-1.5-0.7-1.5-1.5S12.2,91,13,91h71c0.8,0,1.5,0.7,1.5,1.5S84.8,94,84,94z"/>
			</g>
			<g>
				<line fill="#FFAB00" x1="13" y1="75.5" x2="84" y2="75.5"/>
				<path fill="#37474F" d="M84,77H13c-0.8,0-1.5-0.7-1.5-1.5S12.2,74,13,74h71c0.8,0,1.5,0.7,1.5,1.5S84.8,77,84,77z"/>
			</g>
		</g>
	</g>
	<g>
		<g>
			<path fill="#37474F" d="M115.2,103.8c0,2.4-2.1,2.9-4.4,2.9l0,0c-2.4,0-4.2-0.9-4.2-3.3V12c0-2.4,2.2-4.3,4.5-4.3l0,0
				c2.4,0,4.5,1.9,4.5,4.3L115.2,103.8z"/>
			<path fill="#37474F" d="M110.7,108.2c-3.5,0-5.7-1.8-5.7-4.8V12c0-3.1,2.8-5.8,6-5.8c3.3,0,6,2.7,6,5.8l-0.4,91.8
				C116.7,105.4,115.9,108.2,110.7,108.2z M111,9.3c-1.6,0-3,1.3-3,2.8v91.4c0,0.5,0,1.8,2.7,1.8c2.9,0,2.9-0.9,2.9-1.4l0.4-91.8
				C114.1,10.6,112.6,9.3,111,9.3z"/>
		</g>
		<g>
			<path fill="#FFFFFF" d="M115.2,103.4c0,2.4-2,4.3-4.3,4.3l0,0c-2.4,0-4.3-1.9-4.3-4.3V29.8c0-2.4,2-4.3,4.3-4.3l0,0
				c2.4,0,4.3,1.9,4.3,4.3L115.2,103.4z"/>
			<path fill="#37474F" d="M110.9,109.2C110.9,109.2,110.8,109.2,110.9,109.2c-3.2,0-5.9-2.6-5.9-5.8V29.8c0-3.2,2.6-5.8,5.8-5.8
				c1.6,0,3.1,0.6,4.2,1.7c1.1,1.1,1.7,2.5,1.7,4.1l0,73.6C116.7,106.6,114,109.2,110.9,109.2z M110.8,27.1c-1.5,0-2.8,1.3-2.8,2.8
				v73.6c0,1.5,1.3,2.8,2.8,2.8h0c1.5,0,2.8-1.3,2.8-2.8l0-73.6c0-0.7-0.3-1.4-0.8-1.9C112.3,27.4,111.6,27.1,110.8,27.1z"/>
		</g>
		<g>
			<polygon fill="#FFAB00" points="107.4,106.5 110.8,122.1 114.1,106.5 			"/>
			<path fill="#37474F" d="M110.8,123.6c-0.7,0-1.3-0.5-1.5-1.2l-3.4-15.6c-0.1-0.4,0-0.9,0.3-1.3s0.7-0.6,1.2-0.6h6.7
				c0.5,0,0.9,0.2,1.2,0.6s0.4,0.8,0.3,1.3l-3.4,15.6C112.1,123.1,111.5,123.6,110.8,123.6z M109.3,108l1.5,7l1.5-7H109.3z"/>
		</g>
		<g>
			<path fill="#37474F" d="M98.5,57.5c-0.8,0-1.5-0.7-1.5-1.5V36.8c0-0.5,0.2-0.9,0.6-1.2l7.7-5.7c0.7-0.5,1.6-0.4,2.1,0.3
				c0.5,0.7,0.4,1.6-0.3,2.1l-7.1,5.3V56C100,56.8,99.3,57.5,98.5,57.5z"/>
		</g>
	</g>
	<g>
		<g>
			<path fill="#37474F" d="M40.3,11.8c0-0.8-0.6-1.4-1.4-1.4c-0.8,0-1.4,0.6-1.4,1.4c0,0.8,0.6,1.4,1.4,1.4
				C39.6,13.2,40.3,12.6,40.3,11.8z"/>
			<path fill="#37474F" d="M38.9,13.7c-1.1,0-1.9-0.9-1.9-1.9c0-1,0.9-1.9,1.9-1.9c1,0,1.9,0.8,1.9,1.9
				C40.8,12.8,39.9,13.7,38.9,13.7z M38.9,10.9c-0.5,0-0.9,0.4-0.9,0.9c0,0.5,0.4,0.9,0.9,0.9c0.5,0,0.9-0.4,0.9-0.9
				C39.8,11.3,39.4,10.9,38.9,10.9z"/>
		</g>
		<g>
			<path fill="#37474F" d="M50.1,11.8c0-0.8-0.6-1.4-1.4-1.4c-0.8,0-1.4,0.6-1.4,1.4c0,0.8,0.6,1.4,1.4,1.4
				C49.5,13.2,50.1,12.6,50.1,11.8z"/>
			<path fill="#37474F" d="M48.7,13.7c-1,0-1.9-0.9-1.9-1.9c0-1,0.8-1.9,1.9-1.9c1.1,0,1.9,0.8,1.9,1.9
				C50.6,12.8,49.7,13.7,48.7,13.7z M48.7,10.9c-0.5,0-0.9,0.4-0.9,0.9c0,0.5,0.4,0.9,0.9,0.9c0.5,0,0.9-0.4,0.9-0.9
				C49.6,11.3,49.2,10.9,48.7,10.9z"/>
		</g>
		<g>
			<path fill="#37474F" d="M59.9,11.8c0-0.8-0.6-1.4-1.4-1.4c-0.8,0-1.4,0.6-1.4,1.4c0,0.8,0.6,1.4,1.4,1.4
				C59.3,13.2,59.9,12.6,59.9,11.8z"/>
			<path fill="#37474F" d="M58.5,13.7c-1.1,0-1.9-0.8-1.9-1.9c0-1.1,0.8-1.9,1.9-1.9c1.1,0,1.9,0.8,1.9,1.9
				C60.4,12.8,59.5,13.7,58.5,13.7z M58.5,10.9c-0.5,0-0.9,0.4-0.9,0.9c0,0.5,0.4,0.9,0.9,0.9c0.5,0,0.9-0.4,0.9-0.9
				C59.4,11.3,59,10.9,58.5,10.9z"/>
		</g>
	</g>
	<g>
		<line fill="#FFFFFF" x1="107" y1="58.5" x2="114" y2="58.5"/>
		<path fill="#37474F" d="M114,60h-7c-0.8,0-1.5-0.7-1.5-1.5s0.7-1.5,1.5-1.5h7c0.8,0,1.5,0.7,1.5,1.5S114.8,60,114,60z"/>
	</g>
	<g>
		<line fill="#FFFFFF" x1="107" y1="64.5" x2="114" y2="64.5"/>
		<path fill="#37474F" d="M114,66h-7c-0.8,0-1.5-0.7-1.5-1.5s0.7-1.5,1.5-1.5h7c0.8,0,1.5,0.7,1.5,1.5S114.8,66,114,66z"/>
	</g>
	<g>
		<line fill="#FFFFFF" x1="107" y1="70.5" x2="114" y2="70.5"/>
		<path fill="#37474F" d="M114,72h-7c-0.8,0-1.5-0.7-1.5-1.5s0.7-1.5,1.5-1.5h7c0.8,0,1.5,0.7,1.5,1.5S114.8,72,114,72z"/>
	</g>
</g>
</svg>
