<?xml version="1.0" encoding="utf-8"?>
<!-- Generator: Adobe Illustrator 16.0.0, SVG Export Plug-In . SVG Version: 6.00 Build 0)  -->
<!DOCTYPE svg PUBLIC "-//W3C//DTD SVG 1.1//EN" "http://www.w3.org/Graphics/SVG/1.1/DTD/svg11.dtd">
<svg version="1.1" id="Layer_1" xmlns="http://www.w3.org/2000/svg" xmlns:xlink="http://www.w3.org/1999/xlink" x="0px" y="0px"
	 width="32px" height="32px" viewBox="0 0 32 32" enable-background="new 0 0 32 32" xml:space="preserve">
<g>
	<g>
		<g>
			<g>
				<line fill="#FFAB00" x1="3" y1="17.5" x2="21" y2="17.5"/>
				<path fill="#FFAB00" d="M21,18H3c-0.3,0-0.5-0.2-0.5-0.5S2.7,17,3,17h18c0.3,0,0.5,0.2,0.5,0.5S21.3,18,21,18z"/>
			</g>
			<g>
				<line fill="#FFAB00" x1="3" y1="8.5" x2="21" y2="8.5"/>
				<path fill="#FFAB00" d="M21,9H3C2.7,9,2.5,8.8,2.5,8.5S2.7,8,3,8h18c0.3,0,0.5,0.2,0.5,0.5S21.3,9,21,9z"/>
			</g>
		</g>
		<g>
			<g>
				<line fill="#FFAB00" x1="3" y1="25.5" x2="21" y2="25.5"/>
				<path fill="#37474F" d="M21,26H3c-0.3,0-0.5-0.2-0.5-0.5S2.7,25,3,25h18c0.3,0,0.5,0.2,0.5,0.5S21.3,26,21,26z"/>
			</g>
		</g>
	</g>
	<g>
		<g>
			<path fill="#37474F" d="M28.9,21.2c0,0.6-0.8,0.9-1.4,0.9l0,0c-0.6,0-1-0.5-1-1.1v-18c0-0.6,0.6-1.1,1.2-1.1l0,0
				c0.6,0,1.2,0.5,1.2,1.1L28.9,21.2z"/>
			<path fill="#37474F" d="M27.5,22.6c-0.9,0-1.5-0.7-1.5-1.6v-18c0-0.9,0.9-1.6,1.7-1.6c0.8,0,1.7,0.7,1.7,1.6l0,18.1
				C29.4,22.2,28.3,22.6,27.5,22.6z M27.7,2.5c-0.3,0-0.7,0.3-0.7,0.6v18c0,0.3,0.2,0.6,0.5,0.6c0.4,0,0.9-0.3,0.9-0.4l0-18.1
				C28.4,2.8,28.1,2.5,27.7,2.5z"/>
		</g>
		<g>
			<path fill="#FFFFFF" d="M29,25.5c0,0.6-0.6,1.1-1.2,1.1l0,0c-0.6,0-1.2-0.5-1.2-1.1V7.1c0-0.6,0.6-1.1,1.2-1.1l0,0
				c0.6,0,1.2,0.5,1.2,1.1L29,25.5z"/>
			<path fill="#37474F" d="M27.7,27.1C27.7,27.1,27.7,27.1,27.7,27.1c-0.8,0-1.7-0.6-1.7-1.6V7.1c0-0.9,0.9-1.6,1.7-1.6
				c0.4,0,0.9,0.2,1.2,0.5c0.3,0.3,0.5,0.7,0.5,1.1l0.1,18.4C29.5,26.4,28.6,27.1,27.7,27.1z M27.7,6.6c-0.4,0-0.7,0.3-0.7,0.6v18.4
				c0,0.3,0.4,0.6,0.7,0.6h0c0.3,0,0.7-0.3,0.7-0.6L28.4,7.1c0-0.2-0.1-0.3-0.2-0.4C28.1,6.6,27.9,6.6,27.7,6.6z"/>
		</g>
		<g>
			<polygon fill="#FFAB00" points="27,26.5 27.9,30.4 28.7,26.5 			"/>
			<path fill="#37474F" d="M27.9,30.9c-0.2,0-0.4-0.2-0.5-0.4l-0.8-3.9c0-0.1,0-0.3,0.1-0.4c0.1-0.1,0.2-0.2,0.4-0.2h1.7
				c0.2,0,0.3,0.1,0.4,0.2c0.1,0.1,0.1,0.3,0.1,0.4l-0.8,3.9C28.3,30.7,28.1,30.9,27.9,30.9z M27.6,27l0.2,1l0.2-1H27.6z"/>
		</g>
		<g>
			<path fill="#37474F" d="M24.5,14.5c-0.3,0-0.5-0.2-0.5-0.5V8.9c0-0.2,0.1-0.3,0.2-0.4l1.9-1.3c0.2-0.1,0.5-0.1,0.7,0.1
				C27,7.6,26.9,7.9,26.7,8L25,9.1V14C25,14.3,24.8,14.5,24.5,14.5z"/>
		</g>
	</g>
	<g>
		<g>
			<path fill="#37474F" d="M10.2,4.1c0-0.2-0.2-0.3-0.3-0.3c-0.2,0-0.4,0.2-0.4,0.3c0,0.2,0.2,0.4,0.4,0.4
				C10.1,4.4,10.2,4.3,10.2,4.1z"/>
			<path fill="#37474F" d="M9.9,4.9C9.4,4.9,9,4.6,9,4.1c0-0.5,0.4-0.8,0.9-0.8c0.5,0,0.8,0.4,0.8,0.8C10.7,4.6,10.4,4.9,9.9,4.9z
				 M9.9,3.9C9.8,3.9,9.7,4,9.7,4.1c0,0.2,0.3,0.2,0.3,0C10,4,10,3.9,9.9,3.9z"/>
		</g>
		<g>
			<path fill="#37474F" d="M12.7,4.1c0-0.2-0.2-0.3-0.3-0.3c-0.2,0-0.3,0.2-0.3,0.3c0,0.2,0.2,0.4,0.3,0.4
				C12.5,4.4,12.7,4.3,12.7,4.1z"/>
			<path fill="#37474F" d="M12.3,4.9c-0.5,0-0.8-0.4-0.8-0.9c0-0.5,0.4-0.8,0.8-0.8c0.5,0,0.8,0.4,0.8,0.8
				C13.2,4.6,12.8,4.9,12.3,4.9z M12.3,3.9c-0.1,0-0.2,0.1-0.2,0.1c0,0.2,0.3,0.2,0.3,0C12.5,4,12.4,3.9,12.3,3.9z"/>
		</g>
		<g>
			<path fill="#37474F" d="M15.1,4.1c0-0.2-0.2-0.3-0.3-0.3c-0.2,0-0.3,0.2-0.3,0.3c0,0.2,0.2,0.4,0.3,0.4C15,4.4,15.1,4.3,15.1,4.1
				z"/>
			<path fill="#37474F" d="M14.8,4.9c-0.5,0-0.8-0.4-0.8-0.9c0-0.5,0.4-0.8,0.8-0.8c0.5,0,0.8,0.4,0.8,0.8
				C15.6,4.6,15.3,4.9,14.8,4.9z M14.8,3.9c-0.1,0-0.2,0.1-0.2,0.1c0,0.2,0.3,0.2,0.3,0C14.9,4,14.9,3.9,14.8,3.9z"/>
		</g>
	</g>
	<g>
		<line fill="#FFFFFF" x1="27" y1="13.5" x2="28" y2="13.5"/>
		<path fill="#37474F" d="M28,14h-1c-0.3,0-0.5-0.2-0.5-0.5S26.7,13,27,13h1c0.3,0,0.5,0.2,0.5,0.5S28.3,14,28,14z"/>
	</g>
	<g>
		<line fill="#FFFFFF" x1="27" y1="15.5" x2="28" y2="15.5"/>
		<path fill="#37474F" d="M28,16h-1c-0.3,0-0.5-0.2-0.5-0.5S26.7,15,27,15h1c0.3,0,0.5,0.2,0.5,0.5S28.3,16,28,16z"/>
	</g>
	<g>
		<line fill="#FFFFFF" x1="27" y1="17.5" x2="28" y2="17.5"/>
		<path fill="#37474F" d="M28,18h-1c-0.3,0-0.5-0.2-0.5-0.5S26.7,17,27,17h1c0.3,0,0.5,0.2,0.5,0.5S28.3,18,28,18z"/>
	</g>
</g>
</svg>
