<?xml version="1.0" encoding="utf-8"?>
<!-- Generator: Adobe Illustrator 16.0.0, SVG Export Plug-In . SVG Version: 6.00 Build 0)  -->
<!DOCTYPE svg PUBLIC "-//W3C//DTD SVG 1.1//EN" "http://www.w3.org/Graphics/SVG/1.1/DTD/svg11.dtd">
<svg version="1.1" id="Layer_1" xmlns="http://www.w3.org/2000/svg" xmlns:xlink="http://www.w3.org/1999/xlink" x="0px" y="0px"
	 width="32px" height="32px" viewBox="0 0 32 32" enable-background="new 0 0 32 32" xml:space="preserve">
<g>
	<g>
		<g>
			<rect x="1.5" y="21.4" fill="#78909C" width="29" height="6"/>
			<path fill="#37474F" d="M31,27.9H1v-7h30V27.9z M2,26.9h28v-5H2V26.9z"/>
		</g>
		<g>
			<rect x="9.5" y="17.4" fill="#FFAB00" width="12" height="10"/>
			<path fill="#37474F" d="M21.5,27.9h-12c-0.3,0-0.5-0.2-0.5-0.5v-10c0-0.3,0.2-0.5,0.5-0.5h12c0.3,0,0.5,0.2,0.5,0.5v10
				C22,27.7,21.8,27.9,21.5,27.9z M10,26.9h11v-9H10V26.9z"/>
		</g>
	</g>
	<g>
		<g>
			<polygon fill="#37474F" points="13.6,15.4 15.9,7.7 18.2,15.4 			"/>
			<path fill="#37474F" d="M18.2,15.9C18.2,15.9,18.2,15.9,18.2,15.9h-4.7c-0.2,0-0.3-0.1-0.4-0.2s-0.1-0.3-0.1-0.4l2.3-7.8
				c0.1-0.2,0.3-0.4,0.5-0.4l0,0c0.2,0,0.4,0.1,0.5,0.4l2.3,7.6c0,0.1,0.1,0.2,0.1,0.3C18.7,15.7,18.5,15.9,18.2,15.9z M14.2,14.9
				h3.3l-1.6-5.5L14.2,14.9z"/>
		</g>
		<g>
			<circle fill="#FFECB3" cx="15.9" cy="6.8" r="2.2"/>
			<path fill="#37474F" d="M15.9,9.5c-1.5,0-2.7-1.2-2.7-2.7c0-1.5,1.2-2.7,2.7-2.7c1.5,0,2.7,1.2,2.7,2.7
				C18.6,8.3,17.4,9.5,15.9,9.5z M15.9,5.1c-0.9,0-1.7,0.8-1.7,1.7c0,0.9,0.8,1.7,1.7,1.7c0.9,0,1.7-0.8,1.7-1.7
				C17.6,5.8,16.8,5.1,15.9,5.1z"/>
		</g>
	</g>
	<g>
		<g>
			<g>
				<polygon fill="#37474F" points="3.1,19.4 5.4,11.7 7.7,19.4 				"/>
				<path fill="#37474F" d="M7.7,19.9C7.7,19.9,7.7,19.9,7.7,19.9H3.1c-0.2,0-0.3-0.1-0.4-0.2c-0.1-0.1-0.1-0.3-0.1-0.4l2.3-7.8
					c0.1-0.2,0.3-0.4,0.5-0.4l0,0c0.2,0,0.4,0.1,0.5,0.4l2.3,7.6c0,0.1,0.1,0.2,0.1,0.3C8.2,19.7,8,19.9,7.7,19.9z M3.7,18.9H7
					l-1.6-5.5L3.7,18.9z"/>
			</g>
			<g>
				<circle fill="#B0BEC5" cx="5.4" cy="10.6" r="2.2"/>
				<path fill="#37474F" d="M5.4,13.3c-1.5,0-2.7-1.2-2.7-2.7c0-1.5,1.2-2.7,2.7-2.7c1.5,0,2.7,1.2,2.7,2.7
					C8.1,12.1,6.9,13.3,5.4,13.3z M5.4,8.9c-0.9,0-1.7,0.8-1.7,1.7c0,0.9,0.8,1.7,1.7,1.7c0.9,0,1.7-0.8,1.7-1.7
					C7.1,9.7,6.3,8.9,5.4,8.9z"/>
			</g>
		</g>
		<g>
			<g>
				<polygon fill="#37474F" points="24.1,19.4 26.4,11.7 28.7,19.4 				"/>
				<path fill="#37474F" d="M28.7,19.9C28.7,19.9,28.7,19.9,28.7,19.9h-4.7c-0.2,0-0.3-0.1-0.4-0.2c-0.1-0.1-0.1-0.3-0.1-0.4
					l2.3-7.8c0.1-0.4,0.8-0.4,1,0l2.3,7.6c0,0.1,0.1,0.2,0.1,0.3C29.2,19.7,29,19.9,28.7,19.9z M24.8,18.9H28l-1.6-5.5L24.8,18.9z"
					/>
			</g>
			<g>
				<circle fill="#B0BEC5" cx="26.4" cy="10.6" r="2.2"/>
				<path fill="#37474F" d="M26.4,13.3c-1.5,0-2.7-1.2-2.7-2.7c0-1.5,1.2-2.7,2.7-2.7c1.5,0,2.7,1.2,2.7,2.7
					C29.1,12.1,27.9,13.3,26.4,13.3z M26.4,8.9c-0.9,0-1.7,0.8-1.7,1.7c0,0.9,0.8,1.7,1.7,1.7c0.9,0,1.7-0.8,1.7-1.7
					C28.1,9.7,27.3,8.9,26.4,8.9z"/>
			</g>
		</g>
	</g>
	<g>
		<g>
			<g>
				<path fill="#37474F" d="M18.2,20.2c0-0.2,0.2-0.4,0.4-0.4c0.2,0,0.4,0.2,0.4,0.4c0,0.2-0.2,0.4-0.4,0.4
					C18.3,20.6,18.2,20.4,18.2,20.2z"/>
				<path fill="#37474F" d="M18.5,21.1c-0.5,0-0.9-0.4-0.9-0.9c0-0.5,0.4-0.9,0.9-0.9c0.5,0,0.9,0.4,0.9,0.9
					C19.4,20.7,19,21.1,18.5,21.1z"/>
			</g>
			<g>
				<path fill="#37474F" d="M15.5,20.2c0-0.2,0.2-0.4,0.4-0.4c0.2,0,0.4,0.2,0.4,0.4c0,0.2-0.2,0.4-0.4,0.4
					C15.7,20.6,15.5,20.4,15.5,20.2z"/>
				<path fill="#37474F" d="M15.9,21.1c-0.5,0-0.9-0.4-0.9-0.9c0-0.5,0.4-0.9,0.9-0.9c0.5,0,0.9,0.4,0.9,0.9
					C16.8,20.7,16.4,21.1,15.9,21.1z"/>
			</g>
			<g>
				<path fill="#37474F" d="M12.9,20.2c0-0.2,0.2-0.4,0.4-0.4c0.2,0,0.4,0.2,0.4,0.4c0,0.2-0.2,0.4-0.4,0.4
					C13,20.6,12.9,20.4,12.9,20.2z"/>
				<path fill="#37474F" d="M13.2,21.1c-0.5,0-0.9-0.4-0.9-0.9c0-0.5,0.4-0.9,0.9-0.9c0.5,0,0.9,0.4,0.9,0.9
					C14.1,20.7,13.7,21.1,13.2,21.1z"/>
			</g>
		</g>
		<g>
			<g>
				<path fill="#37474F" d="M18.2,22.5c0-0.2,0.2-0.4,0.4-0.4c0.2,0,0.4,0.2,0.4,0.4c0,0.2-0.2,0.4-0.4,0.4
					C18.3,22.9,18.2,22.7,18.2,22.5z"/>
				<path fill="#37474F" d="M18.5,23.4c-0.5,0-0.9-0.4-0.9-0.9c0-0.5,0.4-0.9,0.9-0.9c0.5,0,0.9,0.4,0.9,0.9
					C19.4,23,19,23.4,18.5,23.4z"/>
			</g>
			<g>
				<path fill="#37474F" d="M15.5,22.5c0-0.2,0.2-0.4,0.4-0.4c0.2,0,0.4,0.2,0.4,0.4c0,0.2-0.2,0.4-0.4,0.4
					C15.7,22.9,15.5,22.7,15.5,22.5z"/>
				<path fill="#37474F" d="M15.9,23.4c-0.5,0-0.9-0.4-0.9-0.9c0-0.5,0.4-0.9,0.9-0.9c0.5,0,0.9,0.4,0.9,0.9
					C16.8,23,16.4,23.4,15.9,23.4z"/>
			</g>
			<g>
				<path fill="#37474F" d="M12.9,22.5c0-0.2,0.2-0.4,0.4-0.4c0.2,0,0.4,0.2,0.4,0.4c0,0.2-0.2,0.4-0.4,0.4
					C13,22.9,12.9,22.7,12.9,22.5z"/>
				<path fill="#37474F" d="M13.2,23.4c-0.5,0-0.9-0.4-0.9-0.9c0-0.5,0.4-0.9,0.9-0.9c0.5,0,0.9,0.4,0.9,0.9
					C14.1,23,13.7,23.4,13.2,23.4z"/>
			</g>
		</g>
		<g>
			<g>
				<path fill="#37474F" d="M18.2,24.9c0-0.2,0.2-0.4,0.4-0.4c0.2,0,0.4,0.2,0.4,0.4c0,0.2-0.2,0.4-0.4,0.4
					C18.3,25.3,18.2,25.1,18.2,24.9z"/>
				<path fill="#37474F" d="M18.5,25.8c-0.5,0-0.9-0.4-0.9-0.9s0.4-0.9,0.9-0.9c0.5,0,0.9,0.4,0.9,0.9S19,25.8,18.5,25.8z"/>
			</g>
			<g>
				<path fill="#37474F" d="M15.5,24.9c0-0.2,0.2-0.4,0.4-0.4c0.2,0,0.4,0.2,0.4,0.4c0,0.2-0.2,0.4-0.4,0.4
					C15.7,25.3,15.5,25.1,15.5,24.9z"/>
				<path fill="#37474F" d="M15.9,25.8c-0.5,0-0.9-0.4-0.9-0.9s0.4-0.9,0.9-0.9c0.5,0,0.9,0.4,0.9,0.9S16.4,25.8,15.9,25.8z"/>
			</g>
			<g>
				<path fill="#37474F" d="M12.9,24.9c0-0.2,0.2-0.4,0.4-0.4c0.2,0,0.4,0.2,0.4,0.4c0,0.2-0.2,0.4-0.4,0.4
					C13,25.3,12.9,25.1,12.9,24.9z"/>
				<path fill="#37474F" d="M13.2,25.8c-0.5,0-0.9-0.4-0.9-0.9s0.4-0.9,0.9-0.9c0.5,0,0.9,0.4,0.9,0.9S13.7,25.8,13.2,25.8z"/>
			</g>
		</g>
	</g>
</g>
</svg>
