<?xml version="1.0" encoding="utf-8"?>
<!-- Generator: Adobe Illustrator 16.0.0, SVG Export Plug-In . SVG Version: 6.00 Build 0)  -->
<!DOCTYPE svg PUBLIC "-//W3C//DTD SVG 1.1//EN" "http://www.w3.org/Graphics/SVG/1.1/DTD/svg11.dtd">
<svg version="1.1" id="Layer_1" xmlns="http://www.w3.org/2000/svg" xmlns:xlink="http://www.w3.org/1999/xlink" x="0px" y="0px"
	 width="128px" height="128px" viewBox="0 0 128 128" enable-background="new 0 0 128 128" xml:space="preserve">
<g>
	<g>
		<g>
			<rect x="3.5" y="86.3" fill="#78909C" width="121" height="26"/>
			<path fill="#37474F" d="M126,113.8H2v-29h124V113.8z M5,110.8h118v-23H5V110.8z"/>
		</g>
		<g>
			<rect x="38.5" y="70.3" fill="#FFAB00" width="51" height="42"/>
			<path fill="#37474F" d="M89.5,113.8h-51c-0.8,0-1.5-0.7-1.5-1.5v-42c0-0.8,0.7-1.5,1.5-1.5h51c0.8,0,1.5,0.7,1.5,1.5v42
				C91,113.1,90.3,113.8,89.5,113.8z M40,110.8h48v-39H40V110.8z"/>
		</g>
	</g>
	<g>
		<g>
			<polygon fill="#37474F" points="54.2,62.3 63.9,29.6 73.6,62.3 			"/>
			<path fill="#37474F" d="M73.7,63.8C73.6,63.8,73.6,63.8,73.7,63.8H54.2c-0.5,0-0.9-0.2-1.2-0.6c-0.3-0.4-0.4-0.9-0.2-1.3
				l9.7-32.6c0.2-0.6,0.8-1.1,1.4-1.1s1.2,0.4,1.4,1.1L75,61.6c0.1,0.2,0.1,0.4,0.1,0.7C75.2,63.1,74.5,63.8,73.7,63.8z M56.2,60.8
				h15.4l-7.7-25.9L56.2,60.8z"/>
		</g>
		<g>
			<path fill="#FFECB3" d="M73.1,25c0,5.1-4.1,9.2-9.2,9.2c-5.1,0-9.2-4.1-9.2-9.2c0-5.1,4.1-9.2,9.2-9.2C69,15.7,73.1,19.9,73.1,25
				z"/>
			<path fill="#37474F" d="M63.9,35.7c-5.9,0-10.7-4.8-10.7-10.7S58,14.2,63.9,14.2c5.9,0,10.7,4.8,10.7,10.7S69.8,35.7,63.9,35.7z
				 M63.9,17.2c-4.3,0-7.7,3.5-7.7,7.7s3.5,7.7,7.7,7.7c4.3,0,7.7-3.5,7.7-7.7S68.2,17.2,63.9,17.2z"/>
		</g>
	</g>
	<g>
		<g>
			<g>
				<polygon fill="#37474F" points="10,78.3 19.7,45.7 29.5,78.3 				"/>
				<path fill="#37474F" d="M29.5,79.8C29.5,79.8,29.5,79.8,29.5,79.8H10c-0.5,0-0.9-0.2-1.2-0.6s-0.4-0.9-0.2-1.3l9.7-32.6
					c0.2-0.6,0.8-1.1,1.4-1.1s1.2,0.4,1.4,1.1l9.7,32.4c0.1,0.2,0.1,0.4,0.1,0.7C31,79.1,30.3,79.8,29.5,79.8z M12,76.8h15.4
					l-7.7-25.9L12,76.8z"/>
			</g>
			<g>
				<path fill="#B0BEC5" d="M29,41.1c0,5.1-4.1,9.2-9.2,9.2c-5.1,0-9.2-4.1-9.2-9.2c0-5.1,4.1-9.2,9.2-9.2C24.8,31.9,29,36,29,41.1z
					"/>
				<path fill="#37474F" d="M19.7,51.8C13.8,51.8,9,47,9,41.1c0-5.9,4.8-10.7,10.7-10.7c5.9,0,10.7,4.8,10.7,10.7
					C30.5,47,25.6,51.8,19.7,51.8z M19.7,33.4c-4.3,0-7.7,3.5-7.7,7.7c0,4.3,3.5,7.7,7.7,7.7c4.3,0,7.7-3.5,7.7-7.7
					C27.5,36.8,24,33.4,19.7,33.4z"/>
			</g>
		</g>
		<g>
			<g>
				<polygon fill="#37474F" points="98.3,78.3 108.1,45.7 117.8,78.3 				"/>
				<path fill="#37474F" d="M117.8,79.8C117.8,79.8,117.8,79.8,117.8,79.8H98.3c-0.5,0-0.9-0.2-1.2-0.6c-0.3-0.4-0.4-0.9-0.2-1.3
					l9.7-32.6c0.2-0.6,0.8-1.1,1.4-1.1l0,0c0.7,0,1.2,0.4,1.4,1.1l9.7,32.4c0.1,0.2,0.1,0.4,0.1,0.7
					C119.3,79.1,118.7,79.8,117.8,79.8z M100.3,76.8h15.4l-7.7-25.9L100.3,76.8z"/>
			</g>
			<g>
				<path fill="#B0BEC5" d="M117.3,41.1c0,5.1-4.1,9.2-9.2,9.2c-5.1,0-9.2-4.1-9.2-9.2c0-5.1,4.1-9.2,9.2-9.2
					C113.2,31.9,117.3,36,117.3,41.1z"/>
				<path fill="#37474F" d="M108.1,51.8c-5.9,0-10.7-4.8-10.7-10.7c0-5.9,4.8-10.7,10.7-10.7s10.7,4.8,10.7,10.7
					C118.8,47,114,51.8,108.1,51.8z M108.1,33.4c-4.3,0-7.7,3.5-7.7,7.7c0,4.3,3.5,7.7,7.7,7.7s7.7-3.5,7.7-7.7
					C115.8,36.8,112.3,33.4,108.1,33.4z"/>
			</g>
		</g>
	</g>
	<g>
		<g>
			<g>
				<path fill="#37474F" d="M73.5,81.3c0-0.9,0.7-1.6,1.6-1.6c0.9,0,1.6,0.7,1.6,1.6c0,0.9-0.7,1.6-1.6,1.6
					C74.2,82.9,73.5,82.2,73.5,81.3z"/>
				<path fill="#37474F" d="M75,83.4c-1.1,0-2.1-0.9-2.1-2.1c0-1.2,0.9-2.1,2.1-2.1c1.2,0,2.1,0.9,2.1,2.1
					C77.1,82.5,76.2,83.4,75,83.4z M75,80.2c-0.6,0-1.1,0.5-1.1,1.1c0,0.6,0.5,1.1,1.1,1.1c0.6,0,1.1-0.5,1.1-1.1
					C76.1,80.7,75.6,80.2,75,80.2z"/>
			</g>
			<g>
				<path fill="#37474F" d="M62.3,81.3c0-0.9,0.7-1.6,1.6-1.6c0.9,0,1.6,0.7,1.6,1.6c0,0.9-0.7,1.6-1.6,1.6
					C63,82.9,62.3,82.2,62.3,81.3z"/>
				<path fill="#37474F" d="M63.9,83.4c-1.2,0-2.1-0.9-2.1-2.1c0-1.2,0.9-2.1,2.1-2.1c1.2,0,2.1,0.9,2.1,2.1
					C66,82.5,65.1,83.4,63.9,83.4z M63.9,80.2c-0.6,0-1.1,0.5-1.1,1.1c0,0.6,0.5,1.1,1.1,1.1c0.6,0,1.1-0.5,1.1-1.1
					C65,80.7,64.5,80.2,63.9,80.2z"/>
			</g>
			<g>
				<path fill="#37474F" d="M51.2,81.3c0-0.9,0.7-1.6,1.6-1.6c0.9,0,1.6,0.7,1.6,1.6c0,0.9-0.7,1.6-1.6,1.6
					C51.9,82.9,51.2,82.2,51.2,81.3z"/>
				<path fill="#37474F" d="M52.7,83.4c-1.1,0-2.1-0.9-2.1-2.1c0-1.1,0.9-2.1,2.1-2.1c1.2,0,2.1,0.9,2.1,2.1
					C54.8,82.5,53.9,83.4,52.7,83.4z M52.7,80.2c-0.6,0-1.1,0.5-1.1,1.1c0,0.6,0.5,1.1,1.1,1.1c0.6,0,1.1-0.5,1.1-1.1
					C53.8,80.7,53.3,80.2,52.7,80.2z"/>
			</g>
		</g>
		<g>
			<g>
				<path fill="#37474F" d="M73.5,91.2c0-0.9,0.7-1.6,1.6-1.6c0.9,0,1.6,0.7,1.6,1.6c0,0.9-0.7,1.6-1.6,1.6
					C74.2,92.8,73.5,92.1,73.5,91.2z"/>
				<path fill="#37474F" d="M75,93.3c-1.1,0-2.1-0.9-2.1-2.1c0-1.2,0.9-2.1,2.1-2.1c1.2,0,2.1,0.9,2.1,2.1
					C77.1,92.4,76.2,93.3,75,93.3z M75,90.1c-0.6,0-1.1,0.5-1.1,1.1c0,0.6,0.5,1.1,1.1,1.1c0.6,0,1.1-0.5,1.1-1.1
					C76.1,90.6,75.6,90.1,75,90.1z"/>
			</g>
			<g>
				<path fill="#37474F" d="M62.3,91.2c0-0.9,0.7-1.6,1.6-1.6c0.9,0,1.6,0.7,1.6,1.6c0,0.9-0.7,1.6-1.6,1.6
					C63,92.8,62.3,92.1,62.3,91.2z"/>
				<path fill="#37474F" d="M63.9,93.3c-1.2,0-2.1-0.9-2.1-2.1c0-1.1,1-2.1,2.1-2.1c1.2,0,2.1,0.9,2.1,2.1
					C66,92.4,65.1,93.3,63.9,93.3z M63.9,90.1c-0.6,0-1.1,0.5-1.1,1.1c0,0.6,0.5,1.1,1.1,1.1c0.6,0,1.1-0.5,1.1-1.1
					C65,90.6,64.5,90.1,63.9,90.1z"/>
			</g>
			<g>
				<path fill="#37474F" d="M51.2,91.2c0-0.9,0.7-1.6,1.6-1.6c0.9,0,1.6,0.7,1.6,1.6c0,0.9-0.7,1.6-1.6,1.6
					C51.9,92.8,51.2,92.1,51.2,91.2z"/>
				<path fill="#37474F" d="M52.7,93.3c-1.1,0-2.1-0.9-2.1-2.1c0-1.1,0.9-2.1,2.1-2.1c1.2,0,2.1,0.9,2.1,2.1
					C54.8,92.4,53.9,93.3,52.7,93.3z M52.7,90.1c-0.6,0-1.1,0.5-1.1,1.1c0,0.6,0.5,1.1,1.1,1.1c0.6,0,1.1-0.5,1.1-1.1
					C53.8,90.6,53.3,90.1,52.7,90.1z"/>
			</g>
		</g>
		<g>
			<g>
				<path fill="#37474F" d="M73.5,101.1c0-0.9,0.7-1.6,1.6-1.6c0.9,0,1.6,0.7,1.6,1.6c0,0.9-0.7,1.6-1.6,1.6
					C74.2,102.7,73.5,102,73.5,101.1z"/>
				<path fill="#37474F" d="M75,103.2c-1.1,0-2.1-0.9-2.1-2.1C73,100,73.9,99,75,99c1.2,0,2.1,0.9,2.1,2.1
					C77.1,102.3,76.2,103.2,75,103.2z M75,100c-0.6,0-1.1,0.5-1.1,1.1c0,0.6,0.5,1.1,1.1,1.1c0.6,0,1.1-0.5,1.1-1.1
					C76.1,100.5,75.6,100,75,100z"/>
			</g>
			<g>
				<path fill="#37474F" d="M62.3,101.1c0-0.9,0.7-1.6,1.6-1.6c0.9,0,1.6,0.7,1.6,1.6c0,0.9-0.7,1.6-1.6,1.6
					C63,102.7,62.3,102,62.3,101.1z"/>
				<path fill="#37474F" d="M63.9,103.2c-1.2,0-2.1-0.9-2.1-2.1c0-1.1,0.9-2.1,2.1-2.1c1.2,0,2.1,0.9,2.1,2.1
					C66,102.3,65.1,103.2,63.9,103.2z M63.9,100c-0.6,0-1.1,0.5-1.1,1.1c0,0.6,0.5,1.1,1.1,1.1c0.6,0,1.1-0.5,1.1-1.1
					C65,100.5,64.5,100,63.9,100z"/>
			</g>
			<g>
				<path fill="#37474F" d="M51.2,101.1c0-0.9,0.7-1.6,1.6-1.6c0.9,0,1.6,0.7,1.6,1.6c0,0.9-0.7,1.6-1.6,1.6
					C51.9,102.7,51.2,102,51.2,101.1z"/>
				<path fill="#37474F" d="M52.7,103.2c-1.1,0-2.1-0.9-2.1-2.1c0-1.1,0.9-2.1,2.1-2.1c1.2,0,2.1,0.9,2.1,2.1
					C54.8,102.3,53.9,103.2,52.7,103.2z M52.7,100c-0.6,0-1.1,0.5-1.1,1.1c0,0.6,0.5,1.1,1.1,1.1c0.6,0,1.1-0.5,1.1-1.1
					C53.8,100.5,53.3,100,52.7,100z"/>
			</g>
		</g>
	</g>
</g>
</svg>
