<?xml version="1.0" encoding="utf-8"?>
<!-- Generator: Adobe Illustrator 20.0.0, SVG Export Plug-In . SVG Version: 6.00 Build 0)  -->
<svg version="1.1" id="Layer_1" xmlns="http://www.w3.org/2000/svg" xmlns:xlink="http://www.w3.org/1999/xlink" x="0px" y="0px"
	 viewBox="0 0 32 32" style="enable-background:new 0 0 32 32;" xml:space="preserve">
<style type="text/css">
	.st0{fill:#FFECB3;}
	.st1{fill:#37474F;}
	.st2{fill:#FFFFFF;}
	.st3{fill:#FFAB00;}
	.st4{fill:none;}
</style>
<g>
	<g>
		<g>
			<path class="st0" d="M30.5,28c0,1.4-1.1,2.5-2.5,2.5H4c-1.4,0-2.5-1.1-2.5-2.5V4c0-1.4,1.1-2.5,2.5-2.5h24c1.4,0,2.5,1.1,2.5,2.5
				V28z"/>
		</g>
		<g>
			<path class="st1" d="M28,31H4c-1.7,0-3-1.3-3-3V4c0-1.7,1.3-3,3-3h24c1.7,0,3,1.3,3,3v24C31,29.7,29.7,31,28,31z M4,2
				C2.9,2,2,2.9,2,4v24c0,1.1,0.9,2,2,2h24c1.1,0,2-0.9,2-2V4c0-1.1-0.9-2-2-2H4z"/>
		</g>
	</g>
	<g>
		<g>
			<path class="st2" d="M1.5,6.5v21c0,1.4,1.2,3,2.6,3h24c1.4,0,2.4-1.6,2.4-3v-21H1.5z"/>
		</g>
		<g>
			<path class="st1" d="M28.1,31h-24C2.4,31,1,29.1,1,27.5v-21C1,6.2,1.2,6,1.5,6h29C30.8,6,31,6.2,31,6.5v21
				C31,29.2,29.8,31,28.1,31z M2,7v20.5C2,28.6,3,30,4.1,30h24c1.1,0,1.9-1.3,1.9-2.5V7H2z"/>
		</g>
	</g>
	<g>
		<g>
			<rect x="5.5" y="10.5" class="st3" width="7" height="7"/>
		</g>
		<g>
			<path class="st1" d="M12.5,18h-7C5.2,18,5,17.8,5,17.5v-7C5,10.2,5.2,10,5.5,10h7c0.3,0,0.5,0.2,0.5,0.5v7
				C13,17.8,12.8,18,12.5,18z M6,17h6v-6H6V17z"/>
		</g>
	</g>
	<g>
		<g>
			<path class="st0" d="M7.2,4.2c0,0.5-0.4,1-1,1s-1-0.4-1-1s0.4-1,1-1"/>
		</g>
		<g>
			<path class="st1" d="M6.2,5.6C5.4,5.6,4.8,5,4.8,4.2s0.7-1.5,1.5-1.5c0.3,0,0.5,0.2,0.5,0.5S6.5,3.7,6.2,3.7
				C6,3.7,5.8,3.9,5.8,4.2S6,4.6,6.2,4.6c0.3,0,0.5-0.2,0.5-0.5s0.2-0.5,0.5-0.5s0.5,0.2,0.5,0.5C7.7,5,7,5.6,6.2,5.6z"/>
		</g>
	</g>
	<g>
		<g>
			<rect x="15.5" y="10.5" class="st0" width="11" height="2"/>
		</g>
		<g>
			<path class="st1" d="M26.5,13h-11c-0.3,0-0.5-0.2-0.5-0.5v-2c0-0.3,0.2-0.5,0.5-0.5h11c0.3,0,0.5,0.2,0.5,0.5v2
				C27,12.8,26.8,13,26.5,13z M16,12h10v-1H16V12z"/>
		</g>
	</g>
	<g>
		<g>
			<line class="st4" x1="26" y1="14.5" x2="16" y2="14.5"/>
		</g>
		<g>
			<path class="st1" d="M26,15H16c-0.3,0-0.5-0.2-0.5-0.5S15.7,14,16,14h10c0.3,0,0.5,0.2,0.5,0.5S26.3,15,26,15z"/>
		</g>
	</g>
	<g>
		<g>
			<line class="st4" x1="26" y1="17.5" x2="16" y2="17.5"/>
		</g>
		<g>
			<path class="st1" d="M26,18H16c-0.3,0-0.5-0.2-0.5-0.5S15.7,17,16,17h10c0.3,0,0.5,0.2,0.5,0.5S26.3,18,26,18z"/>
		</g>
	</g>
	<g>
		<g>
			<g>
				<polyline class="st0" points="23.5,26 23.5,23.5 26,23.5 				"/>
			</g>
			<g>
				<path class="st1" d="M23.5,26.5c-0.3,0-0.5-0.2-0.5-0.5v-2.5c0-0.3,0.2-0.5,0.5-0.5H26c0.3,0,0.5,0.2,0.5,0.5S26.3,24,26,24h-2
					v2C24,26.3,23.8,26.5,23.5,26.5z"/>
			</g>
		</g>
		<g>
			<g>
				<line class="st4" x1="27.4" y1="27.1" x2="23.8" y2="23.7"/>
			</g>
			<g>
				<path class="st1" d="M27.4,27.6c-0.1,0-0.2,0-0.3-0.1l-3.7-3.4c-0.2-0.2-0.2-0.5,0-0.7s0.5-0.2,0.7,0l3.7,3.4
					c0.2,0.2,0.2,0.5,0,0.7C27.7,27.5,27.6,27.6,27.4,27.6z"/>
			</g>
		</g>
	</g>
	<g>
		<g>
			<line class="st4" x1="5" y1="21.5" x2="21" y2="21.5"/>
		</g>
		<g>
			<path class="st1" d="M21,22H5c-0.3,0-0.5-0.2-0.5-0.5S4.7,21,5,21h16c0.3,0,0.5,0.2,0.5,0.5S21.3,22,21,22z"/>
		</g>
	</g>
	<g>
		<g>
			<line class="st4" x1="5" y1="24.5" x2="21" y2="24.5"/>
		</g>
		<g>
			<path class="st1" d="M21,25H5c-0.3,0-0.5-0.2-0.5-0.5S4.7,24,5,24h16c0.3,0,0.5,0.2,0.5,0.5S21.3,25,21,25z"/>
		</g>
	</g>
	<g>
		<g>
			<line class="st4" x1="5" y1="27.5" x2="21" y2="27.5"/>
		</g>
		<g>
			<path class="st1" d="M21,28H5c-0.3,0-0.5-0.2-0.5-0.5S4.7,27,5,27h16c0.3,0,0.5,0.2,0.5,0.5S21.3,28,21,28z"/>
		</g>
	</g>
</g>
</svg>
