<?xml version="1.0" encoding="utf-8"?>
<!-- Generator: Adobe Illustrator 20.0.0, SVG Export Plug-In . SVG Version: 6.00 Build 0)  -->
<svg version="1.1" id="Layer_1" xmlns="http://www.w3.org/2000/svg" xmlns:xlink="http://www.w3.org/1999/xlink" x="0px" y="0px"
	 viewBox="0 0 128 128" style="enable-background:new 0 0 128 128;" xml:space="preserve">
<style type="text/css">
	.st0{fill:#FFFFFF;}
	.st1{fill:#37474F;}
	.st2{fill:#B0BEC5;}
	.st3{clip-path:url(#SVGID_2_);}
	.st4{fill:#FFAB00;}
	.st5{clip-path:url(#SVGID_4_);}
	.st6{fill:#FFECB3;}
	.st7{fill:#3F3F3F;}
	.st8{clip-path:url(#SVGID_6_);}
	.st9{clip-path:url(#SVGID_8_);}
</style>
<g>
	<g>
		<rect x="16.2" y="16.4" class="st0" width="106" height="106"/>
		<path class="st1" d="M123.6,123.8H14.8V15h108.8V123.8z M17.6,120.9h103.2V17.8H17.6V120.9z"/>
	</g>
	<g>
		<rect x="29.8" y="30.9" class="st2" width="78.8" height="76"/>
	</g>
	<g>
		<g>
			<defs>
				<rect id="SVGID_1_" x="29.8" y="30.9" width="78.8" height="76"/>
			</defs>
			<clipPath id="SVGID_2_">
				<use xlink:href="#SVGID_1_"  style="overflow:visible;"/>
			</clipPath>
			<g class="st3">
				<polygon class="st4" points="30.1,107.3 59.5,77.8 74.1,92.3 101.3,65.1 116.4,80.2 133.8,97.6 119.6,126.4 53.5,115.4 
					30.5,114 28.8,108.9 				"/>
				<path class="st1" d="M119.6,127.8c-0.1,0-0.2,0-0.2,0l-66-11l-22.9-1.4c-0.6,0-1-0.4-1.2-0.9l-1.9-5.1c-0.2-0.5-0.1-0.9,0.2-1.4
					l1.3-1.7l0.1-0.1l29.4-29.4c0.6-0.6,1.5-0.6,2,0L74,90.3L100.2,64c0.6-0.6,1.5-0.6,2,0l32.5,32.5c0.5,0.5,0.6,1,0.3,1.6
					L120.9,127C120.7,127.5,120.1,127.8,119.6,127.8z M31.6,112.6l22,1.3c0.1,0,0.1,0,0.2,0l65.1,10.9L132,97.9L101.3,67L75,93.3
					c-0.3,0.3-0.7,0.4-1,0.4l0,0c-0.4,0-0.8-0.2-1-0.4L59.5,79.8l-28.4,28.4l-0.8,1L31.6,112.6z"/>
			</g>
		</g>
		<g>
			<defs>
				<rect id="SVGID_3_" x="29.8" y="30.9" width="78.8" height="76"/>
			</defs>
			<clipPath id="SVGID_4_">
				<use xlink:href="#SVGID_3_"  style="overflow:visible;"/>
			</clipPath>
			<g class="st5">
				<path class="st0" d="M138.3,59.7c0-2.9-2.1-5.2-4.8-5.7c-0.6-2.7-2.8-4.8-5.7-4.8c-2.4,0-4.5,1.5-5.4,3.6
					c-0.7-0.3-1.3-0.6-2-0.7c0-0.2,0.1-0.3,0.1-0.4c0-4.9-3.9-8.9-8.9-8.9c-2.2-5.6-7.5-9.7-13.9-9.7c-6.7,0-12.2,4.5-14.1,10.6
					c-0.1,0-0.1,0-0.2,0c-5,0-8.9,4-8.9,8.9c0,0.9,0.3,1.7,0.6,2.5c-2.2,0.8-3.8,3-3.8,5.5c0,2.3,1.4,4.1,3.4,5.2l-1,0.4h2.9
					c0.3,0,0.5,0.2,0.8,0.2c0.3,0,0.5-0.2,0.8-0.2h58l-3-0.8C136,65,138.3,62.7,138.3,59.7z M123,62.5c0.8-0.6,1.5-1.3,1.9-2.3
					c0.6,0.3,1,0.5,1.7,0.6c0.3,1.3,0.9,2.5,2,3.4L123,62.5z"/>
				<path class="st1" d="M77.2,67.7c-0.4,0-0.7-0.1-0.8-0.1l0,0H64.8l6.8-2.3c-1.1-1.3-1.8-2.9-1.8-4.6c0-2.5,1.3-4.9,3.5-6.2
					C73.2,54,73,53.4,73,52.8c0-5.4,4.2-9.9,9.6-10.3c2.4-6.4,8.3-10.6,15-10.6c6.5,0,12.2,3.8,14.8,9.7c5,0.5,8.9,4.5,9.3,9.5
					c1.4-1.9,3.6-3.1,6-3.1c3.2,0,5.9,2.1,6.8,5.1c3,1,5.1,3.8,5.1,6.8c0,2.1-0.9,3.9-2.4,5.3l10.5,2.5H78.1
					C77.8,67.6,77.5,67.7,77.2,67.7z M75.7,64.7h0.8c0.3,0,0.6,0.1,0.8,0.1c0.2-0.1,0.5-0.1,0.8-0.1h47.3l-5.3-1.6l2.2-1.7
					c0.8-0.6,1.2-1.1,1.5-1.8l0.7-1.4l1.3,0.8c0.4,0.2,0.8,0.4,1.3,0.5l0.9,0.2l0.2,0.9c0.2,1,0.7,1.9,1.5,2.5l1.3,1.1l2.1-0.3
					c2.4-0.3,4-2.1,4-4.3c0-2.2-1.5-3.9-3.7-4.3l-0.9-0.2l-0.2-0.9c-0.5-2.2-2.3-3.7-4.3-3.7c-1.8,0-3.4,1-4.1,2.7l-0.7,1.4
					l-1.3-0.7c-0.5-0.3-0.9-0.4-1.5-0.5l-1.4-0.2l0.2-1.4c0-0.1,0-0.3,0.1-0.4c-0.1-4-3.4-7.3-7.5-7.4h-0.9l-0.4-0.9
					c-2-5.3-6.9-8.7-12.6-8.7c-5.8,0-10.9,3.8-12.7,9.6l-0.3,1h-1c-0.1,0-0.3,0-0.3,0c-4.1,0.1-7.4,3.5-7.4,7.5
					c0,0.7,0.2,1.3,0.5,2.1l0.4,1.2l-1.2,0.5c-1.7,0.8-2.8,2.3-2.8,4.2c0,1.7,0.9,3.1,2.5,3.8L75.7,64.7z"/>
			</g>
		</g>
	</g>
	<g>
		<path class="st1" d="M110.4,108.8H28.9V30h81.6V108.8z M31.7,105.9h76V32.8h-76V105.9z"/>
	</g>
	<g>
		<polyline class="st6" points="32.4,105.1 61.8,95.6 60.6,81.3 		"/>
		<path class="st1" d="M32.4,106.5c-0.6,0-1.1-0.4-1.3-0.9c-0.3-0.8,0.2-1.5,0.9-1.8l28.2-9.1l-1.1-13.3c-0.1-0.8,0.5-1.5,1.3-1.5
			c0.8-0.1,1.5,0.5,1.5,1.3l1.2,14.3c0.1,0.7-0.4,1.2-0.9,1.5l-29.4,9.5C32.7,106.5,32.6,106.5,32.4,106.5z"/>
	</g>
	<g>
		<polyline class="st6" points="74.1,92.3 100.7,78.8 101,68.1 		"/>
		<path class="st1" d="M74.1,93.7c-0.5,0-1-0.3-1.2-0.8c-0.4-0.7-0.1-1.5,0.7-1.9l25.9-13.1l0.3-9.8c0-0.8,0.7-1.4,1.4-1.4
			s1.4,0.7,1.4,1.4L102,78.8c0,0.5-0.3,0.9-0.8,1.2L74.6,93.6C74.4,93.7,74.2,93.7,74.1,93.7z"/>
	</g>
	<g>
		<path class="st0" d="M62.2,69.4c-8.3,0-14.9-6.7-14.9-14.9c0-4.9,2.3-9.1,5.9-11.8c-7.9,1-14,7.7-14,15.8c0,8.8,7.1,16,16,16
			c5.2,0,9.8-2.5,12.7-6.4C66.3,69,64.4,69.4,62.2,69.4z"/>
		<path class="st1" d="M55.4,75.9c-9.6,0-17.4-7.8-17.4-17.4c0-8.6,6.5-16,15.2-17.2l5.3-0.7l-4.2,3.2c-3.4,2.6-5.3,6.5-5.3,10.7
			c0,7.4,6,13.5,13.5,13.5c1.8,0,3.6-0.4,5.3-1l5-2.2l-3.4,4.2C65.9,73.4,60.8,75.9,55.4,75.9z M48.6,45.6
			c-4.7,2.4-7.9,7.3-7.9,12.8c0,8.1,6.6,14.6,14.6,14.6c2.8,0,5.5-0.8,7.9-2.3c-0.4,0-0.7,0-1,0c-9,0-16.3-7.3-16.3-16.3
			C46,51.3,47,48.3,48.6,45.6z"/>
	</g>
	<g>
		<g>
			<path class="st1" d="M79.5,23.6c0-0.9,0.8-1.7,1.7-1.7s1.7,0.8,1.7,1.7s-0.8,1.7-1.7,1.7S79.5,24.5,79.5,23.6z"/>
			<path class="st7" d="M81.2,25.8c-1.2,0-2.2-0.9-2.2-2.2s0.9-2.2,2.2-2.2s2.2,0.9,2.2,2.2C83.3,24.8,82.4,25.8,81.2,25.8z
				 M81.2,22.4c-0.7,0-1.2,0.6-1.2,1.2s0.6,1.2,1.2,1.2c0.7,0,1.2-0.6,1.2-1.2C82.4,22.9,81.8,22.4,81.2,22.4z"/>
		</g>
		<g>
			<path class="st1" d="M67.8,23.6c0-0.9,0.8-1.7,1.7-1.7s1.7,0.8,1.7,1.7s-0.8,1.7-1.7,1.7S67.8,24.5,67.8,23.6z"/>
			<path class="st7" d="M69.5,25.8c-1.2,0-2.2-0.9-2.2-2.2s0.9-2.2,2.2-2.2s2.2,0.9,2.2,2.2C71.6,24.7,70.6,25.8,69.5,25.8z
				 M69.5,22.4c-0.7,0-1.2,0.6-1.2,1.2s0.6,1.2,1.2,1.2s1.2-0.6,1.2-1.2C70.7,22.9,70.1,22.4,69.5,22.4z"/>
		</g>
		<g>
			<path class="st1" d="M56,23.6c0-0.9,0.8-1.7,1.7-1.7s1.7,0.8,1.7,1.7s-0.8,1.7-1.7,1.7S56,24.5,56,23.6z"/>
			<path class="st7" d="M57.6,25.8c-1.2,0-2.2-0.9-2.2-2.2s0.9-2.2,2.2-2.2c1.2,0,2.2,0.9,2.2,2.2S58.9,25.8,57.6,25.8z M57.6,22.4
				c-0.7,0-1.2,0.6-1.2,1.2s0.6,1.2,1.2,1.2c0.7,0,1.2-0.6,1.2-1.2S58.3,22.4,57.6,22.4z"/>
		</g>
	</g>
</g>
<g>
	<g>
		<rect x="4.9" y="5.5" class="st0" width="106" height="106"/>
		<path class="st1" d="M112.3,112.9H3.5V4.1h108.8V112.9z M6.3,110h103.2V6.9H6.3V110z"/>
	</g>
	<g>
		<rect x="18.5" y="20" class="st2" width="78.8" height="76"/>
	</g>
	<g>
		<g>
			<defs>
				<rect id="SVGID_5_" x="18.5" y="20" width="78.8" height="76"/>
			</defs>
			<clipPath id="SVGID_6_">
				<use xlink:href="#SVGID_5_"  style="overflow:visible;"/>
			</clipPath>
			<g class="st8">
				<polygon class="st4" points="18.8,96.3 48.3,66.9 62.8,81.3 90,54.1 105.1,69.2 122.5,86.7 108.4,115.5 42.3,104.5 19.3,103.1 
					17.5,98 				"/>
				<path class="st1" d="M108.4,116.9c-0.1,0-0.2,0-0.2,0l-66-11l-22.9-1.4c-0.6,0-1-0.4-1.2-0.9l-1.9-5.1c-0.2-0.5-0.1-0.9,0.2-1.4
					l1.3-1.7l0.1-0.1l29.4-29.4c0.6-0.6,1.5-0.6,2,0l13.5,13.5L89,53.1c0.6-0.6,1.5-0.6,2,0l32.5,32.5c0.5,0.5,0.6,1,0.3,1.6
					L109.6,116C109.4,116.6,108.9,116.9,108.4,116.9z M20.3,101.7l22,1.3c0.1,0,0.1,0,0.2,0l65.1,10.9L120.8,87L90,56.1L63.7,82.4
					c-0.3,0.3-0.7,0.4-1,0.4l0,0c-0.4,0-0.8-0.2-1-0.4L48.3,68.9L19.9,97.3l-0.8,1L20.3,101.7z"/>
			</g>
		</g>
		<g>
			<defs>
				<rect id="SVGID_7_" x="18.5" y="20" width="78.8" height="76"/>
			</defs>
			<clipPath id="SVGID_8_">
				<use xlink:href="#SVGID_7_"  style="overflow:visible;"/>
			</clipPath>
			<g class="st9">
				<path class="st0" d="M127,48.8c0-2.9-2.1-5.2-4.8-5.7c-0.6-2.7-2.8-4.8-5.7-4.8c-2.4,0-4.5,1.5-5.4,3.6c-0.7-0.3-1.3-0.6-2-0.7
					c0-0.2,0.1-0.3,0.1-0.4c0-4.9-3.9-8.9-8.9-8.9c-2.2-5.6-7.5-9.7-13.9-9.7c-6.7,0-12.2,4.5-14.1,10.6c-0.1,0-0.1,0-0.2,0
					c-5,0-8.9,4-8.9,8.9c0,0.9,0.3,1.7,0.6,2.5c-2.2,0.8-3.8,3-3.8,5.5c0,2.3,1.4,4.1,3.4,5.2l-1,0.4h2.9c0.3,0,0.5,0.2,0.8,0.2
					s0.5-0.2,0.8-0.2h58l-3-0.8C124.7,54.1,127,51.8,127,48.8z M111.8,51.6c0.8-0.6,1.5-1.3,1.9-2.3c0.6,0.3,1,0.5,1.7,0.6
					c0.3,1.3,0.9,2.5,2,3.4L111.8,51.6z"/>
				<path class="st1" d="M66,56.8c-0.4,0-0.7-0.1-0.8-0.1l0,0H53.5l6.8-2.3c-1.1-1.3-1.8-2.9-1.8-4.6c0-2.5,1.3-4.9,3.5-6.2
					c-0.1-0.6-0.3-1.1-0.3-1.8c0-5.4,4.2-9.9,9.6-10.3c2.4-6.4,8.3-10.6,15-10.6c6.5,0,12.2,3.8,14.8,9.7c5,0.5,8.9,4.5,9.3,9.5
					c1.4-1.9,3.6-3.1,6-3.1c3.2,0,5.9,2.1,6.8,5.1c3,1,5.1,3.8,5.1,6.8c0,2.1-0.9,3.9-2.4,5.3l10.5,2.5H66.8
					C66.6,56.7,66.3,56.8,66,56.8z M64.4,53.8h0.8c0.3,0,0.6,0.1,0.8,0.1c0.2-0.1,0.5-0.1,0.8-0.1H114l-5.3-1.6l2.2-1.7
					c0.8-0.6,1.2-1.1,1.5-1.8l0.7-1.4l1.3,0.8c0.4,0.2,0.8,0.4,1.3,0.5l0.9,0.2l0.2,0.9c0.2,1,0.7,1.9,1.5,2.5l1.3,1.1l2.1-0.3
					c2.4-0.3,4-2.1,4-4.3c0-2.2-1.5-3.9-3.7-4.3l-0.9-0.2l-0.2-0.9c-0.5-2.2-2.3-3.7-4.3-3.7c-1.8,0-3.4,1-4.1,2.7l-0.7,1.4
					l-1.3-0.7c-0.5-0.3-0.9-0.4-1.5-0.5l-1.4-0.2l0.2-1.4c0-0.1,0-0.3,0.1-0.4c-0.1-4-3.4-7.3-7.5-7.4h-0.9l-0.4-0.9
					c-2-5.3-6.9-8.7-12.6-8.7c-5.8,0-10.9,3.8-12.7,9.6l-0.3,1h-1c-0.1,0-0.3,0-0.3,0c-4.1,0.1-7.4,3.5-7.4,7.5
					c0,0.7,0.2,1.3,0.5,2.1l0.4,1.2l-1.2,0.5c-1.7,0.8-2.8,2.3-2.8,4.2c0,1.7,0.9,3.1,2.5,3.8L64.4,53.8z"/>
			</g>
		</g>
	</g>
	<g>
		<path class="st1" d="M99.2,97.8H17.6V19.1h81.6V97.8z M20.4,95h76V21.9h-76V95z"/>
	</g>
	<g>
		<polyline class="st6" points="21.2,94.2 50.5,84.7 49.3,70.4 		"/>
		<path class="st1" d="M21.2,95.6c-0.6,0-1.1-0.4-1.3-0.9c-0.3-0.8,0.2-1.5,0.9-1.8L49,83.8l-1.1-13.3c-0.1-0.8,0.5-1.5,1.3-1.5
			c0.8-0.1,1.5,0.5,1.5,1.3l1.2,14.3c0.1,0.7-0.4,1.2-0.9,1.5l-29.4,9.5C21.4,95.6,21.4,95.6,21.2,95.6z"/>
	</g>
	<g>
		<polyline class="st6" points="62.8,81.3 89.4,67.9 89.7,57.1 		"/>
		<path class="st1" d="M62.8,82.7c-0.5,0-1-0.3-1.2-0.8c-0.4-0.7-0.1-1.5,0.7-1.9L88.1,67l0.3-9.8c0-0.8,0.7-1.4,1.4-1.4
			s1.4,0.7,1.4,1.4l-0.5,10.8c0,0.5-0.3,0.9-0.8,1.2L63.4,82.7C63.2,82.7,63,82.7,62.8,82.7z"/>
	</g>
	<g>
		<path class="st0" d="M51,58.5c-8.3,0-14.9-6.7-14.9-14.9c0-4.9,2.3-9.1,5.9-11.8c-7.9,1-14,7.7-14,15.8c0,8.8,7.1,16,16,16
			c5.2,0,9.8-2.5,12.7-6.4C55,58.1,53.1,58.5,51,58.5z"/>
		<path class="st1" d="M44.1,65c-9.6,0-17.4-7.8-17.4-17.4c0-8.6,6.5-16,15.2-17.2l5.3-0.7l-4.2,3.2c-3.4,2.6-5.3,6.5-5.3,10.7
			c0,7.4,6,13.5,13.5,13.5c1.8,0,3.6-0.4,5.3-1l5-2.2l-3.4,4.2C54.6,62.5,49.6,65,44.1,65z M37.4,34.7c-4.7,2.4-7.9,7.3-7.9,12.8
			c0,8.1,6.6,14.6,14.6,14.6c2.8,0,5.5-0.8,7.9-2.3c-0.4,0-0.7,0-1,0c-9,0-16.3-7.3-16.3-16.3C34.8,40.4,35.7,37.4,37.4,34.7z"/>
	</g>
	<g>
		<g>
			<path class="st1" d="M68.2,12.7c0-0.9,0.8-1.7,1.7-1.7c0.9,0,1.7,0.8,1.7,1.7c0,0.9-0.8,1.7-1.7,1.7C69,14.4,68.2,13.6,68.2,12.7
				z"/>
			<path class="st7" d="M69.9,14.8c-1.2,0-2.2-0.9-2.2-2.2s0.9-2.2,2.2-2.2c1.2,0,2.2,0.9,2.2,2.2C72.1,13.9,71.2,14.8,69.9,14.8z
				 M69.9,11.5c-0.7,0-1.2,0.6-1.2,1.2c0,0.7,0.6,1.2,1.2,1.2s1.2-0.6,1.2-1.2C71.2,12,70.6,11.5,69.9,11.5z"/>
		</g>
		<g>
			<path class="st1" d="M56.5,12.7c0-0.9,0.8-1.7,1.7-1.7c0.9,0,1.7,0.8,1.7,1.7c0,0.9-0.8,1.7-1.7,1.7
				C57.3,14.4,56.5,13.6,56.5,12.7z"/>
			<path class="st7" d="M58.2,14.8c-1.2,0-2.2-0.9-2.2-2.2s0.9-2.2,2.2-2.2s2.2,0.9,2.2,2.2C60.4,13.8,59.3,14.8,58.2,14.8z
				 M58.2,11.5c-0.7,0-1.2,0.6-1.2,1.2c0,0.7,0.6,1.2,1.2,1.2c0.7,0,1.2-0.6,1.2-1.2C59.4,12,58.9,11.5,58.2,11.5z"/>
		</g>
		<g>
			<path class="st1" d="M44.7,12.7c0-0.9,0.8-1.7,1.7-1.7c0.9,0,1.7,0.8,1.7,1.7c0,0.9-0.8,1.7-1.7,1.7
				C45.5,14.4,44.7,13.6,44.7,12.7z"/>
			<path class="st7" d="M46.4,14.8c-1.2,0-2.2-0.9-2.2-2.2s0.9-2.2,2.2-2.2c1.2,0,2.2,0.9,2.2,2.2S47.6,14.8,46.4,14.8z M46.4,11.5
				c-0.7,0-1.2,0.6-1.2,1.2c0,0.7,0.6,1.2,1.2,1.2c0.7,0,1.2-0.6,1.2-1.2C47.6,12,47.1,11.5,46.4,11.5z"/>
		</g>
	</g>
</g>
</svg>
