<?xml version="1.0" encoding="utf-8"?>
<!-- Generator: Adobe Illustrator 16.0.0, SVG Export Plug-In . SVG Version: 6.00 Build 0)  -->
<!DOCTYPE svg PUBLIC "-//W3C//DTD SVG 1.1//EN" "http://www.w3.org/Graphics/SVG/1.1/DTD/svg11.dtd">
<svg version="1.1" id="Layer_1" xmlns="http://www.w3.org/2000/svg" xmlns:xlink="http://www.w3.org/1999/xlink" x="0px" y="0px"
	 width="32px" height="32px" viewBox="0 0 32 32" enable-background="new 0 0 32 32" xml:space="preserve">
<g>
	<g>
		<polygon fill="#FFECB3" points="15.8,13.6 11.6,15.7 12.4,11.1 9.1,7.9 13.7,7.2 15.8,3.1 17.8,7.2 22.4,7.9 19.1,11.1 19.9,15.7 
					"/>
		<path fill="#37474F" d="M19.9,16.2c-0.1,0-0.2,0-0.2-0.1l-3.9-2l-3.9,2c-0.2,0.1-0.4,0.1-0.5,0c-0.2-0.1-0.2-0.3-0.2-0.5l0.7-4.3
			L8.8,8.3C8.6,8.1,8.6,7.9,8.6,7.8C8.7,7.6,8.9,7.4,9,7.4l4.3-0.6l1.9-3.9c0.2-0.3,0.7-0.3,0.9,0l1.9,3.9l4.3,0.6
			c0.2,0,0.3,0.2,0.4,0.3c0.1,0.2,0,0.4-0.1,0.5l-3.1,3.1l0.7,4.2c0,0.1,0.1,0.1,0.1,0.2C20.4,16,20.1,16.2,19.9,16.2
			C19.9,16.2,19.9,16.2,19.9,16.2z M15.8,13.1c0.1,0,0.2,0,0.2,0.1l3.2,1.7l-0.6-3.6c0-0.2,0-0.3,0.1-0.4l2.6-2.5l-3.6-0.5
			c-0.2,0-0.3-0.1-0.4-0.3l-1.6-3.2l-1.6,3.2c-0.1,0.1-0.2,0.2-0.4,0.3l-3.6,0.5l2.6,2.5c0.1,0.1,0.2,0.3,0.1,0.4l-0.6,3.6l3.2-1.7
			C15.6,13.1,15.7,13.1,15.8,13.1z"/>
	</g>
	<g>
		<polyline fill="#78909C" points="7.3,29.1 15.8,15.7 24.2,29.1 		"/>
		<path fill="#37474F" d="M24.2,29.6c-0.2,0-0.3-0.1-0.4-0.2l-8.1-12.8L7.7,29.4c-0.1,0.2-0.5,0.3-0.7,0.2c-0.2-0.1-0.3-0.5-0.2-0.7
			l8.5-13.5c0.2-0.3,0.7-0.3,0.8,0l8.5,13.5c0.1,0.2,0.1,0.5-0.2,0.7C24.4,29.6,24.3,29.6,24.2,29.6z"/>
	</g>
	<g>
		<circle fill="#37474F" cx="15.8" cy="10" r="0.8"/>
		<path fill="#37474F" d="M15.8,11.3c-0.7,0-1.3-0.6-1.3-1.3s0.6-1.3,1.3-1.3c0.7,0,1.3,0.6,1.3,1.3C17.1,10.8,16.5,11.3,15.8,11.3z
			 M15.8,9.7c-0.2,0-0.3,0.1-0.3,0.3s0.1,0.3,0.3,0.3c0.2,0,0.3-0.1,0.3-0.3C16.1,9.9,15.9,9.7,15.8,9.7z"/>
	</g>
</g>
</svg>
