<?xml version="1.0" encoding="utf-8"?>
<!-- Generator: Adobe Illustrator 20.0.0, SVG Export Plug-In . SVG Version: 6.00 Build 0)  -->
<svg version="1.1" id="Layer_1" xmlns="http://www.w3.org/2000/svg" xmlns:xlink="http://www.w3.org/1999/xlink" x="0px" y="0px"
	 viewBox="0 0 128 128" style="enable-background:new 0 0 128 128;" xml:space="preserve">
<style type="text/css">
	.st0{fill:#FFAB00;}
	.st1{fill:#37474F;}
	.st2{fill:#FFECB3;}
	.st3{fill:#FFFFFF;}
</style>
<g id="Layer_1_1_">
	<g id="Layer_2">
		<g>
			<g>
				<path class="st0" d="M107.4,63.5c0,26.9-21.8,48.8-48.8,48.8S9.8,90.5,9.8,63.5s21.9-48.8,48.8-48.8S107.4,36.6,107.4,63.5z"/>
				<path class="st1" d="M58.6,113.5c-27.5,0-50-22.4-50-50c0-27.5,22.4-50,50-50c27.5,0,50,22.4,50,50
					C108.6,91,86.1,113.5,58.6,113.5z M58.6,16c-26.2,0-47.5,21.3-47.5,47.5S32.4,111,58.6,111s47.5-21.3,47.5-47.5S84.8,16,58.6,16
					z"/>
			</g>
			<g>
				<path class="st2" d="M97.5,63.5c0,21.5-17.4,38.9-38.9,38.9S19.7,85,19.7,63.5s17.4-38.9,38.9-38.9S97.5,42,97.5,63.5z"/>
				<path class="st1" d="M58.6,103.6c-22.2,0-40.1-18.1-40.1-40.1c0-22.2,18.1-40.1,40.1-40.1s40.1,18.1,40.1,40.1
					C98.7,85.7,80.8,103.6,58.6,103.6z M58.6,25.8c-20.8,0-37.7,16.9-37.7,37.7s16.9,37.7,37.7,37.7s37.7-16.9,37.7-37.7
					S79.4,25.8,58.6,25.8z"/>
			</g>
			<g>
				<g>
					<polygon class="st1" points="47,84.3 81,63.5 47,42.7 					"/>
					<path class="st1" d="M47,85.5c-0.2,0-0.4,0-0.5-0.2c-0.4-0.2-0.7-0.7-0.7-1.1V42.7c0-0.4,0.2-0.9,0.7-1.1
						c0.4-0.2,0.9-0.2,1.2,0l34,20.8c0.4,0.2,0.5,0.7,0.5,1.1s-0.2,0.9-0.5,1.1l-34,20.8C47.3,85.5,47.2,85.5,47,85.5z M48.2,44.8
						v37.1l30.3-18.7L48.2,44.8z"/>
				</g>
			</g>
		</g>
	</g>
</g>
<g id="Layer_1_2_">
	<g>
		<g>
			<g>
				<g>
					<path class="st2" d="M119.7,26.6c0,10.9-8.8,19.7-19.7,19.7s-19.7-8.8-19.7-19.7S89.2,6.9,100,6.9S119.7,15.7,119.7,26.6z"/>
				</g>
				<g>
					<path class="st1" d="M100,47c-11.2,0-20.4-9.2-20.4-20.4S88.8,6.2,100,6.2s20.4,9.2,20.4,20.4S111.3,47,100,47z M100,7.6
						c-10.5,0-19,8.5-19,19s8.5,19,19,19s19-8.5,19-19C119,16.1,110.5,7.6,100,7.6z"/>
				</g>
			</g>
			<g>
				<g>
					<path class="st0" d="M115.1,26.6c0,8.3-6.7,15-15,15s-15-6.7-15-15s6.7-15,15-15S115.1,18.3,115.1,26.6z"/>
				</g>
				<g>
					<path class="st1" d="M100,42.3c-8.7,0-15.7-7.1-15.7-15.7s7.1-15.7,15.7-15.7s15.7,7.1,15.7,15.7S108.7,42.3,100,42.3z
						 M100,12.3c-7.9,0-14.3,6.4-14.3,14.3s6.4,14.3,14.3,14.3s14.3-6.4,14.3-14.3S107.9,12.3,100,12.3z"/>
				</g>
			</g>
			<g>
				<g>
					<path class="st2" d="M109.7,26.6c0,5.3-4.3,9.7-9.7,9.7c-5.4,0-9.7-4.3-9.7-9.7s4.3-9.7,9.7-9.7
						C105.4,16.9,109.7,21.2,109.7,26.6z"/>
				</g>
				<g>
					<path class="st1" d="M100,37c-5.7,0-10.4-4.7-10.4-10.4s4.7-10.4,10.4-10.4c5.7,0,10.4,4.7,10.4,10.4S105.8,37,100,37z
						 M100,17.6c-5,0-9,4-9,9s4,9,9,9c5,0,9-4,9-9S105,17.6,100,17.6z"/>
				</g>
			</g>
			<g>
				<g>
					<path class="st0" d="M104.4,26.6c0,2.4-2,4.3-4.3,4.3c-2.4,0-4.3-2-4.3-4.3s2-4.3,4.3-4.3S104.4,24.2,104.4,26.6z"/>
				</g>
				<g>
					<path class="st1" d="M100,31.6c-2.8,0-5.1-2.3-5.1-5.1c0-2.8,2.3-5.1,5.1-5.1c2.8,0,5.1,2.2,5.1,5.1S102.8,31.6,100,31.6z
						 M100,23c-2,0-3.6,1.6-3.6,3.6s1.6,3.6,3.6,3.6c2,0,3.6-1.6,3.6-3.6S102,23,100,23z"/>
				</g>
			</g>
		</g>
		<g>
			<g>
				<g>
					<polygon class="st3" points="109.3,65 100,29.3 90.7,65 					"/>
				</g>
				<g>
					<path class="st1" d="M109.3,65.7H90.7c-0.2,0-0.4-0.1-0.6-0.3c-0.1-0.2-0.2-0.4-0.1-0.6l9.3-35.7c0.1-0.3,0.4-0.5,0.7-0.5
						c0.3,0,0.6,0.2,0.7,0.5l9.3,35.7c0,0.2,0,0.4-0.1,0.6C109.8,65.6,109.6,65.7,109.3,65.7z M91.7,64.3h16.8L100,32.1L91.7,64.3z"
						/>
				</g>
			</g>
		</g>
		<g>
			<g>
				<g>
					<path class="st1" d="M100,59.6c0.5,0,0.9,0.4,0.9,0.9c0,0.5-0.4,0.9-0.9,0.9c-0.5,0-0.9-0.4-0.9-0.9
						C99.1,60,99.6,59.6,100,59.6z"/>
				</g>
				<g>
					<path class="st1" d="M100,61.6c-0.3,0-0.6-0.1-0.8-0.3c-0.2-0.2-0.3-0.5-0.3-0.8c0-0.2,0.1-0.5,0.3-0.7
						c0.2-0.2,0.5-0.3,0.8-0.3c0.6,0,1.1,0.5,1.1,1.1C101.1,61,100.7,61.6,100,61.6z M100,59.8c-0.2,0-0.3,0.1-0.5,0.2
						c-0.1,0.1-0.1,0.2-0.1,0.4s0,0.3,0.1,0.5c0.1,0.1,0.3,0.2,0.5,0.2c0.3,0,0.6-0.3,0.6-0.7C100.7,60.1,100.4,59.8,100,59.8z"/>
				</g>
			</g>
			<g>
				<g>
					<path class="st1" d="M100,53.5c0.5,0,0.9,0.4,0.9,0.9s-0.4,0.9-0.9,0.9c-0.5,0-0.9-0.4-0.9-0.9S99.6,53.5,100,53.5z"/>
				</g>
				<g>
					<path class="st1" d="M100,55.4c-0.6,0-1.1-0.5-1.1-1.1c0-0.6,0.5-1.1,1.1-1.1c0.6,0,1.1,0.5,1.1,1.1
						C101.1,54.9,100.7,55.4,100,55.4z M100,53.7c-0.3,0-0.6,0.3-0.6,0.7c0,0.3,0.3,0.6,0.6,0.6c0.3,0,0.6-0.3,0.6-0.6
						C100.7,53.9,100.4,53.7,100,53.7z"/>
				</g>
			</g>
			<g>
				<g>
					<path class="st1" d="M100,47.3c0.5,0,0.9,0.4,0.9,0.9c0,0.5-0.4,0.9-0.9,0.9c-0.5,0-0.9-0.4-0.9-0.9
						C99.2,47.7,99.6,47.3,100,47.3z"/>
				</g>
				<g>
					<path class="st1" d="M100,49.3L100,49.3c-0.6,0-1.1-0.5-1.1-1.1c0-0.6,0.5-1.1,1.1-1.1c0.6,0,1.1,0.5,1.1,1.1
						C101.1,48.8,100.7,49.3,100,49.3L100,49.3z M100,47.6c-0.3,0-0.6,0.3-0.7,0.6c0,0.3,0.3,0.6,0.6,0.7c0.4,0,0.6-0.3,0.6-0.7
						C100.7,47.8,100.4,47.6,100,47.6z"/>
				</g>
			</g>
		</g>
	</g>
</g>
</svg>
