<?xml version="1.0" encoding="utf-8"?>
<!-- Generator: Adobe Illustrator 16.0.0, SVG Export Plug-In . SVG Version: 6.00 Build 0)  -->
<!DOCTYPE svg PUBLIC "-//W3C//DTD SVG 1.1//EN" "http://www.w3.org/Graphics/SVG/1.1/DTD/svg11.dtd">
<svg version="1.1" id="Layer_1" xmlns="http://www.w3.org/2000/svg" xmlns:xlink="http://www.w3.org/1999/xlink" x="0px" y="0px"
	 width="128px" height="128px" viewBox="0 0 128 128" enable-background="new 0 0 128 128" xml:space="preserve">
<g>
	<polygon fill="#FFAB00" stroke="#37474F" stroke-width="3" stroke-linejoin="round" stroke-miterlimit="10" points="124.4,65.1 
		62.7,125 2.8,63.3 64.5,3.4 	"/>
	<g>
		<g>
			<g>
				
					<path fill="#37474F" stroke="#37474F" stroke-width="3" stroke-linecap="round" stroke-linejoin="round" stroke-miterlimit="10" d="
					M42.6,59.5c-1.2-6-6.8-11.4-13.6-11.4c-6.8,0-12.4,5.4-13.6,11.4H42.6z"/>
				
					<path fill="#FFECB3" stroke="#37474F" stroke-width="3" stroke-linecap="round" stroke-linejoin="round" stroke-miterlimit="10" d="
					M36.5,42.8c0,3.9-3.5,7.1-7.5,7.1l0,0c-3.9,0-7.5-3.2-7.5-7.1v-3.5c0-3.9,3.6-7.1,7.5-7.1l0,0c4,0,7.5,3.2,7.5,7.1V42.8z"/>
				
					<path fill="#37474F" stroke="#37474F" stroke-width="3" stroke-linecap="round" stroke-linejoin="round" stroke-miterlimit="10" d="
					M24.2,39.5c2.6-0.2,6-0.9,8.1-2.9c0,0,1.3,1.2,2.9,2c0.6-0.5,1.3-1.1,1.3-1.9V35c0-2-3.5-3.7-7.5-3.7c-3.9,0-7.5,1.6-7.5,3.7
					v1.8C21.5,37.8,22.7,38.8,24.2,39.5z"/>
			</g>
			<g>
				<path fill="#B0BEC5" stroke="#37474F" stroke-width="3" stroke-miterlimit="10" d="M77.2,59.5c-1.2-6-6.8-11.4-13.6-11.4
					S51.2,53.5,50,59.5H77.2z"/>
				
					<path fill="#FFECB3" stroke="#37474F" stroke-width="3" stroke-linecap="round" stroke-linejoin="round" stroke-miterlimit="10" d="
					M70.5,42.8c0,3.9-3,7.1-7,7.1l0,0c-3.9,0-7-3.2-7-7.1v-3.5c0-3.9,3.1-7.1,7-7.1l0,0c4,0,7,3.2,7,7.1V42.8z"/>
				
					<path fill="#37474F" stroke="#37474F" stroke-width="3" stroke-linecap="round" stroke-linejoin="round" stroke-miterlimit="10" d="
					M58.9,39.5c2.6-0.2,5.9-0.9,8-2.9c0,0,0.9,1.2,2.6,2c0.6-0.5,1-1.1,1-1.9V35c0-2-3-3.7-7-3.7c-3.9,0-7,1.6-7,3.7v1.8
					C56.5,37.8,57.5,38.8,58.9,39.5z"/>
			</g>
			<g>
				
					<path fill="#37474F" stroke="#37474F" stroke-width="3" stroke-linecap="round" stroke-linejoin="round" stroke-miterlimit="10" d="
					M111.7,59.5c-1.2-6-6.8-11.4-13.6-11.4s-12.4,5.4-13.6,11.4H111.7z"/>
				
					<path fill="#FFECB3" stroke="#37474F" stroke-width="3" stroke-linecap="round" stroke-linejoin="round" stroke-miterlimit="10" d="
					M105.5,42.8c0,3.9-3.5,7.1-7.5,7.1l0,0c-3.9,0-7.5-3.2-7.5-7.1v-3.5c0-3.9,3.6-7.1,7.5-7.1l0,0c4,0,7.5,3.2,7.5,7.1V42.8z"/>
				
					<path fill="#37474F" stroke="#37474F" stroke-width="3" stroke-linecap="round" stroke-linejoin="round" stroke-miterlimit="10" d="
					M93.2,39.5c2.6-0.2,6-0.9,8.1-2.9c0,0,1.2,1.2,2.9,2c0.6-0.5,1.3-1.1,1.3-1.9V35c0-2-3.5-3.7-7.5-3.7c-3.9,0-7.5,1.6-7.5,3.7
					v1.8C90.5,37.8,91.7,38.8,93.2,39.5z"/>
			</g>
		</g>
		<g>
			<g>
				<path fill="#B0BEC5" stroke="#37474F" stroke-width="3" stroke-miterlimit="10" d="M42.6,96.5c-1.2-6-6.8-11.4-13.6-11.4
					c-6.8,0-12.4,5.4-13.6,11.4H42.6z"/>
				
					<path fill="#FFECB3" stroke="#37474F" stroke-width="3" stroke-linecap="round" stroke-linejoin="round" stroke-miterlimit="10" d="
					M36.5,80.1c0,3.9-3.5,7.1-7.5,7.1l0,0c-3.9,0-7.5-3.2-7.5-7.1v-3.6c0-3.9,3.6-7.1,7.5-7.1l0,0c4,0,7.5,3.2,7.5,7.1V80.1z"/>
				
					<path fill="#37474F" stroke="#37474F" stroke-width="3" stroke-linecap="round" stroke-linejoin="round" stroke-miterlimit="10" d="
					M24.2,76.7c2.6-0.2,6-0.9,8.1-2.9c0,0,1.3,1.2,2.9,2.1c0.6-0.6,1.3-1.2,1.3-1.9v-1.8c0-2-3.5-3.7-7.5-3.7
					c-3.9,0-7.5,1.6-7.5,3.7V74C21.5,75.1,22.7,76.1,24.2,76.7z"/>
			</g>
			<g>
				
					<path fill="#37474F" stroke="#37474F" stroke-width="3" stroke-linecap="round" stroke-linejoin="round" stroke-miterlimit="10" d="
					M77.2,96.5c-1.2-6-6.8-11.4-13.6-11.4S51.2,90.5,50,96.5H77.2z"/>
				
					<path fill="#FFECB3" stroke="#37474F" stroke-width="3" stroke-linecap="round" stroke-linejoin="round" stroke-miterlimit="10" d="
					M70.5,80.1c0,3.9-3,7.1-7,7.1l0,0c-3.9,0-7-3.2-7-7.1v-3.6c0-3.9,3.1-7.1,7-7.1l0,0c4,0,7,3.2,7,7.1V80.1z"/>
				
					<path fill="#37474F" stroke="#37474F" stroke-width="3" stroke-linecap="round" stroke-linejoin="round" stroke-miterlimit="10" d="
					M58.9,76.7c2.6-0.2,5.9-0.9,8-2.9c0,0,0.9,1.2,2.6,2.1c0.6-0.6,1-1.2,1-1.9v-1.8c0-2-3-3.7-7-3.7c-3.9,0-7,1.6-7,3.7V74
					C56.5,75.1,57.5,76.1,58.9,76.7z"/>
			</g>
			<g>
				<path fill="#B0BEC5" stroke="#37474F" stroke-width="3" stroke-miterlimit="10" d="M111.7,96.5c-1.2-6-6.8-11.4-13.6-11.4
					s-12.4,5.4-13.6,11.4H111.7z"/>
				
					<path fill="#FFECB3" stroke="#37474F" stroke-width="3" stroke-linecap="round" stroke-linejoin="round" stroke-miterlimit="10" d="
					M105.5,80.1c0,3.9-3.5,7.1-7.5,7.1l0,0c-3.9,0-7.5-3.2-7.5-7.1v-3.6c0-3.9,3.6-7.1,7.5-7.1l0,0c4,0,7.5,3.2,7.5,7.1V80.1z"/>
				
					<path fill="#37474F" stroke="#37474F" stroke-width="3" stroke-linecap="round" stroke-linejoin="round" stroke-miterlimit="10" d="
					M93.2,76.7c2.6-0.2,6-0.9,8.1-2.9c0,0,1.2,1.2,2.9,2.1c0.6-0.6,1.3-1.2,1.3-1.9v-1.8c0-2-3.5-3.7-7.5-3.7
					c-3.9,0-7.5,1.6-7.5,3.7V74C90.5,75.1,91.7,76.1,93.2,76.7z"/>
			</g>
		</g>
	</g>
	<g>
		<g>
			<path fill="#37474F" stroke="#37474F" stroke-miterlimit="10" d="M17.8,112.2c0,0.9-0.7,1.5-1.5,1.5c-0.9,0-1.6-0.7-1.6-1.5
				c0-0.9,0.7-1.5,1.6-1.5C17.1,110.7,17.8,111.4,17.8,112.2z"/>
			<path fill="#37474F" stroke="#37474F" stroke-miterlimit="10" d="M28.6,112.2c0,0.9-0.7,1.5-1.5,1.5c-0.8,0-1.6-0.7-1.6-1.5
				c0-0.9,0.7-1.5,1.6-1.5C27.9,110.7,28.6,111.4,28.6,112.2z"/>
			<path fill="#37474F" stroke="#37474F" stroke-miterlimit="10" d="M39.4,112.2c0,0.9-0.7,1.5-1.5,1.5c-0.9,0-1.6-0.7-1.6-1.5
				c0-0.9,0.7-1.5,1.6-1.5C38.7,110.7,39.4,111.4,39.4,112.2z"/>
		</g>
		<g>
			<path fill="#37474F" stroke="#37474F" stroke-miterlimit="10" d="M90.9,112.2c0,0.9-0.7,1.5-1.5,1.5c-0.9,0-1.6-0.7-1.6-1.5
				c0-0.9,0.7-1.5,1.6-1.5C90.2,110.7,90.9,111.4,90.9,112.2z"/>
			<path fill="#37474F" stroke="#37474F" stroke-miterlimit="10" d="M101.7,112.2c0,0.9-0.7,1.5-1.6,1.5s-1.6-0.7-1.6-1.5
				c0-0.9,0.7-1.5,1.6-1.5S101.7,111.4,101.7,112.2z"/>
			<path fill="#37474F" stroke="#37474F" stroke-miterlimit="10" d="M112.6,112.2c0,0.9-0.7,1.5-1.5,1.5c-0.9,0-1.6-0.7-1.6-1.5
				c0-0.9,0.7-1.5,1.6-1.5C111.9,110.7,112.6,111.4,112.6,112.2z"/>
		</g>
	</g>
</g>
</svg>
