<?xml version="1.0" encoding="utf-8"?>
<!-- Generator: Adobe Illustrator 20.0.0, SVG Export Plug-In . SVG Version: 6.00 Build 0)  -->
<svg version="1.1" id="Layer_1" xmlns="http://www.w3.org/2000/svg" xmlns:xlink="http://www.w3.org/1999/xlink" x="0px" y="0px"
	 viewBox="0 0 128 128" style="enable-background:new 0 0 128 128;" xml:space="preserve">
<style type="text/css">
	.st0{fill:#FFAB00;}
	.st1{fill:#37474F;}
	.st2{fill:#FFECB3;}
	.st3{fill:#FFFFFF;}
	.st4{font-family:'OpenSans-Semibold';}
	.st5{font-size:21.4649px;}
</style>
<g id="Layer_1_2_">
	<g id="Layer_1_1_">
		<g id="Layer_2">
			<g>
				<g>
					<path class="st0" d="M105.8,57c0,26.9-21.8,48.8-48.8,48.8S8.2,84,8.2,57S30.1,8.2,57,8.2S105.8,30.1,105.8,57z"/>
					<path class="st1" d="M57,107C29.5,107,7,84.6,7,57C7,29.5,29.4,7,57,7c27.5,0,50,22.4,50,50C107,84.5,84.5,107,57,107z M57,9.5
						C30.8,9.5,9.5,30.8,9.5,57s21.3,47.5,47.5,47.5s47.5-21.3,47.5-47.5S83.2,9.5,57,9.5z"/>
				</g>
				<g>
					<path class="st2" d="M95.9,57c0,21.5-17.4,38.9-38.9,38.9S18.1,78.5,18.1,57S35.5,18.1,57,18.1S95.9,35.5,95.9,57z"/>
					<path class="st1" d="M57,97.1C34.8,97.1,16.9,79,16.9,57C16.9,34.8,35,16.9,57,16.9S97.1,35,97.1,57
						C97.1,79.2,79.2,97.1,57,97.1z M57,19.3c-20.8,0-37.7,16.9-37.7,37.7S36.2,94.7,57,94.7S94.7,77.8,94.7,57S77.8,19.3,57,19.3z"
						/>
				</g>
				<g>
					<g>
						<polygon class="st1" points="45.4,77.8 79.4,57 45.4,36.2 						"/>
						<path class="st1" d="M45.4,79c-0.2,0-0.4,0-0.5-0.2c-0.4-0.2-0.7-0.7-0.7-1.1V36.2c0-0.4,0.2-0.9,0.7-1.1
							c0.4-0.2,0.9-0.2,1.2,0l34,20.8c0.4,0.2,0.5,0.7,0.5,1.1s-0.2,0.9-0.5,1.1l-34,20.8C45.7,79,45.6,79,45.4,79z M46.6,38.3v37.1
							l30.3-18.7L46.6,38.3z"/>
					</g>
				</g>
			</g>
		</g>
	</g>
</g>
<g id="Layer_3">
	<g id="Layer_2_2_">
		<g id="Layer_2_3_">
			<g>
				<g>
					<rect x="73.1" y="73" class="st3" width="47" height="47"/>
					<path class="st1" d="M120.1,121h-47c-0.6,0-0.9-0.4-0.9-0.9v-47c0-0.6,0.4-0.9,0.9-0.9h47c0.6,0,0.9,0.4,0.9,0.9v47
						C121,120.6,120.6,121,120.1,121z M74,119.1h45.2V74H74V119.1z"/>
				</g>
				<g>
					<rect x="73.1" y="73" class="st2" width="47" height="10.2"/>
					<path class="st1" d="M121,84.1H72.1v-12H121V84.1z M74,82.2h45.2V74H74V82.2z"/>
				</g>
				<g>
					<g>
						<path class="st1" d="M103.1,79.4c-0.7,0-1.1-0.6-1.1-1.1c0-0.6,0.6-1.1,1.1-1.1c0.6,0,1.1,0.6,1.1,1.1S103.7,79.4,103.1,79.4z
							"/>
						<path class="st1" d="M103.1,79.7c-0.8,0-1.4-0.7-1.4-1.4c0-0.8,0.7-1.4,1.4-1.4s1.4,0.7,1.4,1.4S103.9,79.7,103.1,79.7z
							 M103.1,77.3c-0.6,0-0.9,0.4-0.9,0.9c0,0.6,0.4,0.9,0.9,0.9c0.4,0,0.9-0.4,0.9-0.9C104,77.7,103.6,77.3,103.1,77.3z"/>
					</g>
					<g>
						<path class="st1" d="M96.7,79.4c-0.7,0-1.1-0.6-1.1-1.1c0-0.6,0.6-1.1,1.1-1.1c0.6,0,1.1,0.6,1.1,1.1
							C97.8,78.8,97.3,79.4,96.7,79.4z"/>
						<path class="st1" d="M96.7,79.7c-0.8,0-1.4-0.7-1.4-1.4c0-0.8,0.7-1.4,1.4-1.4s1.4,0.7,1.4,1.4S97.5,79.7,96.7,79.7z
							 M96.7,77.3c-0.6,0-0.9,0.4-0.9,0.9c0,0.6,0.4,0.9,0.9,0.9s0.9-0.4,0.9-0.9C97.6,77.7,97.2,77.3,96.7,77.3z"/>
					</g>
					<g>
						<path class="st1" d="M90.2,79.4c-0.7,0-1.1-0.6-1.1-1.1c0-0.6,0.6-1.1,1.1-1.1s1.1,0.6,1.1,1.1C91.4,78.8,90.9,79.4,90.2,79.4
							z"/>
						<path class="st1" d="M90.2,79.7c-0.8,0-1.4-0.7-1.4-1.4c0-0.8,0.7-1.4,1.4-1.4c0.7,0,1.4,0.7,1.4,1.4S91.1,79.7,90.2,79.7z
							 M90.2,77.3c-0.6,0-0.9,0.4-0.9,0.9c0,0.6,0.4,0.9,0.9,0.9c0.6,0,0.9-0.4,0.9-0.9C91.2,77.7,90.7,77.3,90.2,77.3z"/>
					</g>
				</g>
			</g>
			<text transform="matrix(1 0 0 1 83.6474 108.8662)" class="st1 st4 st5">22</text>
		</g>
	</g>
</g>
</svg>
