<?xml version="1.0" encoding="utf-8"?>
<!-- Generator: Adobe Illustrator 16.0.0, SVG Export Plug-In . SVG Version: 6.00 Build 0)  -->
<!DOCTYPE svg PUBLIC "-//W3C//DTD SVG 1.1//EN" "http://www.w3.org/Graphics/SVG/1.1/DTD/svg11.dtd">
<svg version="1.1" id="Layer_1" xmlns="http://www.w3.org/2000/svg" xmlns:xlink="http://www.w3.org/1999/xlink" x="0px" y="0px"
	 width="32px" height="32px" viewBox="0 0 32 32" enable-background="new 0 0 32 32" xml:space="preserve">
<g>
	<g>
		<path fill="#FFAB00" d="M22.5,13.4V8.5h-9.9l3.9,7h-7v6h4.9c0,0,0,0,0-0.1C14.3,16.9,18.5,13.4,22.5,13.4z"/>
		<path fill="#37474F" d="M14.3,22C14.3,22,14.3,22,14.3,22l-4.8,0C9.2,22,9,21.8,9,21.5v-6C9,15.2,9.2,15,9.5,15h6.1l-3.5-6.3
			c-0.1-0.2-0.1-0.3,0-0.5C12.2,8.1,12.4,8,12.6,8h9.9C22.8,8,23,8.2,23,8.5v4.9c0,0.3-0.2,0.5-0.5,0.5c-3.6,0-7.6,3-7.7,7.4
			c0,0.1,0,0.1,0,0.2c0,0.2-0.1,0.4-0.3,0.5C14.5,22,14.4,22,14.3,22z M10,21h3.8c0.1-2,0.9-3.7,2.1-5H10V21z M13.4,9l3.4,6.1
			c1.5-1.3,3.3-2,5.2-2.2V9H13.4z"/>
	</g>
	<g>
		<path fill="#FFECB3" d="M22.6,13.5C22.6,13.5,22.5,13.5,22.6,13.5l-0.1,8h-8.1c0.1,5,3.8,8.2,8.2,8.2c4.5,0,8.2-3.5,8.2-8.1
			S27.1,13.5,22.6,13.5z"/>
		<path fill="#37474F" d="M22.6,30.2c-4.9,0-8.6-3.6-8.7-8.7c0-0.1,0-0.3,0.1-0.4c0.1-0.1,0.2-0.2,0.4-0.2H22v-7.5
			c0-0.3,0.2-0.5,0.5-0.5c5,0,8.8,3.8,8.8,8.6S27.5,30.2,22.6,30.2z M14.9,22c0.3,4.2,3.5,7.2,7.7,7.2c4.3,0,7.7-3.3,7.7-7.6
			c0-4.1-3.2-7.4-7.3-7.6v7.5c0,0.3-0.2,0.5-0.5,0.5H14.9z"/>
	</g>
	<g>
		<polygon fill="#FFECB3" points="12.6,8.5 8.8,2.1 1.2,15.5 9.5,15.5 9.5,8.5 		"/>
		<path fill="#37474F" d="M9.5,16H1.2c-0.2,0-0.3-0.1-0.4-0.2s-0.1-0.3,0-0.5L8.4,1.9c0.1-0.2,0.3-0.3,0.4-0.3
			c0.2,0,0.3,0.1,0.4,0.2L13,8.2c0.1,0.2,0.1,0.3,0,0.5C12.9,8.9,12.7,9,12.6,9H10v6.5C10,15.8,9.8,16,9.5,16z M2,15h7V8.5
			C9,8.2,9.2,8,9.5,8h2.2L8.8,3.1L2,15z"/>
	</g>
</g>
</svg>
