<?xml version="1.0" encoding="utf-8"?>
<!-- Generator: Adobe Illustrator 16.0.0, SVG Export Plug-In . SVG Version: 6.00 Build 0)  -->
<!DOCTYPE svg PUBLIC "-//W3C//DTD SVG 1.1//EN" "http://www.w3.org/Graphics/SVG/1.1/DTD/svg11.dtd">
<svg version="1.1" id="Layer_1" xmlns="http://www.w3.org/2000/svg" xmlns:xlink="http://www.w3.org/1999/xlink" x="0px" y="0px"
	 width="33px" height="33px" viewBox="0 0 33 33" enable-background="new 0 0 33 33" xml:space="preserve">
<g>
	<g>
		<path fill="#78909C" d="M16.2,25.6c-7.8-0.7-13.4-6.7-14.7-8.3C2.9,15.7,8.4,9.7,16.2,9c7.8,0.7,13.4,6.7,14.7,8.3
			C29.6,18.9,24.1,24.8,16.2,25.6z"/>
		<path fill="#37474F" d="M16.2,26.1L16.2,26.1c-8-0.7-13.6-6.7-15.1-8.5l-0.3-0.3L1.1,17c1.5-1.8,7.1-7.7,15.1-8.5
			c8.1,0.7,13.6,6.7,15.1,8.5l0.3,0.3l-0.3,0.3C29.8,19.4,24.2,25.3,16.2,26.1L16.2,26.1z M2.2,17.3c1.8,2,6.9,7.1,14.1,7.8
			c7.1-0.7,12.3-5.8,14.1-7.8c-1.8-2-6.9-7.1-14.1-7.8C9.1,10.2,4,15.3,2.2,17.3z"/>
	</g>
	<g>
		<path fill="#FFAB00" d="M24.8,17.3c0,4.7-3.8,8.5-8.5,8.5c-4.7,0-8.5-3.8-8.5-8.5c0-4.7,3.8-8.5,8.5-8.5
			C21,8.8,24.8,12.6,24.8,17.3z"/>
		<path fill="#37474F" d="M16.2,26.3c-5,0-9-4.1-9-9c0-5,4.1-9,9-9c5,0,9,4.1,9,9C25.3,22.3,21.2,26.3,16.2,26.3z M16.2,9.3
			c-4.4,0-8,3.6-8,8c0,4.4,3.6,8,8,8c4.4,0,8-3.6,8-8C24.3,12.9,20.7,9.3,16.2,9.3z"/>
	</g>
	<g>
		<circle fill="#37474F" cx="16.2" cy="17.3" r="5.2"/>
	</g>
	<g>
		<circle fill="#FFFFFF" cx="13.1" cy="13.6" r="3"/>
		<path fill="#37474F" d="M13.1,17.1c-2,0-3.5-1.6-3.5-3.5c0-2,1.6-3.5,3.5-3.5s3.5,1.6,3.5,3.5C16.7,15.5,15.1,17.1,13.1,17.1z
			 M13.1,11c-1.4,0-2.5,1.1-2.5,2.5c0,1.4,1.1,2.5,2.5,2.5s2.5-1.1,2.5-2.5C15.7,12.2,14.5,11,13.1,11z"/>
	</g>
	<g>
		<circle fill="#FFFFFF" cx="20" cy="20.9" r="1.5"/>
		<path fill="#37474F" d="M20,22.9c-1.1,0-2-0.9-2-2c0-1.1,0.9-2,2-2s2,0.9,2,2C21.9,22,21.1,22.9,20,22.9z M20,20c-0.5,0-1,0.4-1,1
			s0.4,1,1,1s1-0.4,1-1S20.5,20,20,20z"/>
	</g>
	<g>
		<g>
			<circle fill="#FFFFFF" cx="13.8" cy="17.3" r="0.4"/>
			<path fill="#FFFFFF" d="M13.8,18.1c-0.5,0-0.9-0.4-0.9-0.9c0-0.5,0.4-0.9,0.9-0.9s0.9,0.4,0.9,0.9C14.6,17.8,14.2,18.1,13.8,18.1
				z M13.8,17.1c-0.1,0-0.1,0.1-0.1,0.1c0,0.2,0.3,0.2,0.3,0C13.9,17.2,13.9,17.1,13.8,17.1z"/>
		</g>
		<g>
			<path fill="#FFFFFF" d="M16.6,17.3c0,0.2-0.2,0.4-0.4,0.4c-0.2,0-0.4-0.2-0.4-0.4c0-0.2,0.2-0.4,0.4-0.4
				C16.4,16.9,16.6,17.1,16.6,17.3z"/>
			<path fill="#FFFFFF" d="M16.2,18.1c-0.5,0-0.9-0.4-0.9-0.9c0-0.5,0.4-0.9,0.9-0.9c0.5,0,0.9,0.4,0.9,0.9
				C17.1,17.8,16.7,18.1,16.2,18.1z M16.2,17.1c-0.1,0-0.1,0.1-0.1,0.1c0,0.2,0.3,0.2,0.3,0C16.4,17.2,16.3,17.1,16.2,17.1z"/>
		</g>
		<g>
			<circle fill="#FFFFFF" cx="18.7" cy="17.3" r="0.4"/>
			<path fill="#FFFFFF" d="M18.7,18.1c-0.5,0-0.9-0.4-0.9-0.9c0-0.5,0.4-0.9,0.9-0.9c0.5,0,0.9,0.4,0.9,0.9
				C19.6,17.8,19.2,18.1,18.7,18.1z M18.7,17.1c-0.1,0-0.1,0.1-0.1,0.1c0,0.2,0.3,0.2,0.3,0C18.8,17.2,18.8,17.1,18.7,17.1z"/>
		</g>
	</g>
</g>
</svg>
