<?xml version="1.0" encoding="utf-8"?>
<!-- Generator: Adobe Illustrator 19.0.0, SVG Export Plug-In . SVG Version: 6.00 Build 0)  -->
<svg version="1.1" id="Layer_1" xmlns="http://www.w3.org/2000/svg" xmlns:xlink="http://www.w3.org/1999/xlink" x="0px" y="0px"
	 viewBox="-35 37 128 128" style="enable-background:new -35 37 128 128;" xml:space="preserve">
<style type="text/css">
	.st0{fill:#526972;}
	.st1{fill:#DBDBDB;}
	.st2{fill:#FFAB00;}
	.st3{fill:#FFECB3;}
</style>
<g>
	<g>
		<g>
			<g>
				<path class="st0" d="M-0.2,162.5c-1.4-8-8.1-13.6-16.2-13.6s-14.8,5.6-16.2,13.6H-0.2z"/>
				<path class="st1" d="M1.6,164h-36l0.3-1.8c1.6-8.7,8.9-14.8,17.7-14.8c8.9,0,16.2,6.1,17.7,14.9L1.6,164z M-30.7,161H-2
					c-1.9-6.3-7.5-10.6-14.3-10.6C-23.2,150.4-28.8,154.7-30.7,161z"/>
			</g>
			<g>
				<path class="st1" d="M-7.5,142.3c0,4.7-4.3,8.5-9,8.5l0,0c-4.7,0-9-3.8-9-8.5V138c0-4.7,4.3-8.5,9-8.5l0,0c4.7,0,9,3.8,9,8.5
					V142.3z"/>
				<path class="st1" d="M-16.5,152.3c-5.7,0-10.5-4.6-10.5-10V138c0-5.4,4.8-10,10.5-10S-6,132.6-6,138v4.2
					C-6,147.7-10.8,152.3-16.5,152.3z M-16.5,131c-4,0-7.5,3.3-7.5,7v4.2c0,3.8,3.5,7,7.5,7s7.5-3.3,7.5-7V138
					C-9,134.3-12.5,131-16.5,131z"/>
			</g>
			<g>
				<path class="st1" d="M-22.3,138.2c3.1-0.3,7.2-1.1,9.7-3.5c0,0,1.5,1.4,3.5,2.4c0.8-0.7,1.6-1.4,1.6-2.2v-2.2
					c0-2.4-4.3-4.4-9-4.4s-9,1.9-9,4.4v2.3C-25.5,136.3-24.1,137.4-22.3,138.2z"/>
				<path class="st1" d="M-22.3,139.7c-0.2,0-0.4,0-0.6-0.1c-3.4-1.5-4.1-3.4-4.1-4.6v-2.2c0-3.7,5.3-5.9,10.5-5.9S-6,129.1-6,132.8
					v2.2c0,1.6-1.3,2.7-2.1,3.4c-0.5,0.4-1.1,0.5-1.7,0.2c-1.1-0.6-2.1-1.3-2.8-1.8c-2.8,2-6.7,2.8-9.5,3
					C-22.2,139.7-22.2,139.7-22.3,139.7z M-16.5,130c-4.6,0-7.5,1.9-7.5,2.9v2.1c0,0.3,0.5,1,2,1.7c2.7-0.3,6.3-1,8.4-3
					c0.6-0.5,1.5-0.5,2,0c0,0,0.9,0.9,2.3,1.7c0.2-0.2,0.3-0.3,0.3-0.4v-2.1C-9,131.8-11.9,130-16.5,130z"/>
			</g>
		</g>
		<g>
			<g>
				<path class="st0" d="M45.1,162.5c-1.4-8-8.1-13.6-16.2-13.6s-14.8,5.6-16.2,13.6H45.1z"/>
				<path class="st1" d="M46.9,164H10.8l0.3-1.8c1.6-8.7,8.8-14.8,17.7-14.8s16.2,6.1,17.7,14.8L46.9,164z M14.5,161h28.7
					c-1.9-6.3-7.6-10.6-14.3-10.6C22.1,150.4,16.4,154.7,14.5,161z"/>
			</g>
			<g>
				<path class="st1" d="M37.5,142.3c0,4.7-3.8,8.5-8.5,8.5l0,0c-4.7,0-8.5-3.8-8.5-8.5V138c0-4.7,3.8-8.5,8.5-8.5l0,0
					c4.7,0,8.5,3.8,8.5,8.5V142.3z"/>
				<path class="st1" d="M29,152.3c-5.5,0-10-4.5-10-10V138c0-5.5,4.5-10,10-10s10,4.5,10,10v4.2C39,147.8,34.5,152.3,29,152.3z
					 M29,131c-3.9,0-7,3.2-7,7v4.2c0,3.9,3.1,7,7,7s7-3.2,7-7V138C36,134.2,32.9,131,29,131z"/>
			</g>
			<g>
				<path class="st1" d="M23.3,138.2c3.1-0.3,7-1.1,9.5-3.5c0,0,1.3,1.4,3.3,2.4c0.8-0.7,1.4-1.4,1.4-2.2v-2.2
					c0-2.4-3.8-4.4-8.5-4.4s-8.5,1.9-8.5,4.4v2.3C20.5,136.3,21.6,137.4,23.3,138.2z"/>
				<path class="st1" d="M23.3,139.7c-0.2,0-0.4,0-0.6-0.1c-3.2-1.5-3.7-3.5-3.7-4.6v-2.2c0-3.3,4.3-5.9,10-5.9s10,2.5,10,5.9v2.2
					c0,1.6-1.1,2.7-1.9,3.4c-0.5,0.4-1.1,0.5-1.7,0.2c-1.1-0.6-2-1.3-2.6-1.8c-2.3,1.6-5.4,2.6-9.3,3
					C23.4,139.7,23.4,139.7,23.3,139.7z M29,130c-4.3,0-7,1.7-7,2.9v2.1c0,0.6,0.6,1.2,1.6,1.7c2.6-0.3,6.1-1,8.2-3
					c0.3-0.3,0.7-0.4,1.1-0.4s0.8,0.2,1,0.5c0,0,0.7,0.8,1.9,1.6C36,135.1,36,135,36,135v-2.2C36,131.7,33.3,130,29,130z"/>
			</g>
		</g>
		<g>
			<g>
				<path class="st0" d="M90.3,162.5c-1.4-8-8.1-13.6-16.2-13.6s-14.8,5.6-16.2,13.6H90.3z"/>
				<path class="st1" d="M92.1,164H56l0.3-1.8c1.6-8.7,8.9-14.8,17.7-14.8c8.9,0,16.2,6.1,17.7,14.9L92.1,164z M59.7,161h28.7
					c-1.9-6.3-7.6-10.6-14.4-10.6C67.3,150.4,61.7,154.7,59.7,161z"/>
			</g>
			<g>
				<path class="st1" d="M82.5,142.3c0,4.7-3.8,8.5-8.5,8.5l0,0c-4.7,0-8.5-3.8-8.5-8.5V138c0-4.7,3.8-8.5,8.5-8.5l0,0
					c4.8,0,8.5,3.8,8.5,8.5V142.3z"/>
				<path class="st1" d="M74,152.3c-5.5,0-10-4.5-10-10V138c0-5.5,4.5-10,10-10s10,4.5,10,10v4.2C84,147.8,79.5,152.3,74,152.3z
					 M74,131c-3.9,0-7,3.2-7,7v4.2c0,3.9,3.1,7,7,7s7-3.2,7-7V138C81,134.1,77.9,131,74,131z"/>
			</g>
			<g>
				<path class="st1" d="M68.5,138.2c3.2-0.3,7.1-1.1,9.6-3.5c0,0,1.2,1.4,3.2,2.4c0.8-0.7,1.3-1.4,1.3-2.2v-2.2
					c0-2.4-3.8-4.4-8.5-4.4s-8.5,1.9-8.5,4.4v2.3C65.5,136.3,66.7,137.4,68.5,138.2z"/>
				<path class="st1" d="M68.5,139.7c-0.2,0-0.4,0-0.6-0.1c-2.5-1.1-3.8-2.8-3.8-4.6v-2.2c0-3.3,4.3-5.9,10-5.9s10,2.5,10,5.9v2.2
					c0,1.2-0.6,2.4-1.8,3.4c-0.5,0.4-1.1,0.5-1.7,0.2c-1.1-0.6-1.9-1.2-2.6-1.8c-2.3,1.6-5.4,2.6-9.3,3
					C68.5,139.7,68.5,139.7,68.5,139.7z M74,130c-4.3,0-7,1.7-7,2.9v2.1c0,0.5,0.7,1.2,1.7,1.7c2.7-0.3,6.1-1,8.3-3
					c0.3-0.3,0.7-0.4,1.1-0.4s0.8,0.2,1.1,0.5c0,0,0.7,0.7,1.8,1.5c0.1-0.1,0.1-0.2,0.1-0.3v-2.2C81,131.7,78.3,130,74,130z"/>
			</g>
		</g>
		<g>
			<g>
				<path class="st1" d="M24.2,164h-36l0.3-1.8c1.6-8.7,8.9-14.8,17.7-14.8c8.9,0,16.2,6.1,17.7,14.9L24.2,164z M-8.1,161h28.7
					c-1.9-6.3-7.6-10.6-14.3-10.6C-0.5,150.4-6.2,154.7-8.1,161z"/>
			</g>
			<g>
				<path class="st1" d="M14.5,142.3c0,4.7-3.8,8.5-8.5,8.5l0,0c-4.7,0-8.5-3.8-8.5-8.5V138c0-4.7,3.8-8.5,8.5-8.5l0,0
					c4.7,0,8.5,3.8,8.5,8.5V142.3z"/>
				<path class="st1" d="M6,152.3c-5.5,0-10-4.5-10-10V138c0-5.5,4.5-10,10-10s10,4.5,10,10v4.2C16,147.8,11.5,152.3,6,152.3z
					 M6,131c-3.9,0-7,3.2-7,7v4.2c0,3.9,3.1,7,7,7s7-3.2,7-7V138C13,134.2,9.9,131,6,131z"/>
			</g>
			<g>
				<path class="st1" d="M0.5,138.2c3.1-0.3,7.1-1.1,9.6-3.5c0,0,1.2,1.4,3.1,2.4c0.8-0.7,1.2-1.4,1.2-2.2v-2.2
					c0-2.4-3.8-4.4-8.5-4.4s-8.5,1.9-8.5,4.4v2.3C-2.5,136.3-1.2,137.4,0.5,138.2z"/>
				<path class="st1" d="M0.5,139.7c-0.2,0-0.4,0-0.6-0.1c-2.5-1.2-3.9-2.8-3.9-4.6v-2.2c0-3.3,4.3-5.9,10-5.9s10,2.5,10,5.9v2.2
					c0,1.2-0.6,2.4-1.8,3.4c-0.5,0.4-1.1,0.5-1.7,0.2c-1.1-0.6-1.9-1.2-2.5-1.8C7.2,138.8,3.5,139.5,0.5,139.7
					C0.6,139.7,0.6,139.7,0.5,139.7z M6,130c-4.3,0-7,1.7-7,2.9v2.1c0,0.4,0.5,1,1.8,1.7c2.7-0.3,6.2-1,8.3-3
					c0.3-0.3,0.7-0.4,1.1-0.4c0.4,0,0.8,0.2,1.1,0.5c0,0,0.6,0.7,1.7,1.5c0-0.2,0-0.3,0-0.3v-2.2C13,131.7,10.3,130,6,130z"/>
			</g>
		</g>
		<g>
			<g>
				<path class="st1" d="M69.5,164h-36l0.3-1.8c1.6-8.7,8.9-14.8,17.7-14.8c8.9,0,16.2,6.1,17.7,14.9L69.5,164z M37.1,161h28.7
					c-1.9-6.3-7.5-10.6-14.3-10.6S39,154.7,37.1,161z"/>
			</g>
			<g>
				<path class="st1" d="M59.5,142.3c0,4.7-3.8,8.5-8.5,8.5l0,0c-4.7,0-8.5-3.8-8.5-8.5V138c0-4.7,3.8-8.5,8.5-8.5l0,0
					c4.7,0,8.5,3.8,8.5,8.5V142.3z"/>
				<path class="st1" d="M51,152.3c-5.5,0-10-4.5-10-10V138c0-5.5,4.5-10,10-10s10,4.5,10,10v4.2C61,147.8,56.5,152.3,51,152.3z
					 M51,131c-3.9,0-7,3.2-7,7v4.2c0,3.9,3.1,7,7,7s7-3.2,7-7V138C58,134.2,54.9,131,51,131z"/>
			</g>
			<g>
				<path class="st1" d="M45.7,138.2c3.1-0.3,7.1-1.1,9.7-3.5c0,0,1,1.4,3,2.4c0.8-0.7,1.1-1.4,1.1-2.2v-2.2c0-2.4-3.8-4.4-8.5-4.4
					s-8.5,1.9-8.5,4.4v2.3C42.5,136.3,43.9,137.4,45.7,138.2z"/>
				<path class="st1" d="M45.7,139.7c-0.2,0-0.4,0-0.6-0.1c-3.3-1.5-4-3.3-4-4.6v-2.2c0-3.3,4.3-5.9,10-5.9s10,2.5,10,5.9v2.2
					c0,1.3-0.6,2.4-1.7,3.4c-0.5,0.4-1.1,0.5-1.7,0.2c-1.1-0.6-1.9-1.2-2.5-1.7c-2.8,1.9-6.6,2.7-9.4,2.9
					C45.8,139.7,45.7,139.7,45.7,139.7z M51,130c-4.3,0-7,1.7-7,2.9v2.1c0,0.4,0.6,1.1,1.9,1.7c2.7-0.3,6.2-1,8.4-3
					c0.3-0.3,0.7-0.4,1.2-0.4c0.4,0,0.8,0.3,1.1,0.6c0,0,0.5,0.7,1.5,1.3c0-0.1,0-0.2,0-0.2v-2.2C58,131.7,55.3,130,51,130z"/>
			</g>
		</g>
	</g>
	<g>
		<g>
			<g>
				<path class="st1" d="M-8.6,114.6c0.6,0.6,0.6,1.7,0,2.3c-0.6,0.6-1.7,0.6-2.3,0c-0.6-0.6-0.6-1.7,0-2.3
					C-10.3,114-9.3,114-8.6,114.6z"/>
				<path class="st1" d="M-9.8,117.9c-0.6,0-1.1-0.2-1.5-0.6s-0.6-0.9-0.6-1.5s0.2-1.1,0.6-1.5c0.8-0.8,2.2-0.8,3,0
					c0.4,0.4,0.6,0.9,0.6,1.5s-0.2,1.1-0.6,1.5C-8.7,117.6-9.2,117.9-9.8,117.9z M-9.8,114.6c-0.3,0-0.6,0.1-0.8,0.3
					c-0.2,0.2-0.3,0.5-0.3,0.8s0.1,0.6,0.3,0.8c0.4,0.4,1.2,0.4,1.6,0c0.2-0.2,0.3-0.5,0.3-0.8s-0.1-0.6-0.3-0.8
					C-9.2,114.7-9.5,114.6-9.8,114.6z"/>
			</g>
			<g>
				<path class="st1" d="M-0.6,106.6c0.6,0.6,0.6,1.7,0,2.3c-0.6,0.6-1.7,0.6-2.3,0c-0.6-0.6-0.6-1.7,0-2.3
					C-2.3,106-1.3,106-0.6,106.6z"/>
				<path class="st1" d="M-1.8,109.9c-0.6,0-1.1-0.2-1.5-0.6c-0.4-0.4-0.6-0.9-0.6-1.5s0.2-1.1,0.6-1.5c0.8-0.8,2.2-0.8,3,0
					c0.4,0.4,0.6,0.9,0.6,1.5s-0.2,1.1-0.6,1.5C-0.7,109.6-1.2,109.9-1.8,109.9z M-1.8,106.6c-0.3,0-0.6,0.1-0.8,0.3
					c-0.2,0.2-0.3,0.5-0.3,0.8s0.1,0.6,0.3,0.8c0.4,0.4,1.2,0.4,1.6,0c0.2-0.2,0.3-0.5,0.3-0.8s-0.1-0.6-0.3-0.8
					S-1.5,106.6-1.8,106.6z"/>
			</g>
			<g>
				<path class="st1" d="M7.4,98.6c0.6,0.6,0.6,1.7,0,2.3c-0.6,0.6-1.7,0.6-2.3,0c-0.6-0.6-0.6-1.7,0-2.3S6.8,98,7.4,98.6z"/>
				<path class="st1" d="M6.2,101.9c-0.6,0-1.1-0.2-1.5-0.6c-0.8-0.8-0.8-2.2,0-3s2.2-0.8,3,0s0.8,2.2,0,3
					C7.3,101.6,6.8,101.9,6.2,101.9z M6.2,98.6c-0.3,0-0.6,0.1-0.8,0.3c-0.4,0.4-0.4,1.2,0,1.6c0.4,0.4,1.2,0.4,1.6,0
					c0.4-0.4,0.4-1.2,0-1.6C6.8,98.7,6.5,98.6,6.2,98.6z"/>
			</g>
		</g>
		<g>
			<g>
				<path class="st1" d="M66.3,114.6c-0.6,0.6-0.6,1.7,0,2.3c0.6,0.6,1.7,0.6,2.3,0c0.6-0.6,0.6-1.7,0-2.3C68,114,67,114,66.3,114.6
					z"/>
				<path class="st1" d="M67.5,117.9c-0.6,0-1.1-0.2-1.5-0.6c-0.8-0.8-0.8-2.2,0-3s2.2-0.8,3,0c0.4,0.4,0.6,0.9,0.6,1.5
					s-0.2,1.1-0.6,1.5C68.6,117.6,68,117.9,67.5,117.9z M67.5,114.6c-0.3,0-0.6,0.1-0.8,0.3c-0.4,0.4-0.4,1.2,0,1.6s1.2,0.4,1.6,0
					c0.2-0.2,0.3-0.5,0.3-0.8s-0.1-0.6-0.3-0.8C68.1,114.7,67.8,114.6,67.5,114.6z"/>
			</g>
			<g>
				<path class="st1" d="M58.3,106.6c-0.6,0.6-0.6,1.7,0,2.3c0.6,0.6,1.7,0.6,2.3,0c0.6-0.6,0.6-1.7,0-2.3
					C60,106,58.9,106,58.3,106.6z"/>
				<path class="st1" d="M59.5,109.9L59.5,109.9c-0.6,0-1.1-0.2-1.5-0.6s-0.6-0.9-0.6-1.5s0.2-1.1,0.6-1.5c0.8-0.8,2.2-0.8,3,0
					c0.4,0.4,0.6,0.9,0.6,1.5s-0.2,1.1-0.6,1.5C60.6,109.6,60,109.9,59.5,109.9z M59.5,106.6c-0.3,0-0.6,0.1-0.8,0.3
					c-0.2,0.2-0.3,0.5-0.3,0.8s0.1,0.6,0.3,0.8c0.4,0.4,1.2,0.4,1.6,0c0.2-0.2,0.3-0.5,0.3-0.8s-0.1-0.6-0.3-0.8
					C60,106.7,59.8,106.6,59.5,106.6z"/>
			</g>
			<g>
				<path class="st1" d="M50.3,98.6c-0.6,0.6-0.6,1.7,0,2.3c0.6,0.6,1.7,0.6,2.3,0c0.6-0.6,0.6-1.7,0-2.3C52,98,50.9,98,50.3,98.6z"
					/>
				<path class="st1" d="M51.4,101.9c-0.6,0-1.1-0.2-1.5-0.6c-0.8-0.8-0.8-2.2,0-3s2.2-0.8,3,0s0.8,2.2,0,3
					C52.5,101.6,52,101.9,51.4,101.9z M51.4,98.6c-0.3,0-0.6,0.1-0.8,0.3c-0.4,0.4-0.4,1.1,0,1.6c0.4,0.4,1.2,0.4,1.6,0
					c0.4-0.5,0.4-1.2,0-1.6C52,98.7,51.7,98.6,51.4,98.6z"/>
			</g>
		</g>
	</g>
	<g>
		<g>
			<g>
				<g>
					<g>
						<path class="st2" d="M16.4,95.5c-4.5-3.6-7.5-9.3-7.5-15.6c0-11,8.9-19.9,19.9-19.9s19.9,8.9,19.9,19.9c0,6.3-3,12-7.6,15.6"
							/>
						<path class="st1" d="M41.2,97.1c-0.4,0-0.9-0.2-1.2-0.6c-0.5-0.6-0.4-1.6,0.2-2.1c4.4-3.5,7-8.8,7-14.5
							c0-10.2-8.3-18.4-18.4-18.4c-10.2,0-18.4,8.3-18.4,18.4c0,5.6,2.5,10.9,6.9,14.4c0.6,0.5,0.8,1.5,0.2,2.1
							C17,97,16,97.2,15.4,96.6c-5.1-4.1-8-10.2-8-16.7c0-11.8,9.6-21.4,21.4-21.4s21.4,9.6,21.4,21.4c0,6.6-3,12.7-8.1,16.8
							C41.9,97,41.5,97.1,41.2,97.1z"/>
					</g>
					<g>
						<path class="st2" d="M41.5,95v7.7c0,2.4-1.9,3.8-4.4,3.8H20.6c-2.5,0-4.1-1.3-4.1-3.8V95"/>
						<path class="st1" d="M37.1,108H20.6c-3.4,0-5.6-2.1-5.6-5.3V95c0-0.8,0.7-1.5,1.5-1.5S18,94.2,18,95v7.7c0,0.6,0,2.3,2.6,2.3
							h16.5c0.7,0,2.9-0.2,2.9-2.3V95c0-0.8,0.7-1.5,1.5-1.5S43,94.2,43,95v7.7C43,105.8,40.6,108,37.1,108z"/>
					</g>
					<g>
						<rect x="23.5" y="108.5" class="st3" width="11" height="7"/>
						<path class="st1" d="M36,117H22v-10h14V117z M25,114h8v-4h-8V114z"/>
					</g>
				</g>
			</g>
		</g>
		<g>
			<g>
				<polyline class="st2" points="-9.5,74.7 1.7,75.3 2.9,71.3 				"/>
				<path class="st1" d="M2.8,76.8l-12.4-0.6c-0.8,0-1.5-0.7-1.4-1.6c0-0.8,0.7-1.4,1.6-1.4l10,0.5l0.8-2.8c0.2-0.8,1.1-1.2,1.9-1
					c0.8,0.2,1.2,1.1,1,1.9L2.8,76.8z"/>
			</g>
			<g>
				<polyline class="st2" points="-1.6,53.3 7.3,60.1 10.5,57.5 				"/>
				<path class="st1" d="M7.3,62l-9.8-7.5c-0.7-0.5-0.8-1.4-0.3-2.1c0.5-0.7,1.4-0.8,2.1-0.3l8,6.1l2.3-1.8c0.6-0.5,1.6-0.4,2.1,0.2
					c0.5,0.6,0.4,1.6-0.2,2.1L7.3,62z"/>
			</g>
			<g>
				<polyline class="st2" points="17,40.1 20.5,50.7 24.6,50.5 				"/>
				<path class="st1" d="M19.4,52.3l-3.8-11.8c-0.3-0.8,0.2-1.6,1-1.9c0.8-0.3,1.6,0.2,1.9,1l3.1,9.6l3-0.2c0.8-0.1,1.5,0.6,1.6,1.4
					s-0.6,1.5-1.4,1.6L19.4,52.3z"/>
			</g>
			<g>
				<polyline class="st2" points="39.9,39.8 36.6,50.5 40.2,52.6 				"/>
				<path class="st1" d="M40.2,54.1c-0.3,0-0.5-0.1-0.8-0.2l-4.6-2.7l3.6-11.9c0.2-0.8,1.1-1.2,1.9-1s1.2,1.1,1,1.9l-2.9,9.6
					l2.5,1.5c0.7,0.4,1,1.3,0.5,2.1C41.2,53.9,40.7,54.1,40.2,54.1z"/>
			</g>
			<g>
				<polyline class="st2" points="58.8,52.6 50.1,59.6 51.8,63.3 				"/>
				<path class="st1" d="M51.8,64.8c-0.6,0-1.1-0.3-1.4-0.9l-2.2-4.8l9.7-7.8c0.6-0.5,1.6-0.4,2.1,0.2c0.5,0.6,0.4,1.6-0.2,2.1
					L51.9,60l1.2,2.7c0.4,0.8,0,1.6-0.7,2C52.2,64.8,52,64.8,51.8,64.8z"/>
			</g>
			<g>
				<polyline class="st2" points="67.2,73.8 56,74.6 55.2,78.7 				"/>
				<path class="st1" d="M55.2,80.2c-0.1,0-0.2,0-0.3,0c-0.8-0.1-1.4-0.9-1.2-1.7l0.9-5.2L67,72.4c0.8-0.1,1.5,0.6,1.6,1.4
					c0.1,0.8-0.6,1.5-1.4,1.6l-10,0.7L56.7,79C56.6,79.7,56,80.2,55.2,80.2z"/>
			</g>
		</g>
	</g>
</g>
</svg>
