<?xml version="1.0" encoding="utf-8"?>
<!-- Generator: Adobe Illustrator 19.0.0, SVG Export Plug-In . SVG Version: 6.00 Build 0)  -->
<svg version="1.1" id="Layer_1" xmlns="http://www.w3.org/2000/svg" xmlns:xlink="http://www.w3.org/1999/xlink" x="0px" y="0px"
	 viewBox="-35 37 128 128" style="enable-background:new -35 37 128 128;" xml:space="preserve">
<style type="text/css">
	.st0{fill:#FFAB00;}
	.st1{fill:#37474F;}
	.st2{fill:#FFFFFF;}
	.st3{fill:#FFECB3;}
	.st4{fill:#B0BEC5;}
</style>
<g>
	<g>
		<path class="st0" d="M89.3,101c0,33.1-26.9,60-60,60s-60-26.9-60-60s26.8-60,60-60C62.4,41.1,89.3,67.9,89.3,101z"/>
		<path class="st1" d="M29.3,162.5c-33.9,0-61.5-27.6-61.5-61.5s27.6-61.5,61.5-61.5S90.8,67.1,90.8,101S63.2,162.5,29.3,162.5z
			 M29.3,42.6c-32.2,0-58.5,26.2-58.5,58.4s26.2,58.5,58.5,58.5s58.5-26.2,58.5-58.5C87.8,68.8,61.5,42.6,29.3,42.6z"/>
	</g>
	<g>
		<g>
			<path class="st1" d="M-15.7,99.3c0,0.9-0.7,1.6-1.6,1.6s-1.6-0.7-1.6-1.6c0-0.9,0.7-1.6,1.6-1.6C-16.4,97.7-15.7,98.4-15.7,99.3z
				"/>
			<path class="st1" d="M-17.2,101.4c-1.2,0-2.1-0.9-2.1-2.1s0.9-2.1,2.1-2.1s2.1,0.9,2.1,2.1C-15.2,100.4-16.1,101.4-17.2,101.4z
				 M-17.2,98.2c-0.6,0-1.1,0.5-1.1,1.1c0,0.6,0.5,1.1,1.1,1.1s1.1-0.5,1.1-1.1C-16.2,98.7-16.6,98.2-17.2,98.2z"/>
		</g>
		<g>
			<path class="st1" d="M-4.4,99.3c0,0.9-0.7,1.6-1.6,1.6s-1.6-0.7-1.6-1.6c0-0.9,0.7-1.6,1.6-1.6S-4.4,98.4-4.4,99.3z"/>
			<path class="st1" d="M-6,101.4c-1.1,0-2.1-1-2.1-2.1c0-1.2,0.9-2.1,2.1-2.1s2.1,0.9,2.1,2.1C-3.9,100.4-4.9,101.4-6,101.4z
				 M-6,98.2c-0.6,0-1.1,0.5-1.1,1.1c0,0.6,0.5,1.1,1.1,1.1s1.1-0.5,1.1-1.1C-4.9,98.7-5.4,98.2-6,98.2z"/>
		</g>
		<g>
			<path class="st1" d="M6.8,99.3c0,0.9-0.7,1.6-1.6,1.6c-0.9,0-1.6-0.7-1.6-1.6c0-0.9,0.7-1.6,1.6-1.6S6.8,98.4,6.8,99.3z"/>
			<path class="st1" d="M5.2,101.4c-1.2,0-2.1-0.9-2.1-2.1s1-2.1,2.1-2.1c1.2,0,2.1,0.9,2.1,2.1C7.3,100.4,6.4,101.4,5.2,101.4z
				 M5.2,98.2c-0.6,0-1.1,0.5-1.1,1.1c0,0.6,0.5,1.1,1.1,1.1s1.1-0.5,1.1-1.1C6.3,98.7,5.8,98.2,5.2,98.2z"/>
		</g>
	</g>
	<g>
		<rect x="14.5" y="119.5" class="st2" width="29" height="27"/>
		<path class="st1" d="M43.5,148h-29c-0.8,0-1.5-0.7-1.5-1.5v-27c0-0.8,0.7-1.5,1.5-1.5h29c0.8,0,1.5,0.7,1.5,1.5v27
			C45,147.3,44.3,148,43.5,148z M16,145h26v-24H16V145z"/>
	</g>
	<g>
		<g>
			<polygon class="st1" points="-16.1,144.4 -12,127.6 15.1,117.6 18.5,146.5 -16.4,146.5 			"/>
			<path class="st1" d="M18.5,148L18.5,148h-35c-0.4,0-0.8-0.2-1.1-0.5c-0.3-0.3-0.4-0.8-0.4-1.2l0.3-2.1c0-0.1,0-0.1,0-0.2
				l4.2-16.8c0.1-0.5,0.5-0.9,0.9-1l27.1-10c0.4-0.2,0.9-0.1,1.3,0.1c0.4,0.2,0.7,0.6,0.7,1.1l3.3,28.6c0,0.1,0.1,0.3,0.1,0.4
				C20,147.3,19.4,148,18.5,148z M-14.7,145h31.5l-3-25.3l-24.6,9L-14.7,145z"/>
		</g>
		<g>
			<polygon class="st1" points="74.7,144.4 70.5,127.6 43.4,117.6 40.1,146.5 75,146.5 			"/>
			<path class="st1" d="M75,148H40.1c-0.4,0-0.8-0.2-1.1-0.5c-0.3-0.3-0.4-0.7-0.4-1.2l3.3-28.9c0.1-0.5,0.3-0.9,0.7-1.1
				c0.4-0.2,0.9-0.3,1.3-0.1l27.1,10c0.5,0.2,0.8,0.6,0.9,1l4.2,16.8c0,0.1,0,0.1,0,0.2l0.3,2.1c0.1,0.4-0.1,0.9-0.4,1.2
				C75.8,147.8,75.4,148,75,148z M41.8,145h31.5v-0.3l-4-16l-24.6-9L41.8,145z"/>
		</g>
	</g>
	<g>
		<path class="st3" d="M39.5,112.4c0,5.6-4.4,10.1-10,10.1l0,0c-5.6,0-10-4.5-10-10.1v-8.9c0-5.6,4.4-10.1,10-10.1l0,0
			c5.6,0,10,4.5,10,10.1V112.4z"/>
		<path class="st1" d="M29.5,124c-6.3,0-11.5-5.2-11.5-11.6v-8.9c0-6.4,5.2-11.6,11.5-11.6S41,97.1,41,103.5v8.9
			C41,118.8,35.8,124,29.5,124z M29.5,94.9c-4.7,0-8.5,3.8-8.5,8.6v8.9c0,4.7,3.8,8.6,8.5,8.6s8.5-3.8,8.5-8.6v-8.9
			C38,98.8,34.2,94.9,29.5,94.9z"/>
	</g>
	<g>
		<path class="st1" d="M48.5,83.6c0,10.5-8.5,19.1-19,19.1l0,0c-10.6,0-19-8.5-19-19.1V70.8c0-10.5,8.5-19.1,19-19.1l0,0
			c10.5,0,19,8.5,19,19.1V83.6z"/>
		<path class="st1" d="M29.5,104.1C18.2,104.1,9,94.9,9,83.6V70.8c0-11.3,9.2-20.6,20.5-20.6S50,59.4,50,70.8v12.7
			C50,94.9,40.8,104.1,29.5,104.1z M29.5,53.3c-9.7,0-17.5,7.9-17.5,17.6v12.7c0,9.7,7.9,17.6,17.5,17.6S47,93.3,47,83.6V70.8
			C47,61.1,39.2,53.3,29.5,53.3z"/>
	</g>
	<g>
		<path class="st3" d="M48.5,83.6c0,10.5-8.5,19.1-19,19.1l0,0c-10.6,0-19-8.5-19-19.1V70.8c0-10.5,3.7-3.1,14.2-3.1l7.1-9.4
			c10.5,0,16.6,2,16.6,12.5L48.5,83.6L48.5,83.6z"/>
		<path class="st1" d="M29.5,104.1C18.2,104.1,9,94.9,9,83.6V70.8c0-2.7,0-7.1,3.6-7.1c1,0,2.1,0.4,3.5,0.9c1.9,0.7,4.5,1.6,7.8,1.7
			l6.7-8.8c0.3-0.4,0.7-0.6,1.2-0.6c9.2,0,18.1,1.1,18.1,14v12.7C50,94.9,40.8,104.1,29.5,104.1z M12.6,66.7
			C12.5,66.7,12.5,66.7,12.6,66.7c-0.2,0.1-0.6,0.7-0.6,4.1v12.7c0,9.7,7.9,17.6,17.5,17.6S47,93.2,47,83.5V70.8
			c0-8.2-3.5-10.9-14.4-11l-6.7,8.8c-0.3,0.4-0.7,0.6-1.2,0.6c-4.2,0-7.3-1.1-9.6-1.9C14.1,67,13.1,66.7,12.6,66.7z"/>
	</g>
	<g>
		<path class="st1" d="M11.7,74.7c0,0,21.3-1.3,26.4-10.5c0,0,5.7,7.8,9.8,7.5l-1.2-8.2L40,58.2L26.2,59l-9.4,5.7l-4.4,0.8
			L11.7,74.7z"/>
		<path class="st1" d="M11.7,76.2c-0.4,0-0.8-0.2-1.1-0.4c-0.3-0.3-0.5-0.7-0.4-1.2l0.6-9c0-0.7,0.5-1.3,1.2-1.4l4.1-0.8l9.2-5.5
			c0.2-0.1,0.4-0.2,0.7-0.2l13.8-0.8c0.4,0,0.7,0.1,1,0.3l6.7,5.3c0.3,0.2,0.5,0.6,0.6,1l1.2,8.2c0.1,0.4-0.1,0.8-0.3,1.2
			c-0.3,0.3-0.7,0.5-1.1,0.5c-3.6,0.2-7.8-4-9.8-6.5C31.3,74.9,12.6,76.1,11.7,76.2L11.7,76.2z M13.6,66.9L13.3,73
			c5-0.5,19.6-2.6,23.4-9.5c0.2-0.5,0.7-0.7,1.2-0.8c0.5,0,1,0.2,1.3,0.6c1.6,2.1,4.5,5.3,6.8,6.5l-0.8-5.4l-5.8-4.5l-12.9,0.8
			l-9.1,5.5c-0.2,0.1-0.3,0.2-0.5,0.2L13.6,66.9z"/>
	</g>
	<g>
		<g>
			<polygon class="st1" points="23,145.6 27,126.5 25.1,122.7 29.5,119.8 29.5,147 22.4,146.6 			"/>
			<path class="st1" d="M29.5,148.5C29.5,148.5,29.4,148.5,29.5,148.5l-7.2-0.4c-0.5,0-1-0.3-1.2-0.8s-0.2-1,0.1-1.5l0.5-0.8
				l3.8-18.3l-1.6-3.3c-0.3-0.7-0.1-1.5,0.5-1.9l4.4-2.9c0.5-0.3,1.1-0.3,1.5-0.1c0.5,0.3,0.8,0.8,0.8,1.3V147
				c0,0.4-0.2,0.8-0.5,1.1C30.3,148.4,29.9,148.5,29.5,148.5z M24.6,145.2l3.4,0.2V129L24.6,145.2z M27,123.2l1,1.9v-2.5L27,123.2z"
				/>
		</g>
		<g>
			<polygon class="st1" points="34.8,145.6 30.8,126.5 32.8,122.7 28.5,119.8 28.5,147 35.5,146.6 			"/>
			<path class="st1" d="M28.5,148.5c-0.4,0-0.8-0.1-1-0.4c-0.3-0.3-0.5-0.7-0.5-1.1v-27.2c0-0.6,0.3-1.1,0.8-1.3
				c0.5-0.3,1.1-0.2,1.5,0.1l4.3,2.9c0.6,0.4,0.8,1.3,0.5,1.9l-1.8,3.3l3.8,18.2l0.6,0.8c0.3,0.4,0.4,1,0.1,1.5
				c-0.2,0.5-0.7,0.8-1.3,0.9L28.5,148.5C28.6,148.5,28.5,148.5,28.5,148.5z M30,130.1v15.3l3.2-0.2L30,130.1z M30,122.6v2.1
				l0.8-1.5L30,122.6z"/>
		</g>
	</g>
	<g>
		<g>
			<polygon class="st2" points="29,121.1 16.8,108.9 11.7,114.4 20.9,127.5 			"/>
			<path class="st1" d="M20.9,129c-0.1,0-0.1,0-0.2,0c-0.4-0.1-0.8-0.3-1-0.6l-9.2-13.1c-0.4-0.6-0.4-1.4,0.1-1.9l5.2-5.5
				c0.3-0.3,0.7-0.5,1.1-0.5c0.4,0,0.8,0.2,1.1,0.4L30.1,120c0.3,0.3,0.5,0.7,0.4,1.1c0,0.4-0.2,0.8-0.6,1.1l-8.1,6.4
				C21.6,128.9,21.2,129,20.9,129z M13.6,114.5l7.6,10.8l5.6-4.4l-9.9-9.9L13.6,114.5z"/>
		</g>
		<g>
			<polygon class="st2" points="29.6,121.1 41.7,108.9 46.9,114.4 37.7,127.5 			"/>
			<path class="st1" d="M37.7,129c-0.3,0-0.7-0.1-0.9-0.3l-8.1-6.4c-0.3-0.3-0.5-0.7-0.6-1.1c0-0.4,0.1-0.8,0.4-1.1l12.1-12.2
				c0.3-0.3,0.6-0.4,1.1-0.4c0.4,0,0.8,0.2,1.1,0.5l5.2,5.5c0.5,0.5,0.6,1.3,0.1,1.9l-9.2,13.1c-0.2,0.3-0.6,0.6-1,0.6
				C37.8,129,37.7,129,37.7,129z M31.8,121l5.5,4.4l7.7-10.9l-3.3-3.5L31.8,121z"/>
		</g>
	</g>
	<g>
		<rect x="-29.5" y="145.5" class="st4" width="117" height="16"/>
		<path class="st1" d="M87.5,163h-117c-0.8,0-1.5-0.7-1.5-1.5v-16c0-0.8,0.7-1.5,1.5-1.5h117c0.8,0,1.5,0.7,1.5,1.5v16
			C89,162.3,88.3,163,87.5,163z M-28,160H86v-13H-28V160z"/>
	</g>
	<g>
		<rect x="47" y="136" class="st4" width="12" height="2"/>
	</g>
	<g>
		<polyline class="st2" points="70.1,104.7 79.5,114 79.5,145 		"/>
		<path class="st1" d="M79.5,146.5c-0.8,0-1.5-0.7-1.5-1.5v-30.4l-8.9-8.8c-0.6-0.6-0.6-1.5,0-2.1s1.5-0.6,2.1,0l9.4,9.3
			c0.3,0.3,0.4,0.7,0.4,1.1v31C81,145.8,80.3,146.5,79.5,146.5z"/>
	</g>
	<g>
		<g>
			<path class="st4" d="M75.5,101.3c0,4.4-4.1,8-9,8l0,0c-4.9,0-9-3.6-9-8V86.6c0-4.4,4.1-8,9-8l0,0c4.9,0,9,3.5,9,8V101.3z"/>
			<path class="st1" d="M66.5,110.7c-5.8,0-10.5-4.2-10.5-9.5V86.6c0-5.2,4.7-9.5,10.5-9.5S77,81.3,77,86.6v14.7
				C77,106.5,72.3,110.7,66.5,110.7z M66.5,80.1c-4.1,0-7.5,3-7.5,6.5v14.7c0,3.5,3.4,6.5,7.5,6.5s7.5-3,7.5-6.5V86.6
				C74,83.1,70.6,80.1,66.5,80.1z"/>
		</g>
		<g>
			<g>
				<path class="st1" d="M67.6,87.5c0,1-0.8,1.5-1.8,1.5h-5c-1,0-1.8-0.5-1.8-1.5l0,0c0-1,0.8-1.5,1.8-1.5h5
					C66.8,86,67.6,86.5,67.6,87.5L67.6,87.5z"/>
			</g>
			<g>
				<path class="st1" d="M67.6,94c0,1-0.8,2-1.8,2h-5c-1,0-1.8-1-1.8-2l0,0c0-1,0.8-2,1.8-2h5C66.8,92,67.6,93,67.6,94L67.6,94z"/>
			</g>
			<g>
				<path class="st1" d="M67.6,100c0,1-0.8,2-1.8,2h-5c-1,0-1.8-1-1.8-2l0,0c0-1,0.8-2,1.8-2h5C66.8,98,67.6,99,67.6,100L67.6,100z"
					/>
			</g>
		</g>
	</g>
</g>
</svg>
