<?xml version="1.0" encoding="utf-8"?>
<!-- Generator: Adobe Illustrator 19.0.0, SVG Export Plug-In . SVG Version: 6.00 Build 0)  -->
<svg version="1.1" id="Layer_1" xmlns="http://www.w3.org/2000/svg" xmlns:xlink="http://www.w3.org/1999/xlink" x="0px" y="0px"
	 viewBox="-35 37 128 128" style="enable-background:new -35 37 128 128;" xml:space="preserve">
<style type="text/css">
	.st0{fill:#526972;}
	.st1{fill:#DBDBDB;}
	.st2{fill:#FFFFFF;}
	.st3{fill:none;}
	.st4{fill:#37474F;}
	.st5{fill:#B0BEC5;}
	.st6{fill:#FFAB00;}
</style>
<g>
	<g>
		<g>
			<polygon class="st0" points="8.5,159.7 -32.5,146.4 -32.5,57.2 8.5,70.6 			"/>
			<path class="st1" d="M8.5,161.2c-0.2,0-0.3,0-0.5-0.1l-41-13.3c-0.6-0.2-1-0.8-1-1.4V57.2c0-0.5,0.2-0.9,0.6-1.2
				c0.4-0.3,0.9-0.4,1.4-0.2L9,69.2c0.6,0.2,1,0.8,1,1.4v89.1c0,0.5-0.2,0.9-0.6,1.2C9.1,161.1,8.8,161.2,8.5,161.2z M-31,145.3
				l38,12.4v-86l-38-12.4V145.3z"/>
		</g>
		<g>
			<polygon class="st2" points="90.5,159.7 50.5,146.4 50.5,57.2 90.5,70.6 			"/>
			<path class="st1" d="M90.5,161.2c-0.2,0-0.3,0-0.5-0.1l-40-13.4c-0.6-0.2-1-0.8-1-1.4V57.2c0-0.5,0.2-0.9,0.6-1.2
				c0.4-0.3,0.9-0.4,1.4-0.2l40,13.4c0.6,0.2,1,0.8,1,1.4v89.1c0,0.5-0.2,0.9-0.6,1.2C91.1,161.1,90.8,161.2,90.5,161.2z M52,145.3
				l37,12.4v-86L52,59.3V145.3z"/>
		</g>
		<g>
			<g>
				<line class="st3" x1="61.1" y1="79.2" x2="79.8" y2="85.4"/>
				<path class="st4" d="M79.8,86.9c-0.2,0-0.3,0-0.5-0.1l-18.7-6.1c-0.8-0.3-1.2-1.1-1-1.9c0.3-0.8,1.1-1.2,1.9-1l18.7,6.1
					c0.8,0.3,1.2,1.1,1,1.9C81,86.5,80.4,86.9,79.8,86.9z"/>
			</g>
			<g>
				<line class="st3" x1="61.1" y1="92.3" x2="79.8" y2="98.5"/>
				<path class="st4" d="M79.8,100c-0.2,0-0.3,0-0.5-0.1l-18.7-6.2c-0.8-0.3-1.2-1.1-1-1.9c0.3-0.8,1.1-1.2,1.9-1L80.2,97
					c0.8,0.3,1.2,1.1,1,1.9C81,99.6,80.4,100,79.8,100z"/>
			</g>
			<g>
				<line class="st3" x1="61.1" y1="105.4" x2="79.8" y2="111.5"/>
				<path class="st4" d="M79.8,113c-0.2,0-0.3,0-0.5-0.1l-18.7-6.2c-0.8-0.3-1.2-1.1-1-1.9c0.3-0.8,1.1-1.2,1.9-1l18.7,6.2
					c0.8,0.3,1.2,1.1,1,1.9C81,112.6,80.4,113,79.8,113z"/>
			</g>
			<g>
				<line class="st3" x1="61.1" y1="118.5" x2="79.8" y2="124.6"/>
				<path class="st4" d="M79.8,126.1c-0.2,0-0.3,0-0.5-0.1l-18.7-6.1c-0.8-0.3-1.2-1.1-1-1.9c0.3-0.8,1.1-1.2,1.9-1l18.7,6.1
					c0.8,0.3,1.2,1.1,1,1.9C81,125.7,80.4,126.1,79.8,126.1z"/>
			</g>
			<g>
				<line class="st3" x1="61.1" y1="131.6" x2="79.8" y2="137.7"/>
				<path class="st4" d="M79.8,139.2c-0.2,0-0.3,0-0.5-0.1L60.6,133c-0.8-0.3-1.2-1.1-1-1.9c0.3-0.8,1.1-1.2,1.9-1l18.7,6.2
					c0.8,0.3,1.2,1.1,1,1.9C81,138.8,80.4,139.2,79.8,139.2z"/>
			</g>
		</g>
		<g>
			<polygon class="st5" points="8.5,159.7 49.5,146.4 49.5,57.2 8.5,70.6 			"/>
			<path class="st1" d="M8.5,161.2c-0.3,0-0.6-0.1-0.9-0.3c-0.4-0.3-0.6-0.7-0.6-1.2V70.6c0-0.6,0.4-1.2,1-1.4l41-13.4
				c0.5-0.2,1-0.1,1.3,0.2c0.4,0.3,0.6,0.7,0.6,1.2v89.2c0,0.6-0.4,1.2-1,1.4l-41,13.4C8.8,161.2,8.7,161.2,8.5,161.2z M10,71.7v86
				l38-12.4v-86L10,71.7z"/>
		</g>
	</g>
	<g>
		<g>
			<path class="st6" d="M46.3,75.6c2.5-3.5,4-7.7,4-12.3c0-11.6-9.4-21.1-21.1-21.1s-21,9.4-21,21.1c0,4.6,1.5,8.8,4,12.3L29.3,105
				L46.3,75.6z"/>
			<path class="st4" d="M29.2,106.6L29.2,106.6c-0.5,0-1-0.3-1.3-0.7l-17-29.4c-2.8-3.9-4.2-8.4-4.2-13.1
				c0-12.4,10.1-22.6,22.5-22.6s22.6,10.1,22.6,22.6c0,4.7-1.5,9.2-4.2,13.1l-17,29.4C30.2,106.3,29.8,106.6,29.2,106.6z M29.2,43.8
				c-10.8,0-19.5,8.8-19.5,19.6c0,4.1,1.3,8,3.7,11.4l0.1,0.1l15.8,27.2L45,74.9l0.1-0.1c2.4-3.4,3.7-7.3,3.7-11.4
				C48.8,52.6,40,43.8,29.2,43.8z"/>
		</g>
		<g>
			<path class="st4" d="M38.2,63.3c0,5-4,9-9,9c-4.9,0-8.9-4-8.9-9c0-4.9,4-8.9,8.9-8.9C34.2,54.4,38.2,58.4,38.2,63.3z"/>
			<path class="st4" d="M29.2,73.8c-5.8,0-10.4-4.7-10.4-10.5c0-5.7,4.7-10.4,10.4-10.4c5.8,0,10.5,4.7,10.5,10.4
				C39.7,69.1,35,73.8,29.2,73.8z M29.2,55.9c-4.1,0-7.4,3.3-7.4,7.4s3.3,7.5,7.4,7.5s7.5-3.3,7.5-7.5
				C36.7,59.2,33.3,55.9,29.2,55.9z"/>
		</g>
	</g>
	<g>
		<g>
			<path class="st4" d="M29.2,136.6c0.9,0,1.7,0.8,1.7,1.7c0,0.9-0.7,1.7-1.7,1.7c-0.9,0-1.6-0.8-1.6-1.7
				C27.6,137.3,28.3,136.6,29.2,136.6z"/>
			<path class="st4" d="M29.2,140.4c-1.2,0-2.1-1-2.1-2.2c0-0.6,0.2-1.1,0.6-1.5c0.4-0.4,1-0.7,1.5-0.7c1.2,0,2.2,1,2.2,2.2
				C31.4,139.5,30.4,140.4,29.2,140.4z M29.2,137.1c-0.3,0-0.6,0.1-0.8,0.4c-0.2,0.2-0.3,0.5-0.3,0.8c0,0.7,0.5,1.2,1.1,1.2
				c0.7,0,1.2-0.5,1.2-1.2C30.4,137.6,29.9,137.1,29.2,137.1z"/>
		</g>
		<g>
			<path class="st4" d="M29.2,125c0.9,0,1.7,0.7,1.7,1.6s-0.7,1.7-1.7,1.7c-0.9,0-1.7-0.8-1.7-1.7C27.6,125.7,28.3,125,29.2,125z"/>
			<path class="st4" d="M29.2,128.8L29.2,128.8c-1.2,0-2.2-1-2.2-2.2s1-2.1,2.2-2.1c1.2,0,2.2,0.9,2.2,2.1
				C31.4,127.8,30.5,128.8,29.2,128.8L29.2,128.8z M29.2,125.5c-0.6,0-1.1,0.5-1.2,1.1c0,0.6,0.5,1.2,1.2,1.2c0.7,0,1.2-0.5,1.2-1.2
				C30.4,126,29.9,125.5,29.2,125.5z"/>
		</g>
		<g>
			<path class="st4" d="M29.2,113.3c0.9,0,1.7,0.8,1.7,1.7s-0.7,1.7-1.7,1.7c-0.9,0-1.7-0.8-1.6-1.7
				C27.6,114.1,28.3,113.3,29.2,113.3z"/>
			<path class="st4" d="M29.2,117.2c-0.6,0-1.1-0.2-1.5-0.7c-0.4-0.4-0.6-1-0.6-1.5s0.2-1.1,0.6-1.5c0.4-0.4,1-0.7,1.5-0.7
				c1.2,0,2.2,1,2.2,2.2C31.4,116.2,30.4,117.2,29.2,117.2z M29.2,113.8c-0.3,0-0.6,0.1-0.8,0.4c-0.2,0.2-0.3,0.5-0.3,0.8
				s0.1,0.6,0.3,0.8c0.2,0.2,0.5,0.4,0.8,0.4c0.6,0,1.2-0.5,1.2-1.2C30.4,114.4,29.9,113.8,29.2,113.8z"/>
		</g>
	</g>
</g>
</svg>
