<?xml version="1.0" encoding="utf-8"?>
<!-- Generator: Adobe Illustrator 19.0.0, SVG Export Plug-In . SVG Version: 6.00 Build 0)  -->
<svg version="1.1" id="Layer_1" xmlns="http://www.w3.org/2000/svg" xmlns:xlink="http://www.w3.org/1999/xlink" x="0px" y="0px"
	 viewBox="-35 36 129 129" style="enable-background:new -35 36 129 129;" xml:space="preserve">
<style type="text/css">
	.st0{fill:#FFAB00;}
	.st1{fill:#37474F;}
	.st2{fill:#FFFFFF;}
	.st3{fill:#B0BEC5;}
	.st4{fill:#FFECB3;}
</style>
<g>
	<g>
		<g>
			<path class="st0" d="M60.4,101.1c0,16.9-13.8,30.7-30.7,30.7S-1,118.1-1,101.1c0-16.9,13.7-30.6,30.7-30.6
				C46.7,70.5,60.4,84.2,60.4,101.1z"/>
		</g>
		<g>
			<path class="st1" d="M29.7,133.3c-17.7,0-32.2-14.4-32.2-32.2C-2.4,83.4,12,69,29.7,69s32.2,14.4,32.2,32.1
				C61.9,118.9,47.5,133.3,29.7,133.3z M29.7,72C13.6,72,0.5,85,0.5,101.1s13.1,29.2,29.2,29.2s29.2-13.1,29.2-29.2
				C58.9,85.1,45.8,72,29.7,72z"/>
		</g>
	</g>
	<g>
		<g>
			<path class="st2" d="M47.7,101.1c0,9.9-8.1,18-18,18s-18-8.1-18-18s8.1-17.9,18-17.9S47.7,91.2,47.7,101.1z"/>
		</g>
		<g>
			<path class="st1" d="M29.7,120.6c-10.7,0-19.5-8.7-19.5-19.5c0-10.7,8.7-19.4,19.5-19.4s19.5,8.7,19.5,19.4
				C49.2,111.9,40.5,120.6,29.7,120.6z M29.7,84.7c-9.1,0-16.5,7.4-16.5,16.4c0,9.1,7.4,16.5,16.5,16.5s16.5-7.4,16.5-16.5
				C46.2,92.1,38.8,84.7,29.7,84.7z"/>
		</g>
	</g>
	<g>
		<g>
			<g>
				<g>
					<path class="st0" d="M28.7,44c31,0,56.1,25.1,56.1,56.1"/>
				</g>
				<g>
					<path class="st1" d="M84.8,101.6c-0.8,0-1.5-0.7-1.5-1.5c0-30.1-24.5-54.6-54.6-54.6c-0.8,0-1.5-0.7-1.5-1.5s0.7-1.5,1.5-1.5
						c31.8,0,57.6,25.8,57.6,57.6C86.3,100.9,85.6,101.6,84.8,101.6z"/>
				</g>
			</g>
			<g>
				<g>
					<polygon class="st2" points="78.4,99 85.2,108.8 91.9,99 					"/>
				</g>
				<g>
					<path class="st1" d="M85.2,110.3c-0.5,0-1-0.2-1.2-0.6l-6.8-9.8c-0.3-0.5-0.4-1.1-0.1-1.5c0.3-0.5,0.8-0.8,1.3-0.8h13.5
						c0.6,0,1.1,0.3,1.3,0.8c0.3,0.5,0.2,1.1-0.1,1.5l-6.7,9.8C86.1,110,85.6,110.3,85.2,110.3L85.2,110.3z M81.3,100.5l3.9,5.6
						l3.9-5.6H81.3z"/>
				</g>
			</g>
		</g>
		<g>
			<g>
				<g>
					<path class="st3" d="M30.8,158.4c-31,0-56.1-25.1-56.1-56.1"/>
				</g>
				<g>
					<path class="st1" d="M30.8,159.9c-31.8,0-57.6-25.9-57.6-57.6h3c0,30.1,24.5,54.6,54.6,54.6C30.8,156.9,30.8,159.9,30.8,159.9z
						"/>
				</g>
			</g>
			<g>
				<g>
					<polygon class="st2" points="-18.9,103 -25.7,93.2 -32.4,103 					"/>
				</g>
				<g>
					<path class="st1" d="M-18.9,104.5h-13.5c-0.6,0-1.1-0.3-1.3-0.8c-0.3-0.5-0.3-1.1,0.1-1.6l6.7-9.8c0.3-0.4,0.7-0.6,1.2-0.6l0,0
						c0.5,0,1,0.2,1.2,0.6l6.8,9.8c0.3,0.5,0.4,1.1,0.1,1.5C-17.8,104.2-18.4,104.5-18.9,104.5z M-29.5,101.5h7.8l-3.9-5.6
						L-29.5,101.5z"/>
				</g>
			</g>
		</g>
	</g>
	<g>
		<g>
			<path class="st4" d="M38,101.1c0,4.6-3.7,8.3-8.3,8.3c-4.6,0-8.3-3.7-8.3-8.3c0-4.6,3.7-8.2,8.3-8.2C34.3,92.9,38,96.6,38,101.1z
				"/>
		</g>
		<g>
			<path class="st1" d="M29.7,110.9c-5.4,0-9.8-4.4-9.8-9.8s4.4-9.7,9.8-9.7s9.8,4.4,9.8,9.7C39.5,106.5,35.1,110.9,29.7,110.9z
				 M29.7,94.4c-3.7,0-6.8,3-6.8,6.7s3,6.8,6.8,6.8c3.7,0,6.8-3,6.8-6.8C36.5,97.4,33.5,94.4,29.7,94.4z"/>
		</g>
	</g>
	<g>
		<g>
			<g>
				<g>
					<path class="st2" d="M-12.3,73.7c0.7,0.7,0.7,1.8,0,2.4c-0.7,0.7-1.8,0.7-2.4,0c-0.7-0.7-0.7-1.8,0-2.5
						C-14.1,73-13,73-12.3,73.7z"/>
				</g>
				<g>
					<path class="st2" d="M-13.6,77.1c-0.6,0-1.1-0.2-1.5-0.6c-0.4-0.4-0.6-1-0.6-1.6s0.2-1.2,0.7-1.6c0.8-0.8,2.3-0.8,3.1,0
						c0.4,0.4,0.7,1,0.7,1.6s-0.2,1.1-0.6,1.5C-12.4,76.8-13,77.1-13.6,77.1z M-13.5,73.7c-0.3,0-0.6,0.1-0.8,0.3
						c-0.2,0.2-0.4,0.6-0.4,0.9c0,0.3,0.1,0.6,0.3,0.8c0.5,0.5,1.3,0.4,1.7,0c0.2-0.2,0.3-0.5,0.3-0.8s-0.1-0.6-0.4-0.9
						C-12.9,73.8-13.2,73.7-13.5,73.7z"/>
				</g>
			</g>
			<g>
				<g>
					<path class="st2" d="M-3.8,65.2c0.7,0.7,0.6,1.8,0,2.4c-0.7,0.7-1.8,0.7-2.4,0c-0.7-0.7-0.7-1.8,0-2.4
						C-5.6,64.5-4.5,64.5-3.8,65.2z"/>
				</g>
				<g>
					<path class="st2" d="M-5,68.6c-0.6,0-1.2-0.2-1.6-0.6c-0.4-0.4-0.6-1-0.6-1.6c0-0.6,0.2-1.1,0.6-1.6c0.8-0.8,2.3-0.8,3.2,0
						c0.8,0.8,0.8,2.3,0,3.1C-3.9,68.4-4.4,68.6-5,68.6z M-5,65.2c-0.3,0-0.7,0.1-0.9,0.4c-0.2,0.2-0.4,0.5-0.4,0.9
						c0,0.3,0.1,0.6,0.4,0.9c0.4,0.4,1.3,0.4,1.7,0c0.5-0.5,0.5-1.3,0-1.7C-4.4,65.3-4.7,65.2-5,65.2z"/>
				</g>
			</g>
			<g>
				<g>
					<path class="st2" d="M4.7,56.7c0.7,0.7,0.7,1.8,0,2.4c-0.7,0.7-1.8,0.7-2.4,0c-0.7-0.7-0.7-1.8,0-2.4C2.9,56,4,56,4.7,56.7z"/>
				</g>
				<g>
					<path class="st2" d="M3.4,60.1c-0.6,0-1.1-0.2-1.6-0.7c-0.4-0.4-0.6-1-0.6-1.6s0.2-1.2,0.7-1.6c0.8-0.8,2.3-0.8,3.1,0
						c0.8,0.9,0.9,2.3,0,3.1C4.6,59.9,4,60.1,3.4,60.1z M3.4,56.7c-0.3,0-0.6,0.1-0.8,0.3c-0.2,0.2-0.4,0.6-0.4,0.9
						c0,0.3,0.1,0.6,0.4,0.8c0.5,0.5,1.3,0.5,1.7,0c0.5-0.5,0.5-1.2,0-1.7C4.1,56.8,3.8,56.7,3.4,56.7z"/>
				</g>
			</g>
		</g>
		<g>
			<g>
				<g>
					<path class="st2" d="M57.2,143.2c0.7,0.7,0.7,1.8,0,2.4c-0.7,0.7-1.8,0.7-2.4,0c-0.7-0.7-0.7-1.8,0-2.4
						C55.5,142.6,56.6,142.6,57.2,143.2z"/>
				</g>
				<g>
					<path class="st2" d="M56,146.6c-0.6,0-1.1-0.2-1.5-0.6c-0.9-0.9-0.8-2.3,0-3.2c0.8-0.8,2.3-0.8,3.1,0c0.4,0.4,0.7,1,0.7,1.6
						c0,0.6-0.2,1.1-0.6,1.5C57.2,146.4,56.6,146.6,56,146.6z M56,143.2c-0.3,0-0.6,0.1-0.8,0.3c-0.5,0.5-0.5,1.3,0,1.7
						c0.4,0.4,1.3,0.4,1.7,0c0.2-0.2,0.3-0.5,0.3-0.8s-0.1-0.6-0.4-0.9C56.7,143.4,56.4,143.2,56,143.2z"/>
				</g>
			</g>
			<g>
				<g>
					<path class="st2" d="M65.8,134.7c0.7,0.7,0.6,1.8,0,2.4c-0.7,0.7-1.8,0.7-2.4,0c-0.7-0.7-0.7-1.8,0-2.4
						C64,134.1,65.1,134.1,65.8,134.7z"/>
				</g>
				<g>
					<path class="st2" d="M64.5,138.2c-0.6,0-1.2-0.2-1.6-0.6c-0.9-0.9-0.9-2.3,0-3.1c0.8-0.8,2.3-0.8,3.2,0c0.9,0.9,0.9,2.3,0,3.1
						C65.7,137.9,65.1,138.2,64.5,138.2z M64.6,134.7c-0.3,0-0.7,0.1-0.9,0.4c-0.5,0.5-0.5,1.3,0,1.7c0.5,0.5,1.3,0.5,1.7,0
						c0.5-0.5,0.5-1.3,0-1.7C65.2,134.9,64.9,134.7,64.6,134.7z"/>
				</g>
			</g>
			<g>
				<g>
					<path class="st2" d="M74.2,126.3c0.7,0.7,0.7,1.7,0,2.4c-0.7,0.7-1.8,0.7-2.4,0c-0.7-0.7-0.7-1.8,0-2.4
						C72.5,125.6,73.6,125.6,74.2,126.3z"/>
				</g>
				<g>
					<path class="st2" d="M73,129.7c-0.6,0-1.1-0.2-1.6-0.7c-0.4-0.4-0.6-1-0.6-1.5c0-0.6,0.2-1.2,0.7-1.6c0.8-0.8,2.3-0.8,3.1,0
						c0.9,0.9,0.9,2.2,0,3.1C74.2,129.4,73.6,129.7,73,129.7z M73,126.3c-0.3,0-0.6,0.1-0.8,0.3c-0.2,0.2-0.4,0.5-0.4,0.9
						c0,0.3,0.1,0.6,0.4,0.8c0.5,0.5,1.3,0.5,1.7,0c0.5-0.5,0.5-1.2,0-1.7C73.7,126.4,73.3,126.3,73,126.3z"/>
				</g>
			</g>
		</g>
	</g>
</g>
</svg>
