<?xml version="1.0" encoding="utf-8"?>
<!-- Generator: Adobe Illustrator 16.0.0, SVG Export Plug-In . SVG Version: 6.00 Build 0)  -->
<!DOCTYPE svg PUBLIC "-//W3C//DTD SVG 1.1//EN" "http://www.w3.org/Graphics/SVG/1.1/DTD/svg11.dtd">
<svg version="1.1" id="Layer_1" xmlns="http://www.w3.org/2000/svg" xmlns:xlink="http://www.w3.org/1999/xlink" x="0px" y="0px"
	 width="32px" height="32.5px" viewBox="0 0 32 32.5" enable-background="new 0 0 32 32.5" xml:space="preserve">
<g>
	<g>
		<g>
			<rect x="1.5" y="1.5" fill="#FFFFFF" width="20" height="26"/>
			<path fill="#37474F" d="M22,28H1V1h21V28z M2,27h19V2H2V27z"/>
		</g>
		<g>
			<rect x="6.5" y="2.5" fill="#FFFFFF" width="19" height="26"/>
			<path fill="#37474F" d="M26,29H6V2h20V29z M7,28h18V3H7V28z"/>
		</g>
		<g>
			<rect x="6.5" y="1.5" fill="#FFFFFF" width="19" height="26"/>
			<path fill="#37474F" d="M26,28H6V1h20V28z M7,27h18V2H7V27z"/>
		</g>
		<g>
			<rect x="6.5" y="1.5" fill="#FFFFFF" width="19" height="26"/>
			<path fill="#37474F" d="M26,28H6V1h20V28z M7,27h18V2H7V27z"/>
		</g>
		<g>
			<rect x="1.5" y="5.5" fill="#FFAB00" width="20" height="25"/>
			<path fill="#37474F" d="M21.5,31h-20C1.2,31,1,30.8,1,30.5v-25C1,5.2,1.2,5,1.5,5h20C21.8,5,22,5.2,22,5.5v25
				C22,30.8,21.8,31,21.5,31z M2,30h19V6H2V30z"/>
		</g>
		<g>
			<rect x="6.5" y="5.5" fill="#FFFFFF" width="19" height="25"/>
			<path fill="#37474F" d="M26,31H6V5h20V31z M7,30h18V6H7V30z"/>
		</g>
		<g>
			<circle fill="#FFECB3" cx="16" cy="18.3" r="5.4"/>
		</g>
		<g>
			<g>
				<path fill="#37474F" d="M13.8,10.2c0,0.2-0.2,0.4-0.4,0.4c-0.2,0-0.4-0.2-0.4-0.4c0-0.2,0.2-0.4,0.4-0.4
					C13.6,9.9,13.8,10,13.8,10.2z"/>
				<path fill="#37474F" d="M13.4,11.1c-0.5,0-0.9-0.4-0.9-0.9c0-0.5,0.4-0.9,0.9-0.9c0.5,0,0.9,0.4,0.9,0.9
					C14.3,10.7,13.9,11.1,13.4,11.1z"/>
			</g>
			<g>
				<path fill="#37474F" d="M16.4,10.2c0,0.2-0.2,0.4-0.4,0.4s-0.4-0.2-0.4-0.4c0-0.2,0.2-0.4,0.4-0.4S16.4,10,16.4,10.2z"/>
				<path fill="#37474F" d="M16,11.1c-0.5,0-0.9-0.4-0.9-0.9c0-0.5,0.4-0.9,0.9-0.9c0.5,0,0.9,0.4,0.9,0.9
					C16.9,10.7,16.5,11.1,16,11.1z"/>
			</g>
			<g>
				<path fill="#37474F" d="M19,10.2c0,0.2-0.2,0.4-0.4,0.4c-0.2,0-0.4-0.2-0.4-0.4c0-0.2,0.2-0.4,0.4-0.4C18.9,9.9,19,10,19,10.2z"
					/>
				<path fill="#37474F" d="M18.7,11.1c-0.5,0-0.9-0.4-0.9-0.9c0-0.5,0.4-0.9,0.9-0.9c0.5,0,0.9,0.4,0.9,0.9
					C19.5,10.7,19.1,11.1,18.7,11.1z"/>
			</g>
		</g>
	</g>
	<g>
		<g>
			<path fill="#37474F" d="M18.4,26.4c-0.4,0.4-1,0.4-1.4,0l0,0c-0.4-0.4-0.4-1,0-1.4l11.8-11.8c0.4-0.4,1-0.4,1.4,0l0,0
				c0.4,0.4,0.4,1,0,1.4L18.4,26.4z"/>
			<path fill="#37474F" d="M17.7,27.2c-0.4,0-0.8-0.2-1-0.4c-0.6-0.6-0.6-1.5,0-2.1l11.8-11.8c0.6-0.6,1.5-0.6,2.1,0
				c0.3,0.3,0.4,0.6,0.4,1c0,0.4-0.2,0.8-0.4,1L18.8,26.8C18.5,27.1,18.1,27.2,17.7,27.2z M29.6,13.5c-0.1,0-0.2,0-0.3,0.1
				L17.4,25.4c-0.2,0.2-0.2,0.5,0,0.7c0.2,0.2,0.5,0.2,0.7,0l11.8-11.8c0.1-0.1,0.1-0.2,0.1-0.3c0-0.1,0-0.2-0.1-0.3
				S29.7,13.5,29.6,13.5z"/>
		</g>
		<g>
			<path fill="#78909C" d="M15.6,29.3c-0.4,0.4-1,0.4-1.4,0l0,0c-0.4-0.4-0.4-1,0-1.4L26,16.1c0.4-0.4,1-0.4,1.4,0l0,0
				c0.4,0.4,0.4,1,0,1.4L15.6,29.3z"/>
			<path fill="#37474F" d="M14.9,30.1c-0.4,0-0.8-0.2-1-0.4c-0.6-0.6-0.6-1.5,0-2.1l11.8-11.8c0.6-0.6,1.5-0.6,2.1,0
				c0.3,0.3,0.4,0.6,0.4,1s-0.2,0.8-0.4,1L15.9,29.6C15.7,29.9,15.3,30.1,14.9,30.1z M26.7,16.3c-0.1,0-0.2,0-0.3,0.1L14.6,28.3
				c-0.2,0.2-0.2,0.5,0,0.7c0.2,0.2,0.5,0.2,0.7,0L27,17.1c0.1-0.1,0.1-0.2,0.1-0.3c0-0.1,0-0.2-0.1-0.3
				C27,16.4,26.8,16.3,26.7,16.3z"/>
		</g>
		<g>
			<polygon fill="#FFAB00" points="13.9,28.5 11.9,31.6 14.9,29.6 			"/>
			<path fill="#37474F" d="M11.9,32.1c-0.1,0-0.3,0-0.4-0.1c-0.2-0.2-0.2-0.4-0.1-0.6l2-3c0.1-0.1,0.2-0.2,0.4-0.2
				c0.1,0,0.3,0,0.4,0.1l1.1,1.1c0.1,0.1,0.2,0.3,0.1,0.4c0,0.1-0.1,0.3-0.2,0.4l-3,2C12.1,32,12,32.1,11.9,32.1z M13.9,29.3
				l-0.4,0.6l0.6-0.4L13.9,29.3z"/>
		</g>
		<g>
			<path fill="#37474F" d="M20.4,19.6c-0.1,0-0.3,0-0.4-0.1c-0.2-0.2-0.2-0.5,0-0.7l3.2-3.2c0.1-0.1,0.3-0.2,0.4-0.1l2.1,0.4
				c0.3,0,0.5,0.3,0.4,0.6c0,0.3-0.3,0.5-0.6,0.4l-1.8-0.3l-3,3C20.7,19.6,20.6,19.6,20.4,19.6z"/>
		</g>
	</g>
</g>
</svg>
