<?xml version="1.0" encoding="utf-8"?>
<!-- Generator: Adobe Illustrator 16.0.0, SVG Export Plug-In . SVG Version: 6.00 Build 0)  -->
<!DOCTYPE svg PUBLIC "-//W3C//DTD SVG 1.1//EN" "http://www.w3.org/Graphics/SVG/1.1/DTD/svg11.dtd">
<svg version="1.1" id="Layer_1" xmlns="http://www.w3.org/2000/svg" xmlns:xlink="http://www.w3.org/1999/xlink" x="0px" y="0px"
	 width="32px" height="32px" viewBox="0 0 32 32" enable-background="new 0 0 32 32" xml:space="preserve">
<g>
	<g>
		<g>
			<g>
				<g>
					<path fill="#FFFFFF" d="M26.2,3.4H10.7c-1.4,0-2.2,1.3-2.2,2.7v5.1l0,0v13.6H3.6v1.6c0,1.4,0.8,2.3,2.2,2.3h15.5
						c1.3,0,2.7-0.9,2.7-2.3v-5.5l0,0V8.2h4.9V6.1C28.9,4.7,27.6,3.4,26.2,3.4z"/>
					<path fill="#37474F" d="M21.3,29.1H5.8c-1.6,0-2.7-1.1-2.7-2.8v-1.6c0-0.3,0.2-0.5,0.5-0.5H8V6.1c0-1.6,1-3.2,2.7-3.2h15.5
						c1.6,0,3.2,1.6,3.2,3.2v2.2c0,0.3-0.2,0.5-0.5,0.5h-4.4v17.6C24.5,28.1,22.9,29.1,21.3,29.1z M4.1,25.2v1.1
						c0,1.1,0.6,1.8,1.7,1.8h15.5c1.1,0,2.2-0.7,2.2-1.8V8.2c0-0.3,0.2-0.5,0.5-0.5h4.4V6.1c0-1.1-1.1-2.2-2.2-2.2H10.7
						C9.6,3.9,9,5,9,6.1v18.7c0,0.3-0.2,0.5-0.5,0.5H4.1z"/>
				</g>
				<g>
					<path fill="#B0BEC5" d="M28.9,11.1V6.5c0-1.4-1-2.6-2.4-2.6C25,3.9,24,5.1,24,6.5v4.7H28.9z"/>
					<path fill="#37474F" d="M28.9,11.6H24c-0.3,0-0.5-0.2-0.5-0.5V6.5c0-1.8,1.3-3.1,2.9-3.1c1.7,0,2.9,1.3,2.9,3.1v4.7
						C29.4,11.4,29.1,11.6,28.9,11.6z M24.5,10.6h3.9V6.5c0-1.2-0.8-2.1-1.9-2.1c-1.1,0-1.9,0.9-1.9,2.1V10.6z"/>
				</g>
			</g>
			<g>
				<path fill="#78909C" d="M2.7,21.8v4.1c0,1.4,1.5,2.6,2.9,2.6c1.4,0,2.9-1.2,2.9-2.6v-4.1H2.7z"/>
				<path fill="#37474F" d="M5.6,29c-1.6,0-3.4-1.3-3.4-3.1v-4.1c0-0.3,0.2-0.5,0.5-0.5h5.8c0.3,0,0.5,0.2,0.5,0.5v4.1
					C9,27.7,7.2,29,5.6,29z M3.2,22.3v3.6c0,1.2,1.3,2.1,2.4,2.1C6.7,28,8,27.1,8,25.9v-3.6H3.2z"/>
			</g>
		</g>
		<g>
			<g>
				<rect x="10.4" y="11.1" fill="#FFAB00" width="3.9" height="2.9"/>
				<path fill="#37474F" d="M14.3,14.6h-3.9c-0.3,0-0.5-0.2-0.5-0.5v-2.9c0-0.3,0.2-0.5,0.5-0.5h3.9c0.3,0,0.5,0.2,0.5,0.5v2.9
					C14.8,14.3,14.6,14.6,14.3,14.6z M10.9,13.6h2.9v-1.9h-2.9V13.6z"/>
			</g>
			<g>
				<g>
					<line fill="#FFAB00" x1="15.8" y1="11.1" x2="22.6" y2="11.1"/>
					<path fill="#37474F" d="M22.6,11.6h-6.8c-0.3,0-0.5-0.2-0.5-0.5s0.2-0.5,0.5-0.5h6.8c0.3,0,0.5,0.2,0.5,0.5
						S22.8,11.6,22.6,11.6z"/>
				</g>
				<g>
					<line fill="#FFAB00" x1="15.8" y1="14.1" x2="22.6" y2="14.1"/>
					<path fill="#37474F" d="M22.6,14.6h-6.8c-0.3,0-0.5-0.2-0.5-0.5s0.2-0.5,0.5-0.5h6.8c0.3,0,0.5,0.2,0.5,0.5
						S22.8,14.6,22.6,14.6z"/>
				</g>
			</g>
			<g>
				<line fill="#FFAB00" x1="9.9" y1="17.9" x2="22.6" y2="17.9"/>
				<path fill="#37474F" d="M22.6,18.4H9.9c-0.3,0-0.5-0.2-0.5-0.5s0.2-0.5,0.5-0.5h12.6c0.3,0,0.5,0.2,0.5,0.5S22.8,18.4,22.6,18.4
					z"/>
			</g>
			<g>
				<line fill="#FFAB00" x1="9.9" y1="20.9" x2="22.6" y2="20.9"/>
				<path fill="#37474F" d="M22.6,21.4H9.9c-0.3,0-0.5-0.2-0.5-0.5s0.2-0.5,0.5-0.5h12.6c0.3,0,0.5,0.2,0.5,0.5S22.8,21.4,22.6,21.4
					z"/>
			</g>
			<g>
				<line fill="#FFAB00" x1="9.9" y1="24.7" x2="22.6" y2="24.7"/>
				<path fill="#37474F" d="M22.6,25.2H9.9c-0.3,0-0.5-0.2-0.5-0.5s0.2-0.5,0.5-0.5h12.6c0.3,0,0.5,0.2,0.5,0.5S22.8,25.2,22.6,25.2
					z"/>
			</g>
		</g>
		<g>
			<g>
				<g>
					<path fill="#37474F" d="M14.2,6.9c0,0.2-0.1,0.3-0.3,0.3c-0.2,0-0.3-0.1-0.3-0.3c0-0.2,0.1-0.3,0.3-0.3
						C14.1,6.5,14.2,6.7,14.2,6.9z"/>
					<path fill="#37474F" d="M13.9,7.7c-0.5,0-0.8-0.4-0.8-0.8c0-0.2,0.1-0.4,0.2-0.6c0.3-0.3,0.9-0.3,1.2,0
						c0.2,0.2,0.2,0.4,0.2,0.6c0,0.2-0.1,0.4-0.2,0.6C14.4,7.6,14.1,7.7,13.9,7.7z M13.9,6.7c-0.1,0-0.1,0-0.1,0.1
						c0,0-0.1,0.1-0.1,0.1c0,0,0,0.1,0,0.1C13.9,7,14,7.1,14.1,7c0,0,0.1-0.1,0.1-0.1C14.1,6.8,14,6.7,13.9,6.7z"/>
				</g>
				<g>
					<path fill="#37474F" d="M16.5,6.9c0,0.2-0.1,0.3-0.3,0.3c-0.2,0-0.3-0.1-0.3-0.3c0-0.2,0.1-0.3,0.3-0.3
						C16.3,6.5,16.5,6.7,16.5,6.9z"/>
					<path fill="#37474F" d="M16.2,7.7c-0.5,0-0.8-0.4-0.8-0.8c0-0.4,0.4-0.8,0.8-0.8c0.5,0,0.8,0.4,0.8,0.8
						C17,7.3,16.6,7.7,16.2,7.7z M16.2,6.7c-0.1,0-0.2,0.1-0.2,0.2C16,7,16,7,16.1,7c0.1,0,0.2-0.1,0.2-0.2
						C16.3,6.8,16.3,6.7,16.2,6.7z"/>
				</g>
				<g>
					<path fill="#37474F" d="M18.7,6.9c0,0.2-0.1,0.3-0.3,0.3c-0.2,0-0.3-0.1-0.3-0.3c0-0.2,0.1-0.3,0.3-0.3
						C18.6,6.5,18.7,6.7,18.7,6.9z"/>
					<path fill="#37474F" d="M18.4,7.7c-0.2,0-0.4-0.1-0.6-0.2c-0.2-0.2-0.2-0.4-0.2-0.6c0-0.4,0.4-0.8,0.8-0.8
						c0.5,0,0.8,0.4,0.8,0.8c0,0.2-0.1,0.4-0.2,0.5C18.8,7.6,18.6,7.7,18.4,7.7z M18.4,6.7c-0.1,0-0.1,0-0.1,0.1
						c0,0-0.1,0.1-0.1,0.1c0,0,0.1,0.1,0.2,0.2c0,0,0,0,0,0c0.1,0,0.2-0.1,0.2-0.2c0,0,0-0.1-0.1-0.1C18.5,6.7,18.4,6.7,18.4,6.7z"
						/>
				</g>
			</g>
		</g>
	</g>
	<g>
		<g>
			<g>
				<rect x="24" y="6.3" fill="#FFAB00" width="5.8" height="1.9"/>
				<path fill="#37474F" d="M29.8,8.7H24c-0.3,0-0.5-0.2-0.5-0.5V6.3c0-0.3,0.2-0.5,0.5-0.5h5.8c0.3,0,0.5,0.2,0.5,0.5v1.9
					C30.3,8.5,30.1,8.7,29.8,8.7z M24.5,7.7h4.8V6.8h-4.8V7.7z"/>
			</g>
			<g>
				<path fill="#FFECB3" d="M31.3,7.5c0,0.9-0.8,1.7-1.8,1.7c-1,0-1.8-0.7-1.8-1.7c0-0.9,0.8-1.7,1.8-1.7
					C30.5,5.9,31.3,6.6,31.3,7.5z"/>
				<path fill="#37474F" d="M29.5,9.6c-1.2,0-2.2-0.9-2.2-2.1c0-1.1,1-2.1,2.2-2.1s2.2,0.9,2.2,2.1C31.7,8.7,30.7,9.6,29.5,9.6z
					 M29.5,6.3c-0.7,0-1.3,0.5-1.3,1.2c0,0.7,0.6,1.2,1.3,1.2s1.3-0.6,1.3-1.2C30.8,6.9,30.2,6.3,29.5,6.3z"/>
			</g>
		</g>
		<g>
			<g>
				<rect x="2.7" y="23.8" fill="#FFAB00" width="5.8" height="1.9"/>
				<path fill="#37474F" d="M8.5,26.2H2.7c-0.3,0-0.5-0.2-0.5-0.5v-1.9c0-0.3,0.2-0.5,0.5-0.5h5.8c0.3,0,0.5,0.2,0.5,0.5v1.9
					C9,26,8.8,26.2,8.5,26.2z M3.2,25.2H8v-0.9H3.2V25.2z"/>
			</g>
			<g>
				<path fill="#FFECB3" d="M0.7,24.9c0-0.9,0.8-1.7,1.8-1.7c1,0,1.8,0.7,1.8,1.7c0,0.9-0.8,1.7-1.8,1.7C1.5,26.5,0.7,25.8,0.7,24.9
					z"/>
				<path fill="#37474F" d="M2.5,27c-1.2,0-2.2-0.9-2.2-2.1c0-1.1,1-2.1,2.2-2.1s2.2,0.9,2.2,2.1C4.7,26,3.7,27,2.5,27z M2.5,23.7
					c-0.7,0-1.3,0.6-1.3,1.2c0,0.7,0.6,1.2,1.3,1.2s1.3-0.5,1.3-1.2C3.8,24.2,3.2,23.7,2.5,23.7z"/>
			</g>
		</g>
	</g>
</g>
</svg>
