<?xml version="1.0" encoding="utf-8"?>
<!-- Generator: Adobe Illustrator 16.0.0, SVG Export Plug-In . SVG Version: 6.00 Build 0)  -->
<!DOCTYPE svg PUBLIC "-//W3C//DTD SVG 1.1//EN" "http://www.w3.org/Graphics/SVG/1.1/DTD/svg11.dtd">
<svg version="1.1" id="Layer_1" xmlns="http://www.w3.org/2000/svg" xmlns:xlink="http://www.w3.org/1999/xlink" x="0px" y="0px"
	 width="32px" height="32px" viewBox="0 0 32 32" enable-background="new 0 0 32 32" xml:space="preserve">
<g>
	<g>
		<polygon fill="#78909C" points="9.7,13.5 22.1,13.5 17.4,21.5 14.3,21.5 		"/>
		<path fill="#37474F" d="M17.7,22h-3.6l-5.2-9h14.1L17.7,22z M14.6,21h2.5l4.1-7H10.6L14.6,21z"/>
	</g>
	<g>
		<g>
			<path fill="#FFAB00" d="M10.6,6.1c0-2-1.7-3.6-3.8-3.6c-2.1,0-4,1.6-4,3.6c0,0.2-0.2,0.3-0.2,0.5v8.5c0,1.2,1.3,2.4,2.7,2.4h3.2
				c1.3,0,2.2-1.1,2.2-2.4V6.6C10.5,6.5,10.6,6.3,10.6,6.1z"/>
			<path fill="#37474F" d="M8.4,18H5.2C3.5,18,2,16.6,2,15.1V6.6c0-0.2,0.1-0.4,0.2-0.5c0.1-2.2,2.1-4,4.5-4c2.4,0,4.3,1.8,4.3,4
				c0,0.2,0,0.3,0,0.4c0,0,0,0.1,0,0.1v8.5C11,16.7,9.9,18,8.4,18z M6.7,3.1c-1.9,0-3.5,1.4-3.5,3.1c0,0,0,0.1,0,0.1
				c0,0.1-0.1,0.2-0.1,0.3c0,0,0,0.1,0,0.1l0,8.4C3,16,4.1,17,5.2,17h3.2C9.5,17,10,16,10,15.1V6.6c0-0.1,0-0.2,0-0.3
				c0,0,0-0.1,0-0.1c0,0,0-0.1,0-0.1C10,4.4,8.6,3.1,6.7,3.1z"/>
		</g>
		<g>
			<line fill="#FFAB00" x1="5.5" y1="3" x2="5.5" y2="8"/>
			<path fill="#37474F" d="M5.5,8.5C5.3,8.5,5,8.2,5,8V3c0-0.3,0.2-0.5,0.5-0.5S6,2.7,6,3v5C6,8.2,5.8,8.5,5.5,8.5z"/>
		</g>
		<g>
			<line fill="#FFAB00" x1="7.5" y1="3" x2="7.5" y2="8"/>
			<path fill="#37474F" d="M7.5,8.5C7.3,8.5,7,8.2,7,8V3c0-0.3,0.2-0.5,0.5-0.5S8,2.7,8,3v5C8,8.2,7.8,8.5,7.5,8.5z"/>
		</g>
		<g>
			<path fill="#FFECB3" d="M12.4,10.3c0-2.8-2.5-5.1-5.6-5.1c-3.1,0-5.2,2.3-5.3,5.1c0,0.3,0,0.4,0,0.7v12.1c0,1.8,1.1,3.4,3,3.4H9
				c1.9,0,3.5-1.6,3.5-3.4V11C12.5,10.7,12.4,10.5,12.4,10.3z"/>
			<path fill="#37474F" d="M9,27H4.5C2.2,27,1,25,1,23.1V10.3c0-3.2,2.5-5.6,5.8-5.6c3.3,0,6,2.5,6.1,5.5c0,0,0,0.1,0,0.1
				C13,10.5,13,10.7,13,11v12.1C13,25.1,11.2,27,9,27z M6.8,5.7c-2.7,0-4.7,2-4.8,4.6v12.7C2,24.5,2.9,26,4.5,26H9
				c1.6,0,3-1.4,3-2.9V11c0-0.1,0-0.2-0.1-0.3c0-0.1-0.1-0.2-0.1-0.2c0,0,0-0.1,0-0.1C11.8,7.8,9.6,5.7,6.8,5.7z"/>
		</g>
		<g>
			<path fill="#FFFFFF" d="M12.5,17.4c0-2.8-2.7-5.3-5.7-5.3c-3.1,0-5.2,2.4-5.3,5.3"/>
			<path fill="#37474F" d="M12.5,17.9c-0.3,0-0.5-0.2-0.5-0.5c0-2.5-2.5-4.8-5.2-4.8c-2.6,0-4.7,2.1-4.8,4.8c0,0.3-0.2,0.5-0.5,0.5
				c0,0,0,0,0,0c-0.3,0-0.5-0.2-0.5-0.5c0-3.2,2.6-5.8,5.8-5.8c3.3,0,6.2,2.6,6.2,5.8C13,17.6,12.8,17.9,12.5,17.9
				C12.5,17.9,12.5,17.9,12.5,17.9z"/>
		</g>
		<g>
			<g>
				<ellipse fill="#FFAB00" cx="6.8" cy="24.3" rx="5.6" ry="5.2"/>
				<path fill="#37474F" d="M6.8,29.9c-3.3,0-6.1-2.5-6.1-5.7s2.7-5.7,6.1-5.7c3.3,0,6.1,2.5,6.1,5.7S10.1,29.9,6.8,29.9z M6.8,19.6
					c-2.8,0-5.1,2.1-5.1,4.7s2.3,4.7,5.1,4.7c2.8,0,5.1-2.1,5.1-4.7S9.6,19.6,6.8,19.6z"/>
			</g>
			<g>
				<g>
					<path fill="#37474F" d="M8.8,24.3c0,1-0.9,1.9-2,1.9c-1.1,0-2-0.8-2-1.9c0-1,0.9-1.9,2-1.9C7.9,22.4,8.8,23.3,8.8,24.3z"/>
					<path fill="#37474F" d="M6.8,26.6c-1.4,0-2.5-1.1-2.5-2.4c0-1.3,1.1-2.4,2.5-2.4c1.4,0,2.5,1.1,2.5,2.4
						C9.3,25.6,8.2,26.6,6.8,26.6z M6.8,22.9c-0.8,0-1.5,0.6-1.5,1.4c0,0.8,0.7,1.4,1.5,1.4c0.8,0,1.5-0.6,1.5-1.4
						C8.3,23.5,7.6,22.9,6.8,22.9z"/>
				</g>
				<path fill="#FFFFFF" d="M6.7,23.2c0,0.6-0.5,1-1.1,1c-0.6,0-1.1-0.5-1.1-1c0-0.6,0.5-1,1.1-1C6.2,22.2,6.7,22.7,6.7,23.2z"/>
				<path fill="#FFFFFF" d="M8.5,25.9c0,0.2-0.2,0.4-0.5,0.4c-0.3,0-0.5-0.2-0.5-0.4c0-0.2,0.2-0.4,0.5-0.4
					C8.3,25.4,8.5,25.6,8.5,25.9z"/>
			</g>
		</g>
		<g>
			<g>
				<path fill="#37474F" d="M4.6,16.4c0,0.2-0.2,0.4-0.4,0.4c-0.2,0-0.4-0.2-0.4-0.4C3.8,16.2,4,16,4.2,16C4.4,16,4.6,16.2,4.6,16.4
					z"/>
				<path fill="#37474F" d="M4.2,17.3c-0.2,0-0.5-0.1-0.6-0.3c-0.2-0.2-0.2-0.4-0.2-0.6c0-0.5,0.4-0.9,0.9-0.9
					c0.5,0,0.9,0.4,0.9,0.9C5.1,16.9,4.7,17.3,4.2,17.3L4.2,17.3z"/>
			</g>
			<g>
				<path fill="#37474F" d="M7.2,16.4c0,0.2-0.2,0.4-0.4,0.4c-0.2,0-0.4-0.2-0.4-0.4c0-0.2,0.2-0.4,0.4-0.4C7,16,7.2,16.2,7.2,16.4z
					"/>
				<path fill="#37474F" d="M6.8,17.3L6.8,17.3L6.8,17.3c-0.5,0-0.9-0.4-0.9-0.9c0-0.5,0.4-0.9,0.9-0.9c0.5,0,0.9,0.4,0.9,0.9
					c0,0.2-0.1,0.4-0.2,0.6C7.3,17.2,7,17.3,6.8,17.3z"/>
			</g>
			<g>
				<path fill="#37474F" d="M9.7,16.4c0,0.2-0.2,0.4-0.4,0.4c-0.2,0-0.4-0.2-0.4-0.4S9.2,16,9.4,16C9.6,16,9.7,16.2,9.7,16.4z"/>
				<path fill="#37474F" d="M9.4,17.3L9.4,17.3c-0.5,0-0.9-0.4-0.9-0.9c0-0.5,0.4-0.9,0.9-0.9c0.5,0,0.9,0.4,0.9,0.9
					C10.2,16.9,9.9,17.3,9.4,17.3L9.4,17.3z"/>
			</g>
		</g>
	</g>
	<g>
		<g>
			<path fill="#FFAB00" d="M29.3,6.1c0-2-1.8-3.6-4-3.6c-2.1,0-3.7,1.6-3.8,3.6c0,0.2,0,0.3,0,0.5v8.5c0,1.2,0.8,2.4,2.1,2.4h3.1
				c1.3,0,2.7-1.1,2.7-2.4V6.6C29.5,6.5,29.3,6.3,29.3,6.1z"/>
			<path fill="#37474F" d="M26.8,18h-3.1c-1.5,0-2.6-1.2-2.6-2.9V6.6c0,0,0-0.1,0-0.1c0-0.1,0-0.3,0-0.4c0.1-2.3,1.9-4,4.3-4
				c2.4,0,4.4,1.8,4.5,4C29.9,6.2,30,6.4,30,6.6v8.5C30,16.6,28.5,18,26.8,18z M25.3,3.1c-1.8,0-3.3,1.3-3.3,3.1c0,0,0,0.1,0,0.1
				c0,0,0,0.1,0,0.1c0,0.1,0,0.2,0,0.3v8.5c0,0.9,0.5,1.9,1.6,1.9h3.1c1.1,0,2.2-0.9,2.2-1.9V6.6c-0.1-0.1-0.2-0.2-0.2-0.4
				c0,0,0-0.1,0-0.1C28.7,4.4,27.2,3.1,25.3,3.1z"/>
		</g>
		<g>
			<line fill="#FFAB00" x1="24.5" y1="3" x2="24.5" y2="8"/>
			<path fill="#37474F" d="M24.5,8.5C24.3,8.5,24,8.2,24,8V3c0-0.3,0.2-0.5,0.5-0.5S25,2.7,25,3v5C25,8.2,24.8,8.5,24.5,8.5z"/>
		</g>
		<g>
			<line fill="#FFAB00" x1="26.5" y1="3" x2="26.5" y2="8"/>
			<path fill="#37474F" d="M26.5,8.5C26.3,8.5,26,8.2,26,8V3c0-0.3,0.2-0.5,0.5-0.5S27,2.7,27,3v5C27,8.2,26.8,8.5,26.5,8.5z"/>
		</g>
		<g>
			<path fill="#FFECB3" d="M30.5,10.3c0-2.8-2.4-5.1-5.4-5.1c-3.1,0-5.4,2.3-5.5,5.1c-0.1,0.2-0.1,0.5-0.1,0.7v12.1
				c0,1.8,1.5,3.4,3.4,3.4h4.5c1.9,0,3.1-1.6,3.1-3.4V11C30.5,10.7,30.5,10.6,30.5,10.3z"/>
			<path fill="#37474F" d="M27.5,27H23c-2.1,0-3.9-1.8-3.9-3.9V11c0-0.3,0-0.5,0.1-0.8c0.1-3.1,2.7-5.5,6-5.5c3.3,0,5.9,2.4,5.9,5.6
				c0,0.2,0,0.3,0,0.5l0,0.2v12.1C31,24.9,29.8,27,27.5,27z M25.1,5.7c-2.8,0-5,2-5,4.6c0,0,0,0.1,0,0.1C20.1,10.6,20,10.8,20,11
				v12.1c0,1.5,1.4,2.9,2.9,2.9h4.5c1.7,0,2.6-1.5,2.6-2.9l0-12.3c0-0.1,0-0.3,0-0.5C30,7.7,27.8,5.7,25.1,5.7z"/>
		</g>
		<g>
			<path fill="#FFFFFF" d="M30.5,17.4c0-2.8-2.3-5.3-5.3-5.3c-3.1,0-5.6,2.5-5.7,5.3"/>
			<path fill="#37474F" d="M19.5,17.9C19.5,17.9,19.5,17.9,19.5,17.9c-0.3,0-0.5-0.2-0.5-0.5c0-3.1,2.9-5.8,6.2-5.8
				c3.2,0,5.8,2.5,5.8,5.8c0,0.3-0.2,0.5-0.5,0.5c0,0,0,0,0,0c-0.3,0-0.5-0.2-0.5-0.5c0-2.7-2.2-4.8-4.8-4.8c-2.7,0-5.1,2.2-5.2,4.8
				C20,17.7,19.8,17.9,19.5,17.9z"/>
		</g>
		<g>
			<g>
				<path fill="#FFAB00" d="M30.8,24.3c0,2.8-2.5,5.2-5.6,5.2c-3.1,0-5.6-2.3-5.6-5.2s2.5-5.2,5.6-5.2
					C28.3,19.1,30.8,21.4,30.8,24.3z"/>
				<path fill="#37474F" d="M25.2,29.9c-3.3,0-6.1-2.5-6.1-5.7s2.7-5.7,6.1-5.7c3.3,0,6.1,2.5,6.1,5.7S28.6,29.9,25.2,29.9z
					 M25.2,19.6c-2.8,0-5.1,2.1-5.1,4.7s2.3,4.7,5.1,4.7c2.8,0,5.1-2.1,5.1-4.7S28,19.6,25.2,19.6z"/>
			</g>
			<g>
				<g>
					<path fill="#37474F" d="M27.2,24.3c0,1-0.9,1.9-2,1.9c-1.1,0-2-0.8-2-1.9c0-1,0.9-1.9,2-1.9C26.3,22.4,27.2,23.3,27.2,24.3z"/>
					<path fill="#37474F" d="M25.2,26.6c-1.4,0-2.5-1.1-2.5-2.4c0-1.3,1.1-2.4,2.5-2.4s2.5,1.1,2.5,2.4
						C27.7,25.6,26.6,26.6,25.2,26.6z M25.2,22.9c-0.8,0-1.5,0.6-1.5,1.4c0,0.8,0.7,1.4,1.5,1.4c0.8,0,1.5-0.6,1.5-1.4
						C26.7,23.5,26,22.9,25.2,22.9z"/>
				</g>
				<path fill="#FFFFFF" d="M25.1,23.2c0,0.6-0.5,1-1.1,1c-0.6,0-1.1-0.5-1.1-1c0-0.6,0.5-1,1.1-1C24.6,22.2,25.1,22.7,25.1,23.2z"
					/>
				<path fill="#FFFFFF" d="M27,25.9c0,0.2-0.2,0.4-0.5,0.4c-0.3,0-0.5-0.2-0.5-0.4c0-0.2,0.2-0.4,0.5-0.4
					C26.8,25.4,27,25.6,27,25.9z"/>
			</g>
		</g>
		<g>
			<g>
				<path fill="#37474F" d="M23,16.4c0,0.2-0.2,0.4-0.4,0.4c-0.2,0-0.4-0.2-0.4-0.4c0-0.2,0.2-0.4,0.4-0.4C22.8,16,23,16.2,23,16.4z
					"/>
				<path fill="#37474F" d="M22.6,17.3c-0.2,0-0.5-0.1-0.6-0.3c-0.2-0.2-0.2-0.4-0.2-0.6c0-0.5,0.4-0.9,0.9-0.9
					c0.5,0,0.9,0.4,0.9,0.9C23.5,16.9,23.1,17.3,22.6,17.3L22.6,17.3z"/>
			</g>
			<g>
				<path fill="#37474F" d="M25.6,16.4c0,0.2-0.2,0.4-0.4,0.4c-0.2,0-0.4-0.2-0.4-0.4c0-0.2,0.2-0.4,0.4-0.4
					C25.4,16,25.6,16.2,25.6,16.4z"/>
				<path fill="#37474F" d="M25.2,17.3L25.2,17.3L25.2,17.3c-0.5,0-0.9-0.4-0.9-0.9c0-0.5,0.4-0.9,0.9-0.9c0.5,0,0.9,0.4,0.9,0.9
					c0,0.2-0.1,0.4-0.2,0.6C25.7,17.2,25.5,17.3,25.2,17.3z"/>
			</g>
			<g>
				<path fill="#37474F" d="M28.2,16.4c0,0.2-0.2,0.4-0.4,0.4c-0.2,0-0.4-0.2-0.4-0.4s0.2-0.4,0.4-0.4C28,16,28.2,16.2,28.2,16.4z"
					/>
				<path fill="#37474F" d="M27.8,17.3L27.8,17.3c-0.5,0-0.9-0.4-0.9-0.9c0-0.5,0.4-0.9,0.9-0.9c0.5,0,0.9,0.4,0.9,0.9
					C28.7,16.9,28.3,17.3,27.8,17.3L27.8,17.3z"/>
			</g>
		</g>
	</g>
	<g>
		<polygon fill="#FFAB00" points="9.7,8.5 22.1,8.5 17.4,16.5 14.3,16.5 		"/>
		<path fill="#37474F" d="M17.4,17h-3.1c-0.2,0-0.3-0.1-0.4-0.2l-4.7-8c-0.1-0.2-0.1-0.3,0-0.5S9.5,8,9.7,8h12.4
			c0.2,0,0.3,0.1,0.4,0.3s0.1,0.3,0,0.5l-4.7,8C17.7,16.9,17.6,17,17.4,17z M14.6,16h2.5l4.1-7H10.6L14.6,16z"/>
	</g>
	<g>
		<g>
			<path fill="#FFFFFF" stroke="#37474F" stroke-linecap="round" stroke-linejoin="round" stroke-miterlimit="10" d="M14.3,21.3"/>
		</g>
		<g>
			<path fill="#FFFFFF" stroke="#37474F" stroke-linecap="round" stroke-linejoin="round" stroke-miterlimit="10" d="M14.3,16.2"/>
		</g>
		<g>
			<path fill="#FFFFFF" stroke="#37474F" stroke-linecap="round" stroke-linejoin="round" stroke-miterlimit="10" d="M17.4,21.3"/>
		</g>
		<g>
			<path fill="#FFFFFF" stroke="#37474F" stroke-linecap="round" stroke-linejoin="round" stroke-miterlimit="10" d="M17.4,16.2"/>
		</g>
	</g>
	<g>
		<line fill="#78909C" x1="15" y1="10.5" x2="17" y2="10.5"/>
		<path fill="#37474F" d="M17,11h-2c-0.3,0-0.5-0.2-0.5-0.5S14.8,10,15,10h2c0.3,0,0.5,0.2,0.5,0.5S17.3,11,17,11z"/>
	</g>
	<g>
		<line fill="#78909C" x1="15" y1="13.5" x2="17" y2="13.5"/>
		<path fill="#37474F" d="M17,14h-2c-0.3,0-0.5-0.2-0.5-0.5S14.8,13,15,13h2c0.3,0,0.5,0.2,0.5,0.5S17.3,14,17,14z"/>
	</g>
</g>
</svg>
