<?xml version="1.0" encoding="utf-8"?>
<!-- Generator: Adobe Illustrator 19.0.0, SVG Export Plug-In . SVG Version: 6.00 Build 0)  -->
<svg version="1.1" xmlns="http://www.w3.org/2000/svg" xmlns:xlink="http://www.w3.org/1999/xlink" x="0px" y="0px"
	 viewBox="-33 35 132 132" style="enable-background:new -33 35 132 132;" xml:space="preserve">
<style type="text/css">
	.st0{fill:#FFAB00;}
	.st1{fill:#37474F;}
	.st2{fill:#FFFFFF;}
</style>
<g id="Layer_1">
	<g>
		<g>
			<path class="st0" d="M83.4,104.5c0,27.5-22.3,49.7-49.8,49.7s-49.7-22.2-49.7-49.7S6.2,54.8,33.7,54.8S83.4,77,83.4,104.5z"/>
			<path class="st1" d="M33.6,155.8c-28.3,0-51.3-23-51.3-51.2s23-51.2,51.3-51.2s51.3,23,51.3,51.2S61.9,155.8,33.6,155.8z
				 M33.6,56.3c-26.6,0-48.3,21.6-48.3,48.2s21.6,48.2,48.3,48.2c26.6,0,48.3-21.6,48.3-48.2S60.2,56.3,33.6,56.3z"/>
		</g>
		<g>
			<path class="st2" d="M50.5,155.6c0,5.1-4.2,8.9-9.3,8.9H26c-5.2,0-9.5-3.7-9.5-8.9v-15.2c0-5.1,4.4-9.9,9.5-9.9h15.1
				c5.2,0,9.3,4.8,9.3,9.9L50.5,155.6L50.5,155.6z"/>
			<path class="st1" d="M41.2,166H26c-6.2,0-11-4.6-11-10.4v-15.2c0-6.1,5.2-11.4,11-11.4h15.1c5.9,0,10.9,5.2,10.9,11.4v15.2
				C52,161.4,47.2,166,41.2,166z M26,132c-4.2,0-8,4-8,8.4v15.2c0,4.1,3.5,7.4,8,7.4h15.1c4.5,0,7.8-3.2,7.8-7.4v-15.2
				c0-4.5-3.7-8.4-7.8-8.4H26z"/>
		</g>
		<g>
			<g>
				<path class="st1" d="M35.5,138.5v8h7v3h-7v8h-4v-8h-7v-3h7v-8H35.5z"/>
				<path class="st1" d="M35.5,159h-4c-0.8,0-1.5-0.7-1.5-1.5V151h-5.5c-0.8,0-1.5-0.7-1.5-1.5v-3c0-0.8,0.7-1.5,1.5-1.5H30v-6.5
					c0-0.8,0.7-1.5,1.5-1.5h4c0.8,0,1.5,0.7,1.5,1.5v6.5h5.5c0.8,0,1.5,0.7,1.5,1.5v3c0,0.8-0.7,1.5-1.5,1.5H37v6.5
					C37,158.3,36.3,159,35.5,159z M33,156h1v-6.5c0-0.8,0.7-1.5,1.5-1.5c-0.8,0-1.5-0.7-1.5-1.5V140h-1v6.5c0,0.8-0.7,1.5-1.5,1.5
					H26h5.5c0.8,0,1.5,0.7,1.5,1.5V156z"/>
			</g>
		</g>
		<g>
			<path class="st2" d="M44.3,114.6c0,2.9-2.3,4.9-5.2,4.9h-11c-2.9,0-5.2-2-5.2-4.9l-5.3-71.7c0-2.9,2.3-5.4,5.3-5.4h21.4
				c2.9,0,5.2,2.5,5.2,5.4L44.3,114.6z"/>
			<path class="st1" d="M39.1,121h-11c-3.8,0-6.7-2.7-6.7-6.4L16.2,43v-0.1c0-3.8,3-6.9,6.8-6.9h21.4c3.7,0,6.7,3.1,6.7,6.9V43
				l-5.2,71.6C45.8,118.3,42.9,121,39.1,121z M19.1,42.9l5.3,71.6v0.1c0,2,1.6,3.4,3.7,3.4H39c2.2,0,3.7-1.4,3.7-3.4v-0.1l5.2-71.6
				c0.1-2.1-1.6-3.9-3.6-3.9H22.9C20.9,39,19.2,40.8,19.1,42.9z"/>
		</g>
		<g>
			<g>
				<path class="st1" d="M33.6,65.3c-1.3,0-2.3-1-2.3-2.3c0-1.3,1-2.4,2.3-2.4c1.2,0,2.3,1,2.3,2.4C35.9,64.3,34.9,65.3,33.6,65.3z"
					/>
				<path class="st1" d="M33.6,65.8c-1.5,0-2.8-1.2-2.8-2.8s1.3-2.9,2.8-2.9s2.8,1.3,2.8,2.9S35.1,65.8,33.6,65.8z M33.6,61.2
					c-1,0-1.8,0.8-1.8,1.9c0,1,0.8,1.8,1.8,1.8s1.8-0.8,1.8-1.8S34.6,61.2,33.6,61.2z"/>
			</g>
			<g>
				<path class="st1" d="M33.6,81.5c-1.3,0-2.3-1.1-2.3-2.3c0-1.3,1-2.3,2.3-2.3c1.2,0,2.3,1,2.3,2.3C35.9,80.4,34.9,81.5,33.6,81.5
					z"/>
				<path class="st1" d="M33.6,82c-1.5,0-2.8-1.3-2.8-2.8c0-1.6,1.3-2.8,2.8-2.8s2.8,1.3,2.8,2.8S35.1,82,33.6,82z M33.6,77.3
					c-1,0-1.8,0.8-1.8,1.8s0.8,1.8,1.8,1.8s1.8-0.8,1.8-1.8C35.4,78.2,34.6,77.3,33.6,77.3z"/>
			</g>
			<g>
				<path class="st1" d="M33.6,97.5c-1.3,0-2.3-1-2.3-2.2c0-1.3,1-2.4,2.3-2.4s2.3,1,2.3,2.4C35.9,96.5,34.9,97.5,33.6,97.5z"/>
				<path class="st1" d="M33.6,98c-1.5,0-2.8-1.3-2.8-2.7c0-1.6,1.2-2.9,2.8-2.9s2.8,1.3,2.8,2.9C36.4,96.8,35.1,98,33.6,98z
					 M33.6,93.4c-1,0-1.8,0.8-1.8,1.9c0,0.9,0.8,1.7,1.8,1.7s1.8-0.8,1.8-1.7C35.4,94.3,34.6,93.4,33.6,93.4z"/>
			</g>
		</g>
	</g>
</g>
<g id="Layer_2">
	<g>
		<path class="st0" d="M73.8,48.5c-9,0-16.4,7.4-16.4,16.4s7.4,16.4,16.4,16.4s16.4-7.4,16.4-16.4S82.8,48.5,73.8,48.5z M76.5,72.1
			h-5.3v-6.8H67l6.8-8l6.8,8h-4.1V72.1z"/>
		<path class="st1" d="M73.8,46.9c-9.9,0-18,8.1-18,18s8.1,18,18,18s18-8.1,18-18S83.7,46.9,73.8,46.9z M73.8,81.3
			c-9,0-16.4-7.4-16.4-16.4s7.4-16.4,16.4-16.4s16.4,7.4,16.4,16.4S82.8,81.3,73.8,81.3z"/>
		<path class="st2" d="M73.8,43.1c-12,0-21.8,9.8-21.8,21.8s9.8,21.8,21.8,21.8s21.8-9.8,21.8-21.8S85.8,43.1,73.8,43.1z M73.8,82.9
			c-9.9,0-18-8.1-18-18s8.1-18,18-18s18,8.1,18,18S83.7,82.9,73.8,82.9z"/>
		<polygon class="st2" points="73.8,57.3 67,65.3 71.1,65.3 71.1,72.1 76.5,72.1 76.5,65.3 80.6,65.3 		"/>
	</g>
</g>
</svg>
