<?xml version="1.0" encoding="utf-8"?>
<!-- Generator: Adobe Illustrator 16.0.0, SVG Export Plug-In . SVG Version: 6.00 Build 0)  -->
<!DOCTYPE svg PUBLIC "-//W3C//DTD SVG 1.1//EN" "http://www.w3.org/Graphics/SVG/1.1/DTD/svg11.dtd">
<svg version="1.1" id="Layer_1" xmlns="http://www.w3.org/2000/svg" xmlns:xlink="http://www.w3.org/1999/xlink" x="0px" y="0px"
	 width="32px" height="32px" viewBox="0 0 32 32" enable-background="new 0 0 32 32" xml:space="preserve">
<g>
	<g>
		<path fill="#FFFFFF" d="M29.5,25.6c0,1.6-1.3,2.9-2.9,2.9H4.4c-1.6,0-2.9-1.3-2.9-2.9V11.4c0-1.6,1.3-2.9,2.9-2.9h22.1
			c1.6,0,2.9,1.3,2.9,2.9V25.6z"/>
		<path fill="#37474F" d="M26.6,29H4.4C2.5,29,1,27.5,1,25.6V11.4C1,9.5,2.5,8,4.4,8h22.1c1.9,0,3.4,1.5,3.4,3.4v14.1
			C30,27.5,28.5,29,26.6,29z M4.4,9C3.1,9,2,10.1,2,11.4v14.1C2,26.9,3.1,28,4.4,28h22.1c1.3,0,2.4-1.1,2.4-2.4V11.4
			c0-1.3-1.1-2.4-2.4-2.4H4.4z"/>
	</g>
	<g>
		<circle fill="#FFAB00" cx="11.8" cy="18.6" r="5.8"/>
		<path fill="#37474F" d="M11.8,24.9c-3.5,0-6.3-2.8-6.3-6.3c0-3.5,2.8-6.3,6.3-6.3c3.5,0,6.3,2.8,6.3,6.3
			C18.1,22.1,15.2,24.9,11.8,24.9z M11.8,13.4c-2.9,0-5.3,2.4-5.3,5.3c0,2.9,2.4,5.3,5.3,5.3c2.9,0,5.3-2.4,5.3-5.3
			C17.1,15.7,14.7,13.4,11.8,13.4z"/>
	</g>
	<g>
		<circle fill="#78909C" cx="11.8" cy="18.6" r="3.1"/>
		<path fill="#37474F" d="M11.8,22.2c-2,0-3.6-1.6-3.6-3.6c0-2,1.6-3.6,3.6-3.6c2,0,3.6,1.6,3.6,3.6C15.4,20.6,13.8,22.2,11.8,22.2z
			 M11.8,16c-1.4,0-2.6,1.2-2.6,2.6c0,1.4,1.2,2.6,2.6,2.6c1.4,0,2.6-1.2,2.6-2.6C14.4,17.2,13.2,16,11.8,16z"/>
	</g>
	<g>
		<circle fill="#FFFFFF" cx="11.3" cy="17.6" r="1.6"/>
		<path fill="#37474F" d="M11.3,19.6c-1.1,0-2.1-0.9-2.1-2.1s0.9-2.1,2.1-2.1s2.1,0.9,2.1,2.1S12.4,19.6,11.3,19.6z M11.3,16.5
			c-0.6,0-1.1,0.5-1.1,1.1s0.5,1.1,1.1,1.1s1.1-0.5,1.1-1.1S11.9,16.5,11.3,16.5z"/>
	</g>
	<g>
		<polyline fill="#FFECB3" points="4.5,7 4.5,4.5 11.5,4.5 11.5,7 		"/>
		<path fill="#37474F" d="M11.5,7.5C11.2,7.5,11,7.3,11,7V5H5v2c0,0.3-0.2,0.5-0.5,0.5S4,7.3,4,7V4.5C4,4.2,4.2,4,4.5,4h7
			C11.8,4,12,4.2,12,4.5V7C12,7.3,11.8,7.5,11.5,7.5z"/>
	</g>
	<g>
		<line fill="#FFECB3" x1="21" y1="13.5" x2="26" y2="13.5"/>
		<path fill="#37474F" d="M26,14h-5c-0.3,0-0.5-0.2-0.5-0.5S20.7,13,21,13h5c0.3,0,0.5,0.2,0.5,0.5S26.3,14,26,14z"/>
	</g>
	<g>
		<line fill="#FFECB3" x1="21" y1="16.5" x2="26" y2="16.5"/>
		<path fill="#37474F" d="M26,17h-5c-0.3,0-0.5-0.2-0.5-0.5S20.7,16,21,16h5c0.3,0,0.5,0.2,0.5,0.5S26.3,17,26,17z"/>
	</g>
	<g>
		<polyline fill="#FFECB3" points="21.2,23.9 23.3,21.7 25.5,23.9 		"/>
		<path fill="#37474F" d="M21.2,24.4c-0.1,0-0.3,0-0.4-0.1c-0.2-0.2-0.2-0.5,0-0.7l2.2-2.2c0.1-0.1,0.2-0.1,0.4-0.1l0,0
			c0.1,0,0.3,0.1,0.4,0.1l2.2,2.2c0.2,0.2,0.2,0.5,0,0.7s-0.5,0.2-0.7,0l-1.8-1.8l-1.8,1.8C21.4,24.4,21.3,24.4,21.2,24.4z"/>
	</g>
</g>
</svg>
