<?xml version="1.0" encoding="utf-8"?>
<!-- Generator: Adobe Illustrator 19.0.0, SVG Export Plug-In . SVG Version: 6.00 Build 0)  -->
<svg version="1.1" xmlns="http://www.w3.org/2000/svg" xmlns:xlink="http://www.w3.org/1999/xlink" x="0px" y="0px"
	 viewBox="-35 37 128 128" style="enable-background:new -35 37 128 128;" xml:space="preserve">
<style type="text/css">
	.st0{fill:#FFFFFF;stroke:#37474F;stroke-width:3;stroke-miterlimit:10;}
	.st1{fill:#FFAB00;stroke:#37474F;stroke-width:3;stroke-linecap:round;stroke-linejoin:round;stroke-miterlimit:10;}
	.st2{fill:none;stroke:#37474F;stroke-width:3;stroke-linecap:round;stroke-miterlimit:10;}
	.st3{fill:none;stroke:#FFAB00;stroke-width:3;stroke-linecap:round;stroke-linejoin:round;stroke-miterlimit:10;}
	.st4{fill:#37474F;}
	.st5{fill:#37474F;stroke:#37474F;stroke-miterlimit:10;}
	.st6{fill:#37474F;stroke:#37474F;stroke-width:3;stroke-linecap:round;stroke-linejoin:round;stroke-miterlimit:10;}
	.st7{fill:#FFAB00;}
	.st8{fill:#FFFFFF;}
</style>
<g id="Layer_1">
	<g>
		<rect x="-25.4" y="64.3" class="st0" width="100.7" height="97.3"/>
		<rect x="-25.4" y="64.3" class="st1" width="100.7" height="20.3"/>
		<g>
			<g>
				<line class="st2" x1="27.5" y1="118.5" x2="53.7" y2="118.5"/>
			</g>
			<g>
				<line class="st3" x1="27.5" y1="105.8" x2="53.7" y2="105.8"/>
			</g>
			<g>
				<line class="st2" x1="27.5" y1="128.6" x2="53.7" y2="128.6"/>
			</g>
			<g>
				<line class="st2" x1="27.5" y1="139.6" x2="53.7" y2="139.6"/>
			</g>
			<g>
				<line class="st2" x1="27.5" y1="149.8" x2="53.7" y2="149.8"/>
			</g>
		</g>
		<polygon class="st4" points="-14.2,77.5 -17.3,74.4 -14.2,71.3 -11.1,74.4 		"/>
		<g>
			<path class="st5" d="M16.2,94.8c0,0.8-0.7,1.5-1.5,1.5c-0.8,0-1.5-0.7-1.5-1.5s0.7-1.5,1.5-1.5C15.5,93.3,16.2,94,16.2,94.8z"/>
			<path class="st5" d="M26.7,94.8c0,0.8-0.7,1.5-1.5,1.5c-0.8,0-1.5-0.7-1.5-1.5s0.7-1.5,1.5-1.5C26.1,93.3,26.7,94,26.7,94.8z"/>
			<path class="st5" d="M37.2,94.8c0,0.8-0.7,1.5-1.5,1.5s-1.5-0.7-1.5-1.5s0.7-1.5,1.5-1.5S37.2,94,37.2,94.8z"/>
		</g>
		<rect x="-11" y="105" class="st6" width="23.7" height="23.7"/>
		<g>
			<path class="st4" d="M16.8,70.7c0,0,0,0.1,0,0.2c0,0.1,0,0.2-0.1,0.2l-2.2,7c0,0.1,0,0.1-0.1,0.2c0,0.1-0.1,0.1-0.1,0.1
				c-0.1,0-0.2,0-0.3,0.1c-0.2,0-0.3,0-0.4,0s-0.3,0-0.4,0c-0.1,0-0.2,0-0.3,0s-0.1-0.1-0.2-0.1c0,0-0.1-0.1-0.1-0.2l-1.6-5.3v-0.1
				v0.1L9.7,78c0,0.1,0,0.1-0.1,0.2c0,0.1-0.1,0.1-0.2,0.1c-0.1,0-0.2,0-0.3,0.1c-0.1,0-0.3,0-0.4,0c-0.2,0-0.3,0-0.4,0
				s-0.2,0-0.3,0S8,78.3,8,78.3s-0.1-0.1-0.1-0.2l-2.1-7c0-0.1,0-0.2-0.1-0.2c0-0.1,0-0.1,0-0.2c0,0,0-0.1,0.1-0.1l0.1-0.1
				c0.1,0,0.1,0,0.2,0c0.1,0,0.2,0,0.3,0c0.2,0,0.3,0,0.4,0c0.1,0,0.2,0,0.2,0C7,70.6,7,70.7,7,70.7c0,0.1,0.1,0.1,0.1,0.2l1.8,6.1
				V77v-0.1l1.6-6.1c0-0.1,0-0.1,0.1-0.2l0.1-0.1c0.1,0,0.1,0,0.3,0c0.1,0,0.2,0,0.3,0c0.1,0,0.3,0,0.3,0c0.1,0,0.2,0,0.2,0
				c0.1,0,0.1,0.1,0.1,0.1c0,0.1,0,0.1,0.1,0.1l1.8,6.1v0.1v-0.1l1.8-6.1c0-0.1,0-0.1,0.1-0.2l0.1-0.1c0.1,0,0.1,0,0.3,0
				c0.1,0,0.2,0,0.3,0c0.2,0,0.3,0,0.3,0c0.1,0,0.2,0,0.2,0C16.8,70.5,16.8,70.6,16.8,70.7C16.8,70.6,16.8,70.7,16.8,70.7z"/>
			<path class="st4" d="M30.5,70.7c0,0,0,0.1,0,0.2c0,0.1,0,0.2-0.1,0.2l-2.2,7c0,0.1,0,0.1-0.1,0.2c0,0.1-0.1,0.1-0.2,0.1
				c-0.1,0-0.1,0-0.3,0.1c-0.1,0-0.3,0-0.4,0s-0.3,0-0.4,0c-0.2,0-0.2,0-0.3,0c-0.1,0-0.1-0.1-0.2-0.1c0,0-0.1-0.1-0.1-0.2L25,72.7
				v-0.1v0.1L23.5,78c0,0.1-0.1,0.1-0.1,0.2c0,0.1-0.1,0.1-0.2,0.1c-0.1,0-0.2,0-0.3,0.1c-0.1,0-0.3,0-0.4,0s-0.3,0-0.4,0
				c-0.1,0-0.2,0-0.3,0s-0.1-0.1-0.1-0.1s-0.1-0.1-0.1-0.2l-2.2-7c0-0.1-0.1-0.2-0.1-0.2c0-0.1,0-0.1,0-0.2v-0.1
				c0,0,0.1-0.1,0.2-0.1c0.1,0,0.1,0,0.2,0c0.1,0,0.2,0,0.3,0s0.3,0,0.4,0c0.1,0,0.2,0,0.2,0c0.1,0,0.1,0.1,0.1,0.1
				c0,0.1,0.1,0.1,0.1,0.2l1.8,6.1V77v-0.1l1.6-6.1c0-0.1,0.1-0.1,0.1-0.2c0,0,0.1-0.1,0.2-0.1c0.1,0,0.1,0,0.2,0c0.1,0,0.2,0,0.3,0
				c0.2,0,0.3,0,0.3,0c0.1,0,0.2,0,0.2,0c0.1,0,0.1,0.1,0.1,0.1c0,0.1,0,0.1,0.1,0.1l1.8,6.1v0.1v-0.1l1.7-6.2c0-0.1,0-0.1,0.1-0.2
				l0.1-0.1c0.1,0,0.2,0,0.2,0c0.1,0,0.3,0,0.3,0c0.2,0,0.3,0,0.3,0c0.1,0,0.1,0,0.2,0s0.1,0.1,0.1,0.1
				C30.5,70.6,30.5,70.7,30.5,70.7z"/>
			<path class="st4" d="M44.2,70.7c0,0,0,0.1,0,0.2c0,0.1,0,0.2-0.1,0.2L42,78c0,0.1,0,0.1-0.1,0.2c0,0,0,0-0.1,0.1
				c-0.1,0-0.2,0-0.3,0.1c-0.1,0-0.3,0-0.4,0c-0.2,0-0.3,0-0.4,0c-0.2,0-0.3,0-0.3,0c-0.1,0-0.1-0.1-0.2-0.1c0,0-0.1-0.1-0.1-0.2
				l-1.5-5.3v-0.1v0.1l-1.4,5.3c0,0.1,0,0.1-0.1,0.2c-0.1,0.1-0.1,0.1-0.2,0.1s-0.2,0-0.3,0.1c-0.1,0-0.3,0-0.4,0
				c-0.2,0-0.3,0-0.4,0c-0.1,0-0.2,0-0.3,0c-0.1,0-0.2-0.1-0.2-0.1s0-0.1-0.1-0.2l-2.1-7c0-0.1-0.1-0.2-0.1-0.2c0-0.1,0-0.1,0-0.2
				c0,0,0-0.1,0.1-0.1c0,0,0-0.1,0.1-0.1c0.1,0,0.1,0,0.2,0s0.2,0,0.3,0c0.2,0,0.3,0,0.3,0s0.2,0,0.3,0l0.1,0.1c0,0.1,0,0.1,0.1,0.2
				l1.8,6.1v0.1V77l1.6-6.1c0-0.1,0-0.1,0.1-0.2l0.1-0.1c0.1,0,0.2,0,0.2,0c0.1,0,0.2,0,0.3,0c0.2,0,0.3,0,0.3,0c0.1,0,0.2,0,0.2,0
				c0.1,0,0.1,0.1,0.1,0.1c0,0.1,0,0.1,0,0.1l1.8,6.1V77v-0.1l1.8-6.1c0-0.1,0.1-0.1,0.1-0.2l0.1-0.1c0.1,0,0.1,0,0.2,0
				c0.1,0,0.2,0,0.3,0c0.2,0,0.3,0,0.3,0c0.1,0,0.2,0,0.2,0l0.1,0.1C44.2,70.6,44.2,70.7,44.2,70.7z"/>
		</g>
	</g>
</g>
<g id="Layer_2">
	<g>
		<g>
			<g>
				<g>
					<polyline class="st7" points="46.3,85.7 52.5,80 51.1,77.3 					"/>
				</g>
				<g>
					<path class="st4" d="M46.3,86.4c-0.2,0-0.4-0.1-0.5-0.2c-0.3-0.3-0.2-0.7,0-1l5.8-5.3l-1.2-2.2c-0.2-0.3,0-0.7,0.3-0.9
						c0.3-0.2,0.7,0,0.9,0.3l1.7,3.2l-6.6,6C46.6,86.3,46.5,86.4,46.3,86.4z"/>
				</g>
			</g>
			<g>
				<g>
					<polyline class="st7" points="39,70.1 47.4,69.1 47.7,66 					"/>
				</g>
				<g>
					<path class="st4" d="M39,70.8c-0.3,0-0.7-0.2-0.7-0.6c0-0.4,0.2-0.7,0.6-0.8l7.8-1l0.3-2.5c0-0.4,0.4-0.7,0.8-0.6
						c0.4,0,0.7,0.4,0.6,0.8l-0.4,3.6L39,70.8C39.1,70.8,39.1,70.8,39,70.8z"/>
				</g>
			</g>
			<g>
				<g>
					<polyline class="st7" points="41.9,53.2 49.4,57.1 51.5,54.7 					"/>
				</g>
				<g>
					<path class="st4" d="M49.6,58l-8-4.1c-0.3-0.2-0.5-0.6-0.3-0.9c0.2-0.3,0.6-0.5,0.9-0.3l7,3.6l1.7-1.9c0.2-0.3,0.7-0.3,1-0.1
						c0.3,0.2,0.3,0.7,0.1,1L49.6,58z"/>
				</g>
			</g>
			<g>
				<g>
					<polyline class="st7" points="53.9,41 57.9,48.4 60.9,47.6 					"/>
				</g>
				<g>
					<path class="st4" d="M57.6,49.2l-4.3-7.9c-0.2-0.3,0-0.7,0.3-0.9c0.3-0.2,0.7,0,0.9,0.3l3.7,6.9l2.5-0.6
						c0.4-0.1,0.7,0.1,0.8,0.5c0.1,0.4-0.1,0.7-0.5,0.8L57.6,49.2z"/>
				</g>
			</g>
			<g>
				<g>
					<polyline class="st7" points="70.7,37.7 69.8,46.1 72.7,47.2 					"/>
				</g>
				<g>
					<path class="st4" d="M72.7,47.9c-0.1,0-0.1,0-0.2,0l-3.4-1.3l1-8.9c0-0.4,0.4-0.7,0.8-0.6c0.4,0,0.7,0.4,0.6,0.8l-0.9,7.8
						l2.4,0.8c0.4,0.1,0.6,0.5,0.4,0.9C73.3,47.7,73,47.9,72.7,47.9z"/>
				</g>
			</g>
			<g>
				<g>
					<polyline class="st7" points="86.4,44.6 80.9,50.9 82.7,53.5 					"/>
				</g>
				<g>
					<path class="st4" d="M82.7,54.2c-0.2,0-0.4-0.1-0.6-0.3l-2.1-3l5.9-6.8c0.2-0.3,0.7-0.3,1,0c0.3,0.2,0.3,0.7,0,1L81.8,51
						l1.5,2.1c0.2,0.3,0.1,0.7-0.2,1C83,54.1,82.8,54.2,82.7,54.2z"/>
				</g>
			</g>
		</g>
		<g>
			<g>
				<g>
					<polygon class="st7" points="92.1,87.5 88.6,91.1 72.7,75.2 76.2,71.7 					"/>
				</g>
				<g>
					<path class="st4" d="M88.6,92.1L71.7,75.2l4.5-4.5l16.8,16.8L88.6,92.1z M73.7,75.2l14.9,14.9l2.5-2.5L76.2,72.7L73.7,75.2z"/>
				</g>
			</g>
			<g>
				<g>
					<g>
						<polygon class="st8" points="87.9,63.8 59.1,58.1 64.8,86.9 						"/>
					</g>
					<g>
						<path class="st4" d="M64.8,87.6c0,0-0.1,0-0.2,0c-0.2-0.1-0.4-0.3-0.5-0.5l-5.8-28.8c0-0.2,0-0.5,0.2-0.7
							c0.2-0.2,0.4-0.2,0.7-0.2l28.8,5.8c0.2,0,0.5,0.2,0.5,0.5c0,0.2,0,0.5-0.2,0.7L65.3,87.4C65.2,87.5,65,87.6,64.8,87.6z
							 M60,58.9l5.2,26.5l21.2-21.2L60,58.9z"/>
					</g>
				</g>
				<g>
					<g>
						<g>
							<path class="st4" d="M72.9,71.9c0.3-0.3,0.9-0.3,1.2,0c0.3,0.4,0.3,0.9,0,1.3s-0.9,0.3-1.3,0C72.6,72.8,72.6,72.2,72.9,71.9z
								"/>
						</g>
						<g>
							<path class="st4" d="M73.5,73.6c-0.3,0-0.6-0.1-0.8-0.3s-0.3-0.5-0.3-0.7c0-0.3,0.1-0.6,0.3-0.8c0.4-0.4,1.2-0.4,1.5,0
								c0.4,0.5,0.5,1.2,0,1.6C74.1,73.5,73.8,73.6,73.5,73.6z M73.5,71.9c-0.2,0-0.3,0-0.5,0.2s-0.2,0.3-0.2,0.5s0,0.3,0.2,0.4
								c0.2,0.2,0.7,0.2,0.9,0c0.2-0.2,0.2-0.7,0-0.9C73.8,71.9,73.7,71.9,73.5,71.9z"/>
						</g>
					</g>
					<g>
						<g>
							<path class="st4" d="M68.6,67.5c0.3-0.3,0.9-0.3,1.3,0c0.3,0.3,0.3,0.9,0,1.3c-0.3,0.3-0.9,0.3-1.2,0
								C68.2,68.4,68.2,67.8,68.6,67.5z"/>
						</g>
						<g>
							<path class="st4" d="M69.2,69.2c-0.3,0-0.6-0.1-0.8-0.3c-0.2-0.2-0.3-0.5-0.3-0.8c0-0.3,0.1-0.6,0.3-0.8
								c0.4-0.4,1.2-0.4,1.6,0c0.2,0.2,0.3,0.5,0.3,0.8c0,0.3-0.1,0.6-0.3,0.8C69.7,69.1,69.4,69.2,69.2,69.2z M69.2,67.5
								c-0.2,0-0.3,0-0.5,0.2c-0.1,0.1-0.2,0.3-0.2,0.4c0,0.2,0,0.3,0.2,0.5c0.2,0.2,0.7,0.2,0.9,0c0.1-0.1,0.2-0.3,0.2-0.5
								c0-0.2,0-0.3-0.2-0.5C69.5,67.6,69.4,67.5,69.2,67.5z"/>
						</g>
					</g>
					<g>
						<g>
							<path class="st4" d="M64.2,63.2c0.3-0.3,0.9-0.3,1.2,0c0.4,0.4,0.4,0.9,0,1.3c-0.3,0.3-0.9,0.3-1.3,0
								C63.8,64,63.8,63.5,64.2,63.2z"/>
						</g>
						<g>
							<path class="st4" d="M64.8,64.9c-0.3,0-0.6-0.1-0.8-0.3c-0.4-0.4-0.4-1.1,0-1.5c0.4-0.4,1.2-0.4,1.5,0c0.5,0.4,0.5,1.1,0,1.6
								C65.4,64.8,65.1,64.9,64.8,64.9z M64.8,63.2c-0.2,0-0.3,0-0.5,0.2c-0.2,0.2-0.2,0.7,0,0.9s0.7,0.3,0.9,0
								c0.2-0.3,0.2-0.7,0-0.9C65.1,63.2,65,63.2,64.8,63.2z"/>
						</g>
					</g>
				</g>
			</g>
		</g>
	</g>
</g>
</svg>
