<?xml version="1.0" encoding="utf-8"?>
<!-- Generator: Adobe Illustrator 19.0.0, SVG Export Plug-In . SVG Version: 6.00 Build 0)  -->
<svg version="1.1" xmlns="http://www.w3.org/2000/svg" xmlns:xlink="http://www.w3.org/1999/xlink" x="0px" y="0px"
	 viewBox="-35 37 128 128" style="enable-background:new -35 37 128 128;" xml:space="preserve">
<style type="text/css">
	.st0{fill:#37474F;}
	.st1{fill:#FFAB00;}
	.st2{fill:#FFECB3;}
	.st3{fill:#FFFFFF;}
	.st4{fill:#B0BEC5;}
</style>
<g id="Layer_1">
	<g>
		<g>
			<path class="st0" d="M45.4,95.6c0,9.5-8.9,17.3-19.8,17.3S5.8,105.2,5.8,95.6c0-9.5,8.9-17.3,19.8-17.3
				C36.5,78.3,45.4,86,45.4,95.6z"/>
			<path class="st0" d="M25.6,114.3c-11.8,0-21.3-8.4-21.3-18.8c0-10.3,9.6-18.8,21.3-18.8c11.8,0,21.3,8.4,21.3,18.8
				S37.3,114.3,25.6,114.3z M25.6,79.8c-10.1,0-18.3,7.1-18.3,15.8s8.2,15.8,18.3,15.8s18.3-7.1,18.3-15.8S35.7,79.8,25.6,79.8z"/>
		</g>
		<g>
			<polygon class="st1" points="-26.6,163.5 25.6,73.1 77.8,163.5 			"/>
			<path class="st0" d="M77.8,165H-26.6c-0.5,0-1-0.3-1.3-0.8c-0.3-0.5-0.3-1,0-1.5l52.2-90.4c0.3-0.5,0.8-0.8,1.3-0.8l0,0
				c0.5,0,1,0.3,1.3,0.8l52.2,90.4c0.3,0.5,0.3,1,0,1.5C78.8,164.7,78.3,165,77.8,165z M-24,162h99.2L25.6,76.1L-24,162z"/>
		</g>
		<g>
			<g>
				<g>
					<g>
						<g>
							<path class="st0" d="M44.5,90.5c-1.6-9-9.5-15.9-18.9-15.9S8.4,81.5,6.7,90.5H44.5z"/>
							<path class="st0" d="M44.5,92H6.7c-0.4,0-0.9-0.2-1.2-0.5s-0.4-0.8-0.3-1.2C7,80.4,15.6,73.2,25.6,73.2S44.2,80.4,46,90.3
								c0.1,0.4,0,0.9-0.3,1.2S44.9,92,44.5,92z M8.6,89h34c-2.2-7.5-9.1-12.9-17-12.9S10.8,81.5,8.6,89z"/>
						</g>
						<g>
							<path class="st2" d="M35.2,66.6c0,5.5-4.5,9.9-10,9.9l0,0c-5.5,0-10-4.4-10-9.9v-4.9c0-5.5,4.5-9.9,10-9.9l0,0
								c5.5,0,10,4.5,10,9.9V66.6z"/>
							<path class="st0" d="M25.2,78c-6.3,0-11.5-5.1-11.5-11.4v-4.9c0-6.3,5.2-11.4,11.5-11.4s11.5,5.1,11.5,11.4v4.9
								C36.7,72.9,31.5,78,25.2,78z M25.2,53.2c-4.7,0-8.5,3.8-8.5,8.4v4.9c0,4.6,3.8,8.4,8.5,8.4s8.5-3.8,8.5-8.4v-4.9
								C33.7,57,29.9,53.2,25.2,53.2z"/>
						</g>
						<g>
							<path class="st0" d="M18.9,61.9c3.6-0.3,8.3-1.3,11.2-4c0,0,1.4,1.6,3.6,2.9c0.9-0.8,1.5-1.6,1.5-2.6v-2.5
								c0-2.8-4.5-5.1-10-5.1s-10,2.3-10,5.1v2.5C15.2,59.6,16.8,60.9,18.9,61.9z"/>
							<path class="st0" d="M18.9,63.4c-0.2,0-0.4,0-0.6-0.1c-2.9-1.3-4.5-3.1-4.5-5.2v-2.5c-0.1-3.8,4.8-6.6,11.4-6.6
								s11.5,2.8,11.5,6.6v2.5c0,1.4-0.7,2.7-2,3.8c-0.5,0.4-1.1,0.5-1.7,0.2c-1.3-0.7-2.3-1.5-3-2.1c-2.6,1.9-6.3,3.1-11,3.5
								C18.9,63.4,18.9,63.4,18.9,63.4z M25.2,52c-4.8,0-8.5,1.9-8.5,3.6v2.5c0,0.5,0.6,1.4,2.4,2.3c4.5-0.5,7.9-1.7,9.9-3.6
								c0.3-0.3,0.7-0.4,1.1-0.4s0.8,0.2,1.1,0.5c0,0,0.8,1,2.2,1.9c0.2-0.2,0.2-0.5,0.2-0.7v-2.5C33.7,54.1,30.5,52,25.2,52z"/>
						</g>
						<g>
							<polygon class="st3" points="25.6,85.2 23.1,82.7 25.6,80.3 28.1,82.7 							"/>
						</g>
					</g>
					<g>
						<g>
							<g>
								<path class="st4" d="M4.6,163.5c-1.6-9-9.5-15.9-18.9-15.9s-17.2,6.9-18.9,15.9H4.6z"/>
								<path class="st0" d="M6.4,165H-35l0.3-1.8c1.8-9.9,10.4-17.1,20.4-17.1s18.6,7.2,20.4,17.1L6.4,165z M-31.3,162h34
									c-2.2-7.6-9.1-12.9-17-12.9S-29.1,154.4-31.3,162z"/>
							</g>
							<g>
								<path class="st2" d="M-4.8,140.5c0,5.5-4.5,10-10,10l0,0c-5.5,0-10-4.5-10-10v-5c0-5.5,4.5-10,10-10l0,0c5.5,0,10,4.5,10,10
									V140.5z"/>
								<path class="st0" d="M-14.8,152c-6.3,0-11.5-5.2-11.5-11.5v-5c0-6.3,5.2-11.5,11.5-11.5s11.5,5.2,11.5,11.5v5
									C-3.3,146.8-8.5,152-14.8,152z M-14.8,127c-4.7,0-8.5,3.8-8.5,8.5v5c0,4.7,3.8,8.5,8.5,8.5s8.5-3.8,8.5-8.5v-5
									C-6.3,130.8-10.1,127-14.8,127z"/>
							</g>
							<g>
								<path class="st0" d="M-21.1,135.8c3.7-0.3,8.4-1.3,11.3-4c0,0,1.3,1.6,3.6,2.8c0.9-0.8,1.5-1.6,1.5-2.6v-2.5
									c0-2.8-4.5-5.1-10-5.1s-10,2.3-10,5.1v2.5C-24.8,133.5-23.1,134.8-21.1,135.8z"/>
								<path class="st0" d="M-21.1,137.3c-0.2,0-0.4,0-0.6-0.1c-3-1.5-4.6-3.2-4.6-5.2v-2.5c0-3.8,4.9-6.6,11.5-6.6
									s11.5,2.8,11.5,6.6v2.5c0,1.4-0.7,2.6-2,3.8c-0.5,0.4-1.1,0.5-1.7,0.2c-1.3-0.7-2.3-1.5-3-2.1
									C-13.2,136.2-17.7,137.1-21.1,137.3C-21,137.3-21.1,137.3-21.1,137.3z M-14.8,125.9c-5.3,0-8.5,2.1-8.5,3.6v2.5
									c0,0.5,0.8,1.4,2.5,2.2c3.2-0.3,7.4-1.2,10-3.6c0.3-0.3,0.7-0.4,1.1-0.4s0.8,0.2,1.1,0.5c0,0,0.8,1,2.2,1.9
									c0.1-0.2,0.2-0.5,0.2-0.7v-2.5C-6.3,127.8-10,125.9-14.8,125.9z"/>
							</g>
						</g>
						<g>
							<g>
								<path class="st4" d="M84.4,163.5c-1.6-9-9.5-15.9-18.9-15.9s-17.2,6.9-18.9,15.9H84.4z"/>
								<path class="st0" d="M86.2,165H44.8l0.3-1.8c1.8-9.9,10.4-17.1,20.4-17.1s18.6,7.2,20.4,17.1L86.2,165z M48.5,162h34
									c-2.2-7.6-9.1-12.9-17-12.9S50.7,154.4,48.5,162z"/>
							</g>
							<g>
								<path class="st2" d="M75.2,140.5c0,5.5-4.5,9.9-10,9.9l0,0c-5.5,0-10-4.5-10-9.9v-4.9c0-5.5,4.5-9.9,10-9.9l0,0
									c5.5,0,10,4.4,10,9.9V140.5z"/>
								<path class="st0" d="M65.2,151.9c-6.3,0-11.5-5.1-11.5-11.4v-4.9c0-6.3,5.2-11.4,11.5-11.4s11.5,5,11.5,11.3v4.9
									C76.7,146.8,71.5,151.9,65.2,151.9z M65.2,127.1c-4.7,0-8.5,3.8-8.5,8.4v4.9c0,4.7,3.8,8.4,8.5,8.4s8.5-3.8,8.5-8.4v-4.9
									C73.7,130.9,69.9,127.1,65.2,127.1z"/>
							</g>
							<g>
								<path class="st0" d="M58.8,135.8c3.6-0.3,8.3-1.3,11.2-4c0,0,1.4,1.6,3.7,2.8c0.9-0.8,1.5-1.6,1.5-2.6v-2.5
									c0-2.8-4.5-5.1-10-5.1s-10,2.3-10,5.1v2.5C55.2,133.5,56.7,134.8,58.8,135.8z"/>
								<path class="st0" d="M58.8,137.3c-0.2,0-0.4,0-0.6-0.1c-2.9-1.4-4.5-3.2-4.5-5.2v-2.5c0-3.8,4.9-6.6,11.5-6.6
									s11.5,2.8,11.5,6.6v2.5c0,1.4-0.7,2.6-2,3.8c-0.5,0.4-1.1,0.5-1.7,0.2c-1.3-0.7-2.4-1.5-3.1-2.1c-3.2,2.3-7.7,3.2-11,3.5
									C58.9,137.3,58.8,137.3,58.8,137.3z M65.2,125.9c-5.3,0-8.5,2.1-8.5,3.6v2.5c0,0.7,0.9,1.5,2.4,2.2c3.2-0.3,7.4-1.2,9.9-3.6
									c0.3-0.3,0.7-0.4,1.1-0.4s0.8,0.2,1.1,0.5c0,0,0.9,1,2.3,1.9c0.2-0.3,0.3-0.5,0.3-0.7v-2.5C73.7,128,70.5,125.9,65.2,125.9z
									"/>
							</g>
						</g>
					</g>
				</g>
				<g>
					<polygon class="st3" points="41.6,120.5 25.6,148.1 9.6,120.5 					"/>
					<path class="st0" d="M25.6,149.6c-0.5,0-1-0.3-1.3-0.7l-16-27.6c-0.3-0.5-0.3-1,0-1.5s0.8-0.8,1.3-0.8h31.9
						c0.5,0,1,0.3,1.3,0.8s0.3,1,0,1.5l-16,27.6C26.6,149.3,26.1,149.6,25.6,149.6z M12.2,122l13.4,23.1L39,122H12.2z"/>
				</g>
			</g>
			<g>
				<g>
					<path class="st0" d="M4.1,139.5c0,0.7-0.6,1.3-1.3,1.3s-1.3-0.6-1.3-1.3c0-0.7,0.6-1.3,1.3-1.3C3.5,138.1,4.1,138.7,4.1,139.5z
						"/>
					<path class="st0" d="M2.8,141.3c-1,0-1.8-0.8-1.8-1.8s0.8-1.8,1.8-1.8s1.8,0.8,1.8,1.8C4.6,140.4,3.7,141.3,2.8,141.3z
						 M2.8,138.6c-0.4,0-0.8,0.4-0.8,0.8c0,0.4,0.4,0.8,0.8,0.8c0.4,0,0.8-0.4,0.8-0.8C3.6,139,3.2,138.6,2.8,138.6z"/>
				</g>
				<g>
					<path class="st0" d="M49.7,139.5c0,0.7-0.6,1.3-1.3,1.3c-0.7,0-1.3-0.6-1.3-1.3c0-0.7,0.6-1.3,1.3-1.3
						C49.1,138.1,49.7,138.7,49.7,139.5z"/>
					<path class="st0" d="M48.4,141.3c-1,0-1.8-0.8-1.8-1.8s0.8-1.8,1.8-1.8s1.8,0.8,1.8,1.8S49.4,141.3,48.4,141.3z M48.4,138.6
						c-0.5,0-0.8,0.4-0.8,0.8c0,0.4,0.4,0.8,0.8,0.8s0.8-0.4,0.8-0.8C49.2,139,48.9,138.6,48.4,138.6z"/>
				</g>
			</g>
			<g>
				<g>
					<path class="st0" d="M25.6,97.8c-0.7,0-1.3-0.6-1.3-1.3s0.6-1.3,1.3-1.3c0.7,0,1.3,0.6,1.3,1.3C26.9,97.2,26.3,97.8,25.6,97.8z
						"/>
					<path class="st0" d="M25.6,98.3c-1,0-1.8-0.8-1.8-1.8s0.8-1.8,1.8-1.8s1.8,0.8,1.8,1.8C27.4,97.5,26.6,98.3,25.6,98.3z
						 M25.6,95.7c-0.4,0-0.8,0.4-0.8,0.8c0,0.4,0.4,0.8,0.8,0.8c0.4,0,0.8-0.4,0.8-0.8C26.4,96.1,26,95.7,25.6,95.7z"/>
				</g>
				<g>
					<path class="st0" d="M25.6,107c-0.7,0-1.3-0.6-1.3-1.3c0-0.7,0.6-1.3,1.3-1.3c0.7,0,1.3,0.6,1.3,1.3
						C26.9,106.4,26.3,107,25.6,107z"/>
					<path class="st0" d="M25.6,107.5c-1,0-1.8-0.8-1.8-1.8s0.8-1.8,1.8-1.8s1.8,0.8,1.8,1.8C27.4,106.7,26.6,107.5,25.6,107.5z
						 M25.6,104.8c-0.4,0-0.8,0.4-0.8,0.8s0.4,0.8,0.8,0.8c0.4,0,0.8-0.4,0.8-0.8C26.4,105.2,26,104.8,25.6,104.8z"/>
				</g>
				<g>
					<path class="st0" d="M25.6,116.1c-0.7,0-1.3-0.6-1.3-1.3c0-0.7,0.6-1.3,1.3-1.3c0.7,0,1.3,0.6,1.3,1.3
						C26.9,115.5,26.3,116.1,25.6,116.1z"/>
					<path class="st0" d="M25.6,116.6c-1,0-1.8-0.8-1.8-1.8s0.8-1.8,1.8-1.8s1.8,0.8,1.8,1.8C27.4,115.8,26.6,116.6,25.6,116.6z
						 M25.6,114c-0.4,0-0.8,0.3-0.8,0.8s0.3,0.8,0.8,0.8s0.8-0.4,0.8-0.8C26.4,114.4,26,114,25.6,114z"/>
				</g>
			</g>
		</g>
	</g>
</g>
<g id="Layer_2">
	<g id="Layer_2_1_">
		<g>
			<g>
				<g>
					<g>
						<polyline class="st1" points="46.3,85.6 52.5,79.9 51.1,77.2 						"/>
					</g>
					<g>
						<path class="st0" d="M46.3,86.3c-0.2,0-0.4-0.1-0.5-0.2c-0.3-0.3-0.2-0.7,0-1l5.8-5.3l-1.2-2.2c-0.2-0.3,0-0.7,0.3-0.9
							c0.3-0.2,0.7,0,0.9,0.3l1.7,3.2l-6.6,6C46.6,86.2,46.5,86.3,46.3,86.3z"/>
					</g>
				</g>
				<g>
					<g>
						<polyline class="st1" points="39,70 47.4,69 47.7,65.9 						"/>
					</g>
					<g>
						<path class="st0" d="M39,70.7c-0.3,0-0.7-0.2-0.7-0.6s0.2-0.7,0.6-0.8l7.8-1l0.3-2.5c0-0.4,0.4-0.7,0.8-0.6
							c0.4,0,0.7,0.4,0.6,0.8L48,69.6L39,70.7C39.1,70.7,39.1,70.7,39,70.7z"/>
					</g>
				</g>
				<g>
					<g>
						<polyline class="st1" points="41.9,53.1 49.4,57 51.5,54.6 						"/>
					</g>
					<g>
						<path class="st0" d="M49.6,57.9l-8-4.1c-0.3-0.2-0.5-0.6-0.3-0.9c0.2-0.3,0.6-0.5,0.9-0.3l7,3.6l1.7-1.9
							c0.2-0.3,0.7-0.3,1-0.1s0.3,0.7,0.1,1L49.6,57.9z"/>
					</g>
				</g>
				<g>
					<g>
						<polyline class="st1" points="53.9,40.9 57.9,48.3 60.9,47.5 						"/>
					</g>
					<g>
						<path class="st0" d="M57.6,49.1l-4.3-7.9c-0.2-0.3,0-0.7,0.3-0.9s0.7,0,0.9,0.3l3.7,6.9l2.5-0.6c0.4-0.1,0.7,0.1,0.8,0.5
							s-0.1,0.7-0.5,0.8L57.6,49.1z"/>
					</g>
				</g>
				<g>
					<g>
						<polyline class="st1" points="70.7,37.6 69.8,46 72.7,47.1 						"/>
					</g>
					<g>
						<path class="st0" d="M72.7,47.8c-0.1,0-0.1,0-0.2,0l-3.4-1.3l1-8.9c0-0.4,0.4-0.7,0.8-0.6c0.4,0,0.7,0.4,0.6,0.8l-0.9,7.8
							l2.4,0.8c0.4,0.1,0.6,0.5,0.4,0.9C73.3,47.6,73,47.8,72.7,47.8z"/>
					</g>
				</g>
				<g>
					<g>
						<polyline class="st1" points="86.4,44.5 80.9,50.8 82.7,53.4 						"/>
					</g>
					<g>
						<path class="st0" d="M82.7,54.1c-0.2,0-0.4-0.1-0.6-0.3l-2.1-3l5.9-6.8c0.2-0.3,0.7-0.3,1,0c0.3,0.2,0.3,0.7,0,1l-5.1,5.9
							l1.5,2.1c0.2,0.3,0.1,0.7-0.2,1C83,54,82.8,54.1,82.7,54.1z"/>
					</g>
				</g>
			</g>
			<g>
				<g>
					<g>
						<polygon class="st1" points="92.1,87.4 88.6,91 72.7,75.1 76.2,71.6 						"/>
					</g>
					<g>
						<path class="st0" d="M88.6,92L71.7,75.1l4.5-4.5L93,87.4L88.6,92z M73.7,75.1L88.6,90l2.5-2.5L76.2,72.6L73.7,75.1z"/>
					</g>
				</g>
				<g>
					<g>
						<g>
							<polygon class="st3" points="87.9,63.7 59.1,58 64.8,86.8 							"/>
						</g>
						<g>
							<path class="st0" d="M64.8,87.5c0,0-0.1,0-0.2,0c-0.2-0.1-0.4-0.3-0.5-0.5l-5.8-28.8c0-0.2,0-0.5,0.2-0.7s0.4-0.2,0.7-0.2
								L88,63.1c0.2,0,0.5,0.2,0.5,0.5c0,0.2,0,0.5-0.2,0.7l-23,23C65.2,87.4,65,87.5,64.8,87.5z M60,58.8l5.2,26.5l21.2-21.2
								L60,58.8z"/>
						</g>
					</g>
					<g>
						<g>
							<g>
								<path class="st0" d="M72.9,71.8c0.3-0.3,0.9-0.3,1.2,0c0.3,0.4,0.3,0.9,0,1.3s-0.9,0.3-1.3,0C72.6,72.7,72.6,72.1,72.9,71.8
									z"/>
							</g>
							<g>
								<path class="st0" d="M73.5,73.5c-0.3,0-0.6-0.1-0.8-0.3s-0.3-0.5-0.3-0.7c0-0.3,0.1-0.6,0.3-0.8c0.4-0.4,1.2-0.4,1.5,0
									c0.4,0.5,0.5,1.2,0,1.6C74.1,73.4,73.8,73.5,73.5,73.5z M73.5,71.8c-0.2,0-0.3,0-0.5,0.2s-0.2,0.3-0.2,0.5s0,0.3,0.2,0.4
									c0.2,0.2,0.7,0.2,0.9,0c0.2-0.2,0.2-0.7,0-0.9C73.8,71.8,73.7,71.8,73.5,71.8z"/>
							</g>
						</g>
						<g>
							<g>
								<path class="st0" d="M68.6,67.4c0.3-0.3,0.9-0.3,1.3,0c0.3,0.3,0.3,0.9,0,1.3c-0.3,0.3-0.9,0.3-1.2,0
									C68.2,68.3,68.2,67.7,68.6,67.4z"/>
							</g>
							<g>
								<path class="st0" d="M69.2,69.1c-0.3,0-0.6-0.1-0.8-0.3c-0.2-0.2-0.3-0.5-0.3-0.8s0.1-0.6,0.3-0.8c0.4-0.4,1.2-0.4,1.6,0
									c0.2,0.2,0.3,0.5,0.3,0.8s-0.1,0.6-0.3,0.8C69.7,69,69.4,69.1,69.2,69.1z M69.2,67.4c-0.2,0-0.3,0-0.5,0.2
									c-0.1,0.1-0.2,0.3-0.2,0.4c0,0.2,0,0.3,0.2,0.5s0.7,0.2,0.9,0c0.1-0.1,0.2-0.3,0.2-0.5s0-0.3-0.2-0.5
									C69.5,67.5,69.4,67.4,69.2,67.4z"/>
							</g>
						</g>
						<g>
							<g>
								<path class="st0" d="M64.2,63.1c0.3-0.3,0.9-0.3,1.2,0c0.4,0.4,0.4,0.9,0,1.3c-0.3,0.3-0.9,0.3-1.3,0
									C63.8,63.9,63.8,63.4,64.2,63.1z"/>
							</g>
							<g>
								<path class="st0" d="M64.8,64.8c-0.3,0-0.6-0.1-0.8-0.3c-0.4-0.4-0.4-1.1,0-1.5s1.2-0.4,1.5,0c0.5,0.4,0.5,1.1,0,1.6
									C65.4,64.7,65.1,64.8,64.8,64.8z M64.8,63.1c-0.2,0-0.3,0-0.5,0.2s-0.2,0.7,0,0.9s0.7,0.3,0.9,0c0.2-0.3,0.2-0.7,0-0.9
									C65.1,63.1,65,63.1,64.8,63.1z"/>
							</g>
						</g>
					</g>
				</g>
			</g>
		</g>
	</g>
</g>
</svg>
