<?xml version="1.0" encoding="utf-8"?>
<!-- Generator: Adobe Illustrator 19.0.0, SVG Export Plug-In . SVG Version: 6.00 Build 0)  -->
<svg version="1.1" xmlns="http://www.w3.org/2000/svg" xmlns:xlink="http://www.w3.org/1999/xlink" x="0px" y="0px"
	 viewBox="-35 37 128 128" style="enable-background:new -35 37 128 128;" xml:space="preserve">
<style type="text/css">
	.st0{clip-path:url(#SVGID_2_);fill:#FFFFFF;}
	
		.st1{clip-path:url(#SVGID_4_);fill:none;stroke:#37474F;stroke-width:3;stroke-linecap:round;stroke-linejoin:round;stroke-miterlimit:10;}
	.st2{clip-path:url(#SVGID_6_);fill:#B0BEC5;}
	
		.st3{clip-path:url(#SVGID_8_);fill:none;stroke:#37474F;stroke-width:3;stroke-linecap:round;stroke-linejoin:round;stroke-miterlimit:10;}
	.st4{clip-path:url(#SVGID_10_);fill:#37474F;}
	.st5{clip-path:url(#SVGID_12_);fill:none;stroke:#37474F;stroke-miterlimit:10;}
	.st6{clip-path:url(#SVGID_14_);fill:#37474F;}
	.st7{clip-path:url(#SVGID_16_);fill:none;stroke:#37474F;stroke-miterlimit:10;}
	.st8{clip-path:url(#SVGID_18_);fill:#37474F;}
	.st9{clip-path:url(#SVGID_20_);fill:none;stroke:#37474F;stroke-miterlimit:10;}
	.st10{clip-path:url(#SVGID_22_);fill:none;stroke:#37474F;stroke-width:3;stroke-linecap:round;stroke-miterlimit:10;}
	.st11{clip-path:url(#SVGID_24_);fill:none;stroke:#37474F;stroke-width:3;stroke-linecap:round;stroke-miterlimit:10;}
	.st12{clip-path:url(#SVGID_26_);fill:none;stroke:#37474F;stroke-width:3;stroke-linecap:round;stroke-miterlimit:10;}
	.st13{clip-path:url(#SVGID_28_);fill:none;stroke:#37474F;stroke-width:3;stroke-linecap:round;stroke-miterlimit:10;}
	.st14{clip-path:url(#SVGID_30_);fill:none;stroke:#37474F;stroke-width:3;stroke-linecap:round;stroke-miterlimit:10;}
	.st15{clip-path:url(#SVGID_32_);fill:none;stroke:#37474F;stroke-width:3;stroke-linecap:round;stroke-miterlimit:10;}
	.st16{clip-path:url(#SVGID_34_);fill:none;stroke:#37474F;stroke-width:3;stroke-linecap:round;stroke-miterlimit:10;}
	.st17{clip-path:url(#SVGID_36_);fill:none;stroke:#37474F;stroke-width:3;stroke-linecap:round;stroke-miterlimit:10;}
	.st18{clip-path:url(#SVGID_38_);fill:#FFAB00;}
	.st19{clip-path:url(#SVGID_40_);fill:none;stroke:#37474F;stroke-width:3;stroke-linejoin:round;stroke-miterlimit:10;}
	.st20{clip-path:url(#SVGID_42_);fill:#FFAB00;}
	.st21{clip-path:url(#SVGID_44_);fill:#37474F;}
	.st22{clip-path:url(#SVGID_46_);fill:#37474F;}
	.st23{clip-path:url(#SVGID_48_);fill:#37474F;}
	.st24{clip-path:url(#SVGID_50_);fill:#37474F;}
	.st25{clip-path:url(#SVGID_52_);fill:#37474F;}
	.st26{clip-path:url(#SVGID_54_);fill:#37474F;}
	.st27{clip-path:url(#SVGID_56_);fill:#37474F;}
	.st28{clip-path:url(#SVGID_58_);fill:#37474F;}
	.st29{fill:#FFFFFF;}
	.st30{fill:#FFAB00;}
</style>
<g id="Layer_1">
	<g>
		<g>
			<defs>
				<rect id="SVGID_1_" x="-37" y="37" width="128" height="128"/>
			</defs>
			<clipPath id="SVGID_2_">
				<use xlink:href="#SVGID_1_"  style="overflow:visible;"/>
			</clipPath>
			<path class="st0" d="M80.7,58.8l-4.6-3.6l-7.5-5.6l-7,4.9H60l-7-4.8l-7,4.8h-1.7l-7-4.8l-7,4.8h-1.7l-7-4.8l-7,4.8h-1.7l-7-4.8
				l-7,4.8h-1.4v74h-27v10.2c0,7.5,6.6,13.8,14.1,13.8H71c7.5,0,13.5-6.3,13.5-13.8V67.9C84.5,61.9,85.2,62.6,80.7,58.8"/>
		</g>
		<g>
			<defs>
				<rect id="SVGID_3_" x="-37" y="37" width="128" height="128"/>
			</defs>
			<clipPath id="SVGID_4_">
				<use xlink:href="#SVGID_3_"  style="overflow:visible;"/>
			</clipPath>
			<path class="st1" d="M80.7,58.8l-4.6-3.6l-7.5-5.6l-7,4.9H60l-7-4.8l-7,4.8h-1.7l-7-4.8l-7,4.8h-1.7l-7-4.8l-7,4.8h-1.7l-7-4.8
				l-7,4.8h-1.4v74h-27v10.2c0,7.5,6.6,13.8,14.1,13.8H71c7.5,0,13.5-6.3,13.5-13.8V67.9C84.5,61.9,85.2,62.6,80.7,58.8z"/>
		</g>
		<g>
			<defs>
				<rect id="SVGID_5_" x="-37" y="37" width="128" height="128"/>
			</defs>
			<clipPath id="SVGID_6_">
				<use xlink:href="#SVGID_5_"  style="overflow:visible;"/>
			</clipPath>
			<path class="st2" d="M-30.5,77.5v58.9c0,7.9,6.1,14.3,14,14.3s14-6.4,14-14.3V77.5H-30.5z"/>
		</g>
		<g>
			<defs>
				<rect id="SVGID_7_" x="-37" y="37" width="128" height="128"/>
			</defs>
			<clipPath id="SVGID_8_">
				<use xlink:href="#SVGID_7_"  style="overflow:visible;"/>
			</clipPath>
			<path class="st3" d="M-30.5,77.5v58.9c0,7.9,6.1,14.3,14,14.3s14-6.4,14-14.3V77.5H-30.5z"/>
		</g>
		<g>
			<defs>
				<rect id="SVGID_9_" x="-37" y="37" width="128" height="128"/>
			</defs>
			<clipPath id="SVGID_10_">
				<use xlink:href="#SVGID_9_"  style="overflow:visible;"/>
			</clipPath>
			<path class="st4" d="M12.7,68.3c0,0.8-0.6,1.4-1.4,1.4c-0.8,0-1.4-0.6-1.4-1.4s0.6-1.4,1.4-1.4C12,66.9,12.7,67.6,12.7,68.3"/>
		</g>
		<g>
			<defs>
				<rect id="SVGID_11_" x="-37" y="37" width="128" height="128"/>
			</defs>
			<clipPath id="SVGID_12_">
				<use xlink:href="#SVGID_11_"  style="overflow:visible;"/>
			</clipPath>
			<path class="st5" d="M12.7,68.3c0,0.8-0.6,1.4-1.4,1.4c-0.8,0-1.4-0.6-1.4-1.4s0.6-1.4,1.4-1.4C12,66.9,12.7,67.6,12.7,68.3z"/>
		</g>
		<g>
			<defs>
				<rect id="SVGID_13_" x="-37" y="37" width="128" height="128"/>
			</defs>
			<clipPath id="SVGID_14_">
				<use xlink:href="#SVGID_13_"  style="overflow:visible;"/>
			</clipPath>
			<path class="st6" d="M22.4,68.3c0,0.8-0.7,1.4-1.4,1.4c-0.8,0-1.4-0.6-1.4-1.4s0.6-1.4,1.4-1.4C21.8,66.9,22.4,67.6,22.4,68.3"/>
		</g>
		<g>
			<defs>
				<rect id="SVGID_15_" x="-37" y="37" width="128" height="128"/>
			</defs>
			<clipPath id="SVGID_16_">
				<use xlink:href="#SVGID_15_"  style="overflow:visible;"/>
			</clipPath>
			<path class="st7" d="M22.4,68.3c0,0.8-0.7,1.4-1.4,1.4c-0.8,0-1.4-0.6-1.4-1.4s0.6-1.4,1.4-1.4C21.8,66.9,22.4,67.6,22.4,68.3z"
				/>
		</g>
		<g>
			<defs>
				<rect id="SVGID_17_" x="-37" y="37" width="128" height="128"/>
			</defs>
			<clipPath id="SVGID_18_">
				<use xlink:href="#SVGID_17_"  style="overflow:visible;"/>
			</clipPath>
			<path class="st8" d="M32.2,68.3c0,0.8-0.6,1.4-1.4,1.4s-1.4-0.6-1.4-1.4s0.6-1.4,1.4-1.4S32.2,67.6,32.2,68.3"/>
		</g>
		<g>
			<defs>
				<rect id="SVGID_19_" x="-37" y="37" width="128" height="128"/>
			</defs>
			<clipPath id="SVGID_20_">
				<use xlink:href="#SVGID_19_"  style="overflow:visible;"/>
			</clipPath>
			<path class="st9" d="M32.2,68.3c0,0.8-0.6,1.4-1.4,1.4s-1.4-0.6-1.4-1.4s0.6-1.4,1.4-1.4S32.2,67.6,32.2,68.3z"/>
		</g>
		<g>
			<defs>
				<rect id="SVGID_21_" x="-37" y="37" width="128" height="128"/>
			</defs>
			<clipPath id="SVGID_22_">
				<use xlink:href="#SVGID_21_"  style="overflow:visible;"/>
			</clipPath>
			<line class="st10" x1="11" y1="118.5" x2="76" y2="118.5"/>
		</g>
		<g>
			<defs>
				<rect id="SVGID_23_" x="-37" y="37" width="128" height="128"/>
			</defs>
			<clipPath id="SVGID_24_">
				<use xlink:href="#SVGID_23_"  style="overflow:visible;"/>
			</clipPath>
			<line class="st11" x1="11" y1="126.5" x2="76" y2="126.5"/>
		</g>
		<g>
			<defs>
				<rect id="SVGID_25_" x="-37" y="37" width="128" height="128"/>
			</defs>
			<clipPath id="SVGID_26_">
				<use xlink:href="#SVGID_25_"  style="overflow:visible;"/>
			</clipPath>
			<line class="st12" x1="11" y1="133.5" x2="76" y2="133.5"/>
		</g>
		<g>
			<defs>
				<rect id="SVGID_27_" x="-37" y="37" width="128" height="128"/>
			</defs>
			<clipPath id="SVGID_28_">
				<use xlink:href="#SVGID_27_"  style="overflow:visible;"/>
			</clipPath>
			<line class="st13" x1="11" y1="140.5" x2="76" y2="140.5"/>
		</g>
		<g>
			<defs>
				<rect id="SVGID_29_" x="-37" y="37" width="128" height="128"/>
			</defs>
			<clipPath id="SVGID_30_">
				<use xlink:href="#SVGID_29_"  style="overflow:visible;"/>
			</clipPath>
			<line class="st14" x1="39" y1="90.5" x2="76" y2="90.5"/>
		</g>
		<g>
			<defs>
				<rect id="SVGID_31_" x="-37" y="37" width="128" height="128"/>
			</defs>
			<clipPath id="SVGID_32_">
				<use xlink:href="#SVGID_31_"  style="overflow:visible;"/>
			</clipPath>
			<line class="st15" x1="39" y1="97.5" x2="76" y2="97.5"/>
		</g>
		<g>
			<defs>
				<rect id="SVGID_33_" x="-37" y="37" width="128" height="128"/>
			</defs>
			<clipPath id="SVGID_34_">
				<use xlink:href="#SVGID_33_"  style="overflow:visible;"/>
			</clipPath>
			<line class="st16" x1="39" y1="104.5" x2="76" y2="104.5"/>
		</g>
		<g>
			<defs>
				<rect id="SVGID_35_" x="-37" y="37" width="128" height="128"/>
			</defs>
			<clipPath id="SVGID_36_">
				<use xlink:href="#SVGID_35_"  style="overflow:visible;"/>
			</clipPath>
			<line class="st17" x1="39" y1="112.5" x2="76" y2="112.5"/>
		</g>
		<g>
			<defs>
				<rect id="SVGID_37_" x="-37" y="37" width="128" height="128"/>
			</defs>
			<clipPath id="SVGID_38_">
				<use xlink:href="#SVGID_37_"  style="overflow:visible;"/>
			</clipPath>
			<rect x="11.5" y="90.5" class="st18" width="21" height="21"/>
		</g>
		<g>
			<defs>
				<rect id="SVGID_39_" x="-37" y="37" width="128" height="128"/>
			</defs>
			<clipPath id="SVGID_40_">
				<use xlink:href="#SVGID_39_"  style="overflow:visible;"/>
			</clipPath>
			<rect x="11.5" y="90.5" class="st19" width="21" height="21"/>
		</g>
		<g>
			<defs>
				<rect id="SVGID_41_" x="-37" y="37" width="128" height="128"/>
			</defs>
			<clipPath id="SVGID_42_">
				<use xlink:href="#SVGID_41_"  style="overflow:visible;"/>
			</clipPath>
			<rect x="69" y="74" class="st20" width="6" height="9"/>
		</g>
		<g>
			<defs>
				<rect id="SVGID_43_" x="-37" y="37" width="128" height="128"/>
			</defs>
			<clipPath id="SVGID_44_">
				<use xlink:href="#SVGID_43_"  style="overflow:visible;"/>
			</clipPath>
			<path class="st21" d="M15.4,74.8v7.9c0,0.4-0.3,0.8-0.8,0.8s-0.8-0.3-0.8-0.8v-3.2h-3.5v3.2c0,0.4-0.4,0.8-0.8,0.8
				c-0.4,0-0.8-0.3-0.8-0.8v-7.9C8.7,74.4,9,74,9.5,74c0.4,0,0.8,0.4,0.8,0.8V78h3.5v-3.2c0-0.4,0.4-0.8,0.8-0.8
				C15.1,74,15.4,74.4,15.4,74.8"/>
		</g>
		<g>
			<defs>
				<rect id="SVGID_45_" x="-37" y="37" width="128" height="128"/>
			</defs>
			<clipPath id="SVGID_46_">
				<use xlink:href="#SVGID_45_"  style="overflow:visible;"/>
			</clipPath>
			<path class="st22" d="M22.4,82.7c0,0.4-0.3,0.8-0.8,0.8h-4.3c-0.5,0-0.8-0.3-0.8-0.8v-7.9c0-0.4,0.3-0.8,0.8-0.8h4.3
				c0.5,0,0.8,0.4,0.8,0.8c0,0.4-0.3,0.8-0.8,0.8H18V78h2.8c0.4,0,0.8,0.3,0.8,0.8c0,0.4-0.4,0.8-0.8,0.8H18V82h3.5
				C22,81.9,22.4,82.3,22.4,82.7"/>
		</g>
		<g>
			<defs>
				<rect id="SVGID_47_" x="-37" y="37" width="128" height="128"/>
			</defs>
			<clipPath id="SVGID_48_">
				<use xlink:href="#SVGID_47_"  style="overflow:visible;"/>
			</clipPath>
			<path class="st23" d="M31.3,82.4c0,0.1,0,0.2,0,0.3c0,0.4-0.3,0.8-0.8,0.8c-0.3,0-0.6-0.2-0.7-0.5l-0.6-1.5h-3.7L24.9,83
				c-0.1,0.3-0.4,0.5-0.7,0.5c-0.5,0-0.8-0.4-0.8-0.8c0-0.1,0-0.2,0-0.3l3.2-7.9c0.1-0.3,0.4-0.5,0.7-0.5s0.6,0.2,0.7,0.5L31.3,82.4
				z M28.6,79.9l-1.2-3l-1.2,3H28.6z"/>
		</g>
		<g>
			<defs>
				<rect id="SVGID_49_" x="-37" y="37" width="128" height="128"/>
			</defs>
			<clipPath id="SVGID_50_">
				<use xlink:href="#SVGID_49_"  style="overflow:visible;"/>
			</clipPath>
			<path class="st24" d="M33.1,83.5c-0.4,0-0.8-0.3-0.8-0.8v-7.9c0-0.4,0.4-0.8,0.8-0.8h2.3c0.1,0,4,0,4,4.8c0,4.7-4,4.7-4,4.7H33.1
				z M33.9,81.9h1.5c0,0,0.7,0,1.3-0.4c0.8-0.5,1.2-1.4,1.2-2.7c0-1.4-0.4-2.3-1.2-2.8c-0.6-0.4-1.2-0.4-1.2-0.4H34v6.3H33.9z"/>
		</g>
		<g>
			<defs>
				<rect id="SVGID_51_" x="-37" y="37" width="128" height="128"/>
			</defs>
			<clipPath id="SVGID_52_">
				<use xlink:href="#SVGID_51_"  style="overflow:visible;"/>
			</clipPath>
			<path class="st25" d="M41.3,83.5c-0.4,0-0.8-0.3-0.8-0.8v-7.9c0-0.4,0.3-0.8,0.8-0.8s0.8,0.4,0.8,0.8v7.1h2.8
				c0.4,0,0.8,0.3,0.8,0.8c0,0.4-0.3,0.8-0.8,0.8C44.9,83.5,41.3,83.5,41.3,83.5z"/>
		</g>
		<g>
			<defs>
				<rect id="SVGID_53_" x="-37" y="37" width="128" height="128"/>
			</defs>
			<clipPath id="SVGID_54_">
				<use xlink:href="#SVGID_53_"  style="overflow:visible;"/>
			</clipPath>
			<path class="st26" d="M46.7,82.7v-7.9c0-0.4,0.4-0.8,0.8-0.8s0.8,0.4,0.8,0.8v7.9c0,0.4-0.3,0.8-0.8,0.8S46.7,83.1,46.7,82.7"/>
		</g>
		<g>
			<defs>
				<rect id="SVGID_55_" x="-37" y="37" width="128" height="128"/>
			</defs>
			<clipPath id="SVGID_56_">
				<use xlink:href="#SVGID_55_"  style="overflow:visible;"/>
			</clipPath>
			<path class="st27" d="M55,83.2l-4.1-5.9v5.4c0,0.4-0.4,0.8-0.8,0.8c-0.5,0-0.8-0.3-0.8-0.8v-7.9c0-0.4,0.3-0.8,0.8-0.8
				c0.2,0,0.5,0.1,0.6,0.3l4.1,5.9v-5.4c0-0.4,0.4-0.8,0.8-0.8s0.8,0.4,0.8,0.8v7.9c0,0.4-0.3,0.8-0.8,0.8
				C55.4,83.5,55.1,83.4,55,83.2"/>
		</g>
		<g>
			<defs>
				<rect id="SVGID_57_" x="-37" y="37" width="128" height="128"/>
			</defs>
			<clipPath id="SVGID_58_">
				<use xlink:href="#SVGID_57_"  style="overflow:visible;"/>
			</clipPath>
			<path class="st28" d="M63.4,82.7c0,0.4-0.3,0.8-0.8,0.8h-4.3c-0.5,0-0.8-0.3-0.8-0.8v-7.9c0-0.4,0.3-0.8,0.8-0.8h4.3
				c0.5,0,0.8,0.4,0.8,0.8c0,0.4-0.3,0.8-0.8,0.8H59V78h2.8c0.4,0,0.8,0.3,0.8,0.8c0,0.4-0.4,0.8-0.8,0.8H59V82h3.5
				C63,81.9,63.4,82.3,63.4,82.7"/>
		</g>
	</g>
</g>
<g id="Layer_3">
	<path class="st29" d="M87.5,164.2c-2.7,0-5.4-1-7.5-2.8c-2,1.8-4.7,2.8-7.5,2.8c-1,0-1.9-0.4-2.5-1.1c-0.7-0.7-1-1.6-1-2.5
		c0-1.9,1.6-3.4,3.5-3.4c1.9,0,4-1.7,4-3.2v-12.2c0,0-4,0-4,0c-1.9,0-3.5-1.5-3.6-3.3c0-0.9,0.3-1.8,0.9-2.5
		c0.6-0.7,1.5-1.1,2.4-1.1l4.2,0v-30.2c0-1.5-2.1-3.2-4-3.2c0,0,0,0,0,0c-1.9,0-3.5-1.5-3.6-3.3c-0.1-1.9,1.4-3.6,3.3-3.7l0.2,0
		c2.7,0,5.4,1,7.5,2.8c2-1.8,4.7-2.8,7.5-2.8c2,0,3.5,1.6,3.5,3.5c0,1.9-1.6,3.4-3.5,3.4c-1.9,0-4,1.7-4,3.2v30.2l4.1,0
		c1.9,0.1,3.4,1.6,3.4,3.5c0,1.9-1.6,3.4-3.5,3.4h-4v12.2c0,1.5,2.1,3.2,4,3.2c2,0,3.5,1.6,3.5,3.5C91,162.6,89.4,164.2,87.5,164.2
		L87.5,164.2z"/>
</g>
<g id="Layer_2">
	<g transform="translate(0,-952.36218)">
		<path class="st30" d="M72.4,1048.6c-0.8,0-1.5,0.7-1.4,1.6c0,0.8,0.7,1.5,1.6,1.4c2.9,0,6,2.5,6,5.2v32.2h-6c0,0-0.1,0-0.1,0
			c-0.8,0-1.5,0.7-1.4,1.6c0,0.8,0.7,1.5,1.6,1.4h6v14.2c0,2.7-3.1,5.2-6,5.2c-0.8,0-1.5,0.6-1.5,1.5c0,0.8,0.6,1.5,1.5,1.5
			c0,0,0,0,0,0c2.9,0,5.8-1.4,7.5-3.7c1.7,2.3,4.6,3.7,7.5,3.7c0.8,0,1.5-0.6,1.5-1.5c0-0.8-0.6-1.5-1.5-1.5c0,0,0,0,0,0
			c-2.9,0-6-2.5-6-5.2v-14.2h6c0.8,0,1.5-0.6,1.5-1.5c0-0.8-0.6-1.5-1.5-1.5c0,0,0,0,0,0h-6v-32.2c0-2.7,3.1-5.2,6-5.2
			c0.8,0,1.5-0.6,1.5-1.5s-0.6-1.5-1.5-1.5c0,0,0,0,0,0c-2.9,0-5.8,1.5-7.5,3.8c-1.7-2.3-4.6-3.8-7.5-3.8
			C72.5,1048.6,72.4,1048.6,72.4,1048.6z"/>
	</g>
</g>
</svg>
