<?xml version="1.0" encoding="utf-8"?>
<!-- Generator: Adobe Illustrator 19.0.0, SVG Export Plug-In . SVG Version: 6.00 Build 0)  -->
<svg version="1.1" xmlns="http://www.w3.org/2000/svg" xmlns:xlink="http://www.w3.org/1999/xlink" x="0px" y="0px"
	 viewBox="-35 37 128 128" style="enable-background:new -35 37 128 128;" xml:space="preserve">
<style type="text/css">
	.st0{fill:#FFFFFF;}
	.st1{fill:#37474F;}
	.st2{fill:#78909C;}
	.st3{fill:#FFECB3;}
	.st4{fill:#FFAB00;}
	.st5{fill:none;}
	.st6{fill:#FFAB00;stroke:#37474F;stroke-width:2;stroke-miterlimit:10;}
	.st7{font-family:'MyriadPro-Semibold';}
	.st8{font-size:18.6698px;}
</style>
<g id="Layer_1">
	<g>
		<g>
			<rect x="-27.5" y="42.5" class="st0" width="113" height="113"/>
			<path class="st1" d="M87,157H-29V41H87V157z M-26,154H84V44H-26V154z"/>
		</g>
	</g>
</g>
<g id="Layer_2">
	<g>
		<g>
			<g>
				<path class="st2" d="M19,102l0.6-0.2c2-0.9,4.8,1.2,6.4,4.5l1.3,2.7c3.9-2.6,7-6,9.2-10l-2.7-1c-3.5-1.3-5.8-4-5.1-6l0.2-0.6
					c0.7-2,4.2-2.6,7.8-1.3l2.7,1c0.9-4.4,0.8-9-0.5-13.6l-2.7,1.3c-3.4,1.6-6.9,1.3-7.8-0.6l-0.2-0.6c-0.9-2,1.2-4.8,4.5-6.4
					l2.7-1.3c-2.6-3.9-6-7-10-9.2l-1,2.7c-1.3,3.5-4,5.8-6,5.1l-0.7-0.2c-2-0.7-2.6-4.2-1.3-7.8l1-2.7c-4.4-0.9-9-0.8-13.6,0.5L5,61
					c1.6,3.4,1.3,6.9-0.6,7.8l-0.6,0.2c-2,0.9-4.8-1.1-6.4-4.5L-4,61.9c-3.9,2.6-7,6-9.2,10l2.7,1c3.5,1.3,5.8,4,5.1,6l-0.2,0.6
					c-0.7,2-4.2,2.6-7.8,1.3l-2.7-1c-0.9,4.4-0.8,9,0.5,13.6l2.7-1.3c3.4-1.6,6.9-1.3,7.8,0.6l0.2,0.6c0.9,2-1.1,4.8-4.5,6.4
					l-2.7,1.3c2.6,3.9,6,7,10,9.2l1-2.7c1.3-3.5,4-5.8,6-5.1l0.6,0.2c2,0.7,2.6,4.2,1.3,7.8l-1,2.7c4.4,0.9,9,0.8,13.6-0.5l-1.3-2.7
					C16.7,106.4,17,102.9,19,102z M3.2,89.4C1,84.7,3,79.1,7.7,77c4.7-2.2,10.3-0.2,12.4,4.5c2.2,4.7,0.2,10.3-4.5,12.4
					C10.9,96,5.4,94,3.2,89.4z"/>
			</g>
			<g>
				<path class="st1" d="M11.6,115.2L11.6,115.2c-2,0-4-0.2-6-0.6c-0.5-0.1-0.9-0.4-1-0.8c-0.2-0.4-0.2-0.9-0.1-1.3l1-2.7
					c1.1-3,0.5-5.4-0.4-5.7l-0.6-0.2c-1-0.4-3,1.3-4,4.2l-1,2.7c-0.2,0.4-0.5,0.8-0.9,0.9c-0.4,0.2-0.9,0.2-1.3-0.1
					c-4.2-2.4-7.9-5.6-10.5-9.6c-0.2-0.4-0.3-0.9-0.2-1.3c0.2-0.5,0.5-0.8,0.9-1l2.7-1.3c1.4-0.6,2.6-1.6,3.3-2.6
					c0.5-0.7,0.7-1.3,0.5-1.8l-0.2-0.6c-0.2-0.5-1-0.8-2.1-0.8c-1.1,0-2.4,0.3-3.6,0.9l-2.7,1.3c-0.4,0.2-0.9,0.2-1.3,0
					c-0.4-0.2-0.7-0.5-0.9-1c-1.3-4.6-1.6-9.6-0.6-14.3c0.1-0.5,0.4-0.9,0.8-1c0.4-0.2,0.9-0.2,1.3-0.1l2.7,1
					c1.1,0.4,2.1,0.6,3.1,0.6c1.3,0,2.4-0.4,2.6-0.9l0.2-0.6c0.2-0.4-0.1-1-0.6-1.7c-0.8-0.9-2-1.7-3.5-2.3l-2.7-1
					c-0.4-0.2-0.8-0.5-0.9-0.9c-0.2-0.3-0.2-0.9,0.1-1.3c2.4-4.2,5.6-7.8,9.6-10.5c0.4-0.2,0.9-0.3,1.3-0.2c0.5,0.2,0.8,0.5,1,0.9
					l1.3,2.7c1.1,2.4,2.9,3.8,4,3.8c0.2,0,0.2,0,0.3-0.1l0.6-0.2c0.9-0.4,1.3-2.9-0.1-5.7l-1.3-2.7c-0.2-0.4-0.2-0.9,0-1.3
					c0.2-0.4,0.5-0.7,1-0.9c4.6-1.3,9.6-1.6,14.3-0.6c0.5,0.1,0.9,0.4,1,0.8s0.2,0.9,0.1,1.3l-1,2.7c-1.1,3-0.5,5.4,0.4,5.7l0.6,0.2
					c1,0.4,3-1.3,4-4.2l1-2.7c0.2-0.4,0.5-0.8,0.9-0.9s0.9-0.2,1.3,0.1c4.2,2.4,7.8,5.6,10.5,9.6c0.2,0.4,0.3,0.9,0.2,1.3
					c-0.2,0.5-0.5,0.8-0.9,1l-2.7,1.3c-1.4,0.6-2.6,1.6-3.3,2.6c-0.5,0.7-0.7,1.3-0.5,1.8l0.2,0.6c0.2,0.5,1,0.8,2.1,0.8
					c1.1,0,2.4-0.3,3.6-0.9l2.7-1.3c0.4-0.2,0.9-0.2,1.3,0c0.4,0.2,0.7,0.5,0.9,1c1.3,4.6,1.6,9.6,0.6,14.3c-0.1,0.5-0.4,0.9-0.8,1
					c-0.4,0.2-0.9,0.2-1.3,0.1l-2.7-1c-1.1-0.4-2.1-0.6-3.1-0.6c-1.3,0-2.4,0.4-2.6,0.9L30,92.5c-0.2,0.4,0.1,1,0.6,1.7
					c0.8,0.9,2,1.7,3.4,2.3l2.7,1c0.4,0.2,0.8,0.5,0.9,0.9c0.2,0.4,0.2,0.9-0.1,1.3c-2.4,4.2-5.6,7.8-9.6,10.5
					c-0.4,0.2-0.9,0.3-1.3,0.2s-0.8-0.5-1-0.9l-1.3-2.7c-1.1-2.4-2.9-3.8-4-3.8c-0.2,0-0.2,0-0.3,0.1l-0.5,0.2
					c-0.4,0.2-0.7,0.8-0.8,1.6c-0.1,1.2,0.2,2.7,0.9,4.1l1.3,2.7c0.2,0.4,0.2,0.9,0,1.3c-0.2,0.5-0.5,0.7-1,0.9
					C17.3,114.8,14.5,115.2,11.6,115.2z M8.2,111.8c1.2,0.2,2.4,0.2,3.5,0.2l0,0c1.9,0,3.8-0.2,5.6-0.6l-0.5-0.9
					c-0.9-1.9-1.3-3.9-1.2-5.6c0.2-2,1.1-3.6,2.6-4.2l0.5-0.2c0.5-0.2,1.1-0.4,1.6-0.4c2.5,0,5.2,2.3,6.8,5.7l0.5,0.9
					c2.4-1.9,4.5-4.2,6.2-6.7l-0.9-0.5c-2-0.7-3.7-1.9-4.8-3.2c-1.3-1.6-1.7-3.3-1.2-4.9l0.2-0.6c0.7-1.9,2.7-3.1,5.6-3.1
					c1.3,0,2.8,0.2,4.2,0.8l0.9,0.4c0.4-3.1,0.3-6.2-0.4-9.2l-0.9,0.5c-1.6,0.8-3.4,1.2-4.9,1.2c-2.4,0-4.2-0.9-4.9-2.6l-0.2-0.6
					c-0.7-1.5-0.4-3.2,0.8-4.9c1-1.4,2.6-2.7,4.5-3.6l0.9-0.5c-1.9-2.4-4.2-4.5-6.7-6.2l-0.4,0.9c-1.3,3.8-4.1,6.3-6.7,6.3
					c-0.5,0-0.9-0.1-1.3-0.2l-0.6-0.2c-2.9-1-3.8-5.3-2.3-9.8l0.4-0.9c-3.1-0.4-6.2-0.3-9.2,0.4l0.5,0.9c2,4.3,1.3,8.6-1.4,10
					l-0.6,0.2c-0.5,0.2-1.1,0.4-1.6,0.4c-2.5,0-5.2-2.3-6.8-5.6l-0.6-0.9c-2.4,1.9-4.5,4.2-6.2,6.7l0.9,0.4c2,0.7,3.7,1.9,4.8,3.2
					c1.3,1.6,1.7,3.3,1.2,4.9L-4,80.1c-0.7,1.9-2.7,3.1-5.6,3.1c-1.3,0-2.8-0.2-4.2-0.8l-0.9-0.4c-0.4,3.1-0.3,6.2,0.4,9.2l0.9-0.5
					c1.6-0.8,3.4-1.2,4.9-1.2c2.4,0,4.2,0.9,5,2.6l0.2,0.6c0.7,1.5,0.4,3.2-0.8,4.9c-1,1.4-2.6,2.7-4.5,3.6l-0.9,0.5
					c1.9,2.4,4.2,4.5,6.7,6.2l0.4-0.9c1.3-3.8,4.1-6.3,6.7-6.3c0.5,0,0.9,0.1,1.3,0.2l0.6,0.2c2.9,1,3.8,5.3,2.3,9.8L8.2,111.8z
					 M11.6,96.3c-4.2,0-8.1-2.5-9.9-6.3c-2.5-5.5-0.2-11.9,5.3-14.5c1.5-0.7,3-1,4.6-1c4.2,0,8.1,2.5,9.9,6.3
					c2.5,5.5,0.2,11.9-5.3,14.5C14.8,96,13.3,96.3,11.6,96.3z M11.6,77.6c-1.1,0-2.2,0.2-3.3,0.7c-3.9,1.8-5.6,6.4-3.8,10.3
					c1.3,2.7,4.1,4.5,7.1,4.5c1.1,0,2.2-0.2,3.3-0.7c3.9-1.8,5.6-6.4,3.8-10.3C17.4,79.4,14.7,77.6,11.6,77.6z"/>
			</g>
		</g>
		<g>
			<g>
				<path class="st3" d="M64.8,131.6l0.2-0.4c0.9-1.3,3.4-1.2,5.7,0.4l1.8,1.2c1.4-3.1,2-6.4,1.9-9.7l-2.1,0.5
					c-2.7,0.5-5.2-0.2-5.5-1.8l-0.1-0.5c-0.3-1.6,1.6-3.2,4.3-3.8l2.1-0.5c-1.1-3.1-3-5.9-5.6-8.1l-1.2,1.8
					c-1.5,2.3-3.8,3.4-5.1,2.6L61,113c-1.3-0.9-1.2-3.4,0.4-5.7l1.2-1.8c-3.1-1.4-6.4-2-9.7-1.9l0.5,2.1c0.5,2.7-0.2,5.2-1.8,5.5
					l-0.5,0.1c-1.6,0.3-3.2-1.6-3.8-4.3l-0.4-2.1c-3.1,1.1-5.9,3-8.1,5.6l1.8,1.2c2.3,1.5,3.4,3.8,2.6,5.1l-0.2,0.4
					c-0.9,1.3-3.4,1.2-5.7-0.4l-1.8-1.2c-1.4,3.1-2,6.4-1.9,9.7l2.1-0.5c2.7-0.5,5.2,0.2,5.5,1.8l0.1,0.5c0.3,1.6-1.6,3.2-4.3,3.8
					l-2.1,0.5c1.1,3.1,3,5.9,5.6,8.1l1.2-1.8c1.5-2.3,3.8-3.4,5.1-2.6l0.4,0.2c1.3,0.9,1.2,3.4-0.4,5.7l-1.2,1.8
					c3.1,1.4,6.4,2,9.7,1.9l-0.5-2.1c-0.5-2.7,0.2-5.2,1.8-5.5l0.5-0.1c1.6-0.3,3.2,1.6,3.8,4.3l0.5,2.1c3.1-1.1,5.9-3,8.1-5.6
					l-1.8-1.2C65.1,135.2,64,132.9,64.8,131.6z M50.2,129.9c-3.1-2-4-6.3-2-9.4c2-3.1,6.3-4,9.4-2c3.1,2,4,6.3,2,9.4
					C57.5,131.1,53.3,131.9,50.2,129.9z"/>
			</g>
			<g>
				<path class="st1" d="M53.9,146.3c-3.2,0-6.3-0.7-9.2-2c-0.4-0.2-0.7-0.5-0.9-1c-0.2-0.5-0.1-0.9,0.2-1.3l1.2-1.8
					c1.2-1.9,1.1-3.4,0.8-3.5l-0.4-0.2c0,0-0.1,0-0.2,0c-0.5,0-1.7,0.6-2.8,2.2l-1.2,1.8c-0.2,0.4-0.6,0.6-1.1,0.7
					c-0.5,0.1-0.9-0.1-1.3-0.4c-2.7-2.4-4.7-5.4-6-8.8c-0.2-0.4-0.2-0.9,0.1-1.3c0.2-0.4,0.6-0.7,1-0.8l2.1-0.5
					c2.2-0.5,3.1-1.6,3.1-2l0-0.5c0-0.2-0.8-0.7-2.2-0.7c-0.5,0-0.9,0.1-1.4,0.2l-2.1,0.5c-0.5,0.1-0.9,0-1.3-0.3
					c-0.3-0.3-0.5-0.7-0.6-1.2c-0.2-3.6,0.5-7.2,2-10.4c0.2-0.4,0.5-0.7,1-0.9c0.5-0.2,0.9-0.1,1.3,0.2l1.8,1.2c0.9,0.6,2,1,2.8,1
					c0.5,0,0.7-0.2,0.7-0.2l0.2-0.4c0.1-0.1,0.1-0.4-0.2-0.9c-0.4-0.7-1.1-1.5-2-2l-1.8-1.2c-0.4-0.2-0.6-0.6-0.7-1.1
					s0.1-0.9,0.4-1.3c2.4-2.7,5.4-4.7,8.8-6c0.4-0.2,0.9-0.2,1.3,0.1s0.7,0.6,0.8,1l0.6,2.1c0.5,2.1,1.6,3.1,2,3.1l0.5-0.1
					c0.3-0.1,1-1.4,0.5-3.6l-0.5-2.1c-0.1-0.5,0-0.9,0.3-1.3c0.3-0.4,0.7-0.5,1.2-0.6c3.6-0.2,7.1,0.5,10.4,2c0.4,0.2,0.7,0.5,0.9,1
					c0.2,0.5,0.1,0.9-0.2,1.3l-1.2,1.8c-0.5,0.9-0.9,1.8-1,2.7c0,0.5,0.1,0.9,0.2,0.9l0.4,0.2c0,0,0.1,0,0.2,0
					c0.6,0,1.9-0.8,2.8-2.2l1.2-1.8c0.2-0.4,0.6-0.6,1.1-0.7c0.5-0.1,0.9,0.1,1.3,0.4c2.7,2.4,4.7,5.4,6,8.8
					c0.2,0.4,0.2,0.9-0.1,1.3c-0.2,0.4-0.6,0.7-1,0.8l-2.1,0.5c-2.2,0.5-3.1,1.6-3.1,2l0.1,0.5c0.1,0.2,0.8,0.7,2.2,0.7
					c0.5,0,0.9-0.1,1.4-0.2l2.1-0.5c0.5-0.1,0.9,0,1.3,0.3c0.3,0.3,0.5,0.7,0.6,1.2c0.2,3.6-0.5,7.2-2,10.4c-0.2,0.4-0.5,0.7-1,0.9
					c-0.5,0.2-0.9,0.1-1.3-0.2l-1.8-1.2c-0.9-0.6-2-1-2.8-1c-0.5,0-0.7,0.2-0.7,0.2l-0.2,0.4c-0.1,0.1-0.1,0.4,0.2,0.9
					c0.4,0.7,1.1,1.5,2,2l1.8,1.2c0.4,0.2,0.6,0.6,0.7,1.1c0.1,0.5-0.1,0.9-0.4,1.3c-2.4,2.7-5.4,4.7-8.8,6
					c-0.4,0.2-0.9,0.2-1.3-0.1c-0.4-0.2-0.7-0.6-0.8-1l-0.5-2.1c-0.5-2.1-1.6-3.1-1.9-3.1l-0.5,0.1c-0.1,0-0.3,0.2-0.5,0.8
					c-0.2,0.8-0.2,1.8-0.1,2.8l0.5,2.1c0.1,0.5,0,0.9-0.3,1.3c-0.3,0.3-0.7,0.5-1.2,0.6C54.6,146.3,54.3,146.3,53.9,146.3z
					 M47.7,142.1c1.7,0.6,3.5,0.9,5.4,1l-0.1-0.2c-0.3-1.6-0.2-3.1,0.2-4.4c0.5-1.6,1.6-2.6,2.8-2.9l0.5-0.1
					c0.2-0.1,0.5-0.1,0.6-0.1c2.3,0,4.3,2.3,5,5.6l0.1,0.2c1.6-0.8,3.2-1.9,4.5-3.1l-0.2-0.2c-1.3-0.9-2.4-2-3.1-3.2
					c-0.8-1.5-0.8-3,0-4.1l0.2-0.4c0.7-1,1.9-1.6,3.4-1.6s3.1,0.5,4.5,1.5l0.2,0.2c0.6-1.7,0.9-3.6,1-5.4l-0.2,0.1
					c-0.7,0.2-1.3,0.2-2,0.2c-2.8,0-4.9-1.3-5.2-3.2l-0.1-0.5c-0.5-2.4,1.9-4.9,5.6-5.6l0.2-0.1c-0.8-1.6-1.9-3.2-3.1-4.5l-0.2,0.2
					c-1.5,2.2-3.5,3.6-5.4,3.6c-0.7,0-1.3-0.2-1.9-0.5l-0.4-0.2c-1.1-0.7-1.6-2.1-1.6-3.8c0.1-1.3,0.6-2.8,1.5-4.2l0.2-0.2
					c-1.7-0.6-3.5-0.9-5.4-1l0.1,0.2c0.8,3.7-0.5,6.8-3,7.3l-0.5,0.1c-0.2,0.1-0.5,0.1-0.6,0.1c-2.3,0-4.3-2.3-5-5.6l-0.1-0.2
					c-1.6,0.8-3.2,1.9-4.5,3.1l0.2,0.2c1.3,0.9,2.4,2,3.1,3.2c0.8,1.5,0.8,3,0,4.1l-0.2,0.3c-0.7,1-1.9,1.6-3.4,1.6
					c-1.5,0-3.1-0.5-4.5-1.5l-0.2-0.2c-0.6,1.7-0.9,3.6-1,5.4l0.2-0.1c0.7-0.2,1.3-0.2,2-0.2c2.8,0,4.9,1.3,5.3,3.2l0.1,0.5
					c0.5,2.4-1.9,4.9-5.6,5.6l-0.2,0.1c0.8,1.6,1.9,3.2,3.1,4.5l0.2-0.2c1.5-2.2,3.5-3.6,5.4-3.6c0.7,0,1.3,0.2,1.9,0.5l0.4,0.2
					c2.1,1.4,2.1,4.8,0.1,7.9L47.7,142.1z M53.9,132.5c-1.6,0-3.2-0.5-4.6-1.4c-3.8-2.5-4.9-7.8-2.4-11.6c1.6-2.4,4.2-3.8,7-3.8
					c1.6,0,3.2,0.5,4.6,1.4c1.9,1.3,3.1,3.1,3.6,5.3s0,4.5-1.2,6.3C59.3,131.1,56.8,132.5,53.9,132.5z M53.9,118.9
					c-1.8,0-3.4,0.9-4.4,2.4c-1.6,2.4-0.9,5.6,1.5,7.3c0.9,0.5,1.9,0.9,2.9,0.9c1.8,0,3.4-0.9,4.4-2.4c0.8-1.2,1-2.6,0.8-3.9
					c-0.3-1.4-1.1-2.6-2.3-3.3C55.9,119.2,55,118.9,53.9,118.9z"/>
			</g>
		</g>
		<g>
			<g>
				<path class="st4" d="M48.6,80.1c0-6.5,5.2-11.8,11.8-11.8c6.5,0,11.8,5.2,11.8,11.8s-5.2,11.8-11.8,11.8"/>
			</g>
			<g>
				<path class="st1" d="M60.4,93.4c-0.9,0-1.6-0.7-1.6-1.6s0.7-1.6,1.6-1.6c5.6,0,10.2-4.5,10.2-10.2S66,69.9,60.4,69.9
					s-10.2,4.5-10.2,10.2c0,0.9-0.7,1.6-1.6,1.6c-0.9,0-1.6-0.7-1.6-1.6c0-7.4,6-13.3,13.3-13.3s13.3,6,13.3,13.3
					S67.7,93.4,60.4,93.4z"/>
			</g>
		</g>
		<g>
			<g>
				<polyline class="st4" points="-1.4,120 -1.4,133.3 26.8,133.3 				"/>
			</g>
			<g>
				<path class="st1" d="M26.8,134.9H-1.4c-0.9,0-1.6-0.7-1.6-1.6V120c0-0.9,0.7-1.6,1.6-1.6s1.6,0.7,1.6,1.6v11.8h26.6
					c0.9,0,1.6,0.7,1.6,1.6S27.7,134.9,26.8,134.9z"/>
			</g>
		</g>
		<g>
			<g>
				<line class="st5" x1="-1.4" y1="141.9" x2="26.8" y2="141.9"/>
			</g>
			<g>
				<path class="st1" d="M26.8,143.5H-1.4c-0.9,0-1.6-0.7-1.6-1.6s0.7-1.6,1.6-1.6h28.2c0.9,0,1.6,0.7,1.6,1.6
					S27.7,143.5,26.8,143.5z"/>
			</g>
		</g>
	</g>
</g>
<g id="Layer_3">
	<g>
		<g id="Layer_2_2_">
			<path class="st6" d="M92,165H64.5c-0.6,0-1-0.5-1-1v-27.7c0-0.6,0.5-1,1-1H92c0.6,0,1,0.5,1,1V164C93,164.5,92.6,165,92,165z"/>
		</g>
		<g id="Layer_3_1_">
			<text transform="matrix(1 0 0 1 69.3 155.6001)" class="st0 st7 st8">Ps</text>
		</g>
	</g>
</g>
</svg>
