<?xml version="1.0" encoding="utf-8"?>
<!-- Generator: Adobe Illustrator 16.0.0, SVG Export Plug-In . SVG Version: 6.00 Build 0)  -->
<!DOCTYPE svg PUBLIC "-//W3C//DTD SVG 1.1//EN" "http://www.w3.org/Graphics/SVG/1.1/DTD/svg11.dtd">
<svg version="1.1" id="Layer_1" xmlns="http://www.w3.org/2000/svg" xmlns:xlink="http://www.w3.org/1999/xlink" x="0px" y="0px"
	 width="32px" height="32px" viewBox="0 0 32 32" enable-background="new 0 0 32 32" xml:space="preserve">
<g>
	<g>
		<g>
			<g>
				<polygon fill="#FFAB00" points="21.1,9.2 12.6,23.8 4.1,9.2 12.6,0.7 				"/>
			</g>
			<g>
				<path fill="#37474F" d="M12.6,24.3L12.6,24.3c-0.2,0-0.3-0.1-0.4-0.2L3.6,9.4C3.5,9.2,3.6,9,3.7,8.8l8.5-8.5
					c0.2-0.2,0.5-0.2,0.7,0l8.5,8.5c0.2,0.2,0.2,0.4,0.1,0.6L13,24.1C12.9,24.2,12.8,24.3,12.6,24.3z M4.7,9.3l7.9,13.6l7.9-13.6
					l-7.9-7.9L4.7,9.3z"/>
			</g>
		</g>
		<g>
			<g>
				<circle fill="#FFECB3" cx="12.6" cy="9.8" r="4.1"/>
			</g>
			<g>
				<path fill="#37474F" d="M12.6,14.3C10,14.3,8,12.3,8,9.8s2.1-4.6,4.6-4.6c2.5,0,4.6,2.1,4.6,4.6S15.1,14.3,12.6,14.3z M12.6,6.2
					c-2,0-3.6,1.6-3.6,3.6s1.6,3.6,3.6,3.6c2,0,3.6-1.6,3.6-3.6S14.5,6.2,12.6,6.2z"/>
			</g>
		</g>
		<g>
			<g>
				<line fill="#FFAB00" x1="12.5" y1="1" x2="12.5" y2="23"/>
			</g>
			<g>
				<path fill="#37474F" d="M12.5,23.5c-0.3,0-0.5-0.2-0.5-0.5V1c0-0.3,0.2-0.5,0.5-0.5S13,0.7,13,1v22C13,23.3,12.8,23.5,12.5,23.5
					z"/>
			</g>
		</g>
		<g>
			<g>
				<line fill="#FFAB00" x1="5" y1="8.5" x2="20" y2="8.5"/>
			</g>
			<g>
				<path fill="#37474F" d="M20,9H5C4.7,9,4.5,8.8,4.5,8.5S4.7,8,5,8h15c0.3,0,0.5,0.2,0.5,0.5S20.3,9,20,9z"/>
			</g>
		</g>
		<g>
			<g>
				<line fill="#FFAB00" x1="12.6" y1="8.5" x2="27.9" y2="31.1"/>
			</g>
			<g>
				<path fill="#37474F" d="M27.9,31.6c-0.2,0-0.3-0.1-0.4-0.2L12.2,8.8c-0.2-0.2-0.1-0.5,0.1-0.7C12.5,7.9,12.8,8,13,8.2l15.3,22.6
					c0.2,0.2,0.1,0.5-0.1,0.7C28.1,31.6,28,31.6,27.9,31.6z"/>
			</g>
		</g>
	</g>
	<g>
		<g>
			<g>
				<path fill="#FFECB3" d="M17.2,28.4c-2.5,0-4.5-2-4.5-4.5l0,0"/>
			</g>
			<g>
				<path fill="#37474F" d="M17.2,28.9c-2.8,0-5-2.2-5-5c0-0.3,0.2-0.5,0.5-0.5s0.5,0.2,0.5,0.5c0,2.2,1.8,4,4,4
					c0.3,0,0.5,0.2,0.5,0.5S17.5,28.9,17.2,28.9z"/>
			</g>
		</g>
		<g>
			<g>
				<path fill="#FFECB3" d="M17,28.4c1.6,0,2.9,1.3,2.9,2.9l0,0"/>
			</g>
			<g>
				<path fill="#37474F" d="M19.9,31.8c-0.3,0-0.5-0.2-0.5-0.5c0-1.3-1.1-2.4-2.4-2.4c-0.3,0-0.5-0.2-0.5-0.5s0.2-0.5,0.5-0.5
					c1.9,0,3.4,1.5,3.4,3.4C20.4,31.6,20.2,31.8,19.9,31.8z"/>
			</g>
		</g>
	</g>
</g>
</svg>
