<?xml version="1.0" encoding="utf-8"?>
<!-- Generator: Adobe Illustrator 16.0.0, SVG Export Plug-In . SVG Version: 6.00 Build 0)  -->
<!DOCTYPE svg PUBLIC "-//W3C//DTD SVG 1.1//EN" "http://www.w3.org/Graphics/SVG/1.1/DTD/svg11.dtd">
<svg version="1.1" id="Layer_1" xmlns="http://www.w3.org/2000/svg" xmlns:xlink="http://www.w3.org/1999/xlink" x="0px" y="0px"
	 width="32px" height="32px" viewBox="0 0 32 32" enable-background="new 0 0 32 32" xml:space="preserve">
<g>
	<g>
		<path fill="#FFECB3" d="M23.3,15.1c0,4.2-3.4,7.6-7.6,7.6c-4.2,0-7.6-3.4-7.6-7.6c0-4.2,3.4-7.6,7.6-7.6
			C19.9,7.5,23.3,10.9,23.3,15.1z"/>
		<path fill="#37474F" d="M15.8,23.2c-4.5,0-8.1-3.6-8.1-8.1c0-4.5,3.6-8.1,8.1-8.1c4.5,0,8.1,3.6,8.1,8.1
			C23.8,19.5,20.2,23.2,15.8,23.2z M15.8,8c-3.9,0-7.1,3.2-7.1,7.1c0,3.9,3.2,7.1,7.1,7.1c3.9,0,7.1-3.2,7.1-7.1
			C22.8,11.2,19.7,8,15.8,8z"/>
	</g>
	<g>
		<polyline fill="#FFFFFF" points="17.8,25.2 30.7,11.8 30.7,25 		"/>
		<path fill="#37474F" d="M17.8,25.7c-0.1,0-0.2,0-0.3-0.1c-0.2-0.2-0.2-0.5,0-0.7l12.9-13.4c0.1-0.1,0.4-0.2,0.5-0.1
			s0.3,0.3,0.3,0.5V25c0,0.3-0.2,0.5-0.5,0.5s-0.5-0.2-0.5-0.5V13L18.2,25.5C18.1,25.6,17.9,25.7,17.8,25.7z"/>
	</g>
	<g>
		<polyline fill="#FFAB00" points="30.8,15.9 24.6,9.8 12.5,21.9 8.6,18 2,24.5 		"/>
		<path fill="#37474F" d="M2,25c-0.1,0-0.3,0-0.4-0.1c-0.2-0.2-0.2-0.5,0-0.7l6.6-6.6c0.2-0.2,0.5-0.2,0.7,0l3.6,3.6L24.3,9.4
			c0.1-0.1,0.2-0.1,0.4-0.1l0,0c0.1,0,0.3,0.1,0.4,0.1l6.1,6.1c0.2,0.2,0.2,0.5,0,0.7c-0.2,0.2-0.5,0.2-0.7,0l-5.8-5.8L12.9,22.2
			c-0.2,0.2-0.5,0.2-0.7,0l-3.6-3.6l-6.2,6.2C2.3,25,2.1,25,2,25z"/>
	</g>
	<g>
		<g>
			<polyline fill="#B0BEC5" points="1.2,24.5 30.7,24.5 30.7,27 			"/>
			<path fill="#37474F" d="M30.7,27.5c-0.3,0-0.5-0.2-0.5-0.5v-2h-29c-0.3,0-0.5-0.2-0.5-0.5S1,24,1.2,24h29.5
				c0.3,0,0.5,0.2,0.5,0.5V27C31.2,27.3,31,27.5,30.7,27.5z"/>
		</g>
		<g>
			<polyline fill="#B0BEC5" points="1.2,28.5 30.7,28.5 30.7,30 			"/>
			<path fill="#37474F" d="M30.7,30.5c-0.3,0-0.5-0.2-0.5-0.5v-1h-29c-0.3,0-0.5-0.2-0.5-0.5S1,28,1.2,28h29.5
				c0.3,0,0.5,0.2,0.5,0.5V30C31.2,30.3,31,30.5,30.7,30.5z"/>
		</g>
	</g>
	<g>
		<g>
			<path fill="#37474F" d="M13.2,17.5c0.2,0.2,0.2,0.4,0,0.6c-0.2,0.2-0.4,0.2-0.6,0c-0.2-0.2-0.2-0.4,0-0.6
				C12.8,17.3,13.1,17.3,13.2,17.5z"/>
			<path fill="#37474F" d="M12.9,18.7c-0.2,0-0.5-0.1-0.7-0.3C12.1,18.3,12,18,12,17.8c0-0.2,0.1-0.5,0.3-0.7c0.4-0.4,1-0.3,1.3,0
				c0.3,0.3,0.4,0.9,0,1.3C13.4,18.6,13.2,18.7,12.9,18.7z"/>
		</g>
		<g>
			<path fill="#37474F" d="M15.3,15.4c0.2,0.2,0.2,0.4,0,0.6c-0.2,0.2-0.4,0.2-0.6,0c-0.2-0.2-0.2-0.4,0-0.6
				C14.9,15.2,15.2,15.2,15.3,15.4z"/>
			<path fill="#37474F" d="M15,16.6c-0.3,0-0.5-0.1-0.7-0.3C14,16,14,15.4,14.4,15c0.4-0.4,1-0.3,1.3,0c0.4,0.4,0.4,1,0,1.3
				C15.5,16.5,15.3,16.6,15,16.6z"/>
		</g>
		<g>
			<path fill="#37474F" d="M17.4,13.3c0.2,0.2,0.2,0.4,0,0.6c-0.2,0.2-0.4,0.2-0.6,0c-0.2-0.2-0.2-0.4,0-0.6
				C17,13.1,17.3,13.1,17.4,13.3z"/>
			<path fill="#37474F" d="M17.1,14.5c-0.2,0-0.5-0.1-0.7-0.3c-0.2-0.2-0.3-0.4-0.3-0.6c0-0.2,0.1-0.5,0.3-0.7c0.3-0.3,1-0.3,1.3,0
				c0.2,0.2,0.3,0.4,0.3,0.6c0,0.2-0.1,0.5-0.3,0.7C17.6,14.4,17.4,14.5,17.1,14.5z"/>
		</g>
	</g>
	<g>
		<g>
			<polyline fill="#FFAB00" points="15.7,2 15.7,5.5 14.2,5.5 			"/>
			<path fill="#37474F" d="M15.7,6h-1.5c-0.3,0-0.5-0.2-0.5-0.5S14,5,14.2,5h1V2c0-0.3,0.2-0.5,0.5-0.5s0.5,0.2,0.5,0.5v3.5
				C16.2,5.8,16,6,15.7,6z"/>
		</g>
		<g>
			<polyline fill="#FFAB00" points="9.7,2.8 11.5,6.1 10.6,6.7 			"/>
			<path fill="#37474F" d="M10.6,7.2c-0.2,0-0.3-0.1-0.4-0.3c-0.1-0.2,0-0.5,0.2-0.7l0.5-0.3L9.3,3c-0.1-0.2,0-0.5,0.2-0.7
				c0.2-0.1,0.5,0,0.7,0.2L12,5.9c0.1,0.2,0,0.5-0.2,0.7l-1,0.5C10.8,7.1,10.7,7.2,10.6,7.2z"/>
		</g>
		<g>
			<polyline fill="#FFAB00" points="5,7.1 8.2,9.1 7.6,10 			"/>
			<path fill="#37474F" d="M7.6,10.5c-0.1,0-0.2,0-0.3-0.1C7.1,10.3,7.1,10,7.2,9.8l0.3-0.5L4.7,7.5C4.5,7.4,4.4,7.1,4.6,6.8
				C4.7,6.6,5,6.5,5.3,6.7l3.2,2C8.6,8.7,8.7,8.9,8.7,9c0,0.1,0,0.3-0.1,0.4l-0.6,0.9C8,10.4,7.8,10.5,7.6,10.5z"/>
		</g>
	</g>
</g>
</svg>
