<?xml version="1.0" encoding="utf-8"?>
<!-- Generator: Adobe Illustrator 19.0.0, SVG Export Plug-In . SVG Version: 6.00 Build 0)  -->
<svg version="1.1" xmlns="http://www.w3.org/2000/svg" xmlns:xlink="http://www.w3.org/1999/xlink" x="0px" y="0px"
	 viewBox="-35 37 128 128" style="enable-background:new -35 37 128 128;" xml:space="preserve">
<style type="text/css">
	.st0{fill:#FFAB00;}
	.st1{fill:#37474F;}
	.st2{fill:#FFFFFF;}
	.st3{fill:#B0BEC5;}
	.st4{clip-path:url(#SVGID_2_);}
	.st5{clip-path:url(#SVGID_4_);}
	.st6{fill:#FFECB3;}
	.st7{fill:#3F3F3F;}
</style>
<g id="Layer_1">
	<g id="Layer_2">
		<g>
			<polygon class="st0" points="89.7,101 29,161.7 -31.8,101 29,40.2 			"/>
			<path class="st1" d="M29,163.2c-0.4,0-0.8-0.1-1.1-0.4L-32.8,102c-0.3-0.3-0.4-0.7-0.4-1.1s0.2-0.8,0.4-1.1l60.7-60.6
				c0.3-0.3,0.7-0.4,1.1-0.4l0,0c0.4,0,0.8,0.2,1.1,0.4l60.7,60.7c0.6,0.6,0.6,1.5,0,2.1L30,162.8C29.8,163.1,29.4,163.2,29,163.2z
				 M-29.6,101L29,159.6L87.6,101L29,42.3L-29.6,101z"/>
		</g>
	</g>
</g>
<g id="Layer_2_1_">
	<g>
		<g>
			<rect x="-19.7" y="50.3" class="st2" width="97.4" height="97.4"/>
			<path class="st1" d="M79,149H-21V49H79V149z M-18.4,146.4h94.8V51.6h-94.8V146.4z"/>
		</g>
		<g>
			<rect x="-7.2" y="63.7" class="st3" width="72.4" height="69.8"/>
		</g>
		<g>
			<g>
				<defs>
					<rect id="SVGID_1_" x="-7.2" y="63.7" width="72.4" height="69.8"/>
				</defs>
				<clipPath id="SVGID_2_">
					<use xlink:href="#SVGID_1_"  style="overflow:visible;"/>
				</clipPath>
				<g class="st4">
					<polygon class="st0" points="-6.9,133.8 20.1,106.8 33.5,120 58.5,95 72.4,108.9 88.4,124.9 75.4,151.4 14.6,141.3 -6.5,140 
						-8.2,135.4 					"/>
					<path class="st1" d="M75.4,152.7c-0.1,0-0.2,0-0.2,0l-60.7-10.1l-21-1.3c-0.5,0-0.9-0.3-1.1-0.9l-1.7-4.7
						c-0.2-0.4-0.1-0.9,0.2-1.3L-8,133l0.1-0.1l27.1-27.1c0.5-0.5,1.4-0.5,1.8,0l12.4,12.4l24.1-24.1c0.5-0.5,1.4-0.5,1.8,0
						L89.3,124c0.4,0.4,0.5,0.9,0.3,1.5l-13,26.5C76.3,152.4,75.8,152.7,75.4,152.7z M-5.6,138.7l20.3,1.2c0.1,0,0.1,0,0.2,0
						l59.8,10l12.1-24.7L58.5,96.8L34.3,121c-0.3,0.3-0.6,0.3-0.9,0.3l0,0c-0.3,0-0.7-0.2-0.9-0.3l-12.3-12.4L-6,134.7l-0.8,0.9
						L-5.6,138.7z"/>
				</g>
			</g>
			<g>
				<defs>
					<rect id="SVGID_3_" x="-7.2" y="63.7" width="72.4" height="69.8"/>
				</defs>
				<clipPath id="SVGID_4_">
					<use xlink:href="#SVGID_3_"  style="overflow:visible;"/>
				</clipPath>
				<g class="st5">
					<path class="st2" d="M92.5,90.1c0-2.7-1.9-4.7-4.4-5.3c-0.5-2.5-2.6-4.4-5.3-4.4c-2.2,0-4.1,1.4-5,3.3
						c-0.6-0.3-1.2-0.5-1.8-0.6c0-0.2,0.1-0.3,0.1-0.3c0-4.5-3.6-8.2-8.2-8.2c-2-5.2-6.9-8.9-12.8-8.9c-6.1,0-11.2,4.1-12.9,9.7
						c-0.1,0-0.1,0-0.2,0c-4.6,0-8.2,3.7-8.2,8.2c0,0.9,0.3,1.6,0.5,2.3c-2,0.8-3.4,2.8-3.4,5.1c0,2.2,1.3,3.8,3.1,4.7l-0.9,0.3h2.7
						c0.3,0,0.4,0.2,0.7,0.2c0.3,0,0.4-0.2,0.7-0.2h53.3l-2.8-0.7C90.4,94.9,92.5,92.9,92.5,90.1z M78.5,92.7
						c0.7-0.5,1.4-1.2,1.7-2.1c0.5,0.3,0.9,0.4,1.6,0.5c0.3,1.2,0.9,2.3,1.8,3.1L78.5,92.7z"/>
					<path class="st1" d="M36.4,97.4c-0.3,0-0.6-0.1-0.7-0.1l0,0H24.9l6.3-2.1c-1-1.2-1.6-2.7-1.6-4.2c0-2.3,1.2-4.5,3.2-5.7
						c-0.1-0.5-0.3-1-0.3-1.6c0-5,3.9-9.1,8.8-9.5c2.2-5.9,7.7-9.7,13.8-9.7c5.9,0,11.2,3.4,13.6,8.9c4.6,0.4,8.2,4.1,8.5,8.7
						c1.3-1.7,3.3-2.8,5.5-2.8c2.9,0,5.4,1.9,6.3,4.7c2.8,0.9,4.7,3.4,4.7,6.3c0,1.9-0.9,3.6-2.2,4.8l9.7,2.3h-64
						C36.9,97.4,36.7,97.4,36.4,97.4z M34.9,94.7h0.8c0.3,0,0.5,0.1,0.7,0.1c0.2-0.1,0.4-0.1,0.7-0.1h43.4l-4.8-1.5l2-1.6
						c0.7-0.5,1.1-1,1.4-1.6l0.6-1.3l1.2,0.7c0.3,0.2,0.7,0.3,1.2,0.4L83,90l0.2,0.9c0.2,0.9,0.6,1.7,1.4,2.3l1.2,1l1.9-0.3
						c2.2-0.3,3.7-1.9,3.7-4c0-2-1.4-3.6-3.4-4l-0.9-0.2L86.9,85c-0.4-2-2.1-3.4-4-3.4c-1.6,0-3.1,0.9-3.8,2.5l-0.6,1.3l-1.2-0.6
						c-0.4-0.3-0.9-0.3-1.4-0.4l-1.3-0.2l0.2-1.3c0-0.1,0-0.3,0.1-0.3c-0.1-3.7-3.1-6.7-6.9-6.8h-0.9l-0.3-0.9
						c-1.8-4.9-6.4-8-11.6-8c-5.3,0-10,3.5-11.6,8.8l-0.3,0.9h-0.9c-0.1,0-0.3,0-0.3,0c-3.8,0.1-6.8,3.2-6.8,6.9
						c0,0.6,0.2,1.2,0.4,1.9l0.3,1.1L35,87c-1.6,0.7-2.6,2.2-2.6,3.9c0,1.6,0.9,2.8,2.3,3.5L34.9,94.7z"/>
				</g>
			</g>
		</g>
		<g>
			<path class="st1" d="M66.9,135.2h-75V62.8h75V135.2z M-5.5,132.6h69.8V65.4H-5.5V132.6z"/>
		</g>
		<g>
			<polyline class="st6" points="-4.8,131.8 22.2,123.1 21.1,109.9 			"/>
			<path class="st1" d="M-4.8,133.1c-0.5,0-1-0.3-1.2-0.9c-0.3-0.7,0.2-1.4,0.9-1.6l25.9-8.4l-1-12.2c-0.1-0.7,0.4-1.4,1.2-1.4
				c0.7-0.1,1.4,0.4,1.4,1.2l1.1,13.2c0.1,0.6-0.3,1.1-0.9,1.4l-27,8.7C-4.5,133.1-4.6,133.1-4.8,133.1z"/>
		</g>
		<g>
			<polyline class="st6" points="33.5,120 58,107.7 58.2,97.8 			"/>
			<path class="st1" d="M33.5,121.3c-0.4,0-0.9-0.3-1.1-0.7c-0.3-0.6-0.1-1.4,0.6-1.7l23.8-12.1l0.3-9.1c0-0.7,0.6-1.3,1.3-1.3
				c0.7,0,1.3,0.6,1.3,1.3l-0.4,9.9c0,0.4-0.3,0.9-0.7,1.1L34,121.2C33.8,121.3,33.7,121.3,33.5,121.3z"/>
		</g>
		<g>
			<path class="st2" d="M22.6,99C15,99,8.9,92.9,8.9,85.3c0-4.5,2.2-8.4,5.4-10.9C7.1,75.4,1.5,81.5,1.5,89
				c0,8.1,6.6,14.7,14.7,14.7c4.7,0,9-2.3,11.6-5.9C26.3,98.7,24.6,99,22.6,99z"/>
			<path class="st1" d="M16.3,105c-8.8,0-16-7.2-16-16c0-7.9,5.9-14.7,14-15.8l4.8-0.6l-3.9,2.9c-3.1,2.4-4.9,5.9-4.9,9.8
				c0,6.8,5.5,12.4,12.4,12.4c1.6,0,3.3-0.3,4.8-0.9l4.6-2L29,98.7C26,102.7,21.3,105,16.3,105z M10.1,77.2
				C5.8,79.4,2.9,83.9,2.9,89c0,7.4,6,13.4,13.4,13.4c2.6,0,5.1-0.8,7.2-2.2c-0.3,0-0.6,0-0.9,0c-8.3,0-15-6.7-15-15
				C7.7,82.4,8.6,79.6,10.1,77.2z"/>
		</g>
		<g>
			<g>
				<path class="st1" d="M38.5,56.9c0-0.9,0.7-1.6,1.6-1.6s1.6,0.7,1.6,1.6s-0.7,1.6-1.6,1.6S38.5,57.8,38.5,56.9z"/>
				<path class="st7" d="M40,58.9c-1.1,0-2-0.9-2-2s0.9-2,2-2s2,0.9,2,2C42,58.1,41.2,58.9,40,58.9z M40,55.8
					c-0.6,0-1.1,0.5-1.1,1.1s0.5,1.1,1.1,1.1c0.6,0,1.1-0.5,1.1-1.1C41.2,56.3,40.6,55.8,40,55.8z"/>
			</g>
			<g>
				<path class="st1" d="M27.7,56.9c0-0.9,0.7-1.6,1.6-1.6c0.9,0,1.6,0.7,1.6,1.6s-0.7,1.6-1.6,1.6C28.4,58.5,27.7,57.8,27.7,56.9z"
					/>
				<path class="st7" d="M29.3,58.9c-1.1,0-2-0.9-2-2s0.9-2,2-2c1.1,0,2,0.9,2,2C31.2,58,30.3,58.9,29.3,58.9z M29.3,55.8
					c-0.6,0-1.1,0.5-1.1,1.1s0.5,1.1,1.1,1.1c0.6,0,1.1-0.5,1.1-1.1C30.4,56.3,29.9,55.8,29.3,55.8z"/>
			</g>
			<g>
				<path class="st1" d="M16.8,56.9c0-0.9,0.7-1.6,1.6-1.6c0.9,0,1.6,0.7,1.6,1.6s-0.7,1.6-1.6,1.6C17.5,58.5,16.8,57.8,16.8,56.9z"
					/>
				<path class="st7" d="M18.4,58.9c-1.1,0-2-0.9-2-2s0.9-2,2-2c1.1,0,2,0.9,2,2S19.5,58.9,18.4,58.9z M18.4,55.8
					c-0.6,0-1.1,0.5-1.1,1.1s0.5,1.1,1.1,1.1s1.1-0.5,1.1-1.1S19,55.8,18.4,55.8z"/>
			</g>
		</g>
	</g>
</g>
</svg>
