<?xml version="1.0" encoding="utf-8"?>
<!-- Generator: Adobe Illustrator 20.0.0, SVG Export Plug-In . SVG Version: 6.00 Build 0)  -->
<svg version="1.1" id="Layer_1" xmlns="http://www.w3.org/2000/svg" xmlns:xlink="http://www.w3.org/1999/xlink" x="0px" y="0px"
	 viewBox="0 0 32 32" style="enable-background:new 0 0 32 32;" xml:space="preserve">
<style type="text/css">
	.st0{fill:#FFFFFF;}
	.st1{fill:#37474F;}
	.st2{fill:#FFECB3;}
	.st3{fill:#FFAB00;}
</style>
<g>
	<g>
		<g>
			<g>
				<g>
					<path class="st0" d="M5.2,18c-0.8,0-1.4-0.6-1.4-1.4c0-0.8,0.6-1.4,1.4-1.4"/>
					<path class="st1" d="M5.2,18.5c-1.1,0-1.9-0.9-1.9-1.9s0.9-1.9,1.9-1.9c0.3,0,0.5,0.2,0.5,0.5s-0.2,0.5-0.5,0.5
						c-0.5,0-0.9,0.4-0.9,0.9s0.4,0.9,0.9,0.9c0.3,0,0.5,0.2,0.5,0.5S5.5,18.5,5.2,18.5z"/>
				</g>
				<g>
					<path class="st0" d="M13.9,18c0.8,0,1.4-0.6,1.4-1.4c0-0.8-0.6-1.4-1.4-1.4"/>
					<path class="st1" d="M13.9,18.5c-0.3,0-0.5-0.2-0.5-0.5s0.2-0.5,0.5-0.5c0.5,0,0.9-0.4,0.9-0.9s-0.4-0.9-0.9-0.9
						c-0.3,0-0.5-0.2-0.5-0.5s0.2-0.5,0.5-0.5c1.1,0,1.9,0.9,1.9,1.9S15,18.5,13.9,18.5z"/>
				</g>
			</g>
			<g>
				<g>
					<path class="st0" d="M13.8,15.5c0,3.1-1.9,6.8-4.3,6.8s-4.3-3.7-4.3-6.8"/>
					<path class="st1" d="M9.5,22.7c-2.7,0-4.8-3.9-4.8-7.3C4.8,15.2,5,15,5.3,15s0.5,0.2,0.5,0.5c0,2.8,1.7,6.3,3.8,6.3
						s3.8-3.5,3.8-6.3c0-0.3,0.2-0.5,0.5-0.5s0.5,0.2,0.5,0.5C14.3,18.8,12.2,22.7,9.5,22.7z"/>
				</g>
				<g>
					<path class="st1" d="M9.6,13.2c0,0,1.3,2,4.2,1.8c0,0,1.5-5.1-4.3-5.4l0,0c0,0,0.1,0,0,0s0,0,0,0l0,0C3.7,9.9,5.2,15,5.2,15
						c3,0.2,4.3-1.8,4.3-1.8"/>
					<path class="st1" d="M13.5,15.5c-2.1,0-3.4-1-3.9-1.6c-0.6,0.6-2,1.8-4.4,1.6c-0.2,0-0.4-0.2-0.5-0.4C4.7,15,4,12.7,5.3,11
						c0.8-1.1,2.2-1.8,4.1-1.9c0,0,0.1,0,0.2,0l0,0c0.1,0,0.1,0,0.1,0c1.9,0.1,3.3,0.8,4.1,1.9c1.3,1.8,0.6,4,0.6,4.1
						c-0.1,0.2-0.2,0.3-0.5,0.4C13.7,15.5,13.6,15.5,13.5,15.5z M10.1,12.9c0,0.1,1,1.6,3.4,1.6c0.1-0.6,0.2-1.9-0.5-2.9
						c-0.6-0.9-1.8-1.4-3.4-1.5c-1.6,0.1-2.8,0.6-3.4,1.5c-0.7,1-0.6,2.3-0.5,2.9c2.4,0,3.5-1.6,3.5-1.6l0.5,0.3L10.1,12.9z"/>
				</g>
				<g>
					<g>
						<path class="st2" d="M6.6,16.4c0.7-0.3,1.5,0,1.8,0.6"/>
						<path class="st1" d="M8.4,17.5c-0.2,0-0.4-0.1-0.5-0.3c-0.2-0.4-0.7-0.6-1.1-0.4c-0.3,0.1-0.5,0-0.7-0.3
							c-0.1-0.3,0-0.5,0.3-0.7c1-0.4,2.1,0,2.5,0.9c0.1,0.3,0,0.5-0.3,0.7C8.5,17.5,8.5,17.5,8.4,17.5z"/>
					</g>
					<g>
						<path class="st2" d="M12.5,16.4c-0.7-0.3-1.5,0-1.8,0.6"/>
						<path class="st1" d="M10.7,17.5c-0.1,0-0.1,0-0.2,0c-0.3-0.1-0.4-0.4-0.3-0.7c0.2-0.4,0.5-0.7,0.9-0.9c0.5-0.2,1-0.2,1.5,0
							c0.3,0.1,0.4,0.4,0.3,0.7c-0.1,0.3-0.4,0.4-0.7,0.3c-0.2-0.1-0.5-0.1-0.7,0s-0.3,0.2-0.4,0.4C11.1,17.4,10.9,17.5,10.7,17.5z"
							/>
					</g>
				</g>
				<g>
					<g>
						<g>
							<path class="st1" d="M6.4,24.6c-0.2,0-0.4-0.1-0.5-0.3c-0.1-0.2,0-0.5,0.2-0.7L7,23.2v-1.7C7,21.2,7.2,21,7.5,21
								S8,21.2,8,21.5v2C8.1,23.8,8,24,7.8,24l-1.1,0.5C6.6,24.6,6.5,24.6,6.4,24.6z"/>
						</g>
					</g>
					<g>
						<g>
							<path class="st1" d="M12.7,24.8c-0.1,0-0.2,0-0.2-0.1L11.3,24c-0.2,0-0.3-0.2-0.3-0.4v-2c0-0.3,0.2-0.5,0.5-0.5
								s0.5,0.2,0.5,0.5v1.7l1,0.5c0.2,0.1,0.3,0.4,0.2,0.7C13,24.7,12.9,24.8,12.7,24.8z"/>
						</g>
					</g>
				</g>
			</g>
		</g>
		<g>
			<g>
				<g>
					<path class="st3" d="M13.8,23.2c-0.2,1.1-1.2,1.7-2.4,1.7H7.6c-1.2,0-2.1-0.9-2.4-1.9C2.7,24.3,1,26.9,1,29.8h12.9
						c0-1.9,0.8-3.7,2.1-5.1C15.4,24.1,14.6,23.6,13.8,23.2z"/>
					<path class="st1" d="M13.9,30.3H1c-0.3,0-0.5-0.2-0.5-0.5c0-3,1.8-5.9,4.5-7.2c0.1-0.1,0.3-0.1,0.4,0s0.2,0.2,0.3,0.3
						c0.2,0.9,1,1.6,1.9,1.6h3.8c1,0,1.7-0.5,1.9-1.3c0-0.2,0.1-0.3,0.3-0.3c0.1-0.1,0.3-0.1,0.4,0c0.8,0.4,1.6,0.8,2.3,1.6
						c0.2,0.2,0.2,0.5,0,0.7c-1.3,1.3-2,3-2,4.8C14.4,30.1,14.2,30.3,13.9,30.3z M1.5,29.3h11.9c0.1-1.7,0.8-3.3,1.9-4.6
						c-0.4-0.3-0.7-0.6-1.2-0.8c-0.5,0.9-1.5,1.5-2.6,1.5H7.6c-1.1,0-2.2-0.7-2.6-1.7C3,24.9,1.7,27,1.5,29.3z"/>
				</g>
				<g>
					<path class="st2" d="M31,29.8c0-2.9-1.7-5.6-4.3-6.8c-0.2,1.1-1.2,1.9-2.4,1.9h-3.8c-1.2,0-2.1-0.6-2.4-1.7
						c-0.8,0.4-1.5,0.8-2.2,1.5c1.3,1.4,2.1,3.2,2.1,5.1H31z"/>
					<path class="st1" d="M31,30.3H18.1c-0.3,0-0.5-0.2-0.5-0.5c0-1.7-0.7-3.4-2-4.8c-0.2-0.2-0.2-0.5,0-0.7
						c0.7-0.7,1.5-1.2,2.3-1.6c0.1-0.1,0.3-0.1,0.4,0s0.2,0.2,0.3,0.3c0.2,0.8,0.9,1.3,1.9,1.3h3.8c0.9,0,1.7-0.7,1.9-1.6
						c0-0.2,0.1-0.3,0.3-0.3c0.1-0.1,0.3-0.1,0.4,0c2.8,1.4,4.5,4.2,4.5,7.2C31.5,30.1,31.3,30.3,31,30.3z M18.6,29.3h11.9
						C30.3,27,29,24.9,27,23.8c-0.5,1-1.5,1.7-2.6,1.7h-3.8c-1.2,0-2.2-0.6-2.6-1.5c-0.4,0.2-0.8,0.5-1.2,0.8
						C17.8,26.1,18.5,27.7,18.6,29.3z"/>
				</g>
			</g>
			<g>
				<g>
					<path class="st0" d="M18.1,18c-0.8,0-1.4-0.6-1.4-1.4c0-0.8,0.6-1.4,1.4-1.4"/>
					<path class="st1" d="M18.1,18.5c-1.1,0-1.9-0.9-1.9-1.9s0.9-1.9,1.9-1.9c0.3,0,0.5,0.2,0.5,0.5s-0.2,0.5-0.5,0.5
						c-0.5,0-0.9,0.4-0.9,0.9s0.4,0.9,0.9,0.9c0.3,0,0.5,0.2,0.5,0.5S18.4,18.5,18.1,18.5z"/>
				</g>
				<g>
					<path class="st0" d="M26.8,18c0.8,0,1.4-0.6,1.4-1.4c0-0.8-0.6-1.4-1.4-1.4"/>
					<path class="st1" d="M26.8,18.5c-0.3,0-0.5-0.2-0.5-0.5s0.2-0.5,0.5-0.5c0.5,0,0.9-0.4,0.9-0.9s-0.4-0.9-0.9-0.9
						c-0.3,0-0.5-0.2-0.5-0.5s0.2-0.5,0.5-0.5c1.1,0,1.9,0.9,1.9,1.9S27.9,18.5,26.8,18.5z"/>
				</g>
			</g>
			<g>
				<g>
					<path class="st0" d="M26.7,15.5c0,3.1-1.3,7-4.2,7s-4.4-4-4.4-7"/>
					<path class="st1" d="M22.5,23c-3.3,0-4.9-4.5-4.9-7.5c0-0.3,0.2-0.5,0.5-0.5s0.5,0.2,0.5,0.5c0,2.7,1.3,6.5,3.9,6.5
						c2.7,0,3.7-4,3.7-6.5c0-0.3,0.2-0.5,0.5-0.5s0.5,0.2,0.5,0.5C27.2,18.5,26,23,22.5,23z"/>
				</g>
				<g>
					<path class="st1" d="M22.5,13.2c0,0,1.6,2,4.5,1.8c0,0,0.8-5.1-4-5.4l0,0c0,0-0.4,0-0.5,0s-0.5,0-0.5,0l0,0
						c-4.7,0.3-4,5.4-4,5.4c3,0.2,4.4-1.8,4.4-1.8"/>
					<path class="st1" d="M18.3,15.5c-0.1,0-0.3,0-0.4,0c-0.2,0-0.4-0.2-0.5-0.4c0-0.1-0.3-2.6,1.1-4.3c0.8-1,1.9-1.5,3.4-1.6H22
						h0.5H23c0.1,0,0.1,0,0.2,0c1.5,0.1,2.6,0.7,3.4,1.6c1.4,1.8,1,4.2,1,4.4c0,0.2-0.2,0.4-0.5,0.4c-2.5,0.1-4-1.1-4.6-1.7
						C21.9,14.4,20.5,15.5,18.3,15.5z M22.9,12.9c0.1,0.1,1.3,1.6,3.7,1.7c0-0.7,0-2.1-0.8-3.2c-0.6-0.8-1.5-1.2-2.8-1.3h-0.1h-0.4
						h-0.4H22c-1.2,0.1-2.2,0.5-2.8,1.3c-0.8,1-0.9,2.5-0.9,3.2c2.3,0,3.4-1.6,3.5-1.6l0.5,0.4L22.9,12.9z"/>
				</g>
				<g>
					<g>
						<path class="st2" d="M19.5,16.4c0.7-0.3,1.5,0,1.8,0.6"/>
						<path class="st1" d="M21.3,17.5c-0.2,0-0.4-0.1-0.5-0.3c-0.1-0.2-0.2-0.3-0.4-0.4c-0.2-0.1-0.5-0.1-0.7,0
							c-0.3,0.1-0.5,0-0.7-0.3s0-0.5,0.3-0.7c0.5-0.2,1-0.2,1.5,0c0.4,0.2,0.8,0.5,0.9,0.9C21.8,17,21.7,17.2,21.3,17.5
							C21.4,17.5,21.4,17.5,21.3,17.5z"/>
					</g>
					<g>
						<path class="st2" d="M25.4,16.4c-0.7-0.3-1.5,0-1.8,0.6"/>
						<path class="st1" d="M23.6,17.5c-0.1,0-0.1,0-0.2,0c-0.3-0.1-0.4-0.4-0.3-0.7c0.4-0.9,1.5-1.3,2.5-0.9
							c0.3,0.1,0.4,0.4,0.3,0.7c-0.1,0.3-0.4,0.4-0.7,0.3c-0.5-0.2-1,0-1.1,0.4C24,17.4,23.8,17.5,23.6,17.5z"/>
					</g>
				</g>
				<g>
					<g>
						<g>
							<path class="st1" d="M19,24.7c-0.2,0-0.3-0.1-0.4-0.3c-0.1-0.2-0.1-0.5,0.2-0.7l0.9-0.5v-1.7c0-0.3,0.2-0.5,0.5-0.5
								s0.5,0.2,0.5,0.5v2c0,0.2-0.1,0.3-0.3,0.4l-1.1,0.6C19.2,24.7,19.1,24.7,19,24.7z"/>
						</g>
					</g>
					<g>
						<g>
							<path class="st1" d="M26,24.4h-0.1l-1-0.3c-0.2-0.1-0.4-0.3-0.4-0.5v-2c0-0.3,0.2-0.5,0.5-0.5s0.5,0.2,0.5,0.5v1.7l0.6,0.2
								c0.3,0.1,0.4,0.4,0.3,0.6C26.4,24.3,26.2,24.4,26,24.4z"/>
						</g>
					</g>
				</g>
			</g>
		</g>
	</g>
</g>
</svg>
