<?xml version="1.0" encoding="utf-8"?>
<!-- Generator: Adobe Illustrator 16.0.0, SVG Export Plug-In . SVG Version: 6.00 Build 0)  -->
<!DOCTYPE svg PUBLIC "-//W3C//DTD SVG 1.1//EN" "http://www.w3.org/Graphics/SVG/1.1/DTD/svg11.dtd">
<svg version="1.1" id="Layer_1" xmlns="http://www.w3.org/2000/svg" xmlns:xlink="http://www.w3.org/1999/xlink" x="0px" y="0px"
	 width="32px" height="32px" viewBox="0 0 32 32" enable-background="new 0 0 32 32" xml:space="preserve">
<g>
	<g>
		<g>
			<path fill="#B0BEC5" stroke="#37474F" stroke-linecap="round" stroke-linejoin="round" stroke-miterlimit="10" d="M15.5,29.3"/>
		</g>
	</g>
	<g>
		<g>
			<path fill="#FFECB3" d="M22,28.5c0,0-2.4,0.5-3.1-7h-2.5h-0.9H13c-0.9,7.6-4,7-4,7"/>
		</g>
		<g>
			<path fill="#37474F" d="M9.2,29c-0.1,0-0.2,0-0.3,0c-0.3-0.1-0.5-0.3-0.4-0.6C8.6,28.1,8.8,28,9.1,28c0,0,0.5,0.1,1.1-0.4
				c0.8-0.6,1.9-2.2,2.3-6.2c0-0.3,0.2-0.4,0.5-0.4h5.9c0.3,0,0.5,0.2,0.5,0.5c0.4,4.5,1.5,5.9,2,6.4c0.3,0.2,0.5,0.2,0.5,0.2h0
				c0.3-0.1,0.5,0.1,0.6,0.4c0.1,0.3-0.1,0.5-0.4,0.6c-0.1,0-0.6,0.1-1.3-0.4c-1.2-0.9-2-3.1-2.4-6.6h-5c-0.4,3.3-1.4,5.4-2.7,6.5
				C10.1,28.9,9.5,29,9.2,29z"/>
		</g>
	</g>
	<g>
		<g>
			<path fill="#FFFFFF" d="M30.5,20.3c0,1.8-1.2,3.2-3,3.2H4.4c-1.8,0-2.9-1.4-2.9-3.2V5.8c0-1.8,1.1-3.3,2.9-3.3h23.1
				c1.8,0,3,1.5,3,3.3V20.3z"/>
		</g>
		<g>
			<path fill="#37474F" d="M27.5,24H4.4c-2,0-3.4-1.5-3.4-3.7V5.8C1,3.6,2.4,2,4.4,2h23.1c2,0,3.5,1.6,3.5,3.8v14.4
				C31,22.4,29.5,24,27.5,24z M4.4,3C2.7,3,2,4.4,2,5.8v14.4C2,21.9,2.9,23,4.4,23h23.1c1.5,0,2.5-1.1,2.5-2.7V5.8
				C30,4.2,29,3,27.5,3H4.4z"/>
		</g>
	</g>
	<g>
		<g>
			<g>
				<path fill="#FFAB00" d="M14.3,13l-1,2H12l3.2-9h1.5l3.2,9h-1.3l-1-2H14.3z M17.3,12l-0.9-3c-0.2-0.6-0.3-1-0.5-2h0
					c-0.1,1-0.3,1.4-0.5,2l-0.9,3H17.3z"/>
			</g>
		</g>
	</g>
	<g>
		<g>
			<path fill="#FFAB00" d="M1.5,19.5v0.8c0,1.8,1.1,3.2,2.9,3.2h23.1c1.8,0,3-1.4,3-3.2v-0.8H1.5z"/>
		</g>
		<g>
			<path fill="#37474F" d="M27.5,24H4.4c-2,0-3.4-1.5-3.4-3.7V19h30v1.3C31,22.4,29.5,24,27.5,24z M2,20v0.3C2,21.9,2.9,23,4.4,23
				h23.1c1.5,0,2.5-1.1,2.5-2.7V20H2z"/>
		</g>
	</g>
	<g>
		<g>
			<line fill="#37474F" x1="9" y1="28.5" x2="22" y2="28.5"/>
		</g>
		<g>
			<path fill="#37474F" d="M22,29H9c-0.3,0-0.5-0.2-0.5-0.5S8.7,28,9,28h13c0.3,0,0.5,0.2,0.5,0.5S22.3,29,22,29z"/>
		</g>
	</g>
	<g>
		<g>
			<g>
				<path fill="#37474F" d="M13.6,21.4c0,0.2-0.2,0.4-0.4,0.4c-0.2,0-0.4-0.2-0.4-0.4c0-0.2,0.2-0.4,0.4-0.4
					C13.4,21,13.6,21.2,13.6,21.4z"/>
			</g>
			<g>
				<path fill="#37474F" d="M13.2,22.3c-0.5,0-0.9-0.4-0.9-0.9c0-0.5,0.4-0.9,0.9-0.9c0.5,0,0.9,0.4,0.9,0.9
					C14.1,21.9,13.7,22.3,13.2,22.3z"/>
			</g>
		</g>
		<g>
			<g>
				<path fill="#37474F" d="M16.4,21.4c0,0.2-0.2,0.4-0.4,0.4c-0.2,0-0.4-0.2-0.4-0.4c0-0.2,0.2-0.4,0.4-0.4
					C16.2,21,16.4,21.2,16.4,21.4z"/>
			</g>
			<g>
				<path fill="#37474F" d="M16,22.3c-0.5,0-0.9-0.4-0.9-0.9c0-0.5,0.4-0.9,0.9-0.9c0.5,0,0.9,0.4,0.9,0.9
					C16.9,21.9,16.5,22.3,16,22.3z"/>
			</g>
		</g>
		<g>
			<g>
				<path fill="#37474F" d="M19.2,21.4c0,0.2-0.2,0.4-0.4,0.4c-0.2,0-0.4-0.2-0.4-0.4c0-0.2,0.2-0.4,0.4-0.4
					C19,21,19.2,21.2,19.2,21.4z"/>
			</g>
			<g>
				<path fill="#37474F" d="M18.8,22.3c-0.5,0-0.9-0.4-0.9-0.9c0-0.5,0.4-0.9,0.9-0.9c0.5,0,0.9,0.4,0.9,0.9
					C19.7,21.9,19.3,22.3,18.8,22.3z"/>
			</g>
		</g>
	</g>
	<g>
		<g>
			<path fill="#37474F" d="M7.2,10.6c1.2,0,1.4-0.7,1.4-1.3c0-0.5-0.1-1-0.1-1.5c-0.1-0.5-0.1-1-0.1-1.5c0-1.6,1-2.3,2.5-2.3h0.4V5
				h-0.3c-1,0-1.4,0.6-1.4,1.5c0,0.4,0.1,0.8,0.1,1.3c0.1,0.4,0.1,0.9,0.1,1.3c0,1.1-0.4,1.7-1.3,1.9v0c0.9,0.2,1.3,0.8,1.3,1.9
				c0,0.5,0,0.9-0.1,1.3c-0.1,0.4-0.1,0.9-0.1,1.3c0,1,0.4,1.6,1.4,1.6h0.3V18h-0.4c-1.4,0-2.5-0.7-2.5-2.4c0-0.5,0.1-1,0.1-1.4
				c0.1-0.5,0.1-1,0.1-1.4c0-0.5-0.2-1.3-1.4-1.3V10.6z"/>
		</g>
	</g>
	<g>
		<g>
			<path fill="#37474F" d="M25.2,11.5c-1.2,0-1.5,0.7-1.5,1.3c0,0.5,0,0.9,0.1,1.4c0.1,0.5,0.1,1,0.1,1.5c0,1.7-1.1,2.4-2.5,2.4
				h-0.3v-0.9h0.2c1,0,1.4-0.6,1.4-1.6c0-0.4-0.1-0.8-0.1-1.3c-0.1-0.4-0.2-0.9-0.2-1.3c0-1.1,0.6-1.7,1.2-1.9v0
				c-0.6-0.2-1.2-0.8-1.2-1.9c0-0.5,0.1-0.9,0.2-1.3c0.1-0.4,0.1-0.9,0.1-1.3c0-0.9-0.3-1.5-1.4-1.5h-0.2V4h0.3
				C22.9,4,24,4.8,24,6.4c0,0.5-0.1,1-0.1,1.5c-0.1,0.5-0.1,1-0.1,1.5c0,0.6,0.2,1.3,1.5,1.3V11.5z"/>
		</g>
	</g>
</g>
</svg>
