<?xml version="1.0" encoding="utf-8"?>
<!-- Generator: Adobe Illustrator 16.0.0, SVG Export Plug-In . SVG Version: 6.00 Build 0)  -->
<!DOCTYPE svg PUBLIC "-//W3C//DTD SVG 1.1//EN" "http://www.w3.org/Graphics/SVG/1.1/DTD/svg11.dtd">
<svg version="1.1" id="Layer_1" xmlns="http://www.w3.org/2000/svg" xmlns:xlink="http://www.w3.org/1999/xlink" x="0px" y="0px"
	 width="64px" height="64px" viewBox="0 0 64 64" enable-background="new 0 0 64 64" xml:space="preserve">
<g>
	<g>
		<g>
			<g>
				<g>
					<rect x="6" y="47" fill="#FFAB00" width="5" height="2"/>
					<path fill="#37474F" d="M11,50H6c-0.6,0-1-0.4-1-1v-2c0-0.6,0.4-1,1-1h5c0.6,0,1,0.4,1,1v2C12,49.6,11.6,50,11,50z M7,48h3H7z"
						/>
				</g>
				<g>
					<rect x="14" y="47" fill="#FFAB00" width="4" height="2"/>
					<path fill="#37474F" d="M18,50h-4c-0.6,0-1-0.4-1-1v-2c0-0.6,0.4-1,1-1h4c0.6,0,1,0.4,1,1v2C19,49.6,18.6,50,18,50z M15,48h2
						H15z"/>
				</g>
			</g>
			<g>
				<rect x="5" y="49" fill="#FFECB3" width="15" height="7"/>
				<path fill="#37474F" d="M20,57H5c-0.6,0-1-0.4-1-1v-7c0-0.6,0.4-1,1-1h15c0.6,0,1,0.4,1,1v7C21,56.6,20.6,57,20,57z M6,55h13v-5
					H6V55z"/>
			</g>
		</g>
		<g>
			<g>
				<g>
					<rect x="6" y="37" fill="#FFAB00" width="5" height="3"/>
					<path fill="#37474F" d="M11,41H6c-0.6,0-1-0.4-1-1v-3c0-0.6,0.4-1,1-1h5c0.6,0,1,0.4,1,1v3C12,40.6,11.6,41,11,41z M7,39h3v-1
						H7V39z"/>
				</g>
				<g>
					<rect x="14" y="37" fill="#FFAB00" width="4" height="3"/>
					<path fill="#37474F" d="M18,41h-4c-0.6,0-1-0.4-1-1v-3c0-0.6,0.4-1,1-1h4c0.6,0,1,0.4,1,1v3C19,40.6,18.6,41,18,41z M15,39h2
						v-1h-2V39z"/>
				</g>
			</g>
			<g>
				<rect x="5" y="39" fill="#FFAB00" width="15" height="7"/>
				<path fill="#37474F" d="M20,47H5c-0.6,0-1-0.4-1-1v-7c0-0.6,0.4-1,1-1h15c0.6,0,1,0.4,1,1v7C21,46.6,20.6,47,20,47z M6,45h13v-5
					H6V45z"/>
			</g>
		</g>
		<g>
			<g>
				<g>
					<rect x="6" y="28" fill="#FFAB00" width="5" height="2"/>
					<path fill="#37474F" d="M11,31H6c-0.6,0-1-0.4-1-1v-2c0-0.6,0.4-1,1-1h5c0.6,0,1,0.4,1,1v2C12,30.6,11.6,31,11,31z M7,29h3H7z"
						/>
				</g>
				<g>
					<rect x="14" y="28" fill="#FFAB00" width="4" height="2"/>
					<path fill="#37474F" d="M18,31h-4c-0.6,0-1-0.4-1-1v-2c0-0.6,0.4-1,1-1h4c0.6,0,1,0.4,1,1v2C19,30.6,18.6,31,18,31z M15,29h2
						H15z"/>
				</g>
			</g>
			<g>
				<rect x="5" y="30" fill="#FFECB3" width="15" height="7"/>
				<path fill="#37474F" d="M20,38H5c-0.6,0-1-0.4-1-1v-7c0-0.6,0.4-1,1-1h15c0.6,0,1,0.4,1,1v7C21,37.6,20.6,38,20,38z M6,36h13v-5
					H6V36z"/>
			</g>
		</g>
		<g>
			<g>
				<g>
					<rect x="46" y="47" fill="#FFAB00" width="4" height="2"/>
					<path fill="#37474F" d="M50,50h-4c-0.6,0-1-0.4-1-1v-2c0-0.6,0.4-1,1-1h4c0.6,0,1,0.4,1,1v2C51,49.6,50.6,50,50,50z M47,48h2
						H47z"/>
				</g>
				<g>
					<rect x="53" y="47" fill="#FFAB00" width="4" height="2"/>
					<path fill="#37474F" d="M57,50h-4c-0.6,0-1-0.4-1-1v-2c0-0.6,0.4-1,1-1h4c0.6,0,1,0.4,1,1v2C58,49.6,57.6,50,57,50z M54,48h2
						H54z"/>
				</g>
			</g>
			<g>
				<rect x="44" y="49" fill="#FFAB00" width="15" height="7"/>
				<path fill="#37474F" d="M59,57H44c-0.6,0-1-0.4-1-1v-7c0-0.6,0.4-1,1-1h15c0.6,0,1,0.4,1,1v7C60,56.6,59.6,57,59,57z M45,55h13
					v-5H45V55z"/>
			</g>
		</g>
		<g>
			<g>
				<g>
					<rect x="46" y="37" fill="#FFAB00" width="4" height="3"/>
					<path fill="#37474F" d="M50,41h-4c-0.6,0-1-0.4-1-1v-3c0-0.6,0.4-1,1-1h4c0.6,0,1,0.4,1,1v3C51,40.6,50.6,41,50,41z M47,39h2
						v-1h-2V39z"/>
				</g>
				<g>
					<rect x="53" y="37" fill="#FFAB00" width="4" height="3"/>
					<path fill="#37474F" d="M57,41h-4c-0.6,0-1-0.4-1-1v-3c0-0.6,0.4-1,1-1h4c0.6,0,1,0.4,1,1v3C58,40.6,57.6,41,57,41z M54,39h2
						v-1h-2V39z"/>
				</g>
			</g>
			<g>
				<rect x="44" y="39" fill="#FFECB3" width="15" height="7"/>
				<path fill="#37474F" d="M59,47H44c-0.6,0-1-0.4-1-1v-7c0-0.6,0.4-1,1-1h15c0.6,0,1,0.4,1,1v7C60,46.6,59.6,47,59,47z M45,45h13
					v-5H45V45z"/>
			</g>
		</g>
		<g>
			<g>
				<g>
					<rect x="46" y="28" fill="#FFAB00" width="4" height="2"/>
					<path fill="#37474F" d="M50,31h-4c-0.6,0-1-0.4-1-1v-2c0-0.6,0.4-1,1-1h4c0.6,0,1,0.4,1,1v2C51,30.6,50.6,31,50,31z M47,29h2
						H47z"/>
				</g>
				<g>
					<rect x="53" y="28" fill="#FFAB00" width="4" height="2"/>
					<path fill="#37474F" d="M57,31h-4c-0.6,0-1-0.4-1-1v-2c0-0.6,0.4-1,1-1h4c0.6,0,1,0.4,1,1v2C58,30.6,57.6,31,57,31z M54,29h2
						H54z"/>
				</g>
			</g>
			<g>
				<rect x="44" y="30" fill="#FFAB00" width="15" height="7"/>
				<path fill="#37474F" d="M59,38H44c-0.6,0-1-0.4-1-1v-7c0-0.6,0.4-1,1-1h15c0.6,0,1,0.4,1,1v7C60,37.6,59.6,38,59,38z M45,36h13
					v-5H45V36z"/>
			</g>
		</g>
	</g>
	<g>
		<g>
			<line fill="#FFECB3" x1="2" y1="56" x2="23" y2="56"/>
			<path fill="#37474F" d="M23,57H2c-0.6,0-1-0.4-1-1s0.4-1,1-1h21c0.6,0,1,0.4,1,1S23.6,57,23,57z"/>
		</g>
		<g>
			<line fill="#FFECB3" x1="41" y1="56" x2="62" y2="56"/>
			<path fill="#37474F" d="M62,57H41c-0.6,0-1-0.4-1-1s0.4-1,1-1h21c0.6,0,1,0.4,1,1S62.6,57,62,57z"/>
		</g>
	</g>
	<g>
		<g>
			<g>
				<g>
					<rect x="11" y="18" fill="#FFAB00" width="4" height="2"/>
					<path fill="#37474F" d="M15,21h-4c-0.6,0-1-0.4-1-1v-2c0-0.6,0.4-1,1-1h4c0.6,0,1,0.4,1,1v2C16,20.6,15.6,21,15,21z M12,19h2
						H12z"/>
				</g>
				<g>
					<rect x="18" y="18" fill="#FFAB00" width="4" height="2"/>
					<path fill="#37474F" d="M22,21h-4c-0.6,0-1-0.4-1-1v-2c0-0.6,0.4-1,1-1h4c0.6,0,1,0.4,1,1v2C23,20.6,22.6,21,22,21z M19,19h2
						H19z"/>
				</g>
			</g>
			<g>
				<rect x="9" y="20" fill="#78909C" width="15" height="7"/>
				<path fill="#37474F" d="M25,28H8v-9h17V28z M10,26h13v-5H10V26z"/>
			</g>
		</g>
		<g>
			<g>
				<g>
					<rect x="26" y="18" fill="#FFAB00" width="4" height="2"/>
					<path fill="#37474F" d="M30,21h-4c-0.6,0-1-0.4-1-1v-2c0-0.6,0.4-1,1-1h4c0.6,0,1,0.4,1,1v2C31,20.6,30.6,21,30,21z M27,19h2
						H27z"/>
				</g>
				<g>
					<rect x="34" y="18" fill="#FFAB00" width="4" height="2"/>
					<path fill="#37474F" d="M38,21h-4c-0.6,0-1-0.4-1-1v-2c0-0.6,0.4-1,1-1h4c0.6,0,1,0.4,1,1v2C39,20.6,38.6,21,38,21z M35,19h2
						H35z"/>
				</g>
			</g>
			<g>
				<rect x="24" y="20" fill="#FFECB3" width="16" height="7"/>
				<path fill="#37474F" d="M40,28H24c-0.6,0-1-0.4-1-1v-7c0-0.6,0.4-1,1-1h16c0.6,0,1,0.4,1,1v7C41,27.6,40.6,28,40,28z M25,26h14
					v-5H25V26z"/>
			</g>
		</g>
		<g>
			<g>
				<g>
					<rect x="41" y="18" fill="#FFAB00" width="5" height="2"/>
					<path fill="#37474F" d="M46,21h-5c-0.6,0-1-0.4-1-1v-2c0-0.6,0.4-1,1-1h5c0.6,0,1,0.4,1,1v2C47,20.6,46.6,21,46,21z M42,19h3
						H42z"/>
				</g>
				<g>
					<rect x="49" y="18" fill="#FFAB00" width="4" height="2"/>
					<path fill="#37474F" d="M53,21h-4c-0.6,0-1-0.4-1-1v-2c0-0.6,0.4-1,1-1h4c0.6,0,1,0.4,1,1v2C54,20.6,53.6,21,53,21z M50,19h2
						H50z"/>
				</g>
			</g>
			<g>
				<rect x="40" y="20" fill="#B0BEC5" width="15" height="7"/>
				<path fill="#37474F" d="M55,28H40c-0.6,0-1-0.4-1-1v-7c0-0.6,0.4-1,1-1h15c0.6,0,1,0.4,1,1v7C56,27.6,55.6,28,55,28z M41,26h13
					v-5H41V26z"/>
			</g>
		</g>
		<g>
			<g>
				<g>
					<g>
						<rect x="18" y="8" fill="#FFAB00" width="5" height="3"/>
						<path fill="#37474F" d="M23,12h-5c-0.6,0-1-0.4-1-1V8c0-0.6,0.4-1,1-1h5c0.6,0,1,0.4,1,1v3C24,11.6,23.6,12,23,12z M19,10h3V9
							h-3V10z"/>
					</g>
					<g>
						<rect x="26" y="8" fill="#FFAB00" width="4" height="3"/>
						<path fill="#37474F" d="M30,12h-4c-0.6,0-1-0.4-1-1V8c0-0.6,0.4-1,1-1h4c0.6,0,1,0.4,1,1v3C31,11.6,30.6,12,30,12z M27,10h2V9
							h-2V10z"/>
					</g>
				</g>
				<g>
					<rect x="16" y="10" fill="#B0BEC5" width="16" height="7"/>
					<path fill="#37474F" d="M32,18H16c-0.6,0-1-0.4-1-1v-7c0-0.6,0.4-1,1-1h16c0.6,0,1,0.4,1,1v7C33,17.6,32.6,18,32,18z M17,16h14
						v-5H17V16z"/>
				</g>
			</g>
			<g>
				<g>
					<g>
						<rect x="34" y="8" fill="#FFAB00" width="4" height="3"/>
						<path fill="#37474F" d="M38,12h-4c-0.6,0-1-0.4-1-1V8c0-0.6,0.4-1,1-1h4c0.6,0,1,0.4,1,1v3C39,11.6,38.6,12,38,12z M35,10h2V9
							h-2V10z"/>
					</g>
					<g>
						<rect x="41" y="8" fill="#FFAB00" width="5" height="3"/>
						<path fill="#37474F" d="M46,12h-5c-0.6,0-1-0.4-1-1V8c0-0.6,0.4-1,1-1h5c0.6,0,1,0.4,1,1v3C47,11.6,46.6,12,46,12z M42,10h3V9
							h-3V10z"/>
					</g>
				</g>
				<g>
					<rect x="32" y="10" fill="#FFECB3" width="16" height="7"/>
					<path fill="#37474F" d="M48,18H32c-0.6,0-1-0.4-1-1v-7c0-0.6,0.4-1,1-1h16c0.6,0,1,0.4,1,1v7C49,17.6,48.6,18,48,18z M33,16h14
						v-5H33V16z"/>
				</g>
			</g>
		</g>
	</g>
	<g>
		<g>
			<path fill="#37474F" d="M27.2,33.3c0,0.4-0.4,0.8-0.8,0.8c-0.4,0-0.8-0.4-0.8-0.8c0-0.4,0.4-0.8,0.8-0.8
				C26.9,32.5,27.2,32.9,27.2,33.3z"/>
			<path fill="#37474F" d="M26.4,34.6c-0.7,0-1.3-0.6-1.3-1.3c0-0.7,0.6-1.3,1.3-1.3c0.7,0,1.3,0.6,1.3,1.3
				C27.7,34,27.1,34.6,26.4,34.6z M26.4,33c-0.2,0-0.3,0.1-0.3,0.3c0,0.2,0.1,0.3,0.3,0.3c0.1,0,0.3-0.1,0.3-0.3
				C26.7,33.1,26.6,33,26.4,33z"/>
		</g>
		<g>
			<path fill="#37474F" d="M32.7,33.3c0,0.4-0.4,0.8-0.8,0.8c-0.4,0-0.8-0.4-0.8-0.8c0-0.4,0.4-0.8,0.8-0.8
				C32.4,32.5,32.7,32.9,32.7,33.3z"/>
			<path fill="#37474F" d="M31.9,34.6c-0.7,0-1.3-0.6-1.3-1.3c0-0.7,0.6-1.3,1.3-1.3c0.7,0,1.3,0.6,1.3,1.3
				C33.2,34,32.6,34.6,31.9,34.6z M31.9,33c-0.2,0-0.3,0.1-0.3,0.3c0,0.2,0.1,0.3,0.3,0.3c0.2,0,0.3-0.1,0.3-0.3
				C32.2,33.2,32.1,33,31.9,33z"/>
		</g>
		<g>
			<path fill="#37474F" d="M38.2,33.3c0,0.4-0.4,0.8-0.8,0.8c-0.4,0-0.8-0.4-0.8-0.8c0-0.4,0.4-0.8,0.8-0.8
				C37.9,32.5,38.2,32.9,38.2,33.3z"/>
			<path fill="#37474F" d="M37.5,34.6c-0.7,0-1.3-0.6-1.3-1.3c0-0.3,0.1-0.7,0.4-0.9c0.2-0.2,0.6-0.4,0.9-0.4c0.7,0,1.3,0.6,1.3,1.3
				C38.7,34,38.2,34.6,37.5,34.6z M37.5,33c-0.1,0-0.2,0-0.2,0.1c0,0-0.1,0.1-0.1,0.2c0,0.2,0.1,0.3,0.3,0.3c0.1,0,0.3-0.1,0.3-0.3
				C37.7,33.2,37.6,33,37.5,33z"/>
		</g>
	</g>
</g>
</svg>
