<?xml version="1.0" encoding="utf-8"?>
<!-- Generator: Adobe Illustrator 16.0.0, SVG Export Plug-In . SVG Version: 6.00 Build 0)  -->
<!DOCTYPE svg PUBLIC "-//W3C//DTD SVG 1.1//EN" "http://www.w3.org/Graphics/SVG/1.1/DTD/svg11.dtd">
<svg version="1.1" id="Layer_1" xmlns="http://www.w3.org/2000/svg" xmlns:xlink="http://www.w3.org/1999/xlink" x="0px" y="0px"
	 width="128px" height="128px" viewBox="0 0 128 128" enable-background="new 0 0 128 128" xml:space="preserve">
<g>
	<g>
		<g>
			<line fill="#B0BEC5" x1="14" y1="113.5" x2="114" y2="113.5"/>
		</g>
		<g>
			<path fill="#37474F" d="M114,115H14c-0.8,0-1.5-0.7-1.5-1.5s0.7-1.5,1.5-1.5h100c0.8,0,1.5,0.7,1.5,1.5S114.8,115,114,115z"/>
		</g>
	</g>
	<g>
		<g>
			<g>
				<path fill="#B0BEC5" d="M97.5,79.5h-67v32.3l0,0v0c0,6,14.8,10.9,33.5,10.9c18.7,0,33.5-4.9,33.5-10.9v0l0,0V79.5z"/>
			</g>
			<g>
				<path fill="#37474F" d="M64,124.2c-17,0-35-4.3-35-12.4V79.5c0-0.8,0.7-1.5,1.5-1.5h67c0.8,0,1.5,0.7,1.5,1.5v32.3
					C99,119.8,81,124.2,64,124.2z M32,81v30.8c0,3.9,11.4,9.4,32,9.4s32-5.6,32-9.4V81H32z"/>
			</g>
		</g>
		<g>
			<g>
				<path fill="#FFAB00" d="M97.5,79.6c0,6-14.4,11.6-33.1,11.6c-18.7,0-33.4-4.8-33.4-10.8"/>
			</g>
			<g>
				<path fill="#37474F" d="M64.4,92.8c-22.9,0-34.9-6.2-34.9-12.3c0-0.8,0.7-1.5,1.5-1.5s1.5,0.7,1.5,1.5c0,4.4,13.1,9.3,31.9,9.3
					C84,89.8,96,83.9,96,79.6c0-0.8,0.7-1.5,1.5-1.5s1.5,0.7,1.5,1.5C99,87,83.8,92.8,64.4,92.8z"/>
			</g>
		</g>
	</g>
	<g>
		<g>
			<g>
				<path fill="#FFFFFF" d="M97.5,47.5h-67v32.1l0,0v0c0,6,15,10.9,33.7,10.9c18.7,0,33.3-4.9,33.3-10.9l0,0l0,0V47.5z"/>
			</g>
			<g>
				<path fill="#37474F" d="M64.2,92C47.1,92,29,87.7,29,79.6V47.5c0-0.8,0.7-1.5,1.5-1.5h67c0.8,0,1.5,0.7,1.5,1.5v32.1
					C99,85.8,87.1,92,64.2,92z M32,49v30.6c0,4.4,13.2,9.4,32.2,9.4C82.9,89,96,84.1,96,79.6V49H32z"/>
			</g>
		</g>
		<g>
			<g>
				<path fill="#FFAB00" d="M97.5,48.1c0,6-14.4,11-33.1,11c-18.7,0-33.4-5-33.4-11"/>
			</g>
			<g>
				<path fill="#37474F" d="M64.4,60.6c-16.9,0-34.9-4.4-34.9-12.5c0-0.8,0.7-1.5,1.5-1.5s1.5,0.7,1.5,1.5c0,4.5,13.1,9.5,31.9,9.5
					C84.7,57.6,96,52,96,48.1c0-0.8,0.7-1.5,1.5-1.5s1.5,0.7,1.5,1.5C99,55.2,84.1,60.6,64.4,60.6z"/>
			</g>
		</g>
	</g>
	<g>
		<g>
			<g>
				<path fill="#FFAB00" d="M97.5,17.5h-67v30.6l0,0v0c0,6,14.8,10.9,33.5,10.9c18.7,0,33.5-4.9,33.5-10.9v0l0,0V17.5z"/>
			</g>
			<g>
				<path fill="#37474F" d="M64,60.5c-17,0-35-4.3-35-12.4V16h70v32.1C99,56.2,81,60.5,64,60.5z M32,19v29.1c0,4.5,13.1,9.4,32,9.4
					s32-4.9,32-9.4V19H32z"/>
			</g>
		</g>
		<g>
			<g>
				<path fill="#FFECB3" d="M97.8,16.7c0,6-14.7,10.9-33.5,10.9c-18.7,0-33.9-4.9-33.9-10.9c0-6,15.2-10.9,33.9-10.9
					C83.1,5.8,97.8,10.7,97.8,16.7z"/>
			</g>
			<g>
				<path fill="#37474F" d="M64.4,29.1c-17.2,0-35.4-4.3-35.4-12.4c0-8.1,18.3-12.4,35.4-12.4c17,0,35,4.3,35,12.4
					S81.3,29.1,64.4,29.1z M64.4,7.3c-15.3,0-32.4,4-32.4,9.4c0,4.4,13.9,9.4,32.4,9.4c18.8,0,32-4.9,32-9.4S83.2,7.3,64.4,7.3z"/>
			</g>
		</g>
	</g>
	<g>
		<g>
			<g>
				<path fill="#37474F" d="M53.1,74.3c0,1-0.8,1.9-1.8,1.9c-1.1,0-1.9-0.8-1.9-1.9s0.8-1.9,1.9-1.9C52.3,72.5,53.1,73.3,53.1,74.3z
					"/>
			</g>
			<g>
				<path fill="#37474F" d="M51.3,76.7c-1.3,0-2.4-1.1-2.4-2.4c0-1.3,1.1-2.4,2.4-2.4c1.3,0,2.3,1.1,2.3,2.4
					C53.6,75.6,52.6,76.7,51.3,76.7z M51.3,73c-0.8,0-1.4,0.6-1.4,1.4c0,0.8,0.6,1.4,1.4,1.4c0.7,0,1.3-0.6,1.3-1.4
					C52.6,73.6,52,73,51.3,73z"/>
			</g>
		</g>
		<g>
			<g>
				<path fill="#37474F" d="M66.3,74.3c0,1-0.9,1.9-1.9,1.9s-1.9-0.8-1.9-1.9s0.8-1.9,1.9-1.9S66.3,73.3,66.3,74.3z"/>
			</g>
			<g>
				<path fill="#37474F" d="M64.4,76.7c-1.3,0-2.4-1.1-2.4-2.4C62,73,63,72,64.4,72c1.3,0,2.4,1.1,2.4,2.4
					C66.8,75.6,65.7,76.7,64.4,76.7z M64.4,73c-0.8,0-1.4,0.6-1.4,1.4c0,0.7,0.6,1.4,1.4,1.4c0.8,0,1.4-0.6,1.4-1.4
					C65.8,73.6,65.1,73,64.4,73z"/>
			</g>
		</g>
		<g>
			<g>
				<path fill="#37474F" d="M79.3,74.3c0,1-0.8,1.9-1.8,1.9c-1.1,0-1.9-0.8-1.9-1.9s0.8-1.9,1.9-1.9C78.5,72.5,79.3,73.3,79.3,74.3z
					"/>
			</g>
			<g>
				<path fill="#37474F" d="M77.5,76.7c-1.3,0-2.4-1.1-2.4-2.4c0-1.3,1.1-2.4,2.4-2.4c1.3,0,2.3,1.1,2.3,2.4
					C79.8,75.6,78.8,76.7,77.5,76.7z M77.5,73c-0.8,0-1.4,0.6-1.4,1.4c0,0.8,0.6,1.4,1.4,1.4c0.7,0,1.3-0.6,1.3-1.4
					C78.8,73.6,78.2,73,77.5,73z"/>
			</g>
		</g>
	</g>
	<g>
		<g>
			<g>
				<path fill="#37474F" d="M53.1,106.7c0,1-0.8,1.9-1.8,1.9c-1.1,0-1.9-0.8-1.9-1.9c0-1,0.8-1.9,1.9-1.9
					C52.3,104.9,53.1,105.7,53.1,106.7z"/>
			</g>
			<g>
				<path fill="#37474F" d="M51.3,109.1c-1.3,0-2.4-1.1-2.4-2.4c0-1.3,1.1-2.4,2.4-2.4c1.3,0,2.3,1.1,2.3,2.4
					C53.6,108,52.6,109.1,51.3,109.1z M51.3,105.4c-0.8,0-1.4,0.6-1.4,1.4c0,0.8,0.6,1.4,1.4,1.4c0.7,0,1.3-0.6,1.3-1.4
					C52.6,106,52,105.4,51.3,105.4z"/>
			</g>
		</g>
		<g>
			<g>
				<path fill="#37474F" d="M66.3,106.7c0,1-0.9,1.9-1.9,1.9s-1.9-0.8-1.9-1.9c0-1,0.8-1.9,1.9-1.9S66.3,105.7,66.3,106.7z"/>
			</g>
			<g>
				<path fill="#37474F" d="M64.4,109.1c-1.3,0-2.4-1.1-2.4-2.4c0-1.3,1.1-2.4,2.4-2.4c1.3,0,2.4,1.1,2.4,2.4
					C66.8,108,65.7,109.1,64.4,109.1z M64.4,105.4c-0.7,0-1.4,0.6-1.4,1.4c0,0.8,0.6,1.4,1.4,1.4c0.8,0,1.4-0.6,1.4-1.4
					C65.8,106,65.1,105.4,64.4,105.4z"/>
			</g>
		</g>
		<g>
			<g>
				<path fill="#37474F" d="M79.3,106.7c0,1-0.8,1.9-1.8,1.9c-1.1,0-1.9-0.8-1.9-1.9c0-1,0.8-1.9,1.9-1.9
					C78.5,104.9,79.3,105.7,79.3,106.7z"/>
			</g>
			<g>
				<path fill="#37474F" d="M77.5,109.1c-1.3,0-2.4-1.1-2.4-2.4c0-1.3,1.1-2.4,2.4-2.4c1.3,0,2.3,1.1,2.3,2.4
					C79.8,108,78.8,109.1,77.5,109.1z M77.5,105.4c-0.8,0-1.4,0.6-1.4,1.4c0,0.8,0.6,1.4,1.4,1.4c0.7,0,1.3-0.6,1.3-1.4
					C78.8,106,78.2,105.4,77.5,105.4z"/>
			</g>
		</g>
	</g>
	<g>
		<g>
			<g>
				<path fill="#37474F" d="M53.1,42.8c0,1-0.8,1.9-1.8,1.9c-1.1,0-1.9-0.8-1.9-1.9c0-1,0.8-1.9,1.9-1.9
					C52.3,40.9,53.1,41.8,53.1,42.8z"/>
			</g>
			<g>
				<path fill="#37474F" d="M51.3,45.2c-1.3,0-2.4-1.1-2.4-2.4c0-1.3,1.1-2.4,2.4-2.4c1.3,0,2.3,1.1,2.3,2.4
					C53.6,44.1,52.6,45.2,51.3,45.2z M51.3,41.4c-0.8,0-1.4,0.6-1.4,1.4c0,0.7,0.6,1.4,1.4,1.4c0.7,0,1.3-0.6,1.3-1.4
					C52.6,42.1,52,41.4,51.3,41.4z"/>
			</g>
		</g>
		<g>
			<g>
				<path fill="#37474F" d="M66.3,42.8c0,1-0.9,1.9-1.9,1.9s-1.9-0.8-1.9-1.9c0-1,0.8-1.9,1.9-1.9S66.3,41.8,66.3,42.8z"/>
			</g>
			<g>
				<path fill="#37474F" d="M64.4,45.2c-1.3,0-2.4-1.1-2.4-2.4c0-1.3,1.1-2.4,2.4-2.4c1.3,0,2.4,1.1,2.4,2.4
					C66.8,44.1,65.7,45.2,64.4,45.2z M64.4,41.4c-0.8,0-1.4,0.6-1.4,1.4c0,0.7,0.6,1.4,1.4,1.4c0.8,0,1.4-0.6,1.4-1.4
					C65.8,42.1,65.1,41.4,64.4,41.4z"/>
			</g>
		</g>
		<g>
			<g>
				<path fill="#37474F" d="M79.3,42.8c0,1-0.8,1.9-1.8,1.9c-1.1,0-1.9-0.8-1.9-1.9c0-1,0.8-1.9,1.9-1.9
					C78.5,40.9,79.3,41.8,79.3,42.8z"/>
			</g>
			<g>
				<path fill="#37474F" d="M77.5,45.2c-1.3,0-2.4-1.1-2.4-2.4c0-1.3,1.1-2.4,2.4-2.4c1.3,0,2.3,1.1,2.3,2.4
					C79.8,44.1,78.8,45.2,77.5,45.2z M77.5,41.4c-0.8,0-1.4,0.6-1.4,1.4c0,0.8,0.6,1.4,1.4,1.4c0.7,0,1.3-0.6,1.3-1.4
					C78.8,42.1,78.2,41.4,77.5,41.4z"/>
			</g>
		</g>
	</g>
</g>
</svg>
