<?xml version="1.0" encoding="utf-8"?>
<!-- Generator: Adobe Illustrator 16.0.0, SVG Export Plug-In . SVG Version: 6.00 Build 0)  -->
<!DOCTYPE svg PUBLIC "-//W3C//DTD SVG 1.1//EN" "http://www.w3.org/Graphics/SVG/1.1/DTD/svg11.dtd">
<svg version="1.1" id="Layer_1" xmlns="http://www.w3.org/2000/svg" xmlns:xlink="http://www.w3.org/1999/xlink" x="0px" y="0px"
	 width="128px" height="128px" viewBox="0 0 128 128" enable-background="new 0 0 128 128" xml:space="preserve">
<g>
	<g>
		<g>
			<path fill="#FFECB3" d="M50.2,64c0-11.4,5.4-21.6,13.8-28.1c-6-4.7-13.6-7.5-21.9-7.5C22.4,28.4,6.5,44.3,6.5,64
				s15.9,35.6,35.6,35.6c8.2,0,15.8-2.8,21.9-7.5C55.6,85.6,50.2,75.4,50.2,64z"/>
			<path fill="#37474F" d="M42.1,101.6C21.4,101.6,4.5,84.7,4.5,64s16.9-37.6,37.6-37.6c8.5,0,16.4,2.7,23.1,7.9
				c0.5,0.4,0.8,1,0.8,1.6c0,0.6-0.3,1.2-0.8,1.6c-8.2,6.4-13,16.1-13,26.5s4.7,20.1,13,26.5c0.5,0.4,0.8,1,0.8,1.6
				c0,0.6-0.3,1.2-0.8,1.6C58.6,98.9,50.6,101.6,42.1,101.6z M42.1,30.4C23.6,30.4,8.5,45.5,8.5,64s15.1,33.6,33.6,33.6
				c6.7,0,13.1-1.9,18.6-5.6c-8-7.1-12.5-17.2-12.5-28s4.5-20.9,12.5-28C55.2,32.3,48.8,30.4,42.1,30.4z"/>
		</g>
		<g>
			<path fill="#FFAB00" d="M85.9,28.4c-8.2,0-15.8,2.8-21.9,7.5c8.4,6.5,13.8,16.7,13.8,28.1S72.4,85.6,64,92.1
				c6,4.7,13.6,7.5,21.9,7.5c19.7,0,35.6-15.9,35.6-35.6S105.6,28.4,85.9,28.4z"/>
			<path fill="#37474F" d="M85.9,101.6c-8.5,0-16.4-2.7-23.1-7.9c-0.5-0.4-0.8-1-0.8-1.6c0-0.6,0.3-1.2,0.8-1.6
				c8.2-6.4,13-16.1,13-26.5s-4.7-20.1-13-26.5c-0.5-0.4-0.8-1-0.8-1.6c0-0.6,0.3-1.2,0.8-1.6c6.7-5.2,14.7-7.9,23.1-7.9
				c20.7,0,37.6,16.9,37.6,37.6S106.6,101.6,85.9,101.6z M67.3,92c5.5,3.7,11.9,5.6,18.6,5.6c18.5,0,33.6-15.1,33.6-33.6
				s-15.1-33.6-33.6-33.6c-6.7,0-13.1,1.9-18.6,5.6c8,7.1,12.5,17.2,12.5,28S75.2,84.9,67.3,92z"/>
		</g>
	</g>
	<g>
		<g>
			<g>
				<line fill="#FFAB00" x1="43" y1="14" x2="75" y2="14"/>
				<path fill="#37474F" d="M75,16H43c-1.1,0-2-0.9-2-2s0.9-2,2-2h32c1.1,0,2,0.9,2,2S76.1,16,75,16z"/>
			</g>
			<g>
				<polyline fill="#FFECB3" points="77.9,9.1 85.1,14.5 77.9,19.8 				"/>
				<path fill="#37474F" d="M77.9,21.8c-0.6,0-1.2-0.3-1.6-0.8c-0.7-0.9-0.5-2.1,0.4-2.8l5.1-3.8l-5.1-3.8c-0.9-0.7-1.1-1.9-0.4-2.8
					c0.7-0.9,1.9-1.1,2.8-0.4l7.2,5.4c0.5,0.4,0.8,1,0.8,1.6c0,0.6-0.3,1.2-0.8,1.6l-7.2,5.4C78.7,21.7,78.3,21.8,77.9,21.8z"/>
			</g>
		</g>
		<g>
			<g>
				<line fill="#FFAB00" x1="85" y1="114" x2="53" y2="114"/>
				<path fill="#37474F" d="M85,116H53c-1.1,0-2-0.9-2-2s0.9-2,2-2h32c1.1,0,2,0.9,2,2S86.1,116,85,116z"/>
			</g>
			<g>
				<polyline fill="#FFECB3" points="50.1,118.9 42.9,113.5 50.1,108.2 				"/>
				<path fill="#37474F" d="M50.1,120.9c-0.4,0-0.8-0.1-1.2-0.4l-7.2-5.4c-0.5-0.4-0.8-1-0.8-1.6c0-0.6,0.3-1.2,0.8-1.6l7.2-5.4
					c0.9-0.7,2.1-0.5,2.8,0.4c0.7,0.9,0.5,2.1-0.4,2.8l-5.1,3.8l5.1,3.8c0.9,0.7,1.1,1.9,0.4,2.8C51.3,120.6,50.7,120.9,50.1,120.9z
					"/>
			</g>
		</g>
	</g>
</g>
</svg>
