<?xml version="1.0" encoding="utf-8"?>
<!-- Generator: Adobe Illustrator 16.0.0, SVG Export Plug-In . SVG Version: 6.00 Build 0)  -->
<!DOCTYPE svg PUBLIC "-//W3C//DTD SVG 1.1//EN" "http://www.w3.org/Graphics/SVG/1.1/DTD/svg11.dtd">
<svg version="1.1" id="Layer_1" xmlns="http://www.w3.org/2000/svg" xmlns:xlink="http://www.w3.org/1999/xlink" x="0px" y="0px"
	 width="128px" height="128px" viewBox="0 0 128 128" enable-background="new 0 0 128 128" xml:space="preserve">
<g>
	<g>
		<g>
			<line fill="#FFECB3" x1="15.8" y1="82.3" x2="77.8" y2="20.4"/>
			<path fill="#37474F" d="M15.8,83.8c-0.4,0-0.8-0.1-1.1-0.4c-0.6-0.6-0.6-1.5,0-2.1l62-62c0.6-0.6,1.5-0.6,2.1,0
				c0.6,0.6,0.6,1.5,0,2.1l-62,62C16.6,83.7,16.2,83.8,15.8,83.8z"/>
		</g>
		<g>
			<line fill="#FFECB3" x1="48.9" y1="115.4" x2="110.9" y2="53.4"/>
			<path fill="#37474F" d="M48.9,116.9c-0.4,0-0.8-0.1-1.1-0.4c-0.6-0.6-0.6-1.5,0-2.1l62-62c0.6-0.6,1.5-0.6,2.1,0
				c0.6,0.6,0.6,1.5,0,2.1l-62,62C49.7,116.8,49.3,116.9,48.9,116.9z"/>
		</g>
	</g>
	<g>
		<g>
			<path fill="#FFFFFF" d="M74.8,79.4C63,89.2,47.1,88.6,43,88.3c-0.3-4.1-0.9-20,8.9-31.9c11.9-9.9,27.8-9.3,31.9-8.9
				C84.1,51.6,84.7,67.5,74.8,79.4z"/>
			<path fill="#37474F" d="M46.8,89.9c-1.7,0-3.1-0.1-4-0.2l-1.3-0.1l-0.1-1.3c-0.4-4.6-0.9-20.8,9.2-32.9l0.2-0.2
				c9.9-8.2,22.4-9.4,29-9.4c1.7,0,3.1,0.1,4,0.2l1.3,0.1l0.1,1.3c0.4,4.6,0.9,20.7-9.2,33l-0.2,0.2C65.9,88.7,53.4,89.9,46.8,89.9z
				 M44.4,86.9c0.7,0,1.5,0.1,2.4,0.1c6.2,0,17.8-1.1,26.9-8.6c8.6-10.4,8.9-23.9,8.6-29.4c-0.7,0-1.5-0.1-2.4-0.1
				c-6.2,0-17.8,1.1-27,8.6C44.4,67.8,44.1,81.3,44.4,86.9z"/>
		</g>
		<g>
			<path fill="#FFAB00" d="M75.2,56.1c6.5,6.5,6.5,17.1,0,23.7c-6.5,6.5-17.1,6.5-23.7,0c-6.5-6.5-6.5-17.1,0-23.7
				C58.1,49.5,68.7,49.5,75.2,56.1z"/>
			<path fill="#37474F" d="M63.4,86.1c-4.9,0-9.4-1.9-12.9-5.3c-7.1-7.1-7.1-18.7,0-25.8c3.5-3.4,8-5.3,12.9-5.3
				c4.9,0,9.4,1.9,12.9,5.3c3.4,3.4,5.3,8,5.3,12.9c0,4.9-1.9,9.5-5.3,12.9C72.8,84.2,68.2,86.1,63.4,86.1z M63.4,52.6
				c-4.1,0-7.9,1.6-10.8,4.5c-5.9,5.9-5.9,15.6,0,21.5c2.9,2.9,6.7,4.4,10.8,4.4c4.1,0,7.9-1.6,10.8-4.4c2.9-2.9,4.5-6.7,4.5-10.8
				c0-4.1-1.6-7.9-4.5-10.8C71.3,54.2,67.4,52.6,63.4,52.6z"/>
		</g>
		<path fill="#37474F" d="M70.6,60.7c4,4,4,10.5,0,14.4c-4,4-10.4,4-14.4,0c-4-4-4-10.4,0-14.4C60.1,56.7,66.6,56.7,70.6,60.7z"/>
		<path fill="#FFFFFF" d="M58.1,62.9c2.3,2.3,2.3,6.1,0,8.4c-2.3,2.3-6.1,2.3-8.4,0c-2.3-2.3-2.3-6.1,0-8.4
			C52,60.5,55.8,60.5,58.1,62.9z"/>
		<path fill="#FFFFFF" d="M75.6,65.7c1.1,1.1,1.1,2.9,0,4c-1.1,1.1-2.9,1.1-4,0c-1.1-1.1-1.1-2.9,0-4C72.7,64.6,74.5,64.6,75.6,65.7
			z"/>
	</g>
	<g>
		<g>
			<g>
				<line fill="#78909C" x1="20.5" y1="18" x2="20.5" y2="40"/>
				<rect x="19" y="18" fill="#37474F" width="3" height="22"/>
			</g>
			<g>
				<path fill="#FFAB00" d="M20.4,38.8c1.6,1.6,0.3,5.4-2.8,8.5c-3.1,3.1-6.9,4.3-8.4,2.8c-1.6-1.6-0.3-5.3,2.8-8.4
					C15,38.5,18.8,37.3,20.4,38.8z"/>
				<path fill="#37474F" d="M11,52.2c-1.2,0-2.2-0.4-3-1.1C7.4,50.4,7,49.3,7,48.2c0-2.3,1.4-5.2,3.9-7.6c2.4-2.4,5.3-3.9,7.6-3.9
					c1.2,0,2.2,0.4,2.9,1.1c2.2,2.2,1,6.8-2.8,10.6C16.2,50.8,13.4,52.2,11,52.2z M18.5,39.6c-1.2,0-3.4,0.9-5.5,3s-3,4.3-3,5.5
					c0,0.3,0,0.6,0.2,0.8c0.2,0.2,0.6,0.2,0.8,0.2c1.2,0,3.4-0.9,5.5-3c2.7-2.7,3.5-5.6,2.8-6.3C19.1,39.7,18.7,39.6,18.5,39.6z"/>
			</g>
		</g>
		<g>
			<g>
				<line fill="#78909C" x1="41.5" y1="18" x2="41.5" y2="40"/>
				<rect x="40" y="18" fill="#37474F" width="3" height="22"/>
			</g>
			<g>
				<path fill="#FFAB00" d="M41.6,38.8c1.6,1.6,0.3,5.4-2.8,8.5c-3.1,3.1-6.9,4.3-8.4,2.8c-1.6-1.6-0.3-5.3,2.7-8.4
					C36.3,38.5,40,37.3,41.6,38.8z"/>
				<path fill="#37474F" d="M32.3,52.2c-1.2,0-2.2-0.4-3-1.1c-0.7-0.7-1.1-1.7-1.1-2.9c0-2.3,1.4-5.2,3.9-7.6
					c2.4-2.4,5.3-3.9,7.6-3.9c1.2,0,2.2,0.4,2.9,1.1c1.2,1.2,1.4,3,0.7,5.2c-0.6,1.8-1.8,3.7-3.5,5.4C37.5,50.8,34.7,52.2,32.3,52.2
					z M39.7,39.6c-1.2,0-3.4,0.9-5.5,3c-2.1,2.1-3,4.3-3,5.5c0,0.3,0,0.6,0.2,0.8c0.2,0.2,0.6,0.2,0.8,0.2c1.2,0,3.4-0.9,5.5-3
					c1.3-1.3,2.3-2.8,2.8-4.2c0.3-1,0.3-1.8,0-2.1C40.4,39.7,40,39.6,39.7,39.6z"/>
			</g>
		</g>
		<g>
			<rect x="13.5" y="10.5" fill="#FFFFFF" width="28" height="10"/>
			<path fill="#37474F" d="M41.5,22h-28c-0.8,0-1.5-0.7-1.5-1.5v-10C12,9.7,12.7,9,13.5,9h28c0.8,0,1.5,0.7,1.5,1.5v10
				C43,21.3,42.3,22,41.5,22z M15,19h25v-7H15V19z"/>
		</g>
		<g>
			<line fill="#78909C" x1="15" y1="27.5" x2="43" y2="27.5"/>
			<path fill="#37474F" d="M43,29H15c-0.8,0-1.5-0.7-1.5-1.5S14.2,26,15,26h28c0.8,0,1.5,0.7,1.5,1.5S43.8,29,43,29z"/>
		</g>
	</g>
	<g>
		<g>
			<polygon fill="#FFFFFF" points="77.5,117.5 98.5,81.1 119.5,117.5 			"/>
			<path fill="#37474F" d="M119.6,119C119.6,119,119.5,119,119.6,119h-42c-0.5,0-1-0.3-1.3-0.8c-0.3-0.5-0.3-1,0-1.5l21-36.4
				c0.3-0.5,0.8-0.7,1.3-0.7l0,0c0.5,0,1,0.3,1.3,0.8l20.9,36.2c0.2,0.3,0.3,0.6,0.3,0.9C121.1,118.3,120.4,119,119.6,119z
				 M80.1,116h36.8L98.5,84.1L80.1,116z"/>
		</g>
		<g>
			<polygon fill="#FFAB00" points="90.4,109.5 98.5,95.4 106.7,109.5 			"/>
			<path fill="#37474F" d="M109.3,111H87.8l10.8-18.6L109.3,111z M93,108h11.1l-5.6-9.6L93,108z"/>
		</g>
	</g>
</g>
</svg>
