<?xml version="1.0" encoding="utf-8"?>
<!-- Generator: Adobe Illustrator 16.0.0, SVG Export Plug-In . SVG Version: 6.00 Build 0)  -->
<!DOCTYPE svg PUBLIC "-//W3C//DTD SVG 1.1//EN" "http://www.w3.org/Graphics/SVG/1.1/DTD/svg11.dtd">
<svg version="1.1" id="Layer_1" xmlns="http://www.w3.org/2000/svg" xmlns:xlink="http://www.w3.org/1999/xlink" x="0px" y="0px"
	 width="32px" height="32px" viewBox="0 0 32 32" enable-background="new 0 0 32 32" xml:space="preserve">
<g>
	<g>
		<g>
			<g>
				<line fill="#FFAB00" x1="9.2" y1="1.9" x2="9.2" y2="29.9"/>
				<path fill="#37474F" d="M9.2,30.4c-0.3,0-0.5-0.2-0.5-0.5v-28c0-0.3,0.2-0.5,0.5-0.5s0.5,0.2,0.5,0.5v28
					C9.8,30.2,9.5,30.4,9.2,30.4z"/>
			</g>
			<g>
				<line fill="#FFAB00" x1="23.2" y1="1.9" x2="23.2" y2="29.9"/>
				<path fill="#37474F" d="M23.2,30.4c-0.3,0-0.5-0.2-0.5-0.5v-28c0-0.3,0.2-0.5,0.5-0.5s0.5,0.2,0.5,0.5v28
					C23.8,30.2,23.5,30.4,23.2,30.4z"/>
			</g>
		</g>
		<g>
			<g>
				<line fill="#FFAB00" x1="1.8" y1="22.4" x2="30.8" y2="22.4"/>
				<path fill="#37474F" d="M30.8,22.9h-29c-0.3,0-0.5-0.2-0.5-0.5s0.2-0.5,0.5-0.5h29c0.3,0,0.5,0.2,0.5,0.5S31,22.9,30.8,22.9z"/>
			</g>
			<g>
				<line fill="#FFAB00" x1="1.8" y1="9.4" x2="30.8" y2="9.4"/>
				<path fill="#37474F" d="M30.8,9.9h-29c-0.3,0-0.5-0.2-0.5-0.5s0.2-0.5,0.5-0.5h29c0.3,0,0.5,0.2,0.5,0.5S31,9.9,30.8,9.9z"/>
			</g>
		</g>
	</g>
	<g>
		<g>
			<g>
				<path fill="#FFFFFF" d="M6,12.4c0,0.6-0.5,1-1.2,1H4c-0.6,0-1.2-0.4-1.2-1l0,0c0-0.6,0.5-1,1.2-1h0.9C5.5,11.4,6,11.8,6,12.4
					L6,12.4z"/>
				<path fill="#37474F" d="M4.8,13.9H4c-1,0-1.7-0.6-1.7-1.5c0-0.9,0.7-1.5,1.7-1.5h0.9c1,0,1.7,0.6,1.7,1.5
					C6.5,13.3,5.8,13.9,4.8,13.9z M4,11.9c-0.2,0-0.7,0-0.7,0.5c0,0.5,0.5,0.5,0.7,0.5h0.9c0.2,0,0.7,0,0.7-0.5
					c0-0.4-0.5-0.5-0.7-0.5H4z"/>
			</g>
			<g>
				<polygon fill="#FFFFFF" points="6.2,19.4 6.2,18.4 5.2,18.4 5.2,15.4 3.2,15.4 3.2,18.4 2.2,18.4 2.2,19.4 1.2,19.4 1.2,20.4 
					7.2,20.4 7.2,19.4 				"/>
				<path fill="#37474F" d="M7.2,20.9h-6c-0.3,0-0.5-0.2-0.5-0.5v-1c0-0.3,0.2-0.5,0.5-0.5h0.5v-0.5c0-0.3,0.2-0.5,0.5-0.5h0.5v-2.5
					c0-0.3,0.2-0.5,0.5-0.5h2c0.3,0,0.5,0.2,0.5,0.5v2.5h0.5c0.3,0,0.5,0.2,0.5,0.5v0.5h0.5c0.3,0,0.5,0.2,0.5,0.5v1
					C7.8,20.7,7.5,20.9,7.2,20.9z M1.8,19.9h5H6.2c-0.3,0-0.5-0.2-0.5-0.5v-0.5H5.2c-0.3,0-0.5-0.2-0.5-0.5v-2.5h-1v2.5
					c0,0.3-0.2,0.5-0.5,0.5H2.8v0.5c0,0.3-0.2,0.5-0.5,0.5H1.8z"/>
			</g>
			<g>
				<rect x="2.2" y="13.4" fill="#FFFFFF" width="4" height="2"/>
				<path fill="#37474F" d="M6.2,15.9h-4c-0.3,0-0.5-0.2-0.5-0.5v-2c0-0.3,0.2-0.5,0.5-0.5h4c0.3,0,0.5,0.2,0.5,0.5v2
					C6.8,15.7,6.5,15.9,6.2,15.9z M2.8,14.9h3v-1h-3V14.9z"/>
			</g>
		</g>
		<g>
			<g>
				<polygon fill="#78909C" points="30.2,19.4 30.2,19.4 29.2,19.4 29.2,18.4 28.2,18.4 28.2,15.4 26.2,15.4 26.2,18.4 25.2,18.4 
					25.2,19.4 24.2,19.4 24.2,20.4 30.2,20.4 30.2,19.4 				"/>
				<path fill="#37474F" d="M30.8,20.9h-7v-2h1v-1h1v-3h3v3h1v1h1V20.9z M24.8,19.9h5h-1v-1h-1v-3h-1v3h-1v1H24.8z"/>
			</g>
			<g>
				<rect x="25.2" y="13.4" fill="#78909C" width="4" height="2"/>
				<path fill="#37474F" d="M29.8,15.9h-5v-3h5V15.9z M25.8,14.9h3v-1h-3V14.9z"/>
			</g>
			<g>
				<rect x="24.8" y="11.9" fill="#37474F" width="1" height="3"/>
				<rect x="26.8" y="11.9" fill="#37474F" width="1" height="3"/>
				<rect x="28.8" y="11.9" fill="#37474F" width="1" height="3"/>
			</g>
		</g>
	</g>
	<g>
		<g>
			<circle fill="#FFAB00" cx="16" cy="4.2" r="2.7"/>
			<path fill="#37474F" d="M16,7.4c-1.8,0-3.2-1.5-3.2-3.2c0-1.8,1.5-3.2,3.2-3.2c1.8,0,3.2,1.5,3.2,3.2C19.2,6,17.7,7.4,16,7.4z
				 M16,1.9c-1.2,0-2.2,1-2.2,2.2c0,1.2,1,2.2,2.2,2.2c1.2,0,2.2-1,2.2-2.2C18.2,2.9,17.2,1.9,16,1.9z"/>
		</g>
		<g>
			<path fill="#FFECB3" d="M18.7,27.8c0,1.5-1.2,2.7-2.7,2.7c-1.5,0-2.7-1.2-2.7-2.7c0-1.5,1.2-2.7,2.7-2.7
				C17.5,25.1,18.7,26.3,18.7,27.8z"/>
			<path fill="#37474F" d="M16,31.1c-1.8,0-3.2-1.5-3.2-3.2c0-1.8,1.5-3.2,3.2-3.2c1.8,0,3.2,1.5,3.2,3.2
				C19.2,29.6,17.7,31.1,16,31.1z M16,25.6c-1.2,0-2.2,1-2.2,2.2c0,1.2,1,2.2,2.2,2.2c1.2,0,2.2-1,2.2-2.2
				C18.2,26.6,17.2,25.6,16,25.6z"/>
		</g>
	</g>
</g>
<g>
	<g>
		<path fill="#37474F" d="M18.1,14.8c0.2,0,0.5-0.1,0.6-0.3c0.2-0.2,0.3-0.4,0.3-0.7c0-0.3-0.1-0.5-0.3-0.6c-0.3-0.4-1-0.4-1.3,0
			c-0.2,0.2-0.3,0.4-0.3,0.7c0,0.2,0.1,0.5,0.3,0.6C17.6,14.7,17.8,14.8,18.1,14.8z"/>
		<path fill="#37474F" d="M13.2,17.5c-0.2,0.2-0.3,0.4-0.3,0.7c0,0.2,0.1,0.5,0.3,0.7c0.2,0.2,0.4,0.3,0.7,0.3
			c0.2,0,0.5-0.1,0.6-0.3c0.2-0.2,0.3-0.4,0.3-0.7c0-0.2-0.1-0.5-0.3-0.7C14.1,17.1,13.5,17.1,13.2,17.5z"/>
		<path fill="#37474F" d="M17.4,17.5c-0.2,0.2-0.3,0.4-0.3,0.7c0,0.2,0.1,0.5,0.3,0.6c0.2,0.2,0.4,0.3,0.7,0.3
			c0.2,0,0.5-0.1,0.6-0.3c0.2-0.2,0.3-0.4,0.3-0.6c0-0.3-0.1-0.5-0.3-0.7C18.4,17.1,17.7,17.1,17.4,17.5z"/>
		<path fill="#37474F" d="M16.6,15.4C16.6,15.3,16.6,15.3,16.6,15.4C16.6,15.3,16.6,15.3,16.6,15.4c-0.1-0.1-0.1-0.1-0.2-0.1
			c0,0-0.1-0.1-0.1-0.1c-0.3-0.1-0.7-0.1-1,0.2C15.1,15.5,15,15.8,15,16c0,0.1,0,0.2,0.1,0.3c0,0,0,0,0,0c0,0.1,0.1,0.1,0.1,0.2
			c0,0,0,0.1,0.1,0.1c0.2,0.2,0.4,0.3,0.7,0.3c0.2,0,0.4-0.1,0.5-0.2c0,0,0.1,0,0.1-0.1c0,0,0,0,0,0c0,0,0,0,0,0
			c0,0,0.1-0.1,0.1-0.2c0,0,0.1-0.1,0.1-0.1C16.9,16,16.9,15.6,16.6,15.4z"/>
		<path fill="#37474F" d="M13.2,13.2c-0.2,0.2-0.3,0.4-0.3,0.7s0.1,0.5,0.3,0.6c0.2,0.2,0.4,0.3,0.7,0.3c0.2,0,0.5-0.1,0.7-0.3
			c0.2-0.2,0.3-0.4,0.3-0.7c0-0.2-0.1-0.5-0.3-0.6C14.2,12.9,13.5,12.9,13.2,13.2z"/>
	</g>
</g>
</svg>
