<?xml version="1.0" encoding="utf-8"?>
<!-- Generator: Adobe Illustrator 16.0.0, SVG Export Plug-In . SVG Version: 6.00 Build 0)  -->
<!DOCTYPE svg PUBLIC "-//W3C//DTD SVG 1.1//EN" "http://www.w3.org/Graphics/SVG/1.1/DTD/svg11.dtd">
<svg version="1.1" id="Layer_1" xmlns="http://www.w3.org/2000/svg" xmlns:xlink="http://www.w3.org/1999/xlink" x="0px" y="0px"
	 width="128px" height="128px" viewBox="0 0 128 128" enable-background="new 0 0 128 128" xml:space="preserve">
<g>
	<g>
		<path fill="#FFAB00" d="M118.3,66.7c0,31.7-25.7,57.3-57.3,57.3C29.3,124,3.7,98.4,3.7,66.7C3.7,35,29.3,9.4,61,9.4"/>
		<path fill="#37474F" d="M61,126C28.3,126,1.7,99.4,1.7,66.7S28.3,7.4,61,7.4c1.1,0,2,0.9,2,2s-0.9,2-2,2
			c-30.5,0-55.3,24.8-55.3,55.3S30.5,122,61,122s55.3-24.8,55.3-55.3c0-1.1,0.9-2,2-2s2,0.9,2,2C120.3,99.4,93.7,126,61,126z"/>
	</g>
	<g>
		<path fill="#FFFFFF" d="M93.6,66.7c0,18-14.6,32.6-32.6,32.6S28.5,84.7,28.5,66.7S43,34.1,61,34.1"/>
		<path fill="#37474F" d="M61,101.3c-19.1,0-34.6-15.5-34.6-34.6S42,32.1,61,32.1c1.1,0,2,0.9,2,2s-0.9,2-2,2
			c-16.8,0-30.6,13.7-30.6,30.6S44.2,97.3,61,97.3s30.6-13.7,30.6-30.6c0-1.1,0.9-2,2-2s2,0.9,2,2C95.6,85.8,80.1,101.3,61,101.3z"
			/>
	</g>
	<g>
		<path fill="#FFECB3" d="M71.2,66.7c0,5.6-4.6,10.2-10.2,10.2s-10.2-4.6-10.2-10.2c0-5.6,4.6-10.2,10.2-10.2"/>
		<path fill="#37474F" d="M61,78.9c-6.7,0-12.2-5.5-12.2-12.2S54.3,54.5,61,54.5c1.1,0,2,0.9,2,2s-0.9,2-2,2c-4.5,0-8.2,3.7-8.2,8.2
			s3.7,8.2,8.2,8.2s8.2-3.7,8.2-8.2c0-1.1,0.9-2,2-2s2,0.9,2,2C73.2,73.4,67.7,78.9,61,78.9z"/>
	</g>
	<g>
		<line fill="#FFECB3" x1="68.2" y1="59.5" x2="110.5" y2="17.2"/>
		<path fill="#37474F" d="M68.2,61.5c-0.5,0-1-0.2-1.4-0.6c-0.8-0.8-0.8-2,0-2.8l42.3-42.3c0.8-0.8,2-0.8,2.8,0s0.8,2,0,2.8
			L69.6,60.9C69.2,61.3,68.7,61.5,68.2,61.5z"/>
	</g>
	<g>
		<g>
			<line fill="#FFECB3" x1="84" y1="22" x2="84" y2="44"/>
			<path fill="#37474F" d="M84,46c-1.1,0-2-0.9-2-2V22c0-1.1,0.9-2,2-2s2,0.9,2,2v22C86,45.1,85.1,46,84,46z"/>
		</g>
		<g>
			<line fill="#FFECB3" x1="93" y1="13" x2="93" y2="34"/>
			<path fill="#37474F" d="M93,36c-1.1,0-2-0.9-2-2V13c0-1.1,0.9-2,2-2s2,0.9,2,2v21C95,35.1,94.1,36,93,36z"/>
		</g>
		<g>
			<line fill="#FFECB3" x1="102" y1="4" x2="102" y2="25"/>
			<path fill="#37474F" d="M102,27c-1.1,0-2-0.9-2-2V4c0-1.1,0.9-2,2-2s2,0.9,2,2v21C104,26.1,103.1,27,102,27z"/>
		</g>
	</g>
	<g>
		<g>
			<line fill="#FFECB3" x1="106" y1="44" x2="85" y2="44"/>
			<path fill="#37474F" d="M106,46H85c-1.1,0-2-0.9-2-2s0.9-2,2-2h21c1.1,0,2,0.9,2,2S107.1,46,106,46z"/>
		</g>
		<g>
			<line fill="#FFECB3" x1="115" y1="35" x2="94" y2="35"/>
			<path fill="#37474F" d="M115,37H94c-1.1,0-2-0.9-2-2s0.9-2,2-2h21c1.1,0,2,0.9,2,2S116.1,37,115,37z"/>
		</g>
		<g>
			<line fill="#FFECB3" x1="124" y1="26" x2="103" y2="26"/>
			<path fill="#37474F" d="M124,28h-21c-1.1,0-2-0.9-2-2s0.9-2,2-2h21c1.1,0,2,0.9,2,2S125.1,28,124,28z"/>
		</g>
	</g>
	<g>
		<polyline fill="#FFAB00" points="73,66 62,66 62,54 		"/>
		<path fill="#37474F" d="M73,68H62c-1.1,0-2-0.9-2-2V54c0-1.1,0.9-2,2-2s2,0.9,2,2v10h9c1.1,0,2,0.9,2,2S74.1,68,73,68z"/>
	</g>
</g>
</svg>
