<?xml version="1.0" encoding="utf-8"?>
<!-- Generator: Adobe Illustrator 16.0.0, SVG Export Plug-In . SVG Version: 6.00 Build 0)  -->
<!DOCTYPE svg PUBLIC "-//W3C//DTD SVG 1.1//EN" "http://www.w3.org/Graphics/SVG/1.1/DTD/svg11.dtd">
<svg version="1.1" id="Layer_1" xmlns="http://www.w3.org/2000/svg" xmlns:xlink="http://www.w3.org/1999/xlink" x="0px" y="0px"
	 width="65.8px" height="64px" viewBox="0 0 65.8 64" enable-background="new 0 0 65.8 64" xml:space="preserve">
<g>
	<g>
		<polyline fill="#FFECB3" points="10,57 48,57 48,43 25,43 25,35 34,35 		"/>
		<path fill="#37474F" d="M49,58H10c-0.6,0-1-0.4-1-1s0.4-1,1-1h37V44H24V34h10c0.6,0,1,0.4,1,1s-0.4,1-1,1h-8v6h23V58z"/>
	</g>
	<g>
		<polyline fill="#FFAB00" points="57,12 19,12 19,26 42,26 42,35 34,35 		"/>
		<path fill="#37474F" d="M42,36h-8c-0.6,0-1-0.4-1-1s0.4-1,1-1h7v-7H19c-0.6,0-1-0.4-1-1V12c0-0.6,0.4-1,1-1h38c0.6,0,1,0.4,1,1
			s-0.4,1-1,1H20v12h22c0.6,0,1,0.4,1,1v9C43,35.6,42.6,36,42,36z"/>
	</g>
	<g>
		<polygon fill="#FFFFFF" points="2.8,61 9.1,52.2 15.4,61 		"/>
		<path fill="#37474F" d="M17.3,62H0.9l8.2-11.5L17.3,62z M4.8,60h8.6l-4.3-6L4.8,60z"/>
	</g>
	<g>
		<g>
			<polygon fill="#FFAB00" points="45.7,17 55,3.9 64.4,17 			"/>
			<path fill="#37474F" d="M64.4,18C64.4,18,64.4,18,64.4,18H45.7c-0.4,0-0.7-0.2-0.9-0.5s-0.1-0.7,0.1-1l9.3-13.1
				c0.4-0.5,1.3-0.5,1.6,0l9.2,12.9c0.2,0.2,0.3,0.4,0.3,0.7C65.4,17.6,65,18,64.4,18z M47.7,16h14.8L55,5.7L47.7,16z"/>
		</g>
		<g>
			<polygon fill="#37474F" points="51.4,15 55,9.9 58.7,15 			"/>
		</g>
	</g>
	<g>
		<g>
			<path fill="#37474F" d="M19.6,33c-0.4,0-0.7-0.3-0.7-0.7c0-0.4,0.3-0.8,0.7-0.8c0.4,0,0.8,0.3,0.8,0.8C20.3,32.7,20,33,19.6,33z"
				/>
			<path fill="#37474F" d="M19.6,33.5c-0.7,0-1.2-0.6-1.2-1.2c0-0.7,0.6-1.3,1.2-1.3c0.7,0,1.3,0.6,1.3,1.3
				C20.8,32.9,20.2,33.5,19.6,33.5z M19.6,32c-0.1,0-0.2,0.1-0.2,0.3c0,0.3,0.5,0.3,0.5,0C19.8,32.1,19.7,32,19.6,32z"/>
		</g>
		<g>
			<path fill="#37474F" d="M19.6,38.2c-0.4,0-0.7-0.3-0.7-0.8s0.3-0.7,0.7-0.7c0.4,0,0.8,0.3,0.8,0.7S20,38.2,19.6,38.2z"/>
			<path fill="#37474F" d="M19.6,38.7c-0.7,0-1.2-0.6-1.2-1.3c0-0.7,0.6-1.2,1.2-1.2c0.7,0,1.3,0.6,1.3,1.2
				C20.8,38.2,20.2,38.7,19.6,38.7z M19.6,37.2c-0.1,0-0.2,0.1-0.2,0.2c0,0.3,0.5,0.3,0.5,0C19.8,37.4,19.7,37.2,19.6,37.2z"/>
		</g>
		<g>
			<path fill="#37474F" d="M19.6,43.5c-0.4,0-0.7-0.3-0.7-0.7c0-0.4,0.3-0.7,0.7-0.7c0.4,0,0.8,0.3,0.8,0.7
				C20.3,43.1,20,43.5,19.6,43.5z"/>
			<path fill="#37474F" d="M19.6,44c-0.7,0-1.2-0.5-1.2-1.2c0-0.7,0.6-1.2,1.2-1.2c0.7,0,1.3,0.6,1.3,1.2C20.8,43.4,20.3,44,19.6,44
				z M19.6,42.5c-0.1,0-0.2,0.1-0.2,0.2c0,0.3,0.5,0.3,0.5,0C19.8,42.6,19.7,42.5,19.6,42.5z"/>
		</g>
	</g>
</g>
</svg>
